<?xml version="1.0" encoding="UTF-8"?>
<svg width="172px" height="133px" viewBox="0 0 172 133" version="1.1" xmlns="http://www.w3.org/2000/svg" xmlns:xlink="http://www.w3.org/1999/xlink">
    <!-- Generator: Sketch 52.6 (67491) - http://www.bohemiancoding.com/sketch -->
    <title>Group 132</title>
    <desc>Created with Sketch.</desc>
    <g id="Sign-in" stroke="none" stroke-width="1" fill="none" fill-rule="evenodd">
        <g id="Choose-role" transform="translate(-303.000000, -322.000000)">
            <g id="Group" transform="translate(233.000000, 189.000000)">
                <g id="Group-4" transform="translate(0.000000, 97.000000)">
                    <g id="Group-132" transform="translate(69.600000, 36.000000)">
                        <path d="M156.803277,120.840939 C160.405043,117.229837 171.632801,105.97255 171.829517,90.4084567 C171.850654,88.7541642 171.413539,76.9021075 162.960662,68.3047474 C157.576896,62.8289307 153.211375,63.0376418 143.824237,58.4696616 C143.824237,58.4696616 130.659191,51.4444782 119.488644,40.4147207 C104.656583,25.7698692 109.59027,15.1980216 96.4508702,6.27447904 C88.070987,0.583678437 79.2486334,0.254929847 73.4130963,0.0373798266 C50.8874044,-0.802026806 34.5619355,12.7325498 29.2844185,17.1075006 C23.3586963,22.0201964 0.461836522,41.0020772 0.730700736,70.2872183 C0.978709654,97.3338466 20.8211141,115.194903 26.3641134,120.184297 C27.9978722,121.654969 29.6854602,123.044952 31.4153224,124.367074 L152.929265,124.367074 C154.29275,123.234274 155.588033,122.059276 156.803277,120.840939" id="Fill-1" fill="#F4F6F8"></path>
                        <polygon id="Fill-7" fill="#FFFFFF" points="139.229337 20.3542993 19.5393871 10.2494857 19.7299031 16.9593214 139.356441 26.5340885"></polygon>
                        <polygon id="Stroke-9" stroke="#DEE1EE" stroke-width="0.912755214" points="139.229337 20.3542993 19.5393871 10.2494857 19.7299031 16.9593214 139.356441 26.5340885"></polygon>
                        <polygon id="Fill-11" fill="#FFFFFF" points="19.7298467 16.959407 19.5393307 112.489527 140.57332 105.584381 139.356385 26.534174"></polygon>
                        <polygon id="Stroke-13" stroke="#DEE1EE" stroke-width="0.912755214" points="19.7298467 16.959407 19.5393307 112.489527 140.57332 105.584381 139.356385 26.534174"></polygon>
                        <path d="M85.0329623,45.0175716 C85.0329623,52.4946774 79.041856,58.5555697 71.651472,58.5555697 C64.2608062,58.5555697 58.2699817,52.4946774 58.2699817,45.0175716 C58.2699817,37.5407509 64.2608062,31.4795735 71.651472,31.4795735 C79.041856,31.4795735 85.0329623,37.5407509 85.0329623,45.0175716 Z" id="Stroke-15" stroke="#E56744" stroke-width="0.943509563"></path>
                        <polygon id="Stroke-17" stroke="#DEE1EE" stroke-width="0.912755214" points="50.7659364 110.656918 19.8860078 112.319194 19.8860078 17.2355786 50.7659364 19.4405649"></polygon>
                        <polygon id="Fill-19" fill="#03256C" points="27.4303263 39.3068693 30.3452766 36.5482894 33.8889859 36.9665671 27.4303263 29.5695813"></polygon>
                        <polygon id="Stroke-21" stroke="#DEE1EE" stroke-width="0.912755214" points="41.4383492 40.6200103 44.3532994 37.9826084 47.8970087 38.3988902 41.4383492 31.2693512"></polygon>
                        <path d="M25.1441914,43.6509697 L49.434974,45.616048" id="Stroke-23" stroke="#DEE1EE" stroke-width="0.912755214"></path>
                        <path d="M25.1441914,70.3744379 L49.434974,70.5110125" id="Stroke-25" stroke="#DEE1EE" stroke-width="0.912755214"></path>
                        <polygon id="Stroke-27" stroke="#DEE1EE" stroke-width="0.912755214" points="34.403238 54.2778463 27.7160157 53.9279985 27.7160157 47.252948 34.403238 47.7296762"></polygon>
                        <path d="M46.2914891,48.8983731 L40.0616742,54.4101155" id="Stroke-29" stroke="#DEE1EE" stroke-width="0.912755214"></path>
                        <path d="M31.3954535,61.719226 C32.4528733,60.8307779 33.5100113,59.9477472 34.5674312,59.070419 C34.8114945,58.8229309 35.2176091,58.8075342 35.4892916,59.0228032 C35.7784474,59.2520434 35.8342495,59.6771641 35.5963864,59.9602927 C34.5248751,60.920307 33.453082,61.886309 32.3815707,62.8588687 C32.0526771,62.4796531 31.7243471,62.0998672 31.3954535,61.719226 Z" id="Stroke-31" stroke="#DEE1EE" stroke-width="0.912755214"></path>
                        <path d="M32.3599827,62.8371708 C32.3616737,63.0866547 32.3298271,63.6454988 31.9527408,64.1675619 C31.4127577,64.916584 30.5514904,65.0545843 30.1738404,65.1156009 C29.9647238,65.1492456 28.7410253,65.3260228 27.7303889,64.5345171 C27.4623702,64.3238101 27.2825637,64.1025535 27.1732144,63.9485862 C27.3344202,63.9973425 27.6213214,64.0614955 27.9662792,64.009888 C28.5730556,63.9192184 28.9394324,63.53373 29.0377905,63.4225314 C29.3441379,63.0763903 29.2122422,62.9403859 29.5307082,62.569724 C29.879048,62.1657025 30.3082726,62.0131609 30.4522868,61.9641194 C30.7231238,61.8720242 31.0477901,61.761681 31.4169852,61.866892 C32.0632175,62.0505122 32.3261633,62.7436499 32.3599827,62.8371708" id="Fill-33" fill="#DEE1EE"></path>
                        <path d="M32.3599827,62.8371708 C32.3616737,63.0866547 32.3298271,63.6454988 31.9527408,64.1675619 C31.4127577,64.916584 30.5514904,65.0545843 30.1738404,65.1156009 C29.9647238,65.1492456 28.7410253,65.3260228 27.7303889,64.5345171 C27.4623702,64.3238101 27.2825637,64.1025535 27.1732144,63.9485862 C27.3344202,63.9973425 27.6213214,64.0614955 27.9662792,64.009888 C28.5730556,63.9192184 28.9394324,63.53373 29.0377905,63.4225314 C29.3441379,63.0763903 29.2122422,62.9403859 29.5307082,62.569724 C29.879048,62.1657025 30.3082726,62.0131609 30.4522868,61.9641194 C30.7231238,61.8720242 31.0477901,61.761681 31.4169852,61.866892 C32.0632175,62.0505122 32.3261633,62.7436499 32.3599827,62.8371708 Z" id="Stroke-35" stroke="#DEE1EE" stroke-width="0.943509563" stroke-linejoin="round"></path>
                        <polygon id="Stroke-37" stroke="#DEE1EE" stroke-width="0.912755214" points="41.2975759 63.3472586 44.5126734 60.7055797 46.0342644 62.1160908 43.0122194 64.7321084"></polygon>
                        <path d="M41.2547662,63.3258172 C41.1332982,64.0708476 41.0118302,64.8161631 40.8903622,65.5623341 C41.604797,65.2914657 42.3192318,65.0214528 43.0336665,64.7528655 C42.4406998,64.2789885 41.847733,63.8031157 41.2547662,63.3258172" id="Fill-39" fill="#DEE1EE"></path>
                        <path d="M41.2547662,63.3258172 C41.1332982,64.0708476 41.0118302,64.8161631 40.8903622,65.5623341 C41.604797,65.2914657 42.3192318,65.0214528 43.0336665,64.7528655 C42.4406998,64.2789885 41.847733,63.8031157 41.2547662,63.3258172 Z" id="Stroke-41" stroke="#DEE1EE" stroke-width="0.943509563" stroke-linejoin="round"></path>
                        <path d="M44.5340641,60.5246967 C45.0413551,60.9729125 45.5486461,61.4197027 46.0556552,61.8653523 C46.1917783,61.839406 46.4209047,61.7786744 46.6559495,61.6232816 C46.8802849,61.4750168 47.0133078,61.3039421 47.0846104,61.1958799 C47.0355723,61.0122597 46.9017038,60.6128002 46.5274358,60.2335846 C46.1514768,59.8523731 45.7338073,59.6944141 45.5413185,59.6336826 C45.3967406,59.6812984 45.1521136,59.7822324 44.9198871,59.9935097 C44.7056976,60.1885349 44.5921208,60.39468 44.5340641,60.5246967" id="Fill-43" fill="#DEE1EE"></path>
                        <path d="M44.5340641,60.5246967 C45.0413551,60.9729125 45.5486461,61.4197027 46.0556552,61.8653523 C46.1917783,61.839406 46.4209047,61.7786744 46.6559495,61.6232816 C46.8802849,61.4750168 47.0133078,61.3039421 47.0846104,61.1958799 C47.0355723,61.0122597 46.9017038,60.6128002 46.5274358,60.2335846 C46.1514768,59.8523731 45.7338073,59.6944141 45.5413185,59.6336826 C45.3967406,59.6812984 45.1521136,59.7822324 44.9198871,59.9935097 C44.7056976,60.1885349 44.5921208,60.39468 44.5340641,60.5246967 Z" id="Stroke-45" stroke="#DEE1EE" stroke-width="0.943509563" stroke-linejoin="round"></path>
                        <polygon id="Fill-47" fill="#03256C" points="46.2345316 94.6105936 33.8887604 95.4328928 33.8887604 83.4282945 46.2345316 83.0339672"></polygon>
                        <polygon id="Stroke-49" stroke="#DEE1EE" stroke-width="0.912755214" points="34.403238 107.163315 27.1732144 107.890953 27.1732144 101.205638 34.403238 100.615145"></polygon>
                        <polygon id="Stroke-51" stroke="#DEE1EE" stroke-width="0.912755214" points="41.6333462 106.435592 34.4033225 107.16323 34.4033225 100.61506 41.6333462 100.024282"></polygon>
                        <polygon id="Stroke-53" stroke="#DEE1EE" stroke-width="0.912755214" points="48.8635953 105.70804 41.6332898 106.435678 41.6332898 100.024367 48.8635953 99.4335892"></polygon>
                        <polygon id="Fill-55" fill="#CED1DB" points="40.0616742 89.1265368 27.7161848 89.7347075 27.7161848 77.5162657 40.0616742 77.336067"></polygon>
                        <path d="M139.61671,127.105724 C139.616428,127.105439 139.615582,127.104583 139.615301,127.104298 C137.876138,128.225123 136.484752,128.431553 135.643212,128.450656 C134.720506,128.47147 133.174678,128.294693 133.083929,128.284999 C132.789982,128.25335 132.554374,128.225693 132.357658,128.201172 L135.338838,126.134875 C135.45016,126.057606 135.503144,125.918465 135.471579,125.785597 L134.43896,121.452845 L134.498426,121.392683 C135.914895,121.414068 137.331364,121.435167 138.747833,121.456551 C139.204113,122.660347 139.487351,125.495911 139.61671,127.105724" id="Fill-57" fill="#FFC17C"></path>
                        <path d="M137.090288,129.206578 L139.700582,128.274506 C139.700582,128.274506 139.673245,127.805191 139.616597,127.105781 C139.873343,127.327323 140.368515,127.820018 140.618497,128.616371 C140.713755,128.920598 140.978391,129.764282 140.57735,130.646172 C140.368515,131.105508 140.059067,131.398901 139.860942,131.557715 C138.865243,131.747038 138.09106,131.698852 137.567705,131.619872 C136.994466,131.533195 136.760549,131.415438 136.134608,131.371244 C135.380436,131.318211 134.836789,131.427128 134.33288,131.516372 C133.808115,131.609038 132.966012,131.709116 131.28237,131.909559 C128.728442,132.213787 128.039372,132.114849 127.597183,131.661215 C127.52588,131.588224 127.286326,131.335888 127.228552,130.956958 C127.098911,130.107002 127.997097,129.366533 128.354456,129.072 C129.467959,128.154469 130.746051,128.074349 131.098054,128.057241 C131.447521,128.040134 131.392283,128.080336 132.357545,128.201229 L131.623946,128.709606 L137.090288,129.206578 Z" id="Fill-59" fill="#020C1F"></path>
                        <path d="M135.643325,128.450599 C136.484864,128.431781 137.876251,128.225066 139.615132,127.104241 C139.615695,127.104526 139.616259,127.105382 139.616822,127.105667 C139.673188,127.805362 139.700525,128.274677 139.700525,128.274677 L137.090232,129.206464 L131.62389,128.709492 L132.357489,128.201115 C132.554487,128.225636 132.790095,128.253293 133.084042,128.284942 C133.174509,128.294636 134.720619,128.471413 135.643325,128.450599" id="Fill-61" fill="#0B113A"></path>
                        <path d="M154.42411,127.105724 C154.423829,127.105439 154.422983,127.104583 154.422701,127.104298 C152.683539,128.225123 151.292152,128.431553 150.450613,128.450656 C149.527907,128.47147 147.982079,128.294693 147.89133,128.284999 C147.597383,128.25335 147.361775,128.225693 147.165058,128.201172 L150.146238,126.134875 C150.257561,126.057606 150.310544,125.918465 150.278698,125.785597 L149.246361,121.452845 L149.305826,121.392683 C150.722295,121.414068 152.138765,121.435167 153.555234,121.456551 C154.011514,122.660347 154.294751,125.495911 154.42411,127.105724" id="Fill-63" fill="#FFC17C"></path>
                        <path d="M151.897717,129.206578 L154.508011,128.274506 C154.508011,128.274506 154.480673,127.805191 154.424026,127.105781 C154.68049,127.327323 155.175944,127.820018 155.425926,128.616371 C155.521184,128.920598 155.78582,129.764282 155.384779,130.646172 C155.175944,131.105508 154.866496,131.398901 154.668371,131.557715 C153.672672,131.747038 152.898489,131.698852 152.375134,131.619872 C151.801895,131.533195 151.567978,131.415438 150.942037,131.371244 C150.187864,131.318211 149.644218,131.427128 149.140309,131.516372 C148.615544,131.609038 147.773441,131.709116 146.089799,131.909559 C143.535871,132.213787 142.846519,132.114849 142.40433,131.661215 C142.333309,131.588224 142.093755,131.335888 142.03598,130.956958 C141.906339,130.107002 142.804526,129.366533 143.161885,129.072 C144.275388,128.154469 145.55348,128.074349 145.905483,128.057241 C146.25495,128.040134 146.199712,128.080336 147.164974,128.201229 L146.431375,128.709606 L151.897717,129.206578 Z" id="Fill-65" fill="#020C1F"></path>
                        <path d="M150.450585,128.450599 C151.292124,128.431781 152.683511,128.225066 154.422673,127.104241 C154.422955,127.104526 154.4238,127.105382 154.424082,127.105667 C154.480448,127.805362 154.508067,128.274677 154.508067,128.274677 L151.897773,129.206464 L146.431149,128.709492 L147.16503,128.201115 C147.361746,128.225636 147.597355,128.253293 147.891302,128.284942 C147.982051,128.294636 149.528161,128.471413 150.450585,128.450599" id="Fill-67" fill="#0B113A"></path>
                        <path d="M145.960722,67.5611996 C145.958749,68.4140071 145.913093,69.70277 145.680584,71.2452937 C145.110164,75.0328881 144.004269,76.4414033 142.785926,80.5030023 C141.809672,83.7576989 141.472324,86.3466296 141.292235,87.7765292 C140.888375,90.9830397 140.616411,93.1428581 141.105383,95.9005826 C141.290544,96.945564 141.53348,97.783545 141.758943,99.5846767 C141.841237,100.240463 142.027526,101.873086 142.03908,103.835598 C142.050072,105.658114 141.901548,106.34555 141.385521,110.731335 C140.763807,116.015263 140.737034,117.071079 140.171686,119.516592 C139.861957,120.855822 139.546873,121.93673 139.331274,122.633859 C137.588166,122.697157 135.84534,122.759884 134.102513,122.822897 C133.12006,118.907566 132.433808,115.531977 131.954981,112.903984 C131.543794,110.650075 131.531675,110.297376 130.180872,100.718332 C129.110488,93.1283167 129.001703,92.5232825 129.060323,90.8937957 C129.228011,86.2345757 130.434236,82.4062086 130.834432,81.163921 C131.531112,79.0012514 132.34475,77.1775948 133.915661,72.2842875 C134.194671,71.4155131 134.418725,70.6947183 134.569221,70.2062999 C138.366576,69.3246949 142.163649,68.4428047 145.960722,67.5611996" id="Fill-69" fill="#415F9E"></path>
                        <path d="M144.653574,72.7567959 C145.029251,72.8534531 144.857617,73.936071 145.026996,76.3465138 C145.387736,81.4756191 146.785887,85.3980773 147.734803,88.06 C148.390899,89.9004789 148.262103,89.1768328 150.349324,94.1057807 C152.367778,98.8719224 153.377005,101.255278 153.990828,103.363204 C154.746409,105.957552 155.7624,109.554683 155.578085,114.226734 C155.433789,117.888874 154.605777,120.850177 153.897261,122.822954 C152.341286,122.791305 150.78503,122.759941 149.228774,122.728577 C148.925245,121.92253 148.469811,120.709325 147.921655,119.233236 C146.245622,114.720855 145.408592,112.344627 144.093299,108.747781 C141.243733,100.954187 141.476805,101.998883 141.105355,100.718104 C140.321027,98.0139827 138.546354,91.6451559 139.891521,84.0924921 C140.953168,78.1322488 143.763278,72.5278409 144.653574,72.7567959" id="Fill-71" fill="#415F9E"></path>
                        <path d="M114.28009,66.9653464 C116.402821,66.2060597 117.844655,65.6110048 118.700568,65.2414834 C118.98296,65.1194501 119.322845,64.9637721 119.758833,64.7376684 C120.363355,64.4237463 121.219831,63.9093816 122.186502,63.0688345 C122.528923,64.8320446 122.871345,66.5955398 123.213766,68.35875 C122.95843,68.3795641 122.579934,68.4152046 122.123372,68.4767915 C121.1257,68.6110852 120.386465,68.7887178 118.948576,69.1379953 C117.695568,69.4425083 116.793999,69.6623393 116.427622,69.7518684 L114.28009,66.9653464 Z" id="Fill-73" fill="#FFC17C"></path>
                        <path d="M136.07238,96.5556562 C135.520561,97.0375167 134.837409,96.9750744 134.580945,96.9516942 C134.159048,96.9132024 133.836355,96.7646525 133.648939,96.6597267 C127.038937,89.0942322 121.444082,83.8410978 117.426337,80.3551652 L117.425492,80.3543098 C115.161565,78.1850824 112.89792,76.0158549 110.633993,73.8466274 C107.870666,71.0626715 105.075775,68.0950953 102.275811,64.9344898 C101.181471,63.6993303 100.117006,62.469018 99.0815684,61.2455486 C97.7919221,60.2618689 96.5025575,59.2784744 95.213193,58.2950799 C94.5579421,55.252516 93.9026913,52.2099521 93.2471586,49.1676733 C96.1840915,50.0834933 99.1207426,50.9995984 102.057394,51.9154184 C102.500991,52.7668003 103.241354,54.089493 104.32132,55.591529 C105.894486,57.7790045 107.354075,59.1863792 107.798518,59.62319 C111.5815,63.3400734 117.817515,71.3934159 125.12786,80.8341744 C126.593367,82.7268311 128.973971,85.8326927 132.502461,89.8806057 C133.896948,91.4807246 135.067944,92.7652106 135.831417,93.5923569 C135.893138,93.6399727 136.765114,94.3376724 136.657738,95.3892117 C136.643083,95.5320591 136.565298,96.1251182 136.07238,96.5556562" id="Fill-75" fill="#03256C"></path>
                        <path d="M96.0066524,57.587971 C95.3671839,56.9344656 94.2700263,55.980724 92.6695233,55.2949995 C91.5410827,54.8114283 90.516355,54.6126965 89.7554185,54.5285848 C88.3090756,50.1929811 86.8624508,45.8570923 85.4161079,41.5217737 C89.7449909,43.0588801 94.0738738,44.5962716 98.4027567,46.133378 C98.517179,46.9080613 98.7381324,47.8928815 99.182012,48.9726481 C99.7752606,50.417089 100.542115,51.4845952 101.139592,52.1897082 C99.4286118,53.9891292 97.7176321,55.7885501 96.0066524,57.587971" id="Fill-77" fill="#FFC857"></path>
                        <path d="M103.8545,50.764057 C104.392228,51.3308846 104.373628,52.2310228 103.813635,52.7747552 L96.0912573,60.2715347 C95.5312644,60.8152672 94.6415324,60.7970192 94.103804,60.2301916 C93.5663574,59.6636492 93.584958,58.7632259 94.1449509,58.2194934 L101.867047,50.7224288 C102.427321,50.1789815 103.317053,50.1975146 103.8545,50.764057" id="Fill-79" fill="#FFFFFF"></path>
                        <path d="M98.2450456,54.7230967 L93.0546135,49.2507015" id="Stroke-81" stroke="#FFFFFF" stroke-width="1.18502995"></path>
                        <path d="M91.5788759,47.694948 C92.0799666,47.2082404 92.8761316,47.2250628 93.3572126,47.7320142 C93.8380117,48.2389656 93.8216656,49.0444424 93.3202931,49.5308649 C92.8192023,50.0175725 92.0230373,50.0010353 91.5422382,49.4940838 C91.0611573,48.9868473 91.0777852,48.1813705 91.5788759,47.694948 Z" id="Stroke-83" stroke="#FFFFFF" stroke-width="0.974828212"></path>
                        <path d="M127.041897,69.4294211 L129.500849,75.4752018 C129.361344,75.5909623 129.158709,75.7563346 128.909291,75.947368 C128.145254,76.5330138 126.90831,77.387532 124.614228,78.4347944 C122.862946,79.2345688 121.987306,79.6345985 120.723869,79.9465247 C119.511444,80.2456204 118.317901,80.3032155 115.930533,80.418691 C114.739809,80.4762861 114.236745,80.4597489 113.627432,80.2296534 C113.313194,80.1113267 112.111196,79.6360241 111.448618,78.3090545 C110.903844,77.218168 111.04053,76.1860172 111.106478,75.8213429 C111.574313,76.1264262 111.986346,76.3396994 112.28903,76.4828319 C113.134233,76.8817211 113.688589,76.9952007 114.156424,77.0180106 C114.738118,77.046238 114.93117,76.9222088 115.028119,76.7976094 C115.131268,76.6644562 115.169033,76.473993 115.136905,76.3094762 C115.095476,76.0979137 114.946389,75.9721738 114.810266,75.8529918 C114.362441,75.4603753 114.079767,75.2123169 113.876569,74.924056 C113.75341,74.7495598 113.527102,74.4168195 113.533865,73.9637566 C113.538375,73.6752106 113.635605,73.4488217 113.705217,73.3182346 C113.812875,73.4012059 113.975209,73.5266607 114.171925,73.6803428 C114.804066,74.173038 114.937089,74.2879432 115.292474,74.5619479 C115.739736,74.9069486 116.003809,75.1105275 116.381741,75.3648586 C116.867331,75.6916113 116.932433,75.6921815 117.486789,76.073393 C117.89685,76.3553812 118.165996,76.5643775 118.404986,76.9079526 C118.517717,77.0696182 118.59212,77.2161722 118.63834,77.3171063 C118.808282,77.2398375 119.0391,77.1294943 119.307682,76.9863618 C119.604729,76.8281177 119.892476,76.6587537 120.334665,76.3724887 C120.97216,75.9599135 121.322755,75.7329543 121.750852,75.3965074 C121.912621,75.2690567 122.377074,74.8969692 123.057972,74.1998397 C123.532007,73.7142726 124.300834,72.9199157 125.096718,71.7594588 C126.1206,70.2662616 126.581953,69.0524865 126.886327,69.1460073 C126.981867,69.1753751 127.022732,69.321644 127.041897,69.4294211" id="Fill-85" fill="#FFC17C"></path>
                        <path d="M110.670687,75.1916454 C109.978235,74.975521 109.475735,74.6749998 109.153323,74.4477555 C108.233999,73.7993823 107.736572,73.0104427 107.355822,72.3931481 C107.032565,71.8688041 106.817248,71.3989188 106.678871,71.0587653 C106.67718,71.0074429 106.679153,70.93217 106.702262,70.8463475 C106.75271,70.6584504 106.86065,70.5771899 107.052575,70.362206 C107.172634,70.2273421 107.301429,70.082784 107.437553,69.8780646 C107.540702,69.7232419 107.590867,69.6197417 107.729245,69.5119647 C107.808157,69.450948 107.916943,69.3665511 108.021219,69.3939231 C108.179325,69.4355513 108.229208,69.7092708 108.243018,69.7836883 C108.291492,70.0494244 108.228645,70.2732472 108.009664,70.8346574 C107.927934,71.0436537 107.822812,71.3039724 107.694298,71.6022126 C108.265,71.2381086 108.671397,70.8791368 108.943361,70.6102644 C109.285783,70.2709662 109.660051,69.9655978 110.017127,69.6419815 C110.151277,69.5202333 110.374485,69.3175097 110.705634,69.2758815 C110.783418,69.2661873 110.97788,69.2439476 111.172623,69.3349023 C111.350739,69.4181587 111.521245,69.5923698 111.697669,70.1261229 C111.911577,70.7722151 111.928487,71.3227906 111.931305,71.5195265 C111.941451,72.3061851 111.794055,72.889835 111.674559,73.3497409 C111.393858,74.4275117 111.065247,74.8090083 110.938988,74.9435871 C110.835275,75.0547856 110.739171,75.1371866 110.670687,75.1916454" id="Fill-87" fill="#FFC17C"></path>
                        <path d="M121.335578,58.3399831 C122.190081,58.3670969 123.258774,58.3338209 124.46359,58.1358899 C126.081003,57.8701742 127.37544,57.4013513 128.291946,56.9924254 C127.902741,60.9941813 127.513818,64.9956908 127.124895,68.9972002 C126.742736,69.1963637 126.226145,69.4174647 125.58414,69.5688092 C124.396797,69.8488212 123.375451,69.7507184 122.782766,69.6503972 C122.300558,65.8803414 121.818068,62.110039 121.335578,58.3399831" id="Fill-89" fill="#FFFFFF"></path>
                        <path d="M124.743671,65.3364584 C124.557665,64.5178659 125.056219,64.2401546 126.004289,62.0301543 C126.672222,60.4725189 127.45176,58.3149816 128.011752,54.0478078 C128.760852,48.3396146 128.052054,43.5033322 128.500161,43.4554313 C128.577382,43.4471627 128.60021,43.5911506 128.838637,43.8451965 C129.484587,44.5329169 130.406448,44.6347064 130.740978,44.6714874 C132.062753,44.8177563 132.406583,44.0895483 133.495568,44.0576143 C134.568488,44.0259655 135.369726,44.7210991 136.9288,46.112792 C138.555232,47.5646461 139.552058,48.9497811 140.33695,50.0332543 C141.027148,50.9864257 141.829231,52.0938493 142.624551,53.7173485 C143.828239,56.1742666 143.605595,56.9321276 144.865368,58.7238502 C145.17397,59.1626568 145.608267,59.7155133 146.125986,60.660416 C146.583393,61.4949755 146.902423,62.0771998 147.106466,62.9274412 C147.419296,64.2330264 147.229062,65.3304708 147.059683,66.1864146 C146.935678,66.814544 146.687106,67.7329301 146.147405,68.7599487 C145.848667,68.7784818 145.391259,68.8232463 144.840285,68.9489863 C144.501245,69.026255 144.367095,69.0795733 144.093158,69.1380238 C143.493991,69.2657596 143.008683,69.2515034 142.599186,69.2324001 C139.994247,69.1115073 139.169899,68.9732219 139.169899,68.9732219 C133.901401,68.089906 125.265335,67.6308555 124.743671,65.3364584" id="Fill-91" fill="#FFFFFF"></path>
                        <path d="M135.559368,45.1996806 C135.643353,45.2430196 135.701692,45.2843626 135.748193,45.3140156 C136.319178,45.6804006 137.507366,46.6455472 139.916716,50.1118061 C142.642841,54.033409 144.099048,56.1287892 144.896622,59.4322421 C145.385876,61.4591924 146.189651,64.7891619 144.5232,66.6116779 C143.917551,67.2737371 143.570902,67.0975301 141.535256,68.6269381 C140.529974,69.3819479 139.645879,70.0537013 138.749383,71.0986827 C137.499756,72.555384 137.898825,72.7874753 136.788704,74.0745275 C135.238084,75.8716674 133.386754,76.662888 132.680492,76.9554258 C131.80767,77.3172488 131.03856,77.5091376 130.486177,77.6166296 C128.712068,73.2870135 126.937958,68.9573974 125.163849,64.6280665 C126.865247,63.6030438 128.316381,62.9344268 129.365627,62.5024631 C130.570162,62.0063464 131.376191,61.7685525 132.02665,60.9436872 C132.710648,60.0769087 132.822815,59.0692785 132.867062,58.2042107 C133.186374,51.9922024 130.456867,46.8542583 130.439393,46.821469 C130.420511,46.7795557 131.372809,46.2988357 131.736931,46.1200626 C133.525413,45.2430196 134.629617,44.7203863 135.559368,45.1996806" id="Fill-93" fill="#FFFFFF"></path>
                        <path d="M127.146229,44.9550723 C126.717287,45.0477378 126.067391,45.2128249 125.185268,45.1441099 C124.349365,45.0788163 124.215215,44.8749523 123.551509,44.9077416 C122.477743,44.9610599 122.117567,45.5298834 121.637331,45.3328623 C121.345921,45.2133951 120.999836,44.8082332 120.936988,43.3962965 C121.274618,42.78613 121.315765,42.3068356 121.296037,41.9914879 C121.255172,41.3328502 120.915851,41.2108169 120.90486,40.4176004 C120.900068,40.0902775 120.893305,39.5995781 121.184997,39.1208541 C121.281946,38.9614694 121.394395,38.8465642 121.616758,38.6156134 C121.923951,38.2962739 122.201833,38.0573395 122.400522,37.8973847 C123.864621,36.4235759 124.353311,35.1852801 124.521281,34.3079519 C124.571164,34.0462076 124.614002,33.7445458 124.738007,33.1283917 C125.01448,31.7512402 125.152858,31.0626644 125.566018,30.4724566 C126.244379,29.5033183 127.27418,29.156892 127.765688,28.9915198 C128.117128,28.8734782 128.754906,28.666763 129.546843,28.7939285 C129.676766,28.8150277 129.782733,28.8401187 129.8546,28.859222 C129.964794,28.7930731 130.126564,28.7046845 130.330889,28.6231389 C130.731649,28.4628989 131.3869,28.2921093 132.748413,28.5227751 C133.604889,28.6676183 134.60397,28.8369823 135.759466,29.5215663 C135.969147,29.6455955 136.970201,30.2526256 137.899671,31.4242023 C138.418798,32.0785631 138.867469,32.6442502 139.062213,33.5144503 C139.160571,33.953257 139.16818,34.4231422 139.183399,35.3620573 C139.198336,36.2730302 139.141688,36.5937953 139.330231,37.1244121 C139.511729,37.6356403 139.795812,37.9886245 139.930526,38.1537116 C140.343404,38.6586672 140.548575,38.6446961 141.073339,39.1650484 C141.35855,39.4478919 141.752264,39.8379423 142.001118,40.4204517 C142.124841,40.7101382 142.326348,41.3134617 142.201498,42.1696907 C142.190789,42.577989 142.118359,43.312755 141.712244,44.1048309 C141.216226,45.0728287 140.50461,45.5757884 140.171489,45.8053137 C139.785384,46.07162 138.527866,46.9378283 137.183827,46.6869187 C136.048904,46.4750712 136.057359,45.6918341 134.880444,44.986436 C132.793505,43.7355947 129.753423,44.3919513 127.146229,44.9550723" id="Fill-95" fill="#020C1F"></path>
                        <path d="M133.697751,45.2385146 C133.754963,45.1022251 133.674642,45.0047125 133.562756,44.6953524 C133.296992,43.9591608 133.303755,43.288833 133.198633,42.8585801 C133.165941,42.7254269 133.135504,42.6125176 133.099712,42.4796496 C133.083929,42.4214842 132.996844,42.102715 132.969507,41.7152307 C132.944143,41.3579697 132.975707,41.0848204 132.995435,40.9242953 C133.186515,39.3683707 133.281773,38.5902658 133.65125,38.1009921 C133.944069,37.713793 134.092593,37.7616939 134.318337,37.3513997 C134.419796,37.1672092 134.739107,36.5861254 134.532809,35.9160828 C134.494762,35.792909 134.349057,35.3432676 133.907432,35.0726844 C133.264018,34.6780721 132.540846,34.9974115 132.37034,35.0726844 C131.822184,35.31447 131.535283,35.7481444 131.423679,35.9423142 C131.346176,35.8533554 131.241336,35.7182064 131.145514,35.5382928 C131.091685,35.4367884 130.933297,35.1111762 130.885105,34.220162 C130.872704,33.993488 130.864813,33.6778552 130.885105,33.2977842 C130.621877,33.0591349 130.247891,32.6611011 129.94718,32.0763107 C129.565021,31.3332761 129.485545,30.6472665 129.469481,30.2575013 C128.9729,30.2991294 128.158416,30.4550926 127.445954,31.0572756 C126.411362,31.9314674 126.11206,33.3057677 126.108397,33.956707 C126.106142,34.3319309 126.064995,34.7065845 126.073732,35.0812381 C126.080214,35.37178 126.097124,35.5602474 126.00412,35.8017478 C125.902662,36.0657732 125.734411,36.2265834 125.587296,36.3640134 C125.452019,36.4906087 125.209083,36.6870595 124.841015,36.8333284 C124.742939,36.8721054 124.694464,36.9841593 124.736738,37.081957 C124.765203,37.148391 124.797895,37.223949 124.833969,37.3066351 C125.01293,37.716074 125.051541,37.7862146 125.094378,37.9128099 C125.149053,38.073335 125.159199,38.1734137 125.198655,38.6837867 C125.264039,39.527185 125.266294,39.64152 125.302931,39.9226528 C125.348588,40.2767774 125.373107,40.4584018 125.452864,40.6936295 C125.541076,40.9553738 125.642534,41.2450604 125.902098,41.4780071 C125.964946,41.5341766 126.129534,41.670181 126.551431,41.7942102 C126.951345,41.9119666 127.280521,41.9262229 127.793166,41.9347766 C128.045966,41.9390535 128.252828,41.9322105 128.388106,41.9259377 C128.425025,42.1064216 128.463918,42.3387981 128.488155,42.6113771 C128.499146,42.7365468 128.503374,42.8323486 128.503937,42.9153199 C128.507038,43.2460643 128.500274,43.4807218 128.49661,43.5779493 C128.468991,44.3315335 128.786611,44.6907904 128.595532,44.8741254 C128.590177,44.8792577 128.58454,44.8838197 128.58454,44.8838197 C128.57214,44.893799 128.565376,44.8963652 128.565094,44.8975057 C128.562558,44.9063445 128.986709,45.0933862 129.900679,45.3015271 C130.35865,45.4055976 131.418324,45.6242881 132.733053,45.5532921 C133.238935,45.5259201 133.602493,45.4657589 133.697751,45.2385146" id="Fill-97" fill="#FFC17C"></path>
                        <path d="M134.830842,36.2220214 C134.60848,36.2830381 134.438819,37.3613791 134.121762,37.6379499 C134.013822,37.7323261 133.888408,37.8309792 133.888408,37.8309792 C133.741012,37.9464546 133.628844,38.0237234 133.612217,38.0354135 C133.440019,38.1568765 132.709802,38.8753903 132.475603,40.0572315 C132.298897,40.9476755 132.512241,41.5672511 132.53225,41.628838 C132.621308,41.9011319 132.696556,41.9213758 132.740522,42.1081323 C132.807033,42.3886949 132.278041,43.2640272 132.079352,43.6640569 C131.61349,44.6015464 131.777514,45.8555241 132.172638,46.0257434 C132.486594,46.1608925 132.738831,45.5224986 133.697611,45.3015271 C133.869244,45.2618948 134.4081,45.1444235 135.005012,45.3328908 C135.6938,45.5504408 135.800895,45.9672929 136.063277,45.9310821 C136.667235,45.8478257 137.120415,43.4981144 136.810122,41.0506054 C136.446,38.1779757 135.169882,36.1287857 134.830842,36.2220214" id="Fill-99" fill="#0B113A"></path>
                        <polygon id="Fill-101" fill="#CFCCE0" points="87.0620698 51.2862911 81.9559044 31.4453301 82.3758286 31.3344166 87.481994 51.1756628"></polygon>
                        <path d="M76.2768947,45.6474117 C75.3770169,45.5510396 74.9545563,45.2068943 74.9111547,45.169543 L75.1924194,44.8350919 L75.051787,45.0021749 L75.1910102,44.8339514 C75.2166566,44.8553357 77.8728885,46.9284762 84.858567,41.2140103 C92.1745482,35.2292463 94.4145197,37.1461385 94.5061139,37.2305354 L94.2141398,37.5555774 C94.1963846,37.5398955 92.0854905,35.8664996 85.1313768,41.5553044 C80.5719583,45.2853035 77.768612,45.8070814 76.2768947,45.6474117" id="Fill-103" fill="#E56744"></path>
                        <polygon id="Fill-105" fill="#E56744" points="73.678804 44.8552502 75.3658283 43.4752474 76.7298774 45.1820029 75.0428531 46.5620057"></polygon>
                        <polygon id="Fill-107" fill="#E56744" points="92.5293701 37.1969762 94.2163944 35.8169735 95.5807253 37.523729 93.8934191 38.9037317"></polygon>
                        <path d="M83.7718933,40.8761662 C83.9672004,40.303351 84.5846862,39.998838 85.1511611,40.1967145 C85.717636,40.3943058 86.0183468,41.0190136 85.822758,41.5921139 C85.627451,42.1649291 85.0099651,42.469157 84.443772,42.2715657 C83.8772971,42.0739744 83.5765863,41.4492665 83.7718933,40.8761662" id="Fill-109" fill="#CFCCE0"></path>
                        <path d="M86.2461487,50.8730601 C86.4414557,50.3002449 87.0589415,49.9957319 87.6254165,50.1936084 C88.1918914,50.3911997 88.4926022,51.0159075 88.2972952,51.5890078 C88.1017063,52.1621082 87.4842205,52.4660509 86.9180274,52.2684596 C86.3515525,52.0708683 86.0508416,51.4461605 86.2461487,50.8730601" id="Fill-111" fill="#CFCCE0"></path>
                        <path d="M81.1402087,31.031985 C81.3355157,30.4588847 81.9530016,30.1546568 82.5194765,30.3522481 C83.0856696,30.5501246 83.3866622,31.1745473 83.1910734,31.7476476 C82.9957663,32.3207479 82.3782805,32.6249758 81.8118056,32.4273845 C81.2456125,32.2297932 80.9449017,31.6048002 81.1402087,31.031985" id="Fill-113" fill="#CFCCE0"></path>
                        <path d="M24.254005,11.5814872 C23.2002408,11.8017294 22.3338295,12.9611522 22.5393994,14.1855617 C22.723434,15.2827598 23.7032304,16.1355862 24.8495209,16.0956796 C26.0548206,16.053852 26.9637436,15.0311934 27.0206637,13.993583 C27.0713142,13.0724043 26.4349697,12.4154771 26.1834306,12.1919927 C25.9992289,12.0284794 25.2141447,11.3807568 24.254005,11.5814872" id="Fill-115" fill="#CED1DB" transform="translate(24.766262, 13.820154) rotate(4.000000) translate(-24.766262, -13.820154) "></path>
                        <path d="M29.9025952,12.130986 C31.0925323,11.9380676 31.9425054,12.9725999 32.0652428,13.1271912 C32.2083516,13.3074646 32.9513973,14.2439882 32.5477251,15.3121484 C32.1458317,16.3765714 30.9676257,16.6133597 30.9037663,16.6250341 C29.9494376,16.8004015 29.0204084,16.3146036 28.5349855,15.5788592 C28.0238398,14.8039715 28.0270413,13.786408 28.5268399,13.0480245 C28.6478488,12.8686599 29.099127,12.2613366 29.9025952,12.130986" id="Fill-117" fill="#CED1DB" transform="translate(30.409155, 14.384023) rotate(4.000000) translate(-30.409155, -14.384023) "></path>
                        <path d="M35.8439141,12.6849243 C36.8705769,12.6276257 37.5321044,13.3687088 37.6599308,13.5115835 C37.7797053,13.6458906 38.4782221,14.4285508 38.2711536,15.4783714 C38.0964239,16.3642598 37.3507765,17.0664561 36.4634724,17.2092155 C35.3875941,17.3823333 34.6249855,16.648744 34.5167943,16.5413915 C33.9660243,15.9932902 33.5802256,15.0551796 33.9259172,14.1217965 C34.225416,13.3130491 34.9902476,12.7325063 35.8439141,12.6849243" id="Fill-119" fill="#CED1DB" transform="translate(36.051960, 14.958653) rotate(4.000000) translate(-36.051960, -14.958653) "></path>
                        <path d="M79.6220841,97.4988767 C79.5753006,96.9086689 79.9918429,96.3863207 80.5721274,96.3062007 C83.9698495,95.8377411 86.3202977,95.7234062 93.1236333,95.9118735 C97.0216007,96.0196506 103.35541,95.6441416 103.587637,96.7857802 C103.609619,96.8941275 103.61892,97.224872 103.733342,97.7942657 C103.837055,98.3092006 103.965287,98.7157882 104.051526,98.9644168 C104.005588,99.9518031 103.937949,101.34036 103.849174,103.002065 C103.61582,107.359338 103.552408,107.639901 103.386411,110.667353 C103.386411,110.667353 103.104865,115.801591 102.345338,120.556328 C102.204142,121.438788 101.891594,123.237354 100.494571,124.184252 C100.117767,124.439724 99.7570264,124.568885 99.5154995,124.637885 C98.8997046,124.938407 98.3941046,124.87796 97.5063454,125.016531 C94.5787129,125.473015 93.9761639,125.367804 90.0641051,125.348986 C87.5876796,125.337296 85.2752783,125.204143 83.1514201,124.998283 C82.3203084,124.917878 81.6520935,124.276633 81.5323164,123.440933 C80.7522157,117.994484 80.0679365,103.117826 79.6220841,97.4988767" id="Fill-121" fill="#D3D7DE"></path>
                        <path d="M90.9709159,107.134062 C89.8334568,107.134062 88.9031415,106.19258 88.9031415,105.041818 C88.9031415,103.891055 89.8334568,102.949574 90.9709159,102.949574 C92.1083749,102.949574 93.038972,103.891055 93.038972,105.041818 C93.038972,106.19258 92.1083749,107.134062 90.9709159,107.134062" id="Fill-123" fill="#E56744"></path>
                        <path d="M82.3597362,96.0917586 C82.3470539,96.1630397 82.3363444,96.2405936 82.3292987,96.3244202 C82.3245076,96.383441 82.3219712,96.4398956 82.3211257,96.4932139 L82.3211257,103.152297 C82.3211257,104.191576 83.1615377,105.041818 84.188802,105.041818 C85.216348,105.041818 86.05676,104.191576 86.05676,103.152297 L86.05676,99.5856746 C86.1057982,98.821826 86.6435266,98.1914157 87.3210419,98.0913369 C87.9717835,97.99525 88.6354891,98.4044037 88.9029442,99.0966861 L88.9029442,100.070101 C88.9029442,101.220864 89.8335413,102.162345 90.9710004,102.162345 C92.1081777,102.162345 93.0390566,101.220864 93.0390566,100.070101 C93.0418749,98.6824001 93.044975,97.294699 93.0477933,95.9069979 C91.2953848,95.7906671 89.3921982,95.7364934 87.3579614,95.7826836 C85.582443,95.8228861 83.9123284,95.934655 82.3597362,96.0917586" id="Fill-125" fill="#E56744"></path>
                        <path d="M88.8876128,95.6859408 C88.3436841,95.674821 87.7845367,95.6739656 87.2112979,95.6845152 C87.8065193,95.6942094 88.4056863,95.7050442 88.8876128,95.6859408" id="Fill-127" fill="#7084CA"></path>
                        <path d="M93.1201386,95.9801038 C93.0936467,95.9769674 93.0657457,95.9741162 93.038972,95.9709798 L93.038972,95.9815294 L93.1201386,95.9801038 Z" id="Fill-129" fill="#7084CA"></path>
                    </g>
                </g>
            </g>
        </g>
    </g>
</svg>