<?xml version="1.0" encoding="UTF-8"?>
<svg width="165px" height="129px" viewBox="0 0 165 129" version="1.1" xmlns="http://www.w3.org/2000/svg" xmlns:xlink="http://www.w3.org/1999/xlink">
    <!-- Generator: Sketch 52.6 (67491) - http://www.bohemiancoding.com/sketch -->
    <title>Group 75</title>
    <desc>Created with Sketch.</desc>
    <defs>
        <polygon id="path-1" points="0.057541619 0.201267181 164.543812 0.201267181 164.543812 118.149498 0.057541619 118.149498"></polygon>
    </defs>
    <g id="Sign-in" stroke="none" stroke-width="1" fill="none" fill-rule="evenodd">
        <g id="Choose-role-Copy" transform="translate(-638.000000, -318.000000)">
            <g id="Group" transform="translate(233.000000, 189.000000)">
                <g id="Group-6" transform="translate(331.200000, 97.000000)">
                    <g id="Group-75" transform="translate(73.200000, 32.400000)">
                        <path d="M151.006512,114.405204 C154.442458,111.006472 165.154415,100.411231 165.34209,85.7622002 C165.362255,84.2051972 164.945231,73.0504333 156.88088,64.9586876 C151.744572,59.804906 147.579707,60.0010744 138.624038,55.7020074 C138.624038,55.7020074 126.064107,49.0897096 115.407,38.7088851 C101.256677,24.9253034 105.963862,14.9749223 93.4281295,6.5764454 C85.4334174,1.22032317 77.0163035,0.910908427 71.4492586,0.706152615 C49.9589325,-0.0838881612 34.3835749,12.6544459 29.3489013,16.7723725 C23.6955476,21.3958821 1.85111393,39.2616989 2.10735126,66.8245685 C2.34422963,92.2803049 21.2746023,109.091213 26.5628245,113.787179 C28.1212207,115.171361 29.7315096,116.479597 31.3818608,117.723965 L147.310833,117.723965 C148.611379,116.657518 149.847125,115.55189 151.006512,114.405204" id="Fill-1" fill="#F4F6F8"></path>
                        <g id="Group-9" transform="translate(0.908360, 0.067089)">
                            <mask id="mask-2" fill="white">
                                <use xlink:href="#path-1"></use>
                            </mask>
                            <g id="Clip-8"></g>
                            <path d="M150.09791,114.805511 C153.560206,111.380748 164.353901,100.704464 164.543189,85.9435285 C164.563354,84.3747179 164.142835,73.1343483 156.017181,64.9806123 C150.841617,59.7873823 146.644756,59.9851608 137.620793,55.653086 C137.620793,55.653086 124.964605,48.9906056 114.226029,38.5300793 C99.9673495,24.6410337 104.710294,14.6147078 92.0788428,6.15182532 C84.0230962,0.754644587 75.5417214,0.442814635 69.9319254,0.236717041 C48.277317,-0.559495928 32.5831169,12.2765198 27.5094565,16.425844 C21.8130829,21.0847768 -0.19859065,39.0871869 0.0597976719,66.8609845 C0.29855816,92.5115475 19.3738542,109.45073 24.7021386,114.182924 C26.2726341,115.577303 27.8950224,116.895737 29.5582796,118.149498 L146.373731,118.149498 C147.684225,117.075268 148.929382,115.961053 150.09791,114.805511" id="Fill-7" fill="#F4F6F8" mask="url(#mask-2)"></path>
                        </g>
                        <path d="M24.2206863,65.5850579 C24.2206863,65.5850579 24.1790107,65.5584906 24.1007683,65.508308 C24.0254834,65.4549051 23.9130939,65.3743982 23.7894117,65.2552481 C23.6606209,65.1379764 23.5199995,64.9807196 23.3764206,64.7765005 C23.2360681,64.5717447 23.0975978,64.3168063 22.9983831,64.005513 C22.893791,63.6971717 22.8375962,63.3246933 22.8615261,62.9318197 C22.8636771,62.8888827 22.8577618,62.8676826 22.8666347,62.8059606 L22.893791,62.6258936 C22.9123433,62.4962775 22.942995,62.4042314 22.973109,62.2907167 C23.0397898,62.0792519 23.1282495,61.8591998 23.2285397,61.6820847 C23.4267001,61.310948 23.6063082,61.0635236 23.7044474,60.837836 C23.8090395,60.6132218 23.8746449,60.3945115 23.8977681,60.1371578 L23.8993813,60.1256185 L23.900188,60.119983 L23.9004568,60.1170311 C23.8964237,60.1304489 23.9101363,60.0829499 23.8913151,60.1462819 L23.8956171,60.1140792 L23.9036833,60.049137 C23.9090608,60.0059316 23.9155138,59.9629946 23.9187403,59.9192526 C23.9187403,59.8484065 23.9106741,59.8094948 23.9028767,59.7544818 C23.8891641,59.6278177 23.8585124,59.5000801 23.8181813,59.377978 C23.7329481,59.1318953 23.6073837,58.9075495 23.5006406,58.7049406 C23.4479412,58.6032335 23.4003504,58.5063569 23.3640524,58.4121639 C23.3463067,58.3652016 23.3272166,58.3198494 23.3132351,58.2742288 L23.2928006,58.2074081 L23.2839278,58.1741319 L23.2817768,58.1658129 L23.2807013,58.1615192 C23.2699463,58.1252911 23.2944139,58.2090182 23.2914563,58.199089 L23.2906496,58.1956004 L23.2831212,58.1687648 L23.2551582,58.061959 C23.2473609,58.0278778 23.2357993,57.9822572 23.2357993,57.9763534 C23.2282708,57.9430772 23.2336483,57.921877 23.2253132,57.8757198 C23.2137516,57.7871622 23.2070297,57.6975312 23.2029966,57.6073635 C23.195737,57.2445459 23.2236999,56.8548926 23.2694086,56.5119333 C23.3043622,56.1805134 23.3527596,55.9159141 23.3527596,55.9159141 L23.3742696,55.7997159 C23.4662246,55.2965479 23.8948105,54.9390974 24.3857752,54.9149454 C24.3857752,54.9149454 24.4586401,54.9114567 24.5863555,54.9211175 C24.7105755,54.9339986 24.8928723,54.9586874 25.1001745,55.0281917 C25.3163496,55.090182 25.5521524,55.2015498 25.7957527,55.3671256 C26.0372019,55.5335065 26.2859107,55.7559738 26.5018169,56.0425783 C26.6090978,56.1858805 26.7088502,56.3442107 26.7975788,56.5159587 C26.8414053,56.5994175 26.8889961,56.7134689 26.9306716,56.815981 L26.9771869,56.9378147 L27.0134849,57.0422053 L27.0220889,57.0687726 L27.0435989,57.1441807 L27.0640333,57.2193204 L27.0987181,57.3722835 C27.1194214,57.4750639 27.1334029,57.5799912 27.1446956,57.6857236 C27.1659367,57.897725 27.1680877,58.1153619 27.1463089,58.3356824 C27.1067843,58.7763233 26.985522,59.2236732 26.8403298,59.6538482 C26.7704224,59.8704117 26.6873402,60.0810714 26.6104422,60.2922677 C26.5641958,60.404709 26.5217136,60.5343251 26.4795003,60.6309333 C26.4596036,60.6701133 26.4426645,60.7100984 26.4249188,60.7498151 L26.3985691,60.8096586 L26.3851254,60.8394461 C26.3657664,60.9057301 26.3784035,60.8606462 26.3735638,60.8767476 L26.3714128,60.881578 L26.3668419,60.8909705 L26.3582379,60.9100238 C26.1764788,61.3122898 25.9516998,61.7255584 25.6954625,62.0765684 C25.4381497,62.4313353 25.1816435,62.6951295 25.0230076,62.8641939 C24.9533691,62.9404071 24.8848061,63.0152785 24.8175875,63.0882714 C24.7941954,63.1210109 24.756553,63.1682416 24.7369252,63.1864898 L24.6990139,63.223523 C24.6855702,63.2334521 24.6686311,63.2865867 24.653843,63.3153008 C24.5500574,63.5020767 24.4645554,63.6955616 24.4013699,63.9024642 C24.3414109,64.1077568 24.3010797,64.3194898 24.2766122,64.5183418 C24.2494558,64.7185356 24.242734,64.903433 24.2338611,65.063105 C24.225526,65.39533 24.2206863,65.5850579 24.2206863,65.5850579" id="Fill-10" fill="#E3E3E3"></path>
                        <polygon id="Fill-12" fill="#F4F6F8" points="126.487235 118.154462 127.604408 118.154462 116.153046 75.1713064 112.522435 75.1713064"></polygon>
                        <polygon id="Stroke-14" stroke="#CDD1E3" stroke-width="0.68639999" points="126.487235 118.154462 127.604408 118.154462 116.153046 75.1713064 112.522435 75.1713064"></polygon>
                        <polygon id="Fill-16" fill="#F4F6F8" points="95.2056314 117.77235 96.3228047 117.77235 84.522444 75.1713332 81.5199233 75.1713332"></polygon>
                        <polygon id="Stroke-18" stroke="#CDD1E3" stroke-width="0.68639999" points="95.2056314 117.77235 96.3228047 117.77235 84.522444 75.1713332 81.5199233 75.1713332"></polygon>
                        <polygon id="Fill-20" fill="#F4F6F8" points="41.0212509 75.362376 36.8316496 75.362376 26.0089163 117.772323 27.6149032 117.772323"></polygon>
                        <polygon id="Stroke-22" stroke="#CDD1E3" stroke-width="0.68639999" points="41.0212509 75.362376 36.8316496 75.362376 26.0089163 117.772323 27.6149032 117.772323"></polygon>
                        <polygon id="Fill-24" fill="#F4F6F8" points="19.515115 75.9355045 15.6048742 75.9355045 6.31795163 117.581173 7.78439274 117.581173"></polygon>
                        <polygon id="Stroke-26" stroke="#CDD1E3" stroke-width="0.68639999" points="19.515115 75.9355045 15.6048742 75.9355045 6.31795163 117.581173 7.78439274 117.581173"></polygon>
                        <polygon id="Fill-30" fill="#FFFFFF" points="86.3611417 72.6442225 13.463639 73.4106479 13.463639 75.8500062 86.3611417 75.0833124"></polygon>
                        <polygon id="Stroke-31" stroke="#CDD1E3" stroke-width="0.68639999" stroke-linecap="round" stroke-linejoin="round" points="86.3611417 72.6442225 13.463639 73.4106479 13.463639 75.8500062 86.3611417 75.0833124"></polygon>
                        <path d="M97.8545823,38.3033988 C97.5133806,38.0377261 97.1479803,37.7165037 96.7817733,37.3311441 C96.6056606,37.1459783 96.4456803,36.962691 96.3002192,36.7842341 C96.446218,36.6143646 96.6443785,36.3304437 96.709715,35.9469626 C96.7685985,35.5986362 96.6900871,35.3332319 96.5193519,34.7831016 C96.3158139,34.1275073 96.1483052,33.6047494 96.0377978,33.2636686 C95.9520268,33.2258303 95.7694611,33.1571311 95.6734729,33.237638 C95.6129762,33.2886257 95.6194292,33.3723529 95.6170093,33.5215589 C95.6167404,33.5352451 95.5914662,33.7781075 95.5411867,34.2635639 C95.5108039,34.5563406 95.4946715,34.7031315 95.4556847,34.7203063 C95.2653216,34.803765 94.6797131,33.8663967 94.525648,33.6170937 C94.0820052,32.9000459 93.4759623,31.8451375 92.8177577,30.4309001 C92.6540132,30.3270462 92.4504752,30.3286564 92.3125426,30.4311684 C92.1342789,30.5634681 92.0874948,30.848194 92.2412909,31.0636841 C92.9035286,32.5015369 93.2202627,33.2277088 93.1909554,33.2419317 C93.1568083,33.2585698 92.6593907,32.320128 91.6976268,30.4266064 C91.6035208,30.3919884 91.455371,30.3546869 91.335453,30.4220443 C91.1141693,30.5465616 91.1324528,30.9472175 91.140519,31.1262111 C91.1410568,31.1412391 91.1547694,31.3336505 91.2120396,31.4973478 C91.3497033,31.8902213 92.1455716,33.2698408 93.2872124,35.087686 C92.4905375,33.9463669 91.6941315,32.8050478 90.8974566,31.663997 C90.7987796,31.6470906 90.6479411,31.6382348 90.5546417,31.7259873 C90.4013832,31.8698263 90.4901118,32.1899753 90.5594814,32.4043919 C90.9595665,33.6401724 91.7062308,34.6567058 91.7062308,34.6567058 C92.0103278,35.0705112 92.4155215,35.5919273 92.9261141,36.1723819 C92.5284488,35.8761166 92.0178563,35.4317187 91.5311936,34.8013498 C91.0031242,34.1170414 90.6912299,33.4579585 90.5062443,32.9733071 C90.4401012,32.9169523 90.3521792,32.9046079 90.2935646,32.9397626 C90.21344,32.98753 90.1846705,33.1262702 90.2688281,33.2303924 C90.4175157,34.0145293 90.6595027,34.6322854 90.8611585,35.0603136 C91.1104051,35.5887071 91.4481114,36.2883118 92.1399253,36.9237794 C92.4768249,37.2331941 92.4961839,37.1588594 92.9250386,37.5369734 C93.4998921,38.044435 93.7808659,38.4568986 94.1892861,38.9724109 C94.500105,39.3650161 94.9682153,39.922392 95.6073298,40.566447 C96.356414,39.8120976 97.1054981,39.0577482 97.8545823,38.3033988" id="Fill-32" fill="#E3E3E3"></path>
                        <path d="M112.006089,113.038787 C112.028136,113.970789 111.984579,115.072123 111.79798,116.293949 C111.547389,117.934947 111.112619,119.312956 110.687797,120.380477 C111.948281,120.415095 113.209033,120.449713 114.469785,120.484331 C114.614977,119.970697 114.787057,119.275655 114.920687,118.441067 C115.052167,117.620433 115.093036,117.001067 115.128796,116.43242 C115.18042,115.618496 115.21618,114.523871 115.16375,113.211877 C114.111106,113.15418 113.058732,113.096484 112.006089,113.038787" id="Fill-33" fill="#E3E3E3"></path>
                        <path d="M137.300746,114.354753 C137.621244,115.278703 137.967554,116.226269 138.341559,117.194498 C138.70669,118.139112 139.077737,119.050987 139.45201,119.930122 C140.527508,119.757032 141.603274,119.583942 142.678772,119.410853 C142.223836,117.974878 141.841766,116.860395 141.568589,116.086187 C141.374193,115.535788 141.062837,114.669266 140.700932,113.454417 C140.580476,113.049468 140.48637,112.713218 140.423453,112.484578 C139.382372,113.10797 138.341559,113.731361 137.300746,114.354753" id="Fill-34" fill="#E3E3E3"></path>
                        <path d="M110.895933,118.891369 C109.950033,119.618614 109.09555,120.147276 108.432237,120.518949 C107.788013,120.879888 107.306728,121.149855 106.593404,121.419284 C106.07125,121.616795 105.780059,121.679858 104.823673,122.008058 C104.562596,122.097689 104.094485,122.156459 103.574751,122.45836 C103.1139,122.726179 103.041573,122.908393 103.019526,123.012247 C102.951769,123.330518 103.195369,123.648251 103.401058,123.808997 C103.719943,124.057763 104.103896,124.052664 104.268716,124.051322 C105.379436,124.041393 106.48935,124.191404 107.599532,124.155176 C108.832591,124.114654 101.239308,124.393208 109.473318,124.120558 C111.311075,124.059641 113.347261,123.990942 115.579994,123.912851 C115.608495,123.776794 115.655548,123.530443 115.684318,123.220223 C115.824401,121.695155 115.371617,120.242006 115.371617,120.242006 C115.371617,120.242006 115.250085,119.988409 115.233146,119.791704 C115.206528,119.487656 115.438835,119.422714 115.441255,119.133694 C115.443137,118.899419 115.293105,118.646091 115.094138,118.544921 C114.842203,118.416646 114.621726,118.589736 114.15738,118.71801 C114.093119,118.73599 113.300746,118.947187 112.457287,118.787515 C111.925722,118.686881 111.6348,118.488298 111.242781,118.648775 C111.082263,118.714522 110.968798,118.81435 110.895933,118.891369" id="Fill-35" fill="#525867"></path>
                        <path d="M144.604477,124.120531 C143.563933,124.075716 142.914333,124.060688 141.69902,124.023118 C140.933266,123.999503 139.837603,123.963543 138.497802,123.912824 C138.469301,123.776767 138.422248,123.530416 138.393478,123.220196 C138.253395,121.695128 138.706179,120.241979 138.706179,120.241979 C138.706179,120.241979 138.82771,119.988382 138.84465,119.791677 C138.871268,119.487629 138.638961,119.422955 138.636541,119.133667 C138.634659,118.899392 138.784691,118.646064 138.983658,118.544894 C139.232635,118.41823 139.440206,118.609836 139.920416,118.718252 C139.982526,118.732206 140.579696,118.861286 141.15213,118.718252 C141.918153,118.526377 142.143739,117.970611 142.470421,118.077417 C142.626099,118.128137 142.798179,118.326452 142.8697,118.977752 C143.479776,119.553108 144.014567,119.984625 144.396369,120.276597 C144.856144,120.627875 145.547151,121.232213 146.929166,122.44089 C147.091566,122.583119 147.414753,122.87348 147.415022,123.254814 C147.415022,123.477818 147.304783,123.699212 147.258806,123.791527 C147.153138,124.003528 147.021927,124.151661 146.929166,124.241828 C146.394374,124.208821 145.588558,124.162932 144.604477,124.120531" id="Fill-36" fill="#525867"></path>
                        <path d="M111.265097,27.5877462 C111.120443,27.6725468 110.856946,27.8008211 110.50714,27.830877 C110.397171,27.8402694 109.759132,27.8845482 109.207402,27.425659 C109.074846,27.3153646 108.557532,26.8846529 108.584419,26.2363042 C108.603778,25.7835872 108.878299,25.4637066 108.936645,25.398496 C109.072158,25.2471431 109.216005,25.1550969 109.315758,25.1014256 C108.987462,24.9930097 108.432237,24.7616866 107.907663,24.2636174 C107.603297,23.9745978 107.17256,23.5658912 107.013924,22.8853398 C106.793985,21.9399208 107.261288,21.1670548 107.366149,20.9936966 C107.650081,20.5243416 108.005264,20.2643044 108.232732,20.1016805 C108.440034,19.9532795 108.967028,19.5853631 109.748915,19.4801674 C110.551236,19.3722882 111.172605,19.6011961 111.56301,19.7504022 C112.065537,19.9422769 112.43739,20.1910431 112.673193,20.3719152 C112.696047,20.1982887 112.74552,19.9489858 112.862749,19.6693586 C112.960888,19.4358887 113.048004,19.2281809 113.214706,19.0746812 C113.625008,18.6973723 114.337526,18.8138389 114.731158,18.9668019 C115.380221,19.2187885 115.677596,19.7716023 115.76014,19.9395933 C115.873336,19.8931677 116.041383,19.8258103 116.247341,19.7504022 C116.947758,19.4943903 117.297833,19.3663844 117.62828,19.3451842 C118.369566,19.2971485 118.96109,19.7597946 119.225663,19.9666973 C119.470876,20.1580353 120.16269,20.6990415 120.308958,21.6691493 C120.439093,22.5319146 120.056485,23.1974381 119.930114,23.3987053 C120.059711,23.4102446 120.353053,23.4539867 120.634027,23.66894 C120.671131,23.6976541 121.106977,24.0414185 121.148384,24.5877918 C121.191135,25.1497298 120.801267,25.7207918 120.173714,25.9663378 C120.083641,25.4395545 119.850796,25.0244074 119.557722,24.980397 C119.379996,24.9535613 119.172963,25.0619773 118.852465,25.2302366 C118.636828,25.3432146 118.488947,25.4462634 118.484376,25.4494837 C118.194798,25.6510192 116.210774,26.2658234 111.265097,27.5877462" id="Fill-37" fill="#020C1F"></path>
                        <path d="M123.278326,34.0250221 C123.162979,33.505216 122.789512,33.5371504 122.014885,32.727788 C121.196431,31.8725367 120.853348,31.0427792 120.209662,29.4847028 C119.889702,28.7104951 119.816837,28.3694143 119.812535,28.0074017 C119.804737,27.3410732 119.99295,26.6382482 119.99295,26.6382482 C120.118783,26.1686247 120.22687,26.0255909 120.173633,25.7373763 C120.108297,25.3855612 119.849371,25.0651439 119.523764,24.9446519 C119.15191,24.8069852 118.929551,25.0259639 118.510107,25.0721211 C117.701602,25.160947 117.321413,24.4809323 116.382773,24.04378 C115.450047,23.6093113 114.561955,23.6895498 113.891651,23.7555654 C112.339439,23.9079918 111.245927,24.6357739 110.75066,25.0165714 C110.781043,25.4322552 110.84611,26.0489379 111.003671,26.7823555 C111.394077,28.6020791 112.053894,29.7514489 112.483825,30.3855747 C113.20629,31.4517541 113.659881,31.6243071 113.927949,31.6828088 C114.435584,31.7936399 114.891864,31.6288692 115.155361,31.5027418 C115.288723,31.7018621 115.465104,31.9935653 115.624547,32.3673856 C115.939936,33.1064387 116.00124,33.7233897 116.057972,34.3491964 C116.108252,34.9044255 116.132719,35.6700458 116.021943,36.5835305 C116.347281,36.83176 116.867822,37.1725724 117.574155,37.4122146 C118.049525,37.5732283 118.806944,37.8303136 119.740476,37.6644694 C120.732354,37.4881594 121.359638,36.9345404 121.798172,36.5473024 C122.286717,36.1160539 123.504449,35.0415555 123.278326,34.0250221" id="Fill-38" fill="#E3E3E3"></path>
                        <path d="M110.681667,114.960245 C110.917201,115.144337 111.00351,115.094423 113.284102,115.220014 C115.240433,115.327893 115.773342,115.398471 116.302487,115.012306 C116.674609,114.740729 116.833783,114.360469 117.13546,113.609608 C118.130833,111.13268 117.569154,110.009609 118.384381,108.570951 C118.486823,108.390079 118.778551,107.908648 118.853029,107.220314 C118.909762,106.693799 118.812698,106.291265 118.800868,106.2333 C118.652718,105.512227 119.382981,98.2851247 121.767359,79.0654506 C118.523389,78.8402998 115.279151,78.6154172 112.034912,78.3902663 C111.919027,81.3046151 111.859337,83.6618564 111.826803,85.1952439 C111.806637,86.141468 111.542872,98.7424037 111.045723,102.129596 C110.736786,104.237803 110.646982,104.674955 110.646982,104.674955 C110.523569,105.275268 110.424892,105.65043 110.369504,106.285361 C110.303898,107.032733 110.359555,107.439561 110.369504,107.999621 C110.390207,109.193538 110.176183,109.565479 110.057072,110.700626 C109.89252,112.26729 109.691133,114.186305 110.681667,114.960245" id="Fill-39" fill="#525867"></path>
                        <path d="M123.953389,79.429127 C127.475375,79.3598911 130.997092,79.2906552 134.51881,79.2214193 C138.575049,98.113162 140.764225,108.310968 140.764225,108.311236 C140.764225,108.311236 141.285303,108.880688 141.545305,109.324012 C141.670332,109.537624 141.716847,109.691392 141.935442,111.246248 C142.103488,112.44097 142.118545,112.652972 142.325847,112.960508 C142.651185,113.443012 142.987278,113.473068 143.002604,113.739546 C143.030298,114.232248 141.912587,114.688185 140.955126,115.029534 C139.88877,115.410064 138.382804,115.87593 136.479173,116.2417 C136.190133,115.835945 135.92341,115.538069 135.733315,115.341364 C135.445082,115.042684 135.252299,114.892673 135.056827,114.562058 C135.011656,114.485845 134.880983,114.256132 134.77908,113.886605 C134.485738,112.823378 134.93207,112.421648 134.623133,111.895402 C134.321994,111.382841 133.820005,111.629998 133.512682,111.098921 C133.254562,110.653181 133.52505,110.335447 133.408627,109.419279 C133.346786,108.933286 133.218533,108.613942 133.096195,108.276618 C131.503652,103.882553 130.263872,99.3685325 128.758982,94.9436064 C127.743443,91.9568015 127.167245,90.2624001 126.399609,87.8098925 C125.335941,84.4111607 124.523403,81.5333083 123.953389,79.429127" id="Fill-40" fill="#525867"></path>
                        <path d="M96.7679263,46.5300741 L148.814217,46.5300741 C149.925744,46.5300741 150.826742,47.4293358 150.826742,48.5384522 L150.826742,77.6282688 C150.826742,78.7376535 149.925744,79.6369153 148.814217,79.6369153 L96.7679263,79.6369153 C95.6563994,79.6369153 94.7554012,78.7376535 94.7554012,77.6282688 L94.7554012,48.5384522 C94.7554012,47.4293358 95.6563994,46.5300741 96.7679263,46.5300741" id="Fill-41" fill="#FFFFFF"></path>
                        <path d="M94.755455,50.9123315 L150.826796,50.9123315" id="Stroke-42" stroke="#DEE1EE" stroke-width="0.68639999"></path>
                        <path d="M131.187805,46.5300741 C131.349936,45.0755832 131.511799,44.5906635 131.673661,43.1361727 C132.626014,43.9908873 133.732701,44.8866604 135.004477,45.7682107 C135.792548,46.3140473 136.560185,46.7965518 137.29475,47.2227015 C137.007054,47.4709311 136.54217,47.8270398 135.90682,48.1230367 C134.540669,48.7598461 133.739154,48.4888063 132.853213,49.0233719 C132.368433,49.3161486 131.76481,49.9065323 131.395914,51.2397261 C131.88177,52.371116 132.367626,53.5022376 132.853213,54.6336275 C134.61461,54.3692966 136.058465,54.1234823 137.086372,53.941 C138.771677,53.6417828 139.125516,53.5502734 139.446014,53.4563487 C141.026189,52.9926291 142.118895,52.3724578 143.123947,51.7938818 C144.280645,51.1278216 144.865985,50.7845939 145.205842,50.270155 C146.024565,49.0306175 145.75569,47.5938382 145.691429,47.2919374 C145.554572,46.6457356 145.284084,46.1476664 144.719986,45.3525269 C143.40277,43.4960384 142.068884,42.2543541 141.597278,41.8201537 C140.867284,41.1481896 140.120351,40.4858864 137.919076,38.6342284 C137.253881,38.0744373 134.793142,36.0123879 132.436996,34.4092277 C132.05842,34.1518741 131.388116,33.7055976 130.424471,33.3011848 C129.611932,32.9598356 128.901028,32.7786952 128.412214,32.6777932 C126.409369,32.8253892 124.406523,32.9729851 122.403678,33.1208494 C122.588394,33.2367793 122.788975,33.4114792 122.867755,33.6661493 C123.152493,34.585001 121.587106,35.6707704 121.481169,35.7426899 C121.209606,35.9270506 120.495745,36.3982842 119.477517,36.4178742 C117.990911,36.4463199 116.94714,35.4603791 116.640892,35.1710911 C116.349432,34.8957576 116.145894,34.6306216 116.016297,34.4438457 C115.109114,34.3214752 113.708279,34.2707559 112.16494,34.8074684 C111.703282,34.9682138 111.295669,35.15821 110.94183,35.3530366 C110.603586,35.7595963 110.097026,36.3717169 109.48453,37.119089 C107.921026,39.0281753 107.347248,39.7739373 106.387904,40.9372616 C105.730237,41.7342797 104.779497,42.8637911 103.577359,44.209866 C103.449644,44.0775664 103.26654,43.8830081 103.056818,43.6385356 C102.536278,43.0317821 102.172759,42.6080476 101.88587,42.0020992 C101.615651,41.4313055 101.744711,41.3982977 101.417222,40.7292856 C101.261544,40.4107467 101.048058,40.0417569 100.844789,39.6904785 C100.6676,39.3842841 100.693143,39.4403705 100.506544,39.1191481 C100.084412,38.392171 100.050265,38.2703373 99.8561373,38.0543105 C99.7117517,37.8935651 99.6154947,37.8323799 99.2312731,37.5608034 C98.9373934,37.352559 98.5093453,37.0452911 97.9823514,36.6516125 C96.6551872,37.5608034 95.3280231,38.469726 94.0008589,39.3789169 C93.8239396,40.4504634 94.0062364,41.2252079 94.1568061,41.6645071 C94.3431361,42.2076601 94.6343271,42.6858709 94.7553206,42.8849912 C95.0951778,43.4434406 95.3334006,43.6680548 95.7184287,44.365781 C95.9257309,44.7417481 95.9082541,44.7734141 96.0566728,45.0409653 C96.2771498,45.4389376 96.653574,45.9839691 97.3260289,46.548859 L109.851813,46.548859 L111.228181,45.0669958 C111.23087,45.0653857 111.413436,44.9349646 111.514263,44.963142 C111.646012,44.9996384 111.666446,45.3138836 111.670479,45.3785574 C111.695485,45.7513043 111.681503,45.7802867 111.803303,46.5300741 C118.300654,46.392944 124.754447,46.6009201 131.187805,46.5300741" id="Fill-43" fill="#9B9EA7"></path>
                        <path d="M131.520483,51.674168 C131.170678,51.9283014 130.760913,52.1907538 130.28877,52.4360314 C130.06184,52.5541082 129.841094,52.657157 129.62949,52.747593 C129.47892,52.552498 129.254947,52.3171496 128.935525,52.1244698 C127.988011,51.552871 126.960373,51.8129082 126.714891,51.8818758 C126.310235,52.2377161 126.258611,52.4121477 126.298404,52.5052673 C126.34492,52.6136832 126.514042,52.6093895 126.992369,52.782211 C127.26447,52.8806977 127.400789,52.9311487 127.408856,52.990187 C127.436819,53.1957479 126.372614,53.4995272 126.090295,53.5789606 C125.277488,53.8070634 124.094441,54.09823 122.55137,54.340824 C122.406447,54.4693667 122.351597,54.6649984 122.412362,54.8257437 C122.490874,55.0331831 122.75222,55.1560903 123.002004,55.0678011 C124.569273,54.8281589 125.355999,54.7243051 125.361646,54.7562395 C125.368099,54.793541 124.327555,55.0125197 122.238669,55.414249 C122.179517,55.4950242 122.102888,55.6270555 122.134884,55.7606969 C122.193767,56.0070479 122.58498,56.1001675 122.75921,56.1414944 C122.773998,56.144983 122.963017,56.1849681 123.136441,56.1747706 C123.552659,56.1508869 125.100838,55.7668691 127.166062,55.1719233 C125.847233,55.6219567 124.528942,56.0722585 123.210382,56.5225603 C123.167093,56.612728 123.116813,56.7549568 123.175697,56.8687398 C123.271954,57.0552474 123.605089,57.0581993 123.830406,57.0506853 C125.130952,57.0069433 126.315881,56.5700593 126.315881,56.5700593 C126.798242,56.3924075 127.411813,56.1468615 128.111425,55.8170517 C127.716717,56.1168056 127.148047,56.4844537 126.406761,56.7780354 C125.602288,57.0965743 124.881705,57.2143826 124.364122,57.2583931 C124.291526,57.3061605 124.255228,57.3874724 124.272973,57.4532197 C124.297172,57.5433874 124.422736,57.6091347 124.546419,57.5570736 C125.342287,57.6300665 126.004256,57.5680762 126.472097,57.4921314 C127.049639,57.398475 127.816469,57.2669805 128.618791,56.7780354 C129.009465,56.5397351 128.943322,56.5008234 129.425683,56.1935555 C130.072326,55.7813603 130.547158,55.6254453 131.156159,55.3753373 C131.619698,55.1850727 132.285431,54.8893442 133.081837,54.4532653 C132.561296,53.5268995 132.041024,52.6005338 131.520483,51.674168" id="Fill-44" fill="#E3E3E3"></path>
                        <path d="M97.3352244,48.3797195 C97.1354507,48.7344864 97.2190707,49.1635881 97.4365901,49.4440203 C97.7124553,49.799324 98.2364915,49.9584592 98.6553979,49.7480679 C99.1014605,49.5237221 99.160344,49.0154554 99.1630328,48.9878147 C99.2047083,48.5686423 98.9632591,48.1400773 98.5537633,47.9742332 C98.1093139,47.7941662 97.5688763,47.9648407 97.3352244,48.3797195" id="Fill-45" fill="#DEE1EE"></path>
                        <path d="M102.56502,47.9487662 C102.525496,47.9629891 102.022432,48.1537904 101.904933,48.6583001 C101.797115,49.1217513 102.077282,49.5798354 102.463655,49.7730519 C102.949779,50.016451 103.465481,49.7706367 103.733011,49.5197236 C103.956445,49.3104058 104.248443,48.8711066 104.088463,48.4554228 C103.924449,48.0298098 103.399338,47.923004 103.276193,47.8980469 C102.960266,47.8339097 102.6965,47.9036823 102.56502,47.9487662" id="Fill-46" fill="#DEE1EE"></path>
                        <path d="M107.185762,48.2028459 C106.947001,48.4607362 106.786483,48.8866176 106.931944,49.2671467 C107.135482,49.7998339 107.860099,50.031962 108.4043,49.8245226 C109.001202,49.5969565 109.358805,48.8493161 109.115204,48.3547355 C108.889081,47.8958463 108.242169,47.852641 108.150483,47.8480789 C108.039976,47.8424434 107.542558,47.8166812 107.185762,48.2028459" id="Fill-47" fill="#DEE1EE"></path>
                        <path d="M111.052929,27.5669218 C111.29626,28.1119533 111.913327,28.7581551 112.536309,28.6317593 C113.008452,28.5359562 113.248826,28.0435225 113.316851,27.9045139 C113.64676,27.2287929 113.505332,26.2785435 112.874284,25.7488082 C112.5718,25.4949432 111.964413,25.1758677 111.469146,25.4112161 C110.80906,25.7249245 110.729742,26.8437017 111.052929,27.5669218 Z" id="Stroke-48" stroke="#525867" stroke-width="0.68639999"></path>
                        <path d="M113.673675,26.6331762 C113.917006,27.1782078 114.534073,27.8244096 115.157055,27.6980138 C115.629198,27.6022106 115.869841,27.1097769 115.937597,26.9707684 C116.267506,26.2950474 116.126347,25.3447979 115.49503,24.8150627 C115.192546,24.5611977 114.585159,24.2421221 114.090161,24.4774705 C113.429805,24.791179 113.350756,25.9099562 113.673675,26.6331762 Z" id="Stroke-49" stroke="#525867" stroke-width="0.68639999"></path>
                        <path d="M118.448024,25.4068419 C117.599725,25.4500472 116.751157,25.4935209 115.90259,25.5367263 L115.90259,25.1213108 C116.933185,25.1167488 117.96405,25.1124551 118.994646,25.1081614 C118.932805,25.1631744 118.848378,25.228385 118.74029,25.2876917 C118.63059,25.3478035 118.528955,25.3842999 118.448024,25.4068419" id="Fill-50" fill="#525867"></path>
                        <g id="Group-59" transform="translate(99.047524, 55.348475)" stroke-width="0.738170342">
                            <polyline id="Stroke-51" stroke="#525867" points="3.37044846 0.189352164 0.767475156 2.78730894 3.36318885 5.37775174"></polyline>
                            <polyline id="Stroke-52" stroke="#525867" points="10.4018911 5.37775174 13.0048644 2.77979497 10.4091507 0.189352164"></polyline>
                            <path d="M8.24325964,0.306489664 L5.52897233,5.26061424" id="Stroke-53" stroke="#525867"></path>
                            <path d="M0.120186868,8.80688831 L25.8097937,8.80688831" id="Stroke-54" stroke="#DEE1EE"></path>
                            <path d="M0.120186868,14.6831923 L25.8097937,14.6831923" id="Stroke-55" stroke="#DEE1EE"></path>
                            <path d="M0.120186868,17.6213711 L25.8097937,17.6213711" id="Stroke-56" stroke="#DEE1EE"></path>
                            <path d="M0.120186868,11.7450403 L10.1451698,11.7450403" id="Stroke-57" stroke="#DEE1EE"></path>
                            <path d="M0.120186868,20.5595231 L10.1451698,20.5595231" id="Stroke-58" stroke="#DEE1EE"></path>
                        </g>
                        <path d="M64.7531024,66.7452424 C64.743154,67.2167443 64.7807965,68.4012688 65.5339137,69.6284619 C66.3026257,70.8814172 67.3722082,71.4540894 67.7981052,71.6545515 C63.1006002,71.6287893 58.4028262,71.6027588 53.7050523,71.5767282 C54.0072672,71.0923452 54.3191615,70.5207464 54.6030929,69.8622002 C55.0679768,68.7834081 55.3204498,67.7888798 55.4618778,66.9789807 C58.5587734,66.9011574 61.6559379,66.8230657 64.7531024,66.7452424" id="Fill-60" fill="#F4F6F8"></path>
                        <path d="M64.7531024,66.7452424 C64.743154,67.2167443 64.7807965,68.4012688 65.5339137,69.6284619 C66.3026257,70.8814172 67.3722082,71.4540894 67.7981052,71.6545515 C63.1006002,71.6287893 58.4028262,71.6027588 53.7050523,71.5767282 C54.0072672,71.0923452 54.3191615,70.5207464 54.6030929,69.8622002 C55.0679768,68.7834081 55.3204498,67.7888798 55.4618778,66.9789807 C58.5587734,66.9011574 61.6559379,66.8230657 64.7531024,66.7452424 Z" id="Stroke-61" stroke="#CDD1E3" stroke-width="0.704727477" stroke-linecap="round" stroke-linejoin="round"></path>
                        <path d="M52.6802643,71.4305814 L67.8176255,71.4305814 C68.3836062,71.4305814 68.842306,71.8886655 68.842306,72.4535554 L68.842306,72.7747778 L51.655315,72.7747778 L51.655315,72.4535554 C51.655315,71.8886655 52.1142837,71.4305814 52.6802643,71.4305814" id="Fill-62" fill="#FDFEFF"></path>
                        <path d="M52.6802643,71.4305814 L67.8176255,71.4305814 C68.3836062,71.4305814 68.842306,71.8886655 68.842306,72.4535554 L68.842306,72.7747778 L51.655315,72.7747778 L51.655315,72.4535554 C51.655315,71.8886655 52.1142837,71.4305814 52.6802643,71.4305814 Z" id="Stroke-63" stroke="#CDD1E3" stroke-width="0.68639999" stroke-linecap="round" stroke-linejoin="round"></path>
                        <path d="M47.1074386,61.0877293 C49.690784,61.0898761 50.9827257,61.0909496 51.6360905,61.0877293 C55.1470527,61.0705545 57.8844632,61.0125896 58.9752868,60.9876324 C62.9995303,60.8955862 63.1708033,60.8284972 66.1585359,60.7871703 C67.1832163,60.7729474 68.3724479,60.7640917 72.014352,60.7871703 C74.2691329,60.8013932 77.2848284,60.826887 80.9011894,60.8751912 C80.8923166,60.8126642 80.8858636,60.7496004 80.8761841,60.6870734 C80.5435865,58.5281475 80.7129773,58.143593 80.5860686,51.6007994 C80.5435865,49.4139644 80.4623864,46.2465557 80.2908445,42.3521699 C80.0910708,39.8728266 80.1378549,37.944687 80.2322299,36.566141 C80.2860048,35.777442 80.3771532,34.8569801 79.9394256,34.3119486 C79.5608504,33.840715 79.0279413,33.9496676 77.8897959,33.9362498 C76.6156,33.9212219 77.2375065,33.7835551 75.3131723,33.7108306 C71.8489942,33.5796044 68.5203288,33.7859703 68.5203288,33.7859703 C60.9222065,34.2572039 61.7073198,33.9714045 56.5158924,34.3870883 C53.9416887,34.5931859 53.0449925,34.7198501 51.2456848,34.6876473 C49.9636916,34.664837 48.7311712,34.5703756 46.5024711,34.6125076 C45.1422354,34.6382698 45.4245536,34.6769131 44.3942268,34.6876473 C42.0897041,34.7117994 39.7886768,35.035437 37.4841541,34.9882063 C37.2513088,34.9833759 36.7840051,34.9707631 36.4887809,35.363905 C36.0532044,35.9440912 36.2860496,37.0164428 36.4304352,37.9937962 C36.6482235,39.4724391 36.5003425,41.0039482 36.6060102,42.5024494 C36.6966209,43.7900227 36.7054937,46.1660488 36.7229706,50.9183695 C36.7388342,55.1385398 36.7485136,57.2483565 36.7229706,58.73344 C36.7081825,59.5881546 36.7251216,60.4428693 36.7514713,61.2975839 C37.2886824,61.2602824 37.9084379,61.2219074 38.5970253,61.1880945 C40.9139162,61.0735064 42.4553733,61.0839723 47.1074386,61.0877293" id="Fill-64" fill="#525867"></path>
                        <path d="M80.9011894,60.9691427 C77.2848284,60.9313044 74.2691329,60.9117144 72.014352,60.9007118 C68.3724479,60.882732 67.1832163,60.8897092 66.1585359,60.9007118 C63.1708033,60.9326462 62.9995303,60.9849757 58.9752868,61.0563585 C57.8844632,61.0756801 55.1470527,61.120764 51.6360905,61.1344501 C50.9827257,61.1368653 49.690784,61.1360603 47.1074386,61.1344501 C42.4553733,61.1312298 40.9139162,61.1231792 38.5970253,61.2122734 C37.9084379,61.2388407 37.2886824,61.2686282 36.7514713,61.2976107 C36.7995998,62.5124594 36.8807999,63.7275765 36.8695071,64.9432303 C36.8695071,64.9432303 36.85687,66.2742772 37.3085791,67.4268673 C37.3099234,67.4303559 37.3112678,67.4341129 37.3134188,67.4389433 C37.5244852,67.9668 38.0482526,68.3014403 38.6177286,68.2960731 C41.1365442,68.271116 44.6477753,68.224422 48.8446362,68.1283505 C53.1939489,68.0290587 54.8547862,67.9552607 57.8626844,67.8946122 C61.1803259,67.8277915 65.9197754,67.7810975 71.7411756,67.8946122 C72.2178899,67.9018578 78.1360849,67.9866584 80.2322299,67.7193756 C80.4446407,67.6920032 80.865698,67.6297446 81.1689884,67.3101323 C81.7204498,66.729141 81.4937887,65.7101924 81.3445634,64.9139794 C81.1015009,63.6132567 81.1369923,62.2704021 80.9011894,60.9691427" id="Fill-65" fill="#DFE2EC"></path>
                        <path d="M49.0645217,123.450419 C49.3473776,123.543002 49.6469037,123.367765 49.6794375,123.348175 C49.9055609,123.21185 49.9977849,123.004948 50.1185095,122.734445 C50.1886857,122.577456 50.2677348,122.356062 50.3088726,122.076972 C52.0363907,114.780902 53.7639089,107.484833 55.4914271,100.189032 C54.9448054,100.16971 54.3981837,100.15012 53.8518309,100.13053 C52.0950054,107.494762 50.3381799,114.858994 48.5816233,122.222958 C48.4617053,122.824344 48.7104141,123.334489 49.0645217,123.450419" id="Fill-66" fill="#CCCCCC"></path>
                        <path d="M72.5775095,123.804864 C72.2946536,123.897447 71.9951275,123.72221 71.9625936,123.70262 C71.7364703,123.566295 71.6442463,123.359393 71.5235217,123.08889 C71.4533455,122.931901 71.3742964,122.710507 71.3331586,122.431417 C69.6056404,115.135347 67.8781223,107.839546 66.1506041,100.543477 C66.6972258,100.524155 67.2438475,100.504565 67.7902003,100.484975 C69.5470258,107.849207 71.3038513,115.213439 73.0606768,122.577671 C73.1803259,123.179057 72.9318859,123.688934 72.5775095,123.804864" id="Fill-67" fill="#CCCCCC"></path>
                        <path d="M43.2526128,127.892332 C43.5760688,127.972034 43.8995247,127.697237 44.0140652,127.600092 C44.4550193,127.225467 44.5765505,126.700294 44.5994048,126.606369 C44.8102024,125.745751 47.7643257,116.07929 51.8608964,102.702268 C51.9189733,102.451355 52.0792224,101.919205 52.5438374,101.435895 C52.8796616,101.086764 53.2378023,100.90455 53.4615059,100.812504 C58.1200241,100.770372 62.7788113,100.727972 67.4373295,100.68584 C67.5938145,100.685303 68.0651513,100.703283 68.5206246,101.036581 C68.9965323,101.384371 69.1519417,101.853994 69.194155,102.000785 L77.2165612,127.892332 C77.4561283,128.276618 77.9503195,128.417774 78.3487914,128.223484 C78.7324752,128.036439 78.9271403,127.587211 78.7978117,127.171527 C76.2147351,118.638335 73.6313896,110.105412 71.0483131,101.57222 C70.9415699,101.251803 70.7477115,100.8066 70.3849999,100.364349 C69.6638786,99.4854822 68.7386818,99.1808978 68.3547291,99.0783857 C68.3808099,98.3122287 68.4068907,97.5460716 68.4327027,96.7796462 C67.9514174,96.8317073 67.4698633,96.8835 66.9883093,96.9355611 C66.9103357,97.7277488 66.8323621,98.5199364 66.7541196,99.3123924 L54.6520818,99.3902157 C54.613095,98.6240586 54.5738393,97.8576332 54.5348526,97.0914761 L52.8952563,97.0914761 C52.9213371,97.7019866 52.947418,98.3122287 52.9732299,98.9227391 C52.6586468,99.046183 52.204249,99.2662351 51.763295,99.663134 C51.0034559,100.346369 50.7171046,101.163514 50.5528223,101.650044 C50.0381967,103.176454 49.3385854,105.294053 48.5620761,107.884496 C46.5968729,114.170472 44.6319386,120.456717 42.6670044,126.742962 C42.6436123,127.338176 42.9071092,127.807263 43.2526128,127.892332" id="Fill-68" fill="#DEE1EE"></path>
                        <path d="M51.4507822,67.7515783 C52.4550282,65.6079487 53.2500899,64.8216649 54.0274059,64.2449673 C55.810581,62.9217027 57.7819683,62.8092614 59.788847,62.69521 C61.0918125,62.6208753 63.1989813,62.5245355 65.5048484,63.5434841 C66.0606118,63.7890301 66.8244841,64.1319893 67.6130928,64.8291789 C69.186277,66.2203376 69.7218749,67.9933673 69.9552579,68.8035348 C71.8301192,75.3028546 72.7676843,78.5523803 72.8833003,79.0901663 C74.8162386,88.0707079 74.7180994,88.9686279 76.0455324,90.3117509 C76.6150085,90.8881801 77.7278797,91.8306472 77.6851287,93.117147 C77.6765247,93.3790627 77.5894094,94.5630504 75.6941136,95.9225432 C73.0268793,97.8353865 69.8391041,97.9175035 58.9461946,98.0264561 C58.9461946,98.0264561 57.1799585,98.0441676 50.5140238,97.3641529 C49.1309337,97.2229975 47.5109653,97.0383684 45.946385,95.9225432 C45.4201978,95.5471128 43.9112745,94.472346 43.7211803,92.7664054 C43.653424,92.1588469 43.7687711,91.6215977 44.1895596,90.5454891 C45.1002372,88.216962 46.1864899,86.5765003 46.4147643,86.2203916 C47.186165,85.0178873 47.0917901,84.5635602 48.1715898,79.2071696 C49.3809869,73.2080658 50.1583029,70.5110856 51.4507822,67.7515783" id="Fill-69" fill="#FFFFFF"></path>
                        <path d="M51.4507822,67.7515783 C52.4550282,65.6079487 53.2500899,64.8216649 54.0274059,64.2449673 C55.810581,62.9217027 57.7819683,62.8092614 59.788847,62.69521 C61.0918125,62.6208753 63.1989813,62.5245355 65.5048484,63.5434841 C66.0606118,63.7890301 66.8244841,64.1319893 67.6130928,64.8291789 C69.186277,66.2203376 69.7218749,67.9933673 69.9552579,68.8035348 C71.8301192,75.3028546 72.7676843,78.5523803 72.8833003,79.0901663 C74.8162386,88.0707079 74.7180994,88.9686279 76.0455324,90.3117509 C76.6150085,90.8881801 77.7278797,91.8306472 77.6851287,93.117147 C77.6765247,93.3790627 77.5894094,94.5630504 75.6941136,95.9225432 C73.0268793,97.8353865 69.8391041,97.9175035 58.9461946,98.0264561 C58.9461946,98.0264561 57.1799585,98.0441676 50.5140238,97.3641529 C49.1309337,97.2229975 47.5109653,97.0383684 45.946385,95.9225432 C45.4201978,95.5471128 43.9112745,94.472346 43.7211803,92.7664054 C43.653424,92.1588469 43.7687711,91.6215977 44.1895596,90.5454891 C45.1002372,88.216962 46.1864899,86.5765003 46.4147643,86.2203916 C47.186165,85.0178873 47.0917901,84.5635602 48.1715898,79.2071696 C49.3809869,73.2080658 50.1583029,70.5110856 51.4507822,67.7515783 Z" id="Stroke-70" stroke="#E6E6E6" stroke-width="0.704727477"></path>
                        <path d="M27.2632424,66.9236993 C27.3081444,66.8788838 27.7767925,66.4199947 28.1123478,66.5584665 C28.4616157,66.7023054 28.4339216,67.3970797 28.4196713,67.7566771 C28.3986991,68.2890959 28.2411387,68.6486932 27.9660801,69.2761101 C27.7367302,69.7988681 27.6047129,69.9349247 27.4536055,70.0213354 C27.1610701,70.188253 26.8392274,70.1442426 26.6776339,70.1090879 C26.6241279,70.2531952 26.570353,70.3975709 26.5165781,70.5416782 C26.4679118,70.7287225 26.4189767,70.9154984 26.3703104,71.1025427 C26.5262576,71.1712419 26.7798062,71.2563108 27.0876674,71.2340373 C27.6633275,71.1927104 28.0424405,70.8043989 28.2734036,70.5612682 C28.6804795,70.1321666 28.8530968,69.621753 29.1811236,68.6186373 C29.5320048,67.5457491 29.5285094,67.1544857 29.4884471,66.8651977 C29.4454272,66.5530994 29.3862748,66.1666664 29.0638944,65.9007253 C28.685857,65.5891637 28.1830618,65.6388096 28.0099066,65.666987 C27.7646932,65.7072405 27.5794387,65.8025069 27.4681247,65.8717429 C27.4210717,66.0679113 27.3740186,66.2640797 27.3266967,66.4602481 L27.2632424,66.9236993 Z" id="Fill-71" fill="#D0D4E5"></path>
                        <path d="M19.6752835,64.2524545 C19.6596888,64.0613848 19.7970836,63.8947356 19.9874467,63.868705 C21.1116107,63.7160103 22.4963139,63.6269161 24.0694982,63.7425776 C25.3237974,63.8346238 26.4320978,64.0377695 27.365092,64.2696293 C27.365092,64.2696293 27.6441837,64.4215189 27.6331598,64.6901435 C27.5611015,66.4092336 26.572988,71.1357921 25.9984033,72.7040659 C25.919892,72.9187509 25.7241514,73.0666152 25.495877,73.0878154 C24.7567412,73.1565146 23.9460848,73.1986465 23.0738562,73.1943528 C22.269115,73.1905958 21.5178799,73.1479272 20.8274104,73.0821799 C20.5553095,73.0561493 20.3361768,72.8513935 20.2969211,72.5814271 C20.0431037,70.8322812 19.8202068,66.0568818 19.6752835,64.2524545" id="Fill-72" fill="#DEE4F5"></path>
                        <path d="M23.1232484,68.9961072 C23.2695161,68.6692493 23.4679454,68.6550265 23.659384,68.2404161 C23.8941114,67.7321493 23.8338835,67.239984 23.7827974,66.8240318 C23.7629007,66.6614079 23.7314424,66.510055 23.6948755,66.3648743 C23.541617,66.361654 23.4152461,66.3863428 23.3442632,66.400834 C22.8245289,66.5044195 22.5142479,66.8616017 22.4136888,66.9912178 C21.9471917,67.5915307 22.0749071,68.3225331 22.1294886,68.6340947 C22.1937495,69.0036212 22.3257669,69.7579706 22.8901343,69.9659467 C22.9624615,69.9927823 23.0345199,70.00459 23.1057716,70.0110305 C22.9726788,69.5416755 23.0240338,69.2177695 23.1232484,68.9961072" id="Fill-73" fill="#525867"></path>
                        <path d="M25.1919414,67.1815628 C25.1489215,67.0516784 25.0109889,66.636263 24.5955779,66.4196995 C24.4205406,66.3284583 24.2471166,66.2992075 24.0992357,66.2959872 C24.1355337,66.441168 24.1669921,66.5925209 24.1871576,66.7551448 C24.2379749,67.1708286 24.2982028,67.6632623 24.0634754,68.1712607 C23.8720368,68.5861394 23.6738764,68.6003623 23.5276087,68.9272202 C23.4281251,69.1488824 23.377039,69.4727884 23.5101318,69.9421435 C23.8825229,69.975688 24.2191537,69.7733474 24.2965895,69.7258484 C24.7431899,69.4531984 24.8948351,69.0096056 25.0575041,68.5332732 C25.2091493,68.0888753 25.353266,67.667556 25.1919414,67.1815628" id="Fill-74" fill="#525867"></path>
                    </g>
                </g>
            </g>
        </g>
    </g>
</svg>