<?xml version="1.0" encoding="UTF-8"?>
<svg width="83px" height="42px" viewBox="0 0 83 42" version="1.1" xmlns="http://www.w3.org/2000/svg" xmlns:xlink="http://www.w3.org/1999/xlink">
    <title>Group 11 Copy</title>
    <g id="Solver" stroke="none" stroke-width="1" fill="none" fill-rule="evenodd">
        <g id="Solver-profile---version-1" transform="translate(-686.000000, -1138.000000)">
            <g id="Group-69" transform="translate(137.000000, 156.000000)">
                <g id="Group-12-Copy-7" transform="translate(496.511719, 892.000000)">
                    <g id="Group-59" transform="translate(32.000000, 33.000000)">
                        <g id="Group-9" transform="translate(0.599999, 0.799994)">
                            <g id="Group-11-Copy" transform="translate(20.088285, 57.000009)">
                                <rect id="Rectangle" fill="#0065C9" fill-rule="nonzero" x="0" y="0" width="82" height="41" rx="4"></rect>
                                <g id="linkedin-(5)" transform="translate(9.000000, 12.000000)" fill="#FFFFFF">
                                    <path d="M62.7507979,0.0205144238 C63.4381786,0.0205144238 63.9953281,0.565419064 63.9953281,1.2368075 L63.9953281,15.7835568 C63.9953281,16.455168 63.4381786,16.9996272 62.7507979,16.9996272 L48.4013642,16.9996272 C47.7142057,16.9996272 47.156834,16.455168 47.156834,15.7837795 L47.156834,1.23658481 C47.156834,0.565419064 47.7142057,0.0205144238 48.4013642,0.0205144238 L62.7507979,0.0205144238 Z M52.2611859,6.56671864 L49.7178994,6.56671864 L49.7178994,14.233685 L52.2614081,14.233685 L52.2611859,6.56671864 Z M58.5042829,6.38701368 C57.2086257,6.38701368 56.5992421,7.07227854 56.2535821,7.58926178 L56.211834,7.65251442 L56.2121249,6.56694132 L53.6690607,6.56694132 C53.6771371,6.74237186 53.6812606,7.28832209 53.682879,8.01361462 L53.6830916,9.73478825 C53.6807328,11.5001779 53.6724073,13.44764 53.6696977,14.0477554 L53.6688385,14.2339077 L53.6688385,14.2339077 L56.2119027,14.233685 L56.2119027,9.95260955 C56.2119027,9.72369171 56.2285705,9.49432849 56.2956862,9.33087937 C56.4794767,8.87282099 56.89795,8.39872946 57.6006651,8.39872946 C58.5207285,8.39872946 58.8889761,9.10173884 58.8889761,10.1325372 L58.8889761,14.233685 L61.4320403,14.233685 L61.4320403,9.83770526 C61.4320403,7.48283539 60.1775094,6.38701368 58.5042829,6.38701368 Z M51.0068772,2.87085337 C50.1363727,2.87085337 49.5678891,3.44314799 49.5678891,4.19559293 C49.5678891,4.93133667 50.1197049,5.52010981 50.9733193,5.52010981 L50.9899871,5.52010981 C51.8767149,5.52010981 52.428753,4.93133667 52.428753,4.19559293 C52.4120852,3.44314799 51.8767149,2.87085337 51.0068772,2.87085337 Z" id="Combined-Shape"></path>
                                    <path d="M0.0209178868,14.2430377 L7.04806899,14.2430377 L7.04806899,11.9311456 L2.56442656,11.9311456 L2.56442656,3.11179608 L0.0209178868,3.11179608 L0.0209178868,14.2430377 Z M10.6058698,14.2430377 L10.6058698,6.57607132 L8.06258337,6.57607132 L8.06258337,14.2430377 L10.6058698,14.2430377 Z M9.33444883,5.52946248 C10.2211766,5.52946248 10.7732147,4.94068935 10.7732147,4.20450024 C10.7567691,3.45227798 10.2211766,2.88020604 9.35133888,2.88020604 C8.4812789,2.88020604 7.91235079,3.45250066 7.91235079,4.20450024 C7.91235079,4.94068935 8.46438885,5.52946248 9.31778101,5.52946248 L9.33444883,5.52946248 L9.33444883,5.52946248 Z M11.7866179,14.2430377 L14.3299043,14.2430377 L14.3299043,9.96129418 C14.3299043,9.73215365 14.3463499,9.50301312 14.4136879,9.33978668 C14.5972561,8.88195099 15.0157294,8.40763677 15.7184445,8.40763677 C16.6389524,8.40763677 17.0072,9.11086883 17.0072,10.1409991 L17.0072,14.242815 L19.550042,14.242815 L19.550042,9.84683526 C19.550042,7.4917427 18.2952888,6.39592099 16.6218401,6.39592099 C15.2499677,6.39592099 14.6474818,7.16439909 14.312792,7.68792619 L14.3299043,7.68792619 L14.3299043,6.57607132 L11.7866179,6.57607132 C11.8201757,7.29555922 11.7866179,14.2430377 11.7866179,14.2430377 L11.7866179,14.2430377 Z M23.1380671,3.11179608 L20.5947806,3.11179608 L20.5947806,14.2430377 L23.1380671,14.2430377 L23.1380671,11.7572304 L23.7736665,10.9553499 L25.7649148,14.2430377 L28.893575,14.2430377 L25.5475665,9.48363972 L28.4753239,6.24583283 L25.4137795,6.24583283 C25.4137795,6.24583283 23.322302,9.14248978 23.1380671,9.48631192 L23.1380671,3.11179608 Z" id="Shape" fill-rule="nonzero"></path>
                                    <path d="M35.6947105,11.0448683 C35.7282684,10.8480168 35.778494,10.4703469 35.778494,10.0432414 C35.778494,8.06136513 34.7744248,6.04920398 32.1309092,6.04920398 C29.3031588,6.04920398 27.9979577,8.29006029 27.9979577,10.3224856 C27.9979577,12.8361282 29.5876228,14.4058188 32.3649254,14.4058188 C33.469446,14.4058188 34.4897385,14.242815 35.3266851,13.8992156 L34.9919954,12.2161795 C34.3057258,12.4442066 33.6030107,12.5584429 32.733173,12.5584429 C31.5453133,12.5584429 30.5081307,12.0696543 30.4243472,11.0283898 L35.6947105,11.044423 L35.6947105,11.0448683 L35.6947105,11.0448683 Z M30.4076793,9.32085865 C30.4745728,8.66661679 30.9099362,7.70128715 31.9973445,7.70128715 C33.1516463,7.70128715 33.4196648,8.73186283 33.4196648,9.32085865 L30.4079016,9.32085865 L30.4076793,9.32085865 Z M42.0560379,3.11179608 L42.0560379,6.96509804 L42.02248,6.96509804 C41.6542324,6.42576047 40.8846238,6.06590518 39.8645535,6.06590518 C37.9066407,6.06590518 36.1834108,7.63581843 36.1998564,10.3178092 C36.1998564,12.8038392 37.7561859,14.4229654 39.6967642,14.4229654 C40.7510591,14.4229654 41.7546838,13.9646843 42.2569406,13.0815246 L42.3069441,13.0815246 L42.4076177,14.2430377 L44.6662178,14.2430377 C44.6328822,13.7032548 44.5991021,12.7711049 44.5991021,11.8552108 L44.5991021,3.1115734 L42.0558157,3.1115734 L42.0560379,3.11179608 Z M42.0560379,10.694143 C42.0560379,10.8901038 42.0393701,11.0867327 42.00559,11.2497365 C41.8555796,11.9534139 41.2530937,12.4435386 40.5168207,12.4435386 C39.4629703,12.4435386 38.7767007,11.5933359 38.7767007,10.2523405 C38.7767007,8.99329235 39.3627411,7.9791952 40.5337107,7.9791952 C41.3199872,7.9791952 41.8720252,8.51875545 42.0227023,9.18903047 C42.0560379,9.33666912 42.0560379,9.50034093 42.0560379,9.64731153 L42.0560379,10.6939204 L42.0560379,10.694143 Z" id="Shape" fill-rule="nonzero"></path>
                                </g>
                            </g>
                        </g>
                    </g>
                </g>
            </g>
        </g>
    </g>
</svg>