<?xml version="1.0" encoding="UTF-8"?>
<svg width="167px" height="136px" viewBox="0 0 167 136" version="1.1" xmlns="http://www.w3.org/2000/svg" xmlns:xlink="http://www.w3.org/1999/xlink">
    <!-- Generator: Sketch 52.6 (67491) - http://www.bohemiancoding.com/sketch -->
    <title>Group 78</title>
    <desc>Created with Sketch.</desc>
    <g id="Sign-in" stroke="none" stroke-width="1" fill="none" fill-rule="evenodd">
        <g id="Choose-role" transform="translate(-305.000000, -585.000000)">
            <g id="Group" transform="translate(233.000000, 189.000000)">
                <g id="Group-7" transform="translate(0.000000, 363.400000)">
                    <g id="Group-78" transform="translate(72.000000, 34.800000)">
                        <path d="M152.084289,116.336222 C155.590382,112.866444 166.520171,102.043259 166.712211,87.0842963 C166.731414,85.4946667 166.306184,74.1014074 158.078664,65.8380741 C152.83873,60.5731111 148.589171,60.7759259 139.450836,56.3852593 C139.450836,56.3852593 126.636316,49.6320741 115.761395,39.0308889 C101.32277,24.9462222 106.1265,14.7862963 93.3366711,6.21051852 C85.1804803,0.729037037 76.6018026,0.424814815 70.9119474,0.213777778 C48.9837829,-0.592 33.0938882,12.4155556 27.9554605,16.6225926 C22.1942763,21.3448889 -0.101506579,39.59 0.159118421,67.7401481 C0.400539474,93.7388148 19.7169671,110.906815 25.12425,115.703111 C26.7136053,117.117333 28.3523421,118.457556 30.0404605,119.723778 L148.314829,119.723778 C149.640816,118.63479 150.897303,117.505605 152.084289,116.336222 Z" id="_Path_76" fill="#F4F6F8"></path>
                        <path d="M146.578243,80.7257778 C144.383507,80.4078519 138.800645,79.106 134.644362,73.9122963 C130.323474,68.513037 130.422237,62.5848148 130.666401,60.2853333 L132.962645,60.5265185 C132.798039,62.0997037 132.556618,67.6085926 136.449533,72.4706667 C139.066515,75.6977729 142.798615,77.8284574 146.910197,78.4427407 L146.578243,80.7257778 Z" id="_Path_77" stroke="#D0D3DD" stroke-width="0.685185185" fill="#FFFFFF"></path>
                        <path d="M89.9979276,78.9223704 L146.745592,88.6245926" id="_Path_78" stroke="#D0D3DD" stroke-width="1.64718519"></path>
                        <rect id="_Rectangle_7" fill="#DEE1EE" x="144.89927" y="35.3418519" width="3.69264474" height="68.1896296"></rect>
                        <path d="M89.1502105,75.2991111 C86.4863487,74.9154074 79.75125,73.3422222 74.7280461,67.0768889 C69.5155461,60.5539259 69.6280263,53.3896296 69.9188289,50.6105185 L72.2150724,50.8517037 C72.0093158,52.7976296 71.7130263,59.6220741 76.5304737,65.6352593 C81.0379145,71.2702222 87.0871579,72.6817037 89.4794211,73.0352593 L89.1502105,75.2991111 Z" id="_Path_79" stroke="#D0D3DD" stroke-width="0.685185185" fill="#FFFFFF"></path>
                        <polygon id="_Path_80" stroke="#DEE1EE" stroke-width="0.6" fill="#FFFFFF" points="49.7629145 52.2412593 130.290553 63.5248889 159.612237 19.472963 81.6359803 16.8692593"></polygon>
                        <rect id="_Rectangle_8" fill="#DEE1EE" x="88.1516053" y="50.827037" width="3.69264474" height="45.1537037"></rect>
                        <polygon id="_Rectangle_9" fill="#DEE1EE" transform="translate(78.714555, 99.822993) rotate(65.500000) translate(-78.714555, -99.822993) " points="76.8771345 79.7314903 80.566792 79.730129 80.5519745 119.914495 76.8623171 119.915856"></polygon>
                        <polygon id="_Rectangle_10" fill="#DEE1EE" transform="translate(136.057680, 108.362214) rotate(70.330000) translate(-136.057680, -108.362214) " points="134.21918 88.2694511 137.908626 88.2683076 137.89618 128.454977 134.206734 128.456121"></polygon>
                        <polygon id="_Path_81" stroke="#D0D3DD" stroke-width="0.685185185" fill="#FFFFFF" points="130.290553 69.3407407 49.7629145 58.5038519 49.7629145 52.2412593 130.290553 62.1024444"></polygon>
                        <polygon id="_Path_82" fill="#D0D3DD" points="159.864632 25.5765926 130.542947 69.6312593 130.542947 61.7543704 159.864632 19.7634815"></polygon>
                        <path d="M128.655474,18.6123704 C128.54848,24.5899259 124.389454,30.0686667 119.371737,30.847037 C114.35402,31.6254074 110.373316,27.1388148 110.485796,20.8022222 C110.598276,14.4656296 114.754559,9.00059259 119.769533,8.56755556 C124.784507,8.13451852 128.759724,12.6348148 128.655474,18.6123704 Z" id="_Path_83" fill="#FFFFFF"></path>
                        <path d="M124.205645,19.1495556 C124.150776,22.2438519 122.027368,25.0394074 119.467757,25.392963 C116.908145,25.7465185 114.87527,23.4497778 114.938368,20.265037 C115.001467,17.0802963 117.116645,14.2847407 119.676257,14.0216296 C122.235868,13.7585185 124.266,16.0552593 124.205645,19.1495556 Z" id="_Path_84" fill="#0B113A"></path>
                        <path d="M131.13827,31.524 C125.198763,40.319037 115.18802,42.9282222 108.790362,36.8300741 C102.395447,30.4441481 102.036059,17.6174815 107.967336,8.69911111 C113.917816,0.0794814815 123.909355,-1.21688889 130.301526,5.28962963 C136.699184,11.5165926 137.075033,23.0277037 131.13827,31.524 Z" id="_Path_85" fill="#FFFFFF" opacity="0.21"></path>
                        <path d="M131.13827,31.524 C125.198763,40.319037 115.18802,42.9282222 108.790362,36.8300741 C102.395447,30.4441481 102.036059,17.6174815 107.967336,8.69911111 C113.917816,0.0794814815 123.909355,-1.21688889 130.301526,5.28962963 C136.699184,11.5165926 137.075033,23.0277037 131.13827,31.524 Z" id="_Path_86" stroke="#03256C" stroke-width="5.4157037"></path>
                        <path d="M122.674816,32.6641481 C121.336444,33.399823 119.846969,33.8189439 118.321007,33.8892593" id="_Path_87" stroke="#FFFFFF" stroke-width="1.63622222"></path>
                        <path d="M130.770651,16.8939259 C130.865876,18.036196 130.841971,19.1852615 130.699322,20.3225926 C130.470946,22.3087657 129.882488,24.2368006 128.962737,26.0123704 C128.137875,27.6158217 127.037505,29.0620668 125.711783,30.2851852" id="_Path_88" stroke="#FFFFFF" stroke-width="1.63622222"></path>
                        <path d="M113.092046,38.6937778 L103.602553,74.6742222" id="_Path_89" stroke="#03256C" stroke-width="5.4157037"></path>
                        <path d="M121.769487,13.5008889 L120.576099,16.9405185 C120.576099,16.9405185 124.608928,15.1919259 124.266,15.0795556 C123.923072,14.9671852 121.769487,13.5008889 121.769487,13.5008889 Z" id="_Path_90" fill="#FFFFFF"></path>
                        <path d="M115.865645,21.2763704 C115.865645,21.8957778 115.440414,22.4521481 114.938368,22.5151852 C114.436322,22.5782222 114.04127,22.1232593 114.052243,21.5011111 C114.063217,20.878963 114.477474,20.3225926 114.97952,20.2622963 C115.481566,20.202 115.876618,20.6542222 115.865645,21.2763704 Z" id="_Path_91" fill="#FFFFFF"></path>
                        <path d="M61.6913092,119.296222 C61.849602,119.367658 62.0226077,119.400534 62.1960987,119.392148 C62.3917713,119.379167 62.5807704,119.315915 62.7447829,119.208519 C63.2524155,118.899296 63.818331,118.697781 64.4072961,118.616519 C64.756004,118.563737 65.1116634,118.647167 65.4004145,118.849481 C65.8009539,119.183852 65.7954671,119.76763 65.7899803,120.315778 C65.7784531,121.032329 65.6128491,121.738029 65.3043947,122.385037 C64.3470102,122.815892 63.445212,123.360675 62.6185855,124.007556 C61.7955592,124.648889 61.4718355,125.076444 60.5555329,125.514963 C59.9172394,125.835099 59.2172402,126.013667 58.5034539,126.038444 C57.8642368,126.038444 57.0192632,126.068593 56.60775,125.534148 C56.3334079,125.191556 56.3965066,124.676296 56.5117303,123.659481 C56.5944449,123.028658 56.711673,122.402832 56.8628882,121.784815 C56.9698816,121.280519 57.1152829,120.554222 57.2606842,119.655259 L61.6913092,119.296222 Z" id="_Path_92" fill="#0B113A"></path>
                        <path d="M70.316625,126.408444 C70.2782171,126.682519 70.2178618,127.112815 70.1355592,127.652741 C69.8612171,129.505481 69.74325,129.985111 69.7734276,130.815556 C69.8063487,131.730963 69.8365263,132.331185 70.2919342,132.706667 C70.8269013,133.147926 71.6060329,133.002667 71.8748882,132.93963 C75.5455855,132.728593 78.0640461,132.665556 79.6058487,132.758741 C80.3818872,132.80638 81.1593304,132.691558 81.888375,132.42163 C82.4782105,132.19963 83.1421184,131.939259 83.4960197,131.254074 C83.7703618,130.744296 83.8800987,129.944 83.4960197,129.38763 C83.3972566,129.247852 83.1174276,128.905259 80.9803026,128.609259 C79.8829342,128.458519 79.6552303,128.505111 78.5112237,128.335185 C77.2026118,128.126889 76.8240197,127.956963 76.5140132,127.740444 C75.8885132,127.299185 75.7705461,126.816815 75.477,126.471481 C74.95575,125.843852 73.6718289,125.432741 70.316625,126.408444 Z" id="_Path_93" fill="#0B113A"></path>
                        <path d="M59.4471908,61.874963 C59.1304798,62.2309946 58.963426,62.6953429 58.9808092,63.1713333 C58.9588618,63.9935556 58.9231974,65.2159259 58.8765592,66.6959259 C58.7201842,71.8019259 58.640625,74.3535556 58.5144276,77.2176296 C58.3086711,81.8028889 58.2181382,82.0824444 58.1522961,85.0451852 C58.1248618,86.2072593 58.1248618,86.812963 58.0480461,87.8434815 C57.8775818,89.9227412 57.5446127,91.9854989 57.0521842,94.0128889 C56.659875,95.8437037 56.5501382,98.0664444 56.3251776,102.509185 C56.0069408,108.862222 56.1303947,114.842519 56.3251776,119.25237 C56.9184339,119.910187 57.7284393,120.333274 58.6077039,120.444593 C60.3881842,120.647407 61.5898026,119.394889 61.7214868,119.25237 C61.8860921,118.334222 62.1357434,116.966593 62.4484934,115.313926 C63.0602763,112.068889 64.0012697,107.091704 65.4059013,100.851037 C66.0314013,98.0637037 66.5224737,96.041037 67.0656711,93.8018519 C68.9860658,85.9359259 69.2384605,85.5796296 69.8667039,82.658 C71.6773618,74.2384444 72.5799474,70.0286667 70.5937105,66.7973333 C67.9106447,62.4203704 61.1069605,60.2497037 59.4471908,61.874963 Z" id="_Path_94" fill="#37528A"></path>
                        <path d="M58.6708026,56.0700741 C60.6861845,57.909094 62.9586784,59.4453833 65.416875,60.6306667 C67.3992454,61.6289875 69.512228,62.3440057 71.6938224,62.7547407 C73.3700526,63.0617037 76.1518816,63.5440741 79.5811579,62.7547407 C81.1414143,62.3949331 82.6437591,61.8193048 84.0447039,61.0445185 C84.0447039,61.7708148 84.0062961,62.8287407 83.9404539,64.1031852 C83.8005395,66.8439259 83.5591184,69.0858519 83.0570724,72.9667407 C82.8897237,74.2658519 82.5083882,77.1134815 81.7073092,82.6607407 C81.2326974,85.9167407 81.2052632,86.0044444 80.6099408,90.0223704 C80.3355987,91.9408889 79.8609868,95.1722222 79.3123026,99.0942222 C79.0818553,100.738667 78.552375,104.540074 77.9625395,108.993778 C77.3727039,113.447481 76.6292368,119.312667 75.8089539,126.359111 C74.9606166,127.120027 73.8626712,127.544151 72.7226053,127.551333 C71.5044793,127.533042 70.341373,127.041515 69.4798816,126.180963 C69.3948355,124.69 69.2768684,122.494667 69.1561579,119.830667 C68.8269474,112.501926 68.6595987,108.837556 68.7803092,104.370148 C68.8900461,100.245333 69.0875724,100.724963 69.2988158,95.0516296 C69.4359868,91.3461481 69.4332434,89.022 69.4551908,84.064 C69.4689079,80.6380741 69.4990855,75.628 69.5594408,69.3955556 C69.065625,69.1214815 68.2288816,68.6747407 67.1726645,68.1512593 C62.6405329,65.9011111 60.8079276,65.6188148 59.5459539,63.7441481 C59.0054426,62.9211742 58.667918,61.9819129 58.5610658,61.0034074 L58.6708026,56.0700741 Z" id="_Path_95" fill="#415F9E"></path>
                        <path d="M71.5017829,20.7501481 C71.4496579,19.5825926 71.6471842,19.3194815 71.4441711,19.1495556 C70.5635329,18.4177778 66.1960066,22.8248889 65.6637829,23.8691111 L65.4854605,24.2144444 C65.3510329,24.4885185 65.1315592,24.8886667 64.8105789,25.4505185 C64.2618947,26.4317037 63.9875526,26.8428148 63.9354276,27.5307407 C63.9265016,28.0463652 64.0197377,28.5586626 64.2097697,29.0381481 C64.4496474,29.7712469 64.7795432,30.4718206 65.1919145,31.1238519 C66.1082171,32.6367407 66.563625,33.3931852 67.0519539,34.0564444 C68.9723487,36.6656296 69.8118355,37.4220741 72.1053355,40.3135556 C73.9077632,42.5856296 73.8144868,43.1036296 74.7856579,43.6024444 C77.0160592,44.77 79.7457632,43.7942963 80.3822368,43.5668148 C81.462173,43.178346 82.4590198,42.5897488 83.3204408,41.8319259 L75.3919539,33.955037 C75.0309849,33.340809 74.5951077,32.7737096 74.0943158,32.2667407 C73.4331513,31.6007407 72.8460592,31.2362222 72.8597763,30.6414815 C72.8597763,30.498963 72.8981842,30.4085185 73.1341184,29.9234074 C73.3261579,29.5397037 73.4743026,29.2574074 73.5867829,29.0436296 C73.7760789,28.6873333 73.91325,28.4187407 73.9187368,28.4077778 C74.1546711,27.9555556 72.3851645,25.1956296 71.8172763,22.9262963 C71.6474666,22.2117446 71.5418827,21.4834682 71.5017829,20.7501481 Z" id="_Path_96" fill="#6C5239"></path>
                        <path d="M96.2200066,42.169037 C96.1980592,44.6905185 96.1751974,47.212 96.1514211,49.7334815 C96.7138224,49.664963 97.5889737,49.5580741 98.6643947,49.4402222 C101.051171,49.1661481 101.470914,49.1661481 102.414651,48.9797778 C103.469563,48.7543034 104.501703,48.4332216 105.498257,48.0205185 C106.916605,47.4531852 107.144309,47.1708889 109.03727,46.3760741 C109.901447,46.0060741 110.077026,45.9677037 110.444645,45.7045926 C110.974125,45.3263704 111.22652,44.9618519 111.624316,45.0111852 C111.872282,45.0479756 112.085948,45.2049898 112.194947,45.4305185 C112.354066,45.7922963 112.145566,46.2225926 111.942553,46.4582963 C111.503605,46.9735556 110.845184,46.8940741 110.773855,47.2668148 C110.753634,47.3788738 110.791883,47.493511 110.875362,47.571037 C111.03448,47.6943704 111.328026,47.5545926 111.445993,47.5025185 C111.950783,47.2805185 112.543362,47.2942222 113.070099,47.1654074 C114.052311,46.8853882 115.087886,46.8477677 116.087862,47.0557778 C116.485658,47.1544444 116.834072,47.2448889 116.910888,47.4888148 C117.034342,47.9026667 116.279901,48.4754815 115.558382,48.977037 C114.293834,49.8696941 112.954666,50.6518693 111.55573,51.3148889 C107.714941,53.0141481 108.461151,52.9237037 105.572329,54.1131852 C103.972914,54.7737037 104.247257,54.5928148 100.842671,55.9302963 C98.1952697,56.969037 98.0224342,57.0814074 97.0677237,57.3691852 C94.3243026,58.1914074 92.67825,58.2215556 91.8552237,58.1914074 C89.6769474,58.1146667 88.9279934,57.5308889 88.7057763,57.3417778 C88.3710789,57.0677037 87.9760263,56.6017778 87.5151316,55.341037 C87.0133836,53.9800261 86.7399388,52.5456119 86.7058224,51.0956296 C86.7058224,44.336963 85.0241053,41.9141481 86.5412171,40.4752593 C88.2037303,38.9075556 92.2283289,39.9106667 96.2200066,42.169037 Z" id="_Path_97" fill="#6C5239"></path>
                        <path d="M83.8115132,63.8181481 C83.9748694,62.131005 84.3585487,60.4724762 84.9527763,58.8848148 C85.518438,57.3731776 86.270442,55.9378482 87.1914079,54.612 C87.1822632,53.4499259 87.1822632,52.278716 87.1914079,51.0983704 C87.1914079,48.0945185 87.239875,45.1427407 87.3368092,42.243037 C88.564162,42.8168627 89.8903745,43.1499527 91.2434408,43.2242222 C93.0695494,43.3158284 94.8886903,42.9383905 96.5272697,42.1279259 L96.7686908,34.6895556 C96.8350183,33.9376906 96.7756821,33.18004 96.5931118,32.4476296 C96.4159366,31.7707452 96.1385328,31.124102 95.7700855,30.5291111 C94.6419874,28.6849885 93.4128956,26.904455 92.0884145,25.1956296 C89.4931382,21.7094074 86.8292763,19.5524444 85.3368553,18.5575556 C83.8813001,17.6140713 82.343288,16.8040785 80.741625,16.1374815 L80.7169342,16.1374815 C80.6099408,16.1374815 80.4563092,16.1374815 80.2725,16.1374815 C79.13972,16.1636497 78.0415407,16.5325374 77.1230526,17.1954074 C76.0942697,17.982 75.7211645,19.0892593 75.5236382,19.6620741 C74.2836118,23.2497037 72.5525132,26.6564444 71.2384145,30.2166667 C70.7528289,31.534963 70.2590132,32.8697037 69.5923618,34.4483704 C69.5923618,34.4483704 69.1973092,35.3884444 68.8296908,36.2079259 C66.8928355,40.5108889 62.3689342,44.9152593 60.0287961,50.5748889 C59.321201,52.2951611 58.8229049,54.0940835 58.5446053,55.933037 C61.9464474,59.9811111 65.3400592,61.5351111 67.3235526,62.2011111 C69.4524474,62.9164444 71.6471842,63.0973333 76.0339145,63.4536296 C79.3013289,63.7057778 81.9871382,63.7907407 83.8115132,63.8181481 Z" id="_Path_98" fill="#FFC857"></path>
                        <path d="M71.3755855,17.3434074 L80.6840132,16.1265185 L73.2383684,26.8647407 L71.7541776,27.3635556 C71.5231837,26.9327327 71.3153041,26.4899337 71.1314211,26.037037 C70.6924737,24.9571852 69.9599803,23.1976296 70.16025,21.0516296 C70.2881004,19.7414415 70.7030269,18.4754211 71.3755855,17.3434074 Z" id="_Path_99" fill="#FFC857"></path>
                        <path d="M87.934875,17.9162222 C87.5823772,18.3667738 87.1913392,18.7858577 86.7661776,19.1687407 C86.2658577,18.9956457 85.7820087,18.7782639 85.3203947,18.5191852 C84.6921513,18.1683704 84.4809079,17.9491111 84.3108158,18.045037 C83.9870921,18.2286667 84.2038224,19.3496296 84.4781645,20.0759259 C84.5906447,20.3719259 84.9472895,21.3174815 87.2215855,23.0468889 C88.7002895,24.1760741 89.6906645,24.6255556 91.2022895,25.3765185 C91.5013224,25.5245185 92.4752368,26.0041481 92.5959474,25.8287407 C92.7166579,25.6533333 92.1734605,25.308 91.84425,24.5844444 C91.6157243,24.0603608 91.5214399,23.4876714 91.5699079,22.9180741 L92.9827697,21.2133333 C93.1528618,21.4024444 94.3050987,22.6467407 95.7591118,22.4439259 C96.7878947,22.2986667 97.4051645,21.5093333 97.9867697,20.7501481 C98.9140461,19.5332593 99.3584803,18.2999259 99.819375,16.3320741 C100.691783,12.6923704 101.127987,10.8725185 100.458592,9.69948148 C99.3612237,7.79466667 96.9881645,7.44111111 96.7247961,7.40548148 C94.5684671,7.11496296 92.3353224,8.20851852 91.1035263,9.7817037 C89.1666711,12.2182222 90.4231579,14.7287407 87.934875,17.9162222 Z" id="_Path_100" fill="#6C5239"></path>
                        <path d="M88.4341776,18.510963 C89.0267631,18.6715503 89.6572949,18.615169 90.2119145,18.352 C91.2606238,17.8907055 92.0601176,17.0011392 92.4066513,15.91 C92.7495789,14.8137037 92.3572697,14.2436296 92.9032105,13.7174074 C93.3134406,13.357455 93.8701749,13.2130692 94.4038618,13.3282222 C94.7724857,13.3962511 95.1060462,13.5899922 95.3475987,13.8763704 C95.6768092,14.3039259 95.5176908,14.6547407 95.8194671,14.8575556 C96.1571264,15.052359 96.5840164,14.9936908 96.8564803,14.715037 C97.1774605,14.3066667 96.5821382,13.7228889 96.900375,13.2021481 C97.161,12.7636296 97.6740197,13.0185185 98.0718158,12.5608148 C98.5135066,12.0537778 98.0965066,11.4864444 98.51625,10.6422963 C98.7103081,10.305689 98.9718149,10.0127143 99.2844079,9.7817037 C100.368059,8.83614815 101.007276,8.62511111 101.646493,8.13725926 C102.542731,7.41271277 103.188559,6.42526377 103.492816,5.3142963 C103.635474,4.82644444 104.178671,2.96 103.133428,1.56222222 C102.732915,0.983639401 102.117573,0.588942136 101.424276,0.465925926 C100.86813,0.383121304 100.301814,0.524069217 99.8495526,0.857851852 C99.467942,1.14783244 99.1977053,1.56004875 99.0841382,2.02540741 C98.2098181,1.252711 97.1228958,0.760874527 95.9648684,0.613925926 C95.2726832,0.491734926 94.5598825,0.572655869 93.9127895,0.846888889 C93.2083463,1.19141908 92.641623,1.7643519 92.3051447,2.47214815 C91.9249058,2.07697884 91.4378275,1.80082483 90.9032566,1.67733333 C90.2426636,1.54168857 89.5554399,1.63852246 88.9581711,1.95140741 C87.987,2.48311111 87.5864605,3.50266667 87.2160987,4.50851852 C87.1141274,4.77758649 87.0271197,5.05207917 86.9554737,5.33074074 C86.4592621,5.18921284 85.9298606,5.21816636 85.4520789,5.41296296 C84.3986053,5.87888889 83.8746118,7.24103704 84.0803684,8.24414815 C84.286125,9.18696296 85.0076447,9.17325926 85.4904868,10.5737778 C85.6496053,11.0342222 85.5810197,11.0643704 85.8471316,11.998963 C86.0611184,12.7471852 86.1681118,12.9554815 86.4397105,13.7612593 C86.7411605,14.5738117 86.9859107,15.4062483 87.1722039,16.2525926 C87.3477829,17.1926667 87.3395526,17.8038519 87.8498289,18.2231852 C88.0234749,18.3570466 88.2221484,18.4548886 88.4341776,18.510963 Z" id="_Path_101" fill="#0B113A"></path>
                        <path d="M18.9872171,67.1947407 C18.8218388,67.4904453 18.8733939,67.8599356 19.1134145,68.0991852 C19.3573233,68.3335254 19.7279033,68.3761565 20.0187434,68.2033333 C20.2568716,68.055907 20.3940609,67.7891764 20.3753882,67.5099259 C20.3573356,67.1799461 20.1276871,66.8995389 19.8075,66.8165185 C19.4803829,66.7470261 19.1465105,66.9009705 18.9872171,67.1947407 Z" id="_Path_102" fill="#FFFFFF"></path>
                        <path d="M9.82144737,57.2239259 L7.17404605,70.7220741" id="_Path_103" stroke="#E5E7EA" stroke-width="1.71022222" fill="#FFFFFF"></path>
                        <polygon id="_Path_104" stroke="#E5E7EA" stroke-width="1.22237037" fill="#FFFFFF" points="6.77350658 46.398 27.2284539 46.398 31.7496118 70.4068889 10.0272039 70.3328889"></polygon>
                        <path d="M13.7061316,63.7715556 C13.4479965,63.5409434 13.2119545,63.2867809 13.0010724,63.0123704 C12.6456289,62.5973185 12.3978423,62.1012882 12.2795526,61.568 C12.1565428,61.0065581 12.2013802,60.4213818 12.4084934,59.8851852 C12.4980994,59.7350819 12.5374985,59.5603589 12.5209737,59.3863704 C12.4770789,59.1122963 12.2658355,59.0300741 12.0381316,58.7751852 C12.0079539,58.7422963 11.4675,58.1201481 11.5388289,57.4623704 C11.5827237,57.043037 11.8406053,56.9416296 11.78025,56.536 C11.78025,56.4948889 11.7144079,56.3359259 11.5936974,56.018 C11.4887339,55.8075071 11.4139287,55.5833109 11.3714803,55.352 C11.3831336,55.0845736 11.4879336,54.8296154 11.6677697,54.6311852 C11.8348391,54.4285556 12.0434556,54.2640685 12.2795526,54.1488148 C12.7651382,53.8747407 12.9928421,53.9405185 13.1684211,53.6856296 C13.2123158,53.6225926 13.2068289,53.6061481 13.2973618,53.2224444 C13.3699903,52.8639092 13.4690228,52.5112217 13.5936513,52.1672593 C13.6553692,51.9456713 13.7702549,51.7424659 13.9283487,51.5752593 C14.1289686,51.4092261 14.3742935,51.3062331 14.6334079,51.2792593 C14.8732961,51.2548924 15.1150394,51.2548924 15.3549276,51.2792593 C16.0901645,51.2792593 16.6059276,50.9448889 16.6333618,51.0051852 C16.6607961,51.0654815 16.4303487,51.1942963 16.4111447,51.1723704 C16.6252908,50.8257997 16.9174391,50.5339368 17.2643487,50.32 C17.6151266,50.0951086 18.0050421,49.9379932 18.4138421,49.8568148 C19.2675955,49.6671751 20.1526216,49.6671751 21.006375,49.8568148 C22.1815659,50.1166261 23.2293231,50.777619 23.9692697,51.726 C24.3204276,52.2028889 24.8361908,52.9017778 24.8773421,53.8171852 C24.8558183,54.2189559 24.9126547,54.6210765 25.0446908,55.0011852 C25.1815941,55.323078 25.3758709,55.6174587 25.6180658,55.87 C26.37525,56.7415556 26.6605658,56.6922222 27.2119934,57.3691852 C27.5878421,57.8296296 27.9527171,58.2791111 27.9170526,58.8491852 C27.886875,59.3151111 27.6207632,59.3973333 27.4726184,60.1071852 C27.3869322,60.4896304 27.3739038,60.8847504 27.4342105,61.272 C27.5549211,61.9873333 27.8566974,62.0558519 27.8594408,62.604 C27.8594408,62.6862222 27.8594408,63.407037 27.4150066,63.714 C27.2229671,63.8455556 26.7977368,63.9113333 25.9527632,64.0483704 C25.8567434,64.0620741 25.6784211,64.0922222 25.6180658,64.2155556 C25.5577105,64.3388889 25.74975,64.4896296 25.6921382,64.7143704 C25.6582662,64.8349003 25.5684248,64.9317934 25.4507171,64.9747407 C25.3531056,65.006221 25.2471548,64.9993605 25.1544276,64.9555556 C18.9460658,65.0076296 14.4468553,64.4128889 13.7061316,63.7715556 Z" id="_Path_105" fill="#415F9E"></path>
                        <path d="M22.3972895,60.4031852 L22.4219803,54.2968148 C21.8416023,53.5214174 21.0598215,52.9195414 20.1614013,52.5564444 C19.1841808,52.1695387 18.1144837,52.078975 17.0860263,52.2960741 C16.4687566,52.4166667 15.1436842,52.6797778 14.3426053,53.7760741 C14.0339146,54.2315624 13.8314182,54.7504208 13.7500263,55.2944444 C13.3438764,57.2487475 13.1698391,59.2440825 13.2315197,61.2391111 C13.2616974,63.3768889 13.4070987,64.0154815 13.5525,64.4951111 C13.8053936,65.2869812 14.1624148,66.0417994 14.6142039,66.7397778 C15.2945724,67.8771852 15.6567039,68.4664444 16.3425592,68.6884444 C16.9515987,68.8857778 17.5057697,68.6884444 18.0709145,68.4911111 C20.433,67.6387407 21.7224079,65.5338519 22.1860461,64.7417778 C22.5932735,64.0562463 22.9244422,63.3283869 23.1736776,62.5711111 C23.3378813,62.6025681 23.5072497,62.5941079 23.6674934,62.5464444 C24.3451184,62.3354074 24.6112303,61.4008148 24.6304342,60.7951111 C24.6304342,60.6114815 24.6688421,59.580963 24.1119276,59.3397778 C23.6620066,59.1397037 22.8773882,59.5261481 22.3972895,60.4031852 Z" id="_Path_106" fill="#F4F6F8"></path>
                        <ellipse id="_Path_107" fill="#0B113A" cx="19.2121776" cy="58.4983704" rx="1" ry="1"></ellipse>
                        <ellipse id="_Path_108" fill="#0B113A" cx="14.7294276" cy="58.4983704" rx="1" ry="1"></ellipse>
                        <path d="M16.002375,57.2458519 C16.1920941,57.580477 16.2940175,57.9576024 16.2986645,58.3421481 C16.2881888,58.8022527 16.1607392,59.2521347 15.9283026,59.6494815 C15.6676776,60.1428148 15.4975855,60.1811852 15.4097961,60.5128148 C15.330848,60.9127278 15.408417,61.3276597 15.6265263,61.6721481" id="_Path_109" stroke="#0B113A" stroke-width="0.6"></path>
                        <path d="M15.6621908,63.6235556 C15.4985241,63.857827 15.3674707,64.1132237 15.272625,64.3827407 C15.0881819,64.9354849 15.0494427,65.5263886 15.1601447,66.0984444 C15.2342171,66.5917778 15.2835987,66.9206667 15.5689145,67.1947407 C15.7667278,67.4016824 16.0424837,67.5160541 16.3288421,67.5099259 C16.6267103,67.4714461 16.891559,67.3014244 17.0503618,67.0467407 C17.1189474,66.9097037 17.2231974,66.6986667 17.3466513,66.4355556 C17.5963026,65.9120741 17.6401974,65.7887407 17.7910855,65.4927407 C17.8761316,65.3255556 17.9227697,65.2488148 18.2547237,64.6705185 L18.8473026,63.6537037 L15.6621908,63.6235556 Z" id="_Path_110" fill="#FFBC99"></path>
                        <path d="M17.514,60.6635556 C17.6152566,60.7112216 17.6994981,60.7886863 17.7554211,60.8855556 C17.8165681,60.9986475 17.8359889,61.1296101 17.8102895,61.2555556" id="_Path_111" stroke="#D6D4D0" stroke-width="0.6"></path>
                        <path d="M14.2548158,59.3315556 C14.3626505,59.2952022 14.4757043,59.2766869 14.5895132,59.2767407 C14.6822619,59.2772818 14.7745236,59.2901859 14.8638553,59.3151111" id="_Path_112" stroke="#D6D4D0" stroke-width="0.6"></path>
                        <path d="M18.9186316,59.358963 C19.0264663,59.3226096 19.13952,59.3040943 19.2533289,59.3041481 C19.3460777,59.3046893 19.4383394,59.3175933 19.5276711,59.3425185" id="_Path_113" stroke="#D6D4D0" stroke-width="0.6"></path>
                        <path d="M17.3439079,62.8479259 C17.1448254,63.104577 16.9711741,63.3799447 16.8254013,63.6701481 C16.6009464,64.1186438 16.4411579,64.5966181 16.3507895,65.0898519 C16.2889736,65.4215807 16.2577507,65.7582756 16.2575132,66.0957037" id="_Path_114" stroke="#DB9E83" stroke-width="0.6"></path>
                        <path d="M15.5689145,61.9023704 L17.7910855,61.9215556 L18.1065789,61.9955556 L19.4206776,63.3083704 C19.5106451,63.4089484 19.5455027,63.5472182 19.5139539,63.6783704 C19.4829568,63.7737483 19.4160619,63.853354 19.3274013,63.9003704 L14.5126974,63.9003704 C14.4250195,63.8746637 14.3516742,63.8142624 14.3096842,63.7331852 C14.279967,63.6335355 14.2939241,63.5259715 14.3480921,63.4371852 C14.5291579,63.0425185 15.4948421,61.9845926 15.5689145,61.9023704 Z" id="_Path_115" fill="#D6D4D0"></path>
                        <path d="M15.8350263,56.0700741 L17.8212632,56.0700741" id="_Path_116" stroke="#D6D4D0" stroke-width="0.6"></path>
                        <path d="M16.2986645,55.3437778 L17.3439079,55.3437778" id="_Path_117" stroke="#D6D4D0" stroke-width="0.6"></path>
                        <path d="M18.1477303,53.491037 C18.547822,52.6778101 19.1412347,51.9748796 19.8760855,51.4437037 C20.1918958,51.2184171 20.5313403,51.0281831 20.8884079,50.8763704" id="_Path_118" stroke="#0B113A" stroke-width="0.6"></path>
                        <path d="M18.9378355,53.6582222 C19.1932508,53.2497486 19.4911977,52.8694105 19.8267039,52.5235556 C20.1331501,52.2077977 20.4694088,51.9223488 20.8307961,51.6711852" id="_Path_119" stroke="#0B113A" stroke-width="0.6"></path>
                        <path d="M39.7521711,118.230074 L5.73375,118.230074 C5.35241447,118.230074 3.86548026,118.575407 3.63503289,118.109481 C3.17139474,117.17763 3.63503289,111.764667 3.63503289,110.577926 C3.63503289,108.730667 3.72007895,104.356444 3.63503289,95.5531852 C3.54998684,86.7499259 3.50883553,82.351037 3.42653289,80.6517778 C3.21254605,76.1322963 2.94094737,73.4244444 3.63503289,71.6977778 C3.76423291,71.3042358 4.01249973,70.9604492 4.34557895,70.7138519 C5.06984211,70.2342222 5.96145395,70.3794815 6.37571053,70.4397778 C8.14881557,70.6949533 9.93982838,70.8049489 11.7308684,70.7686667 C20.0105132,71.0591852 26.3258684,71.2208889 28.9787566,71.2291111 C29.7798355,71.2291111 34.5753355,71.2291111 36.2899737,71.2291111 L36.3503289,71.2291111 C36.8990132,71.2291111 39.2473816,70.5768148 39.6835855,71.2291111 C40.0786382,71.8211111 39.7549145,76.1213333 39.7549145,77.097037 L39.7549145,118.208148 L39.7521711,118.230074 Z" id="_Path_120" fill="#FFFFFF"></path>
                        <path d="M39.7521711,118.230074 L5.73375,118.230074 C5.35241447,118.230074 3.86548026,118.575407 3.63503289,118.109481 C3.17139474,117.17763 3.63503289,111.764667 3.63503289,110.577926 C3.63503289,108.730667 3.72007895,104.356444 3.63503289,95.5531852 C3.54998684,86.7499259 3.50883553,82.351037 3.42653289,80.6517778 C3.21254605,76.1322963 2.94094737,73.4244444 3.63503289,71.6977778 C3.76423291,71.3042358 4.01249973,70.9604492 4.34557895,70.7138519 C5.06984211,70.2342222 5.96145395,70.3794815 6.37571053,70.4397778 C8.14881557,70.6949533 9.93982838,70.8049489 11.7308684,70.7686667 C20.0105132,71.0591852 26.3258684,71.2208889 28.9787566,71.2291111 C29.7798355,71.2291111 34.5753355,71.2291111 36.2899737,71.2291111 L36.3503289,71.2291111 C36.8990132,71.2291111 39.2473816,70.5768148 39.6835855,71.2291111 C40.0786382,71.8211111 39.7549145,76.1213333 39.7549145,77.097037 L39.7549145,118.208148 L39.7521711,118.230074 Z" id="_Path_121" stroke="#E5E7EA" stroke-width="0.676962963"></path>
                        <path d="M5.03143421,115.039852 L36.1857237,115.039852 C36.5341382,115.039852 37.894875,115.338593 38.1061184,114.935704 C38.5313487,114.129926 38.1061184,109.454222 38.1061184,108.423704 L38.1061184,74.7975556 C38.0523434,74.5178611 37.9065329,74.2641479 37.6918618,74.0767407 C37.4735493,73.8885462 37.1980719,73.7794285 36.9099868,73.767037 C34.3147105,73.5422963 32.1693553,73.3805926 30.6522434,73.3559259 L20.7759276,73.1914815 C18.8228171,73.3512487 16.8596097,73.3439134 14.90775,73.1695556 C12.1807895,72.9228889 9.42090789,73.0517037 6.69394737,73.027037 C6.33455921,73.027037 5.46763816,73.027037 5.10001974,74.3974074 C4.86408553,75.2826667 4.96284868,76.2364444 5.03417763,79.4705185 C5.06435526,80.8217037 5.056125,82.1783704 5.08355921,83.5322963 C5.16586184,87.5995556 5.08355921,91.0912593 5.03417763,93.6538519 C4.97382237,97.225037 4.92718421,103.435556 5.03143421,115.039852 Z" id="_Path_122" fill="#FFFFFF"></path>
                        <path d="M5.03143421,115.039852 L36.1857237,115.039852 C36.5341382,115.039852 37.894875,115.338593 38.1061184,114.935704 C38.5313487,114.129926 38.1061184,109.454222 38.1061184,108.423704 L38.1061184,74.7975556 C38.0523434,74.5178611 37.9065329,74.2641479 37.6918618,74.0767407 C37.4735493,73.8885462 37.1980719,73.7794285 36.9099868,73.767037 C34.3147105,73.5422963 32.1693553,73.3805926 30.6522434,73.3559259 L20.7759276,73.1914815 C18.8228171,73.3512487 16.8596097,73.3439134 14.90775,73.1695556 C12.1807895,72.9228889 9.42090789,73.0517037 6.69394737,73.027037 C6.33455921,73.027037 5.46763816,73.027037 5.10001974,74.3974074 C4.86408553,75.2826667 4.96284868,76.2364444 5.03417763,79.4705185 C5.06435526,80.8217037 5.056125,82.1783704 5.08355921,83.5322963 C5.16586184,87.5995556 5.08355921,91.0912593 5.03417763,93.6538519 C4.97382237,97.225037 4.92718421,103.435556 5.03143421,115.039852 Z" id="_Path_123" stroke="#E5E7EA" stroke-width="0.676962963"></path>
                        <path d="M4.94913158,103.627407 L38.1088618,103.627407" id="_Path_124" stroke="#E5E7EA" stroke-width="0.676962963"></path>
                        <path d="M4.94913158,86.9691852 L38.1088618,86.9691852" id="_Path_125" stroke="#E5E7EA" stroke-width="0.676962963"></path>
                        <path d="M5.85171711,73.2298519 C6.94908553,73.2106667 8.47717105,73.1887407 10.3125197,73.1722963 C10.3125197,73.1722963 14.6443816,73.1366667 18.3315395,73.1722963 C25.9939145,73.2462963 36.0512961,73.8191111 37.5354868,73.9068148" id="_Path_126" stroke="#E5E7EA" stroke-width="0.676962963"></path>
                        <path d="M18.1971118,103.734296 C18.2849013,104.298889 18.5290658,105.219778 19.2615592,105.611704 C19.49475,105.737778 19.9611316,105.754222 20.8938947,105.789852 C21.5212063,105.817293 22.1497136,105.793461 22.7731382,105.718593 C23.4260724,105.639111 23.6620066,105.551407 23.8705066,105.400667 C24.1251372,105.201679 24.3314607,104.947774 24.4740592,104.657926 C24.6572391,104.337946 24.7887123,103.991085 24.863625,103.630148" id="_Path_127" fill="#D0D3DD"></path>
                        <path d="M18.1971118,87.4022222 C18.2849013,87.9668148 18.5290658,88.8877037 19.2615592,89.2796296 C19.49475,89.4057037 19.9611316,89.4221481 20.8938947,89.4577778 C21.5212063,89.4852191 22.1497136,89.4613867 22.7731382,89.3865185 C23.4260724,89.307037 23.6620066,89.2193333 23.8705066,89.0685926 C24.1251372,88.8696045 24.3314607,88.6156997 24.4740592,88.3258519 C24.6572391,88.0058721 24.7887123,87.659011 24.863625,87.2980741" id="_Path_128" fill="#D0D3DD"></path>
                        <path d="M17.4344408,73.6354815 C17.5222303,74.2000741 17.7663947,75.120963 18.4988882,75.5128889 C18.7320789,75.638963 19.1984605,75.6554074 20.1312237,75.691037 C20.7585353,75.7184784 21.3870426,75.6946459 22.0104671,75.6197778 C22.6634013,75.5402963 22.8993355,75.4525926 23.1078355,75.3018519 C23.3624661,75.1028637 23.5687897,74.8489589 23.7113882,74.5591111 C23.8945681,74.2391313 24.0260413,73.8922702 24.1009539,73.5313333" id="_Path_129" fill="#D0D3DD"></path>
                        <path d="M23.9500658,56.6675556 C23.982756,57.1979712 24.1879396,57.7032114 24.5344145,58.1064444 C24.9664576,58.5887969 25.569787,58.8837757 26.2161316,58.9286667" id="_Path_130" stroke="#0B113A" stroke-width="0.6"></path>
                        <path d="M25.0145132,59.718 C25.4760408,60.1636167 25.8184241,60.7176791 26.010375,61.3295556 C26.1965494,61.9283342 26.2323523,62.5636851 26.114625,63.1795556" id="_Path_131" stroke="#0B113A" stroke-width="0.6"></path>
                    </g>
                </g>
            </g>
        </g>
    </g>
</svg>