<?xml version="1.0" encoding="UTF-8"?>
<svg width="116px" height="135px" viewBox="0 0 116 135" version="1.1" xmlns="http://www.w3.org/2000/svg" xmlns:xlink="http://www.w3.org/1999/xlink">
    <!-- Generator: Sketch 52.6 (67491) - http://www.bohemiancoding.com/sketch -->
    <title>Group 17</title>
    <desc>Created with Sketch.</desc>
    <g id="Sign-in" stroke="none" stroke-width="1" fill="none" fill-rule="evenodd">
        <g id="Choose-role" transform="translate(-995.000000, -591.000000)">
            <g id="Group" transform="translate(233.000000, 189.000000)">
                <g id="Group-11" transform="translate(669.600000, 367.400000)">
                    <g id="Group-17" transform="translate(92.400000, 35.600000)">
                        <path d="M15.190809,6.43719594 C15.144448,5.99288216 15.1037065,5.53515424 15.0699894,5.06448286 C15.0299504,4.50485459 15.0027894,3.96193516 14.9859309,3.4366659 C14.9859309,3.4366659 14.9681358,2.8438553 15.1322724,1.78931608 C15.1725455,1.53115283 15.2315504,1.20756625 15.4542236,0.877390283 C15.547648,0.738777562 15.7145943,0.497793816 16.0103212,0.377301943 C16.2917651,0.262458127 16.5486236,0.314467314 16.7420285,0.347884982 C17.2531699,0.43590053 17.7804675,0.389539399 18.293248,0.465552827 C19.4169163,0.632170495 20.9250529,0.543213604 22.7420285,0.436135866 C24.1244285,0.354709717 24.277326,0.281990989 25.6688577,0.230217138 C26.309248,0.206448233 26.826009,0.201270848 27.6883699,0.200800177 C29.2810333,0.199623498 30.0773651,0.199152827 31.698126,0.230217138 C34.1231797,0.276578269 34.9632968,0.168559187 38.6054431,0.112549293 C41.9043309,0.0619521201 41.3793748,0.148084982 47.590809,0.141966254 C51.5357065,0.137965548 52.0704968,0.10290053 53.9127602,0.171383216 C57.2832968,0.296581802 56.9693065,0.468847527 59.8542236,0.55380371 C62.907726,0.643701943 65.6465358,0.520856714 68.195687,0.406718905 C69.7993553,0.334941519 69.6375602,0.318938693 71.093248,0.259634099 C71.890048,0.227157774 73.8032577,0.156086396 77.8834919,0.141966254 C79.5688772,0.136082862 81.709209,0.139612898 84.2054431,0.171383216 L88.3030041,0.0047655477 C89.7373846,-0.0015885159 91.1813651,-0.0015885159 92.6347114,0.0047655477 C94.9614236,0.0148849823 97.2640187,0.0412425795 99.5420285,0.0831323322 L106.176331,0.122433392 C107.390146,0.240571908 108.377541,0.231864488 109.064058,0.200800177 C110.312526,0.144084276 111.564741,0.147849647 112.810399,0.0438312721 C112.810399,0.0438312721 113.194633,0.0118256184 113.942028,0.122433392 C114.381755,0.187386042 114.560175,0.255398057 114.68357,0.396834806 C114.900624,0.645819965 114.854263,1.01459099 114.839746,1.14214293 C114.723141,2.16867721 114.996624,3.2105083 114.917716,4.24080795 C114.830614,5.37606731 114.81516,6.51556272 114.761541,7.65317544 C114.688487,9.20333163 114.649853,10.3981309 114.605599,11.77155 C114.555258,13.3195882 114.530438,14.0936072 114.527394,14.5562772 C114.514985,16.5773401 114.631589,17.5252723 114.722672,19.4983267 C114.783785,20.8267966 114.789404,22.0312447 114.800643,24.4403761 C114.80837,26.1218496 114.799238,28.1768009 114.722672,31.6181147 C114.547531,39.4623239 114.35998,39.3175924 114.410321,43.1102624 C114.448019,45.9458221 114.556663,46.3117691 114.566497,49.6212949 C114.573053,51.8609846 114.527628,53.125914 114.566497,55.661656 C114.595765,57.5758765 114.656643,59.1375641 114.703004,60.152567 C114.684741,61.6389472 114.534653,62.7370235 114.410321,63.4277337 C114.342185,63.8068595 114.243843,64.2725889 113.864058,64.6044122 C113.622419,64.815273 113.349638,64.8999938 112.71276,65.0063655 C111.483024,65.2118136 110.810321,65.2122843 110.810321,65.2122843 C109.246224,65.2132256 108.005482,65.0755542 107.91276,65.0651995 C105.199238,64.7639698 103.837209,64.6128843 103.581053,64.5945281 C101.833619,64.4688588 100.588663,64.5629931 99.5420285,64.6239451 C95.9085455,64.8355118 92.2635894,64.7246687 88.6249553,64.8004468 C77.7132675,65.0277811 67.2562919,64.6053535 58.4493455,64.6044122 L54.1567407,64.6044122 C52.491726,64.6044122 50.8264772,64.6020588 49.1616968,64.6044122 C46.6502431,64.6074716 46.3968968,64.6133549 45.4153553,64.6044122 C43.5145553,64.5869973 42.1246626,64.5434602 41.5128382,64.5258101 C38.744526,64.4453253 38.1952187,64.4895684 27.9318821,64.3933161 C21.7078041,64.3349528 22.0480187,64.3201267 21.6689358,64.3323641 C20.2450919,64.3777839 18.8158626,64.1798666 17.3957651,64.2904744 C17.0674919,64.3158906 16.7930724,64.2815316 16.2444675,64.2121076 C15.9782431,64.1782193 15.7726626,64.1410362 15.5811309,63.9963048 C15.5811309,63.9963048 15.3408968,63.8146256 15.2104772,63.4472666 C15.0191797,62.9083479 15.0025553,60.7420829 15.190809,57.828627 C15.2652675,52.7945613 15.2950041,49.1675677 15.3078821,46.6207648 C15.3078821,46.6207648 15.3369163,40.8260942 15.5052675,36.6872454 C15.5258724,36.1789203 15.5420285,35.7953231 15.5420285,35.7953231 C15.5970529,34.4953288 15.6214041,34.0326588 15.6567602,33.1892157 C15.6567602,33.1892157 15.6825163,32.5740482 15.7176382,31.6181147 C15.7579114,30.5245097 15.8604675,27.4705585 15.893248,25.4405528 C15.9557651,21.5591613 15.8403309,16.5227422 15.5420285,13.0265952 C15.5050333,12.5912242 15.382809,11.2182758 15.2905553,9.34641572 C15.2299114,8.11490406 15.203687,7.10390194 15.190809,6.43719594 Z" id="Stroke-33" stroke="#FFFFFF" stroke-width="0.706007067"></path>
                        <path d="M42.7720368,61.848428 C40.1411685,61.7750033 39.6192563,61.8152457 29.8654222,61.7274654 C23.9501831,61.6745149 24.2737734,61.6608654 23.913188,61.6719262 C22.5602905,61.7135806 21.2020075,61.5333135 19.8521539,61.6340372 C19.540271,61.6573354 19.2796661,61.6258004 18.7582222,61.5624951 C18.50511,61.5319015 18.3098319,61.4980131 18.1276661,61.3659898 C18.0103588,61.1993722 17.8928173,61.0325192 17.77551,60.8659015 C17.7694222,59.1599531 17.7631002,57.4540047 17.7570124,55.7478209 C17.7888563,51.7807672 17.8298319,48.3356881 17.8682319,45.5389587 C17.9590807,38.9434407 18.0199588,37.2073693 18.090671,35.678158 C18.129071,34.847423 18.18831,33.6883948 18.2576173,31.8730153 C18.3236466,30.1421213 18.3955295,28.2627305 18.4245636,26.2461389 C18.4245636,26.2461389 18.4969149,20.6190273 18.090671,14.9384944 C18.0452466,14.3035587 17.9609539,13.2341934 17.8839197,11.6779184 C17.7890905,9.75828523 17.8413051,9.84583011 17.7570124,8.93625767 C17.740388,8.75763788 17.6261246,7.54683576 17.5622027,6.20306898 C17.5622027,6.20306898 17.5383197,5.70486332 17.7012856,4.70256862 C17.7394514,4.46723293 17.7956466,4.17259265 18.0070807,3.87183364 C18.0960563,3.74545838 18.2545734,3.52612551 18.5357831,3.41645908 C18.8034124,3.3117347 19.0473929,3.35927251 19.2311978,3.38963081 C19.7168173,3.46964495 20.2178905,3.42751986 20.7053831,3.49670855 C21.7730905,3.64850007 23.2065344,3.56754459 24.9331295,3.46988028 C26.2471588,3.39574954 26.3923295,3.32938488 27.714788,3.28231774 C28.3233344,3.26066686 28.8145734,3.25596014 29.6340856,3.25548947 C31.1476075,3.25454813 31.9043685,3.25407746 33.4445831,3.28231774 C35.7495197,3.32467816 36.5477246,3.22607251 40.00911,3.17524 C43.1440953,3.12887887 42.6453636,3.20748099 48.5484271,3.20183293 C52.2973441,3.1983029 52.8056758,3.16653258 54.556388,3.2286612 C57.75951,3.34279901 57.4609734,3.49976792 60.2028271,3.57719336 C63.1046027,3.65885484 65.7076075,3.54707039 68.1303197,3.44305202 C69.6543783,3.37762869 69.50031,3.36303788 70.8841149,3.30914601 C71.5816368,3.28184707 73.8100075,3.20018558 77.3369539,3.20183293 C81.1638417,3.20395096 81.1268466,3.30137993 83.345149,3.2286612 C84.8863002,3.17829937 85.3958027,3.1152294 87.2392368,3.07686968 C88.5408563,3.04980608 89.4364661,3.05757216 91.3557636,3.07686968 C96.8956661,3.13311491 96.3538514,3.14017498 97.9202905,3.14841173 C102.131178,3.17076862 102.256447,3.09993258 104.225149,3.18418276 C105.59912,3.24278134 106.004661,3.29714389 106.969578,3.25548947 C108.155998,3.20442163 109.346164,3.20724565 110.529773,3.11264071 C110.529773,3.11264071 110.894808,3.08345908 111.605442,3.18418276 C112.023159,3.24325202 112.192681,3.30538064 112.309988,3.43410926 C112.516271,3.66097286 112.472251,3.99679689 112.458437,4.11305272 C112.347686,5.04804141 112.607588,5.99715025 112.532661,6.93543364 C112.449773,7.96949866 112.435022,9.00779972 112.384212,10.0437474 C112.314905,11.4559969 112.278144,12.5439538 112.235764,13.7952336 C112.188232,15.2051298 112.164349,15.9101955 112.161773,16.3316817 C112.149832,18.1729481 112.260583,19.0363948 112.347217,20.8334181 C112.405286,22.0416315 112.410437,23.1394725 112.421208,25.3351545 C112.434554,28.0266888 112.388661,30.0708146 112.347217,31.8730153 C112.293129,34.2103693 112.266203,35.3790464 112.202515,36.5851418 C112.148427,37.610264 112.076544,38.6829241 112.051959,40.3105057 C112.041656,40.9986273 112.042827,41.5874372 112.05032,42.3412174 C112.079588,45.2269036 112.159666,46.1061177 112.198769,48.2721474 C112.263627,51.8763135 112.077715,51.4303524 112.198769,53.7738252 C112.269247,55.1364188 112.211647,56.5053665 112.328486,57.8646654 C112.328486,57.8646654 112.40552,58.7582351 112.05032,60.848016 C112.001617,61.1351255 111.914983,61.5985015 111.531217,61.91997 C111.30152,62.112004 111.042086,62.1891941 110.437051,62.285917 C109.268193,62.4732442 108.629208,62.4734796 108.629208,62.4734796 C107.142612,62.4744209 105.963451,62.348987 105.875412,62.3395736 C103.296525,62.0654075 102.002164,61.9277361 101.758886,61.9110273 C100.098086,61.7964188 98.9149441,61.8823163 97.9202905,61.9378555 C94.4673344,62.1303601 91.0031392,62.0296365 87.5452661,62.0983545 C77.1753929,62.3054499 67.2375197,61.9209114 58.8677246,61.91997 L54.7881929,61.91997 L50.04111,61.91997 C47.6546905,61.9225587 47.4135197,61.9282068 46.4806807,61.91997 C44.6744758,61.9039672 43.3534222,61.8644308 42.7720368,61.848428" id="Fill-34" fill="#E8EAF2"></path>
                        <polygon id="Fill-35" fill="#FFFFFF" points="67.4341463 29.3833081 107.415805 29.3833081 107.415805 14.1201413 67.4341463 14.1201413"></polygon>
                        <polygon id="Fill-36" fill-opacity="0.26" fill="#7581CE" points="22.4780488 29.3833081 62.4594732 29.3833081 62.4594732 14.1201413 22.4780488 14.1201413"></polygon>
                        <polygon id="Fill-37" fill="#03256C" points="25.9902439 26.5976396 35.8290732 26.5976396 35.8290732 16.7088339 25.9902439 16.7088339"></polygon>
                        <path d="M39.3365854,20.3565371 L58.9798244,20.3565371" id="Stroke-38" stroke="#03256C" stroke-width="0.6"></path>
                        <path d="M39.3365854,22.0038869 L52.7182829,22.0038869" id="Stroke-39" stroke="#03256C" stroke-width="0.6"></path>
                        <path d="M39.3365854,23.4159011 L59.809639,23.4159011" id="Stroke-40" stroke="#03256C" stroke-width="0.6"></path>
                        <path d="M39.3365854,17.6962814 C39.8730146,17.9017294 40.323278,17.9276164 40.600039,17.9212623 C40.8498732,17.9153789 41.9276488,17.8904333 42.2851902,17.2465549 C42.3076683,17.2056065 42.4488585,16.9514439 42.3509854,16.8097718 C42.2404683,16.6502142 41.8667707,16.692104 41.6270049,16.8495436 C41.4787902,16.9467372 41.2661854,17.1641874 41.2977951,17.4051711 C41.3378341,17.7096955 41.7419707,17.8610164 42.0086634,17.961034 C42.1943415,18.030458 42.4987317,18.1142376 42.9169171,18.0932927 C43.6099902,18.0582277 44.1602341,17.7579393 44.4833561,17.5772015 C44.9181659,17.3343351 44.9949659,17.2020764 45.352039,17.1140609 C45.4993171,17.0780545 45.8332098,17.0003937 46.2209561,17.127475 C46.335922,17.1651287 46.6494439,17.2724418 46.8660293,17.5772015 C46.9065366,17.6343881 47.1645659,17.9972757 47.024078,18.2123725 C46.9636683,18.3046241 46.8337171,18.3636934 46.734439,18.3314524 C46.5866927,18.2832086 46.5218341,18.0370474 46.5763902,17.8683118 C46.6482732,17.6466255 46.9353366,17.5499026 47.2083512,17.4847146 C48.147278,17.2602043 49.1140683,17.3557506 49.6699317,17.4317641 C50.1981659,17.5040121 50.6484293,17.5983817 51.2099122,17.4051711 C51.3763902,17.3482199 51.5065756,17.2813846 51.5918049,17.2333761" id="Stroke-41" stroke="#03256C" stroke-width="0.6"></path>
                        <path d="M23.4146341,10.6362107 C23.9510634,10.8416588 24.4013268,10.8675457 24.678322,10.8611916 C24.927922,10.8553082 26.0059317,10.8303626 26.363239,10.1862489 C26.3859512,10.1455358 26.5269073,9.89137324 26.4290341,9.74970116 C26.3185171,9.59014356 25.9450537,9.63203331 25.7050537,9.78947289 C25.556839,9.88666653 25.3444683,10.1041167 25.376078,10.3451005 C25.4158829,10.6496248 25.8200195,10.8009457 26.0869463,10.9009633 C26.2723902,10.9703874 26.5767805,11.0541669 26.9952,11.033222 C27.688039,10.998157 28.2382829,10.6978686 28.5614049,10.5171308 C28.9962146,10.2742644 29.0732488,10.1417704 29.430322,10.0539902 C29.5773659,10.0179838 29.9114927,9.94032307 30.2990049,10.0674043 C30.4142049,10.105058 30.7274927,10.2123711 30.944078,10.5171308 C30.9848195,10.5743174 31.2426146,10.937205 31.1021268,11.1520665 C31.0417171,11.2445535 30.912,11.3036227 30.8124878,11.2713817 C30.6647415,11.2231379 30.5998829,10.9769768 30.6546732,10.8082411 C30.7265561,10.5863195 31.0136195,10.4895966 31.2864,10.4246439 C32.2253268,10.2001337 33.1923512,10.29568 33.7479805,10.3716934 C34.2762146,10.4439414 34.726478,10.5383111 35.2881951,10.3451005 C35.329639,10.3309803 35.4652098,10.2427294 35.6698537,10.1730701 C35.7651512,10.1408291 35.9613659,10.0756411 36.2158829,10.062933 C36.358478,10.0558729 36.7382634,10.037046 37.1032976,10.2479068 C37.2817171,10.3509838 37.2468293,10.3876962 37.5587122,10.6413881 C37.8741073,10.897904 38.031922,11.0261619 38.2302439,11.0753471 C38.6060488,11.16854 39.1602732,11.0233379 39.2375415,10.6896319 C39.2897561,10.4641803 39.1214049,10.1648333 38.8776585,10.0871725 C38.5737366,9.9899789 38.2939317,10.2834425 38.1822439,10.4004043 C37.9492683,10.6449181 37.7015415,11.1193549 37.8705951,11.4368227 C38.0970146,11.861839 38.9877073,11.8500722 39.5733073,11.629798 C40.0563512,11.4478835 40.0881951,11.2153718 40.5244098,11.1475952 C40.8967024,11.0899379 40.9690537,11.2443181 41.6834341,11.3645747 C42.342322,11.4754178 42.7427122,11.5429591 43.0503805,11.3163308 C43.3238634,11.1151188 43.3093463,10.8402467 43.5779122,10.7861195 C43.7865366,10.7439944 43.8951805,10.8896672 44.2014439,10.8343633 C44.3915707,10.8000043 44.4056195,10.733875 44.5372098,10.7378757 C44.8245073,10.7468185 45.1239805,11.0736997 45.0649756,11.2440828 C45.0071415,11.4109358 44.5868488,11.4794185 44.5130927,11.3645747 C44.4081951,11.2003103 44.9275317,10.5331337 45.5683902,10.2559082 C46.4225561,9.88643119 47.2865561,10.298504 47.4869854,10.4004043" id="Stroke-42" stroke="#FFFFFF" stroke-width="0.6"></path>
                        <path d="M40.9517677,25.7630461 C40.9712018,25.6973875 41.1084116,25.2544857 41.4727433,25.1443486 C41.913875,25.0109133 42.4381286,25.4415776 42.5144603,25.8105839 C42.6252116,26.3471493 41.8567433,27.0766899 40.573153,27.6191387 C40.2760213,27.4831147 39.7709677,27.1920044 39.4366067,26.619668 C39.267553,26.3299698 38.9383433,25.7665762 39.1998847,25.3347352 C39.3776018,25.0412716 39.7665189,24.9097189 40.099475,24.953962 C40.5071238,25.0083246 40.8492116,25.3293224 40.9517677,25.7630461" id="Fill-43" fill="#03256C"></path>
                        <polygon id="Fill-44" fill="#FFFFFF" points="22.4780488 55.7409053 62.4594732 55.7409053 62.4594732 40.4777385 22.4780488 40.4777385"></polygon>
                        <polygon id="Fill-45" fill="#E8EAF2" points="25.9902439 52.9550014 35.8290732 52.9550014 35.8290732 43.0664311 25.9902439 43.0664311"></polygon>
                        <path d="M39.3365854,46.94947 L58.9798244,46.94947" id="Stroke-46" stroke="#E5E7EA" stroke-width="0.6"></path>
                        <path d="M39.3365854,48.3614841 L52.7182829,48.3614841" id="Stroke-47" stroke="#E5E7EA" stroke-width="0.6"></path>
                        <path d="M39.3365854,49.7734982 L59.809639,49.7734982" id="Stroke-48" stroke="#E5E7EA" stroke-width="0.6"></path>
                        <path d="M39.3365854,44.0538785 C39.8730146,44.2593266 40.323278,44.2852135 40.600039,44.2788595 C40.8498732,44.2729761 41.9276488,44.2477952 42.2851902,43.6039167 C42.3076683,43.5632036 42.4488585,43.3088058 42.3509854,43.167369 C42.2404683,43.0078114 41.8667707,43.0497012 41.6270049,43.2071407 C41.4787902,43.3043344 41.2661854,43.5217846 41.2977951,43.7627683 C41.3378341,44.0672927 41.7419707,44.2186135 42.0086634,44.3183959 C42.1943415,44.3878199 42.4987317,44.4718347 42.9169171,44.4508899 C43.6099902,44.4158248 44.1602341,44.1155365 44.4833561,43.9347987 C44.9181659,43.6916969 44.9949659,43.5594383 45.352039,43.471658 C45.4993171,43.4356517 45.8332098,43.3579909 46.2209561,43.4850722 C46.335922,43.5224906 46.6494439,43.630039 46.8660293,43.9347987 C46.9065366,43.9919853 47.1645659,44.3548729 47.024078,44.5697344 C46.9636683,44.661986 46.8337171,44.7212906 46.734439,44.6888142 C46.5866927,44.6408058 46.5218341,44.3946446 46.5763902,44.2259089 C46.6482732,44.0039874 46.9353366,43.9072644 47.2083512,43.8423118 C48.147278,43.6175662 49.1140683,43.7133478 49.6699317,43.7891259 C50.1981659,43.8613739 50.6484293,43.9557436 51.2099122,43.7627683 C51.3763902,43.7055817 51.5065756,43.6389817 51.5918049,43.5907379" id="Stroke-49" stroke="#E5E7EA" stroke-width="0.6"></path>
                        <path d="M44.827598,52.2216004 C44.6412175,52.5548358 44.7194223,52.9574951 44.9221931,53.2208358 C45.1795199,53.5547771 45.6679492,53.7042153 46.0587394,53.5065333 C46.4745833,53.2959078 46.5296077,52.8184117 46.5319492,52.7927601 C46.5708175,52.3990435 46.3458028,51.9966195 45.9641443,51.8408273 C45.5494711,51.6716209 45.0453541,51.8318845 44.827598,52.2216004" id="Fill-50" fill="#E8EAF2"></path>
                        <path d="M49.8080592,51.8458278 C49.7710641,51.8592419 49.3023031,52.038097 49.1924885,52.5120631 C49.0918055,52.9471988 49.353347,53.3776278 49.7134641,53.5588362 C50.1667714,53.7873472 50.647708,53.5567182 50.8970738,53.3211472 C51.1054641,53.1244066 51.3777763,52.7118631 51.2286251,52.3216765 C51.0757275,51.9218412 50.5858934,51.8215882 50.4709275,51.79829 C50.1763714,51.7378087 49.9305177,51.8034673 49.8080592,51.8458278" id="Fill-51" fill="#E8EAF2"></path>
                        <path d="M53.9079442,52.1093857 C53.6855052,52.3515461 53.5354174,52.7516168 53.6712223,53.108621 C53.8613491,53.6091801 54.5370954,53.8271009 55.0444906,53.632243 C55.6008223,53.4183228 55.9344808,52.7163165 55.7073588,52.2519991 C55.4961588,51.8210995 54.8929979,51.7808571 54.8077686,51.7761504 C54.7045101,51.770973 54.2406662,51.7467334 53.9079442,52.1093857" id="Fill-52" fill="#E8EAF2"></path>
                        <path d="M44.827598,25.8639019 C44.6412175,26.1973726 44.7194223,26.6000319 44.9221931,26.8633726 C45.1795199,27.1970786 45.6679492,27.3465167 46.0587394,27.1488348 C46.4745833,26.9384447 46.5296077,26.4609485 46.5319492,26.4350616 C46.5708175,26.041345 46.3458028,25.638921 45.9641443,25.4831288 C45.5494711,25.3141577 45.0453541,25.474186 44.827598,25.8639019" id="Fill-53" fill="#E8EAF2"></path>
                        <path d="M49.8080592,25.2527917 C49.7710641,25.2662059 49.3023031,25.4452963 49.1924885,25.9190271 C49.0918055,26.3541628 49.353347,26.7845917 49.7134641,26.9660356 C50.1667714,27.1943112 50.647708,26.9636822 50.8970738,26.7281112 C51.1054641,26.5313705 51.3777763,26.1188271 51.2286251,25.7286405 C51.0757275,25.3288052 50.5858934,25.2285522 50.4709275,25.2052539 C50.1763714,25.145008 49.9305177,25.2104313 49.8080592,25.2527917" id="Fill-54" fill="#E8EAF2"></path>
                        <path d="M53.9079442,25.5164529 C53.6855052,25.7588486 53.5354174,26.1586839 53.6712223,26.5159235 C53.8613491,27.0162472 54.5370954,27.2339327 55.0444906,27.0393101 C55.6008223,26.8256253 55.9344808,26.1236189 55.7073588,25.6590663 C55.4961588,25.2281666 54.8929979,25.1876889 54.8077686,25.1832175 C54.7045101,25.1780401 54.2406662,25.1538006 53.9079442,25.5164529" id="Fill-55" fill="#03256C"></path>
                        <path d="M90.4862004,25.8639019 C90.2998199,26.1973726 90.3777907,26.6000319 90.5807956,26.8633726 C90.8381224,27.1970786 91.3265517,27.3465167 91.7173419,27.1488348 C92.1331858,26.9384447 92.1882102,26.4609485 92.1905517,26.4350616 C92.2294199,26.041345 92.0044053,25.638921 91.6225126,25.4831288 C91.2080736,25.3141577 90.7039565,25.474186 90.4862004,25.8639019" id="Fill-56" fill="#E8EAF2"></path>
                        <path d="M95.4665958,25.2527917 C95.4296007,25.2662059 94.9608397,25.4452963 94.8510251,25.9190271 C94.7503421,26.3541628 95.0118836,26.7845917 95.3720007,26.9660356 C95.825308,27.1943112 96.3062446,26.9636822 96.5556104,26.7281112 C96.7640007,26.5313705 97.0363129,26.1188271 96.8871616,25.7286405 C96.7342641,25.3288052 96.2444299,25.2285522 96.1294641,25.2052539 C95.834908,25.145008 95.5890543,25.2104313 95.4665958,25.2527917" id="Fill-57" fill="#E8EAF2"></path>
                        <path d="M99.8006271,25.5164529 C99.5781881,25.7588486 99.4281003,26.1586839 99.5639052,26.5159235 C99.754032,27.0162472 100.429778,27.2339327 100.937173,27.0393101 C101.493505,26.8256253 101.827164,26.1236189 101.600042,25.6590663 C101.388842,25.2281666 100.785681,25.1876889 100.700217,25.1832175 C100.596959,25.1780401 100.133349,25.1538006 99.8006271,25.5164529" id="Fill-58" fill="#E8EAF2"></path>
                        <path d="M40.9517677,52.1207115 C40.9712018,52.0550528 41.1084116,51.6121511 41.4727433,51.502014 C41.913875,51.3685786 42.4381286,51.7992429 42.5144603,52.1682493 C42.6252116,52.7048147 41.8567433,53.4343553 40.573153,53.9768041 C40.2760213,53.84078 39.7709677,53.5496698 39.4366067,52.9773334 C39.267553,52.6876352 38.9383433,52.1242415 39.1998847,51.6924005 C39.3776018,51.3989369 39.7665189,51.267149 40.099475,51.3116274 C40.5071238,51.3659899 40.8492116,51.6867525 40.9517677,52.1207115" id="Fill-59" fill="#E8EAF2"></path>
                        <polygon id="Fill-60" fill="#E8EAF2" points="70.7121951 26.5976396 80.5507902 26.5976396 80.5507902 16.7088339 70.7121951 16.7088339"></polygon>
                        <path d="M84.2926829,20.3565371 L103.935922,20.3565371" id="Stroke-61" stroke="#E5E7EA" stroke-width="0.6"></path>
                        <path d="M84.2926829,22.0038869 L97.6743805,22.0038869" id="Stroke-62" stroke="#E5E7EA" stroke-width="0.6"></path>
                        <path d="M84.2926829,23.4159011 L104.765737,23.4159011" id="Stroke-63" stroke="#E5E7EA" stroke-width="0.6"></path>
                        <path d="M84.2926829,17.6962814 C84.8291122,17.9017294 85.2793756,17.9276164 85.5563707,17.9212623 C85.8059707,17.9153789 86.8839805,17.8904333 87.241522,17.2465549 C87.264,17.2056065 87.4051902,16.9514439 87.3070829,16.8097718 C87.1968,16.6502142 86.8231024,16.692104 86.5831024,16.8495436 C86.4348878,16.9467372 86.2225171,17.1641874 86.2541268,17.4051711 C86.2939317,17.7096955 86.6980683,17.8610164 86.9649951,17.961034 C87.150439,18.030458 87.4548293,18.1142376 87.8732488,18.0932927 C88.5660878,18.0582277 89.1163317,17.7579393 89.4394537,17.5772015 C89.8742634,17.3343351 89.9512976,17.2020764 90.3083707,17.1140609 C90.4554146,17.0780545 90.7895415,17.0003937 91.1770537,17.127475 C91.2922537,17.1651287 91.6055415,17.2724418 91.8221268,17.5772015 C91.8628683,17.6343881 92.1208976,17.9972757 91.9801756,18.2123725 C91.9197659,18.3046241 91.7900488,18.3636934 91.6905366,18.3314524 C91.5427902,18.2832086 91.4779317,18.0370474 91.532722,17.8683118 C91.6046049,17.6466255 91.8916683,17.5499026 92.1644488,17.4847146 C93.1033756,17.2602043 94.0704,17.3557506 94.6260293,17.4317641 C95.1542634,17.5040121 95.604761,17.5983817 96.1662439,17.4051711 C96.3324878,17.3482199 96.4629073,17.2813846 96.5479024,17.2333761" id="Stroke-64" stroke="#E5E7EA" stroke-width="0.6"></path>
                        <path d="M68.3707317,10.6362107 C68.907161,10.8416588 69.3571902,10.8675457 69.6341854,10.8611916 C69.8840195,10.8553082 70.9617951,10.8303626 71.3193366,10.1862489 C71.3418146,10.1455358 71.4830049,9.89137324 71.3851317,9.74970116 C71.2746146,9.59014356 70.9009171,9.63203331 70.6609171,9.78947289 C70.5129366,9.88666653 70.3003317,10.1041167 70.3319415,10.3451005 C70.3719805,10.6496248 70.7761171,10.8009457 71.0428098,10.9009633 C71.2282537,10.9703874 71.532878,11.0541669 71.9510634,11.033222 C72.6439024,10.998157 73.1943805,10.6978686 73.5175024,10.5171308 C73.9523122,10.2742644 74.0291122,10.1417704 74.3861854,10.0539902 C74.5334634,10.0179838 74.8673561,9.94032307 75.2551024,10.0674043 C75.3700683,10.105058 75.6835902,10.2123711 75.9001756,10.5171308 C75.9406829,10.5743174 76.1987122,10.937205 76.0579902,11.1520665 C75.9975805,11.2445535 75.8678634,11.3036227 75.7685854,11.2713817 C75.6206049,11.2231379 75.5559805,10.9769768 75.6105366,10.8082411 C75.6824195,10.5863195 75.9694829,10.4895966 76.2422634,10.4246439 C77.1814244,10.2001337 78.1482146,10.29568 78.704078,10.3716934 C79.2323122,10.4439414 79.6825756,10.5383111 80.2440585,10.3451005 C80.2855024,10.3309803 80.4213073,10.2427294 80.6257171,10.1730701 C80.7210146,10.1408291 80.9172293,10.0756411 81.1719805,10.062933 C81.3145756,10.0558729 81.6941268,10.037046 82.059161,10.2479068 C82.2375805,10.3509838 82.2026927,10.3876962 82.5148098,10.6413881 C82.8302049,10.897904 82.9877854,11.0261619 83.1861073,11.0753471 C83.5619122,11.16854 84.1161366,11.0233379 84.1934049,10.6896319 C84.2456195,10.4641803 84.0772683,10.1648333 83.8337561,10.0871725 C83.5296,9.9899789 83.2500293,10.2834425 83.1381073,10.4004043 C82.9051317,10.6449181 82.6574049,11.1193549 82.8264585,11.4368227 C83.052878,11.861839 83.9435707,11.8500722 84.5291707,11.629798 C85.0122146,11.4478835 85.0440585,11.2153718 85.4802732,11.1475952 C85.8528,11.0899379 85.9251512,11.2443181 86.6392976,11.3645747 C87.2981854,11.4754178 87.6985756,11.5429591 88.0062439,11.3163308 C88.2797268,11.1151188 88.2652098,10.8402467 88.5340098,10.7861195 C88.7426341,10.7439944 88.851278,10.8896672 89.1573073,10.8343633 C89.3476683,10.8000043 89.3617171,10.733875 89.4933073,10.7378757 C89.7806049,10.7468185 90.0798439,11.0736997 90.020839,11.2440828 C89.9630049,11.4109358 89.5429463,11.4794185 89.4691902,11.3645747 C89.3640585,11.2003103 89.8833951,10.5331337 90.5242537,10.2559082 C91.3784195,9.88643119 92.2424195,10.298504 92.4428488,10.4004043" id="Stroke-65" stroke="#FFFFFF" stroke-width="0.6"></path>
                        <path d="M85.9079063,25.7630461 C85.9271063,25.6973875 86.064316,25.2544857 86.4286477,25.1443486 C86.8700136,25.0109133 87.3940331,25.4415776 87.4703648,25.8105839 C87.581116,26.3471493 86.8128819,27.0766899 85.5290575,27.6191387 C85.2321599,27.4831147 84.7268721,27.1920044 84.3925111,26.619668 C84.2234575,26.3299698 83.8944819,25.7665762 84.1560233,25.3347352 C84.3335063,25.0412716 84.7226575,24.9097189 85.0553794,24.953962 C85.4630282,25.0083246 85.8053502,25.3293224 85.9079063,25.7630461" id="Fill-66" fill="#E8EAF2"></path>
                        <polygon id="Fill-67" fill="#FFFFFF" points="67.4341463 55.7409053 107.415805 55.7409053 107.415805 40.4777385 67.4341463 40.4777385"></polygon>
                        <polygon id="Fill-68" fill="#E8EAF2" points="70.7121951 52.9550014 80.5507902 52.9550014 80.5507902 43.0664311 70.7121951 43.0664311"></polygon>
                        <path d="M84.2926829,46.94947 L103.935922,46.94947" id="Stroke-69" stroke="#E5E7EA" stroke-width="0.6"></path>
                        <path d="M84.2926829,48.3614841 L97.6743805,48.3614841" id="Stroke-70" stroke="#E5E7EA" stroke-width="0.6"></path>
                        <path d="M84.2926829,49.7734982 L104.765737,49.7734982" id="Stroke-71" stroke="#E5E7EA" stroke-width="0.6"></path>
                        <path d="M84.2926829,44.0538785 C84.8291122,44.2593266 85.2793756,44.2852135 85.5563707,44.2788595 C85.8059707,44.2729761 86.8839805,44.2477952 87.241522,43.6039167 C87.264,43.5632036 87.4051902,43.3088058 87.3070829,43.167369 C87.1968,43.0078114 86.8231024,43.0497012 86.5831024,43.2071407 C86.4348878,43.3043344 86.2225171,43.5217846 86.2541268,43.7627683 C86.2939317,44.0672927 86.6980683,44.2186135 86.9649951,44.3183959 C87.150439,44.3878199 87.4548293,44.4718347 87.8732488,44.4508899 C88.5660878,44.4158248 89.1163317,44.1155365 89.4394537,43.9347987 C89.8742634,43.6916969 89.9512976,43.5594383 90.3083707,43.471658 C90.4554146,43.4356517 90.7895415,43.3579909 91.1770537,43.4850722 C91.2922537,43.5224906 91.6055415,43.630039 91.8221268,43.9347987 C91.8628683,43.9919853 92.1208976,44.3548729 91.9801756,44.5697344 C91.9197659,44.661986 91.7900488,44.7212906 91.6905366,44.6888142 C91.5427902,44.6408058 91.4779317,44.3946446 91.532722,44.2259089 C91.6046049,44.0039874 91.8916683,43.9072644 92.1644488,43.8423118 C93.1033756,43.6175662 94.0704,43.7133478 94.6260293,43.7891259 C95.1542634,43.8613739 95.604761,43.9557436 96.1662439,43.7627683 C96.3324878,43.7055817 96.4629073,43.6389817 96.5479024,43.5907379" id="Stroke-72" stroke="#E5E7EA" stroke-width="0.6"></path>
                        <path d="M89.7836955,52.2216004 C89.597315,52.5548358 89.6755199,52.9574951 89.8782906,53.2208358 C90.1356175,53.5547771 90.6242809,53.7042153 91.014837,53.5065333 C91.4306809,53.2959078 91.4859394,52.8184117 91.4882809,52.7927601 C91.526915,52.3990435 91.3019004,51.9966195 90.9202419,51.8408273 C90.5055687,51.6716209 90.0016858,51.8318845 89.7836955,52.2216004" id="Fill-73" fill="#E8EAF2"></path>
                        <path d="M94.5300234,51.8458278 C94.4930282,51.8592419 94.0240331,52.038097 93.9144526,52.5120631 C93.8137697,52.9471988 94.075077,53.3776278 94.4354282,53.5588362 C94.8885014,53.7873472 95.369438,53.5567182 95.6188038,53.3211472 C95.8271941,53.1244066 96.0995063,52.7118631 95.9503551,52.3216765 C95.7976916,51.9218412 95.3076234,51.8215882 95.1928916,51.79829 C94.8983355,51.7378087 94.6524819,51.8034673 94.5300234,51.8458278" id="Fill-74" fill="#E8EAF2"></path>
                        <path d="M98.8641354,52.1093857 C98.6416964,52.3515461 98.4916086,52.7516168 98.6271793,53.108621 C98.8175403,53.6091801 99.4930525,53.8271009 100.000448,53.632243 C100.557013,53.4183228 100.890438,52.7163165 100.663316,52.2519991 C100.45235,51.8210995 99.8489549,51.7808571 99.7637256,51.7761504 C99.6604671,51.770973 99.1968574,51.7467334 98.8641354,52.1093857" id="Fill-75" fill="#E8EAF2"></path>
                        <path d="M85.9079063,52.1207115 C85.9271063,52.0550528 86.064316,51.6121511 86.4286477,51.502014 C86.8700136,51.3685786 87.3940331,51.7992429 87.4703648,52.1682493 C87.581116,52.7048147 86.8128819,53.4343553 85.5290575,53.9768041 C85.2321599,53.84078 84.7268721,53.5496698 84.3925111,52.9773334 C84.2234575,52.6876352 83.8944819,52.1242415 84.1560233,51.6924005 C84.3335063,51.3989369 84.7226575,51.267149 85.0553794,51.3116274 C85.4630282,51.3659899 85.8053502,51.6867525 85.9079063,52.1207115" id="Fill-76" fill="#E8EAF2"></path>
                        <path d="M61.9082927,36.0955527 L51.342439,36.0955527 C51.1776,36.0955527 51.0439024,35.961176 51.0439024,35.7952643 L51.0439024,33.0119491 C51.0439024,32.8460375 51.1776,32.7116608 51.342439,32.7116608 L61.9082927,32.7116608 C62.0731317,32.7116608 62.2068293,32.8460375 62.2068293,33.0119491 L62.2068293,35.7952643 C62.2068293,35.961176 62.0731317,36.0955527 61.9082927,36.0955527" id="Fill-84" fill="#03256C"></path>
                        <path d="M30.3512195,123.567957 L29.4570146,127.343212 C29.4293854,127.458997 29.4759805,127.57996 29.5740878,127.647031 L32.8362146,129.87966 L28.0460488,130.325857 L25.7560976,129.520773 C25.7560976,129.520773 25.8200195,128.377513 25.9576976,127.054691 C25.9576976,127.054691 26.084839,125.608553 26.6006634,123.512418 C26.7062634,123.084813 26.7781463,122.837005 27.0078439,122.672976 C27.0078439,122.672976 27.3925463,122.398339 29.4277463,122.99515 L30.2903415,123.507005 L30.3512195,123.567957 Z" id="Fill-85" fill="#FFC17C"></path>
                        <path d="M25.8453989,128.493286 C25.6217892,128.686026 25.1872135,129.116926 24.9699257,129.812107 C24.8868038,130.077331 24.6568721,130.812755 25.0106672,131.579714 C25.1949404,131.979314 25.4667843,132.233947 25.640755,132.371383 C26.5136526,132.534 27.1922087,132.489992 27.6506672,132.420098 C28.1529111,132.343143 28.357555,132.240066 28.9061599,132.200059 C29.567155,132.15205 30.043877,132.245714 30.4857111,132.321963 C30.9460428,132.401271 31.6843062,132.486698 33.1603648,132.657081 C35.3995062,132.91595 36.0033696,132.827934 36.3897111,132.431629 C36.451994,132.368088 36.6613209,132.147814 36.7109599,131.817638 C36.8226477,131.077272 36.0335745,130.434806 35.7195843,130.179231 C34.741555,129.382855 33.6211648,129.316255 33.312794,129.30237 C32.9437794,129.285191 33.0938672,129.339083 31.5726184,129.505465 C31.4932428,129.513937 30.1384721,129.671847 29.3299648,129.655845 C28.5921696,129.641489 27.3722672,129.464987 25.8453989,128.493286" id="Fill-86" fill="#0B113A"></path>
                        <path d="M9.52881951,123.713738 L8.62407805,127.486405 C8.59621463,127.60219 8.64234146,127.723152 8.74021463,127.790458 L11.9962537,130.032501 L7.20491707,130.465284 L4.91707317,129.653611 C4.91707317,129.653611 5.18634146,125.081509 5.77826341,123.647844 C6.37065366,122.213944 8.60675122,123.138578 8.60675122,123.138578 L9.46794146,123.652551 L9.52881951,123.713738 Z" id="Fill-87" fill="#FFC17C"></path>
                        <path d="M5.01250408,128.728622 C4.78819188,128.920891 4.35267969,129.350849 4.13328457,130.045325 C4.04969432,130.310313 3.81742115,131.045031 4.16910896,131.812696 C4.35244554,132.212767 4.623587,132.468341 4.79708944,132.606483 C5.66975286,132.771218 6.34830896,132.729329 6.80700164,132.660375 C7.30947969,132.585068 7.51459188,132.482461 8.06296261,132.444102 C8.72419188,132.397976 9.20067969,132.492816 9.64204554,132.570242 C10.1023772,132.650962 10.8404065,132.738271 12.3157626,132.91289 C14.5544358,133.177643 15.1585333,133.09151 15.5458114,132.696382 C15.6083285,132.633076 15.8181236,132.413273 15.8689333,132.083332 C15.9827285,131.343201 15.1952943,130.698617 14.8820065,130.442101 C13.9060846,129.643136 12.7859285,129.573242 12.4775577,129.55818 C12.1090114,129.540295 12.2586309,129.594657 10.7366797,129.756568 C10.6575382,129.76504 9.3022992,129.919185 8.49379188,129.900829 C7.75623091,129.884591 6.53679676,129.704324 5.01250408,128.728622" id="Fill-88" fill="#0B113A"></path>
                        <path d="M7.78234887,125.00768 C11.345822,126.162472 12.2367489,126.2206 12.325022,126.023389 C12.3437538,125.981264 12.3568659,125.858889 12.3580367,125.844769 C12.3929245,125.517417 12.281705,125.28773 12.2250416,125.108168 C12.1419196,124.844828 12.1695489,124.586429 12.2250416,124.069867 C12.2404952,123.927489 12.2824074,123.551423 12.4137635,123.154647 C12.678583,122.35427 13.0506416,122.240603 13.7132757,121.111698 C13.9429733,120.720099 14.0579391,120.5243 14.1462123,120.263548 C14.3864464,119.554717 14.3206513,118.930842 14.2464269,118.287669 C14.1417635,117.38398 13.976222,117.270784 13.9684952,116.490646 C13.9670903,116.323087 13.9703684,115.902072 14.0684757,115.374449 C14.1157733,115.120051 14.2461928,114.511944 14.6238708,113.744514 C15.1001245,112.776814 15.4286318,112.655145 16.3565538,111.210655 C16.5832074,110.857416 16.7337635,110.599959 16.9119489,110.295434 C17.6668367,109.002735 18.0702708,108.096222 18.5111684,107.192062 C19.3269342,105.519296 19.588944,105.255956 20.088144,104.245189 C20.088144,104.245189 21.1099586,102.175882 21.7318513,98.7978737 C22.3446123,95.4697564 22.0940757,81.878179 20.2658611,63.4793995 C19.1108172,63.4346857 15.7876726,62.408436 14.6326287,62.3639576 C14.2750872,62.8527498 14.5110501,63.280602 14.1462123,64.7102051 C13.6020562,66.8424601 13.916983,69.1291034 13.6020562,70.3109592 C12.8438903,73.158521 12.6366708,78.1589338 12.7579586,78.8392892 C12.8588757,79.4040949 12.8251586,79.8208744 12.7579586,80.5358242 C12.4336659,84.0020836 12.313783,84.77775 12.313783,84.77775 C11.9801245,86.9371903 11.8084952,88.0472687 11.4696855,89.7336843 C10.8290611,92.9234242 10.4141538,94.9892009 9.73723668,96.9224836 C9.59230009,97.3366744 9.13946107,98.5886603 8.80439765,100.316024 C8.72666107,100.71633 8.75265131,100.639611 8.62668058,101.343029 C8.54870985,101.777694 8.30941229,103.084749 7.82707082,105.138052 C7.51331473,106.472641 7.35643668,107.139818 7.20517814,107.638494 C6.77926595,109.039683 6.55729521,109.289374 5.82792936,111.210655 C5.24701229,112.739866 4.91827082,113.606137 4.62839765,114.827293 C4.53778302,115.208537 4.39027082,116.212479 4.09524643,118.220599 C3.7388757,120.64691 3.56045619,121.85983 3.60658302,122.060807 C3.63491473,122.184122 3.78453424,122.779051 3.51784156,123.013445 C3.43425131,123.086399 3.31015375,123.124524 3.17692448,123.296084 C3.11581229,123.375392 3.04229034,123.472585 3.04392936,123.608609 C3.04533424,123.751929 3.12915863,123.854771 3.16240741,123.891483 C4.7023879,124.263313 6.24236838,124.635379 7.78234887,125.00768 Z" id="Fill-89" fill="#37528A"></path>
                        <path d="M17.9034356,65.2434563 C17.8828308,65.3192344 17.8622259,65.3968951 17.8413869,65.485146 C17.8413869,65.485146 17.8125869,65.6077559 17.7877673,65.7367199 C17.3576405,67.9557001 17.2108308,69.5030322 17.2108308,69.5030322 C17.1478454,70.1657375 17.102421,70.6451163 17.0937576,71.3268838 C17.0918844,71.4605545 17.0827527,72.3628315 17.1815625,73.3272372 C17.4328015,75.7832004 18.4817771,79.6019927 18.4365869,80.2162188 C18.4155137,80.5061524 18.3785186,80.8033814 18.3785186,80.8033814 C18.3682161,80.8878669 18.3562747,80.9768238 18.3419917,81.0733114 C18.2598064,81.6272916 18.1638064,81.9537022 18.0516503,82.8357404 C17.7809771,84.964587 17.8856405,86.6437072 18.0221478,88.6699474 C18.0886454,89.6585927 18.1190844,89.6757722 18.4365869,92.5694598 C19.0427917,98.0934944 18.9500698,98.1996308 19.2659332,99.7730852 C19.7885478,102.375898 20.0498551,103.677304 20.184021,103.970297 C20.2425576,104.098085 20.478343,104.586406 20.4802161,105.250053 C20.4811527,105.564932 20.4287039,105.792266 20.3912405,105.964532 C20.3591625,106.112323 20.067182,107.470916 20.0358064,108.345658 C20.019182,108.80974 20.1334454,109.319948 20.3617381,110.340128 C20.5909673,111.364309 20.7832015,111.962533 20.9538942,112.572758 C21.3655234,114.041723 21.5462844,115.196516 21.6942649,116.144918 C21.7998649,116.817743 21.892821,117.932999 22.0794356,120.163275 C22.2995332,122.795505 22.1531917,121.690133 22.2868893,123.914056 C22.3278649,124.602177 22.3444893,124.746203 22.2868893,125.015427 C22.2084503,125.381374 22.0677283,125.631535 22.1979137,125.818863 C22.2475527,125.890169 22.3426161,125.962182 22.6420893,125.997718 C23.1197478,126.054198 23.4929771,125.944767 23.8268698,125.84875 C24.5508503,125.640714 24.9126064,125.536695 25.1298942,125.491746 C25.6834161,125.376667 26.1278259,125.35431 26.3739137,125.342779 C27.2561771,125.301359 27.316821,125.434324 27.8843917,125.342779 C28.3971722,125.25994 28.791943,125.079909 29.1281771,124.925999 C29.8331917,124.60406 29.9287234,124.40473 30.4312015,124.3306 C30.6793966,124.294123 30.9650551,124.297417 31.2902844,124.300947 C31.7035527,124.305654 31.9124112,124.335542 32.1786356,124.21152 C32.2875137,124.160923 32.5122942,124.056669 32.5635722,123.854516 C32.6061869,123.687898 32.4970747,123.588351 32.4155917,123.318421 C32.3308308,123.038136 32.3701673,122.884933 32.3563527,122.634065 C32.3317673,122.186927 32.1657576,121.919115 32.0009186,121.532694 C31.8201576,121.109089 31.7077673,120.535812 31.4827527,119.389492 C31.3410942,118.667011 31.2598454,118.094439 31.21606,117.767087 C30.9524112,115.796151 30.9144795,114.3093 30.6978942,111.158626 C30.6068112,109.833686 30.5611527,109.170981 30.5201771,108.881753 C30.3248991,107.504098 30.0647625,106.820448 30.0757673,105.488212 C30.0802161,104.952118 30.126343,104.566167 30.164743,104.237874 C30.3832015,102.365543 30.5309478,100.485446 30.7421478,98.6121743 C31.0264015,96.0954944 31.0184405,94.1549163 31.0088405,91.7806146 C31.001582,90.026187 30.9931527,87.927934 30.6978942,85.1723884 C30.6419332,84.6513552 30.1912015,80.5758117 29.0541869,76.3764817 C28.9314942,75.9227545 28.5320405,74.4759107 27.9436308,72.2684619 C27.5636112,70.843269 27.3734844,70.1309079 27.2770161,69.7233064 C26.8089576,67.746722 26.7672795,67.0760153 26.3441771,65.7049496 C26.047982,64.745486 25.7349283,63.9931178 25.5298161,63.5318598 C25.4612112,63.4784386 25.347182,63.4024252 25.1891332,63.3534754 C25.0219527,63.3012308 24.8777186,63.3017015 24.7892112,63.3085262 C22.7558844,63.3433559 20.7220893,63.3779503 18.6885283,63.4127799 C18.4487625,63.8088499 18.126343,64.4268414 17.9034356,65.2434563" id="Fill-90" fill="#415F9E"></path>
                        <path d="M5.65405515,87.2525894 C5.78447466,87.0071343 5.67887466,86.7788587 5.66506003,86.5607025 C5.63836735,86.1403929 5.96500149,85.9829534 6.3869332,85.276711 C6.4960454,85.0945611 6.70443564,84.7196714 6.85335271,84.2610021 C6.9760454,83.8835237 7.21159662,83.1262134 6.97581125,82.2519413 C6.86786979,81.852106 6.6941332,81.5504057 6.56465027,81.3588424 C6.47544052,81.0364325 6.36398686,80.5648198 6.29819174,79.985894 C6.24386979,79.5088686 6.24269906,79.155865 6.24269906,78.4901004 C6.24269906,77.1759859 6.24246491,76.519164 6.24269906,76.5031611 C6.2555771,74.9927767 6.26236735,74.2375845 6.22045515,73.3776678 C6.16683564,72.2774735 6.05842588,71.4721548 5.95376247,70.6986064 C5.75146003,69.1990473 5.62385027,68.2520565 5.26537223,67.0596106 C5.05206491,66.3500735 4.70131369,65.368959 4.11009418,64.2466431 C2.82931369,64.6187088 1.54829906,64.9907746 0.267518567,65.3628403 C0.243869787,65.5282813 0.219284421,65.7866799 0.245274665,66.099441 C0.277118567,66.4825675 0.369606372,66.761911 0.400747836,66.8586339 C0.638406372,67.5952346 0.751733201,68.3669004 0.956142957,69.1136205 C1.85386003,72.3904346 1.74427954,72.0809682 1.91122588,72.6184749 C2.16550881,73.4369724 2.05265027,72.9735965 3.33272832,76.5031611 C3.67575271,77.4485046 4.08995759,78.6023555 4.53226003,80.1645138 C4.60507954,80.421265 4.66314784,80.6349498 4.70271857,80.78227 C4.71161613,80.8775809 4.72941125,81.0209004 4.76921613,81.1912834 C4.82143076,81.4157936 4.85842588,81.4602721 4.86545027,81.5708799 C4.87949906,81.7909187 4.75469906,81.9356502 4.62123564,82.1512177 C4.44070881,82.4425633 4.50065027,82.449388 4.25830881,82.9551244 C4.14872832,83.1836353 4.07918686,83.3013032 3.34022101,84.4881011 C2.93631857,85.1369216 2.82580149,85.3120113 2.61460149,85.5744106 C2.40480637,85.8353979 2.21304052,86.0359039 2.07793808,86.1698099 C2.07466003,86.1975795 2.07489418,86.2382926 2.09994784,86.2667682 C2.14911857,86.3223074 2.26150881,86.2926551 2.31466003,86.2775936 C2.55395759,86.2114643 2.72043564,86.0224898 2.97378198,85.7756226 C3.04870881,85.7021979 3.1678893,85.5885307 3.32172345,85.4518007 C3.21003564,85.8591668 3.03559662,86.1142707 2.89955759,86.2702982 C2.5661332,86.6531894 2.12219174,86.9958382 2.12219174,86.9958382 C1.96882588,87.1144473 1.80843564,87.2259965 1.8334893,87.3196601 C1.85643564,87.4060283 2.02478686,87.4323859 2.08870881,87.4425053 C2.33198686,87.4803943 2.53335271,87.3947322 2.57737223,87.3754346 C3.16367466,87.1182127 3.72141125,86.7056693 3.72141125,86.7056693 C4.35196735,86.2394693 4.82470881,85.8744636 4.97643564,85.7570311 C5.18131369,85.5984148 5.35036735,85.4666269 5.46509906,85.3771993 C5.4365332,85.581 5.41452345,85.7525597 5.39836735,85.879641 C5.34310881,86.3237194 5.31032832,86.6595435 5.35411369,87.0516127 C5.38806491,87.3566078 5.43676735,87.4126177 5.47610393,87.4201484 C5.55501125,87.4352099 5.64656247,87.2669449 5.65405515,87.2525894" id="Fill-91" fill="#FFC17C"></path>
                        <path d="M35.5155118,38.6992288 C35.6742631,38.721115 35.9065362,38.7500613 36.1886826,38.7735948 C36.6618923,38.8131312 37.0154533,38.8152493 37.218224,38.8168966 C38.7427509,38.8288987 38.5514533,38.8639637 39.0487801,38.8456076 C39.8760192,38.8147786 40.5091509,38.7140549 41.0842143,38.6227447 C41.515746,38.554262 41.9308874,38.4881327 42.4904972,38.3495199 C43.3338923,38.1403065 43.9735801,37.8976754 44.3711606,37.7454132 C44.7692094,37.593151 45.0986533,37.4512436 45.3374826,37.3439305 C45.4086631,37.3074535 45.5065362,37.2455602 45.589424,37.1410712 C45.7060289,36.994457 45.7226533,36.8530203 45.7636289,36.7075828 C45.8179509,36.5143722 45.9118435,36.3694054 46.1003313,36.0792365 C46.2312192,35.8775539 46.3972289,35.6215086 46.6522143,35.4094712 C46.8819118,35.2183786 47.101307,35.1315397 47.5747509,34.9839842 C48.3235509,34.7505312 48.4631021,34.7526493 48.994146,34.5928563 C49.2343801,34.5206083 49.2692679,34.5010754 50.643707,33.9868669 C51.0178728,33.8470775 51.3246045,33.7327044 51.5250338,33.658103 C51.5372094,33.6564556 51.7612874,33.625862 51.8223996,33.7364698 C51.8617362,33.8075411 51.8151411,33.9042641 51.7591801,33.997457 C51.5196484,34.3975277 51.1822435,34.63051 51.1822435,34.63051 C50.483785,35.1129482 50.0288387,35.4271213 49.5825557,35.4459482 C49.3629265,35.4553616 49.2683313,35.4965454 49.0798435,35.5791482 C48.9519996,35.6349228 48.8850338,35.6838726 48.8641948,35.756356 C48.8424192,35.8318987 48.8766045,35.9130895 48.9393557,36.0027524 C49.1133265,36.2510316 49.2931509,36.261151 49.5579704,36.4684818 C49.8335606,36.6842846 49.9609362,36.9255037 50.0208777,37.0419948 C50.1063411,37.2081418 50.1824387,37.3608747 50.1407606,37.5291397 C50.0934631,37.7197616 49.9204289,37.8275454 49.8206826,37.8880266 C48.7855216,38.5133136 48.5883704,38.5832083 48.5883704,38.5832083 C47.9079411,38.8253687 47.2448387,39.1148316 46.5648777,39.35911 C45.6570923,39.6852853 45.2033167,39.8483729 44.936624,39.9502733 C44.0400777,40.2924514 43.341385,40.5925044 42.9836094,40.7494733 C41.9732679,41.1921397 41.9603899,41.2455609 41.2600582,41.5425546 C40.4496777,41.88638 39.8483899,42.0772372 39.0253655,42.3386952 C36.9929752,42.984221 37.4355118,42.6538097 36.1123509,43.0915341 C35.8643899,43.1734309 35.4176387,43.3275758 34.8762923,43.2193213 C34.4700484,43.1378952 34.1806435,42.9432726 34.0497557,42.8441963 C34.0497557,42.8441963 33.6161167,42.515197 33.4004679,42.0198153 C32.9071216,40.8871447 33.6765265,39.1094189 34.8512387,38.7545327 C35.1153557,38.6747539 35.354185,38.6811079 35.5155118,38.6992288" id="Fill-92" fill="#FFC17C"></path>
                        <path d="M16.1524009,37.3496012 C14.0275229,32.2567016 13.4988205,31.0517828 13.4758741,31.0614316 C13.4578448,31.0689623 13.6374351,31.8740457 14.2649473,32.2392867 C14.6334936,32.4536775 15.0219424,32.4383807 15.4698644,32.4209659 C15.9554839,32.4019037 16.4785668,32.3814295 16.9154839,32.0576076 C17.0545668,31.9547659 17.4184302,31.6476528 17.6684985,30.5441637 C17.787679,30.0167765 17.8897668,29.269821 17.72844,27.7288429 C17.5394839,25.9186408 17.4448887,25.0135397 16.8925375,24.641474 C16.5216497,24.3917828 16.2661961,24.3840168 15.2387619,23.9618245 C15.0156205,23.8702789 14.7688302,23.7361376 14.4899619,23.5250415 C13.6697473,22.9039906 13.5145083,22.315416 13.0586253,22.3591885 C12.584479,22.4046083 12.3180205,22.9945948 11.874079,23.946763 C10.1081473,27.7321376 9.92270338,27.8279192 9.85011802,28.6600662 C9.7550546,29.7517885 10.1058058,30.138445 10.3352692,31.7126054 C10.5378058,33.102498 10.7454936,35.1558019 10.6658839,37.7515546 C12.2171034,37.7739115 13.7683229,37.796033 15.3195424,37.8183899 L16.1524009,37.3496012 Z" id="Fill-93" fill="#FFC17C"></path>
                        <path d="M6.36516399,41.1837456 C2.09246155,48.7406099 0.900890816,51.9936551 0.744715206,53.4795647 C0.602822523,54.8296855 0.427446913,56.1762763 0.300539596,57.5278092 C0.228188377,58.2978276 0.203603011,58.7113124 0.0930859379,59.2542318 C0.0757591086,59.3401293 0.0408713037,59.5034523 0.019095694,59.7305512 C-0.0296067451,60.235817 0.0277591086,60.6180021 0.048598133,60.7723823 C0.116500572,61.2679993 0.123759109,61.6880735 0.137573743,62.5286926 C0.16145667,63.9604749 0.173163987,64.6766014 0.122822523,64.9100544 C0.0998761818,65.0152495 0.0214371574,65.3546035 0.167076182,65.4607399 C0.244578621,65.5169852 0.347134718,65.4793314 0.522510328,65.4456784 C0.851485938,65.3828438 0.985651792,65.4207329 1.2186274,65.4012 C1.81663716,65.3510735 2.12617862,65.0013647 3.01031521,64.7610869 C3.64766155,64.5878799 3.75466643,64.6970756 4.26908594,64.4784488 C4.5533396,64.3574862 4.65964204,64.26547 5.1576713,63.9277633 C6.10245179,63.2871795 6.08114447,63.3740184 6.93460789,62.7816784 C7.40805179,62.4529145 7.68457862,62.2608806 8.04516399,61.9629456 C8.39052984,61.6774834 8.43150545,61.6104127 8.71154447,61.4124954 C9.03841277,61.1811604 9.14986643,61.1548028 9.25944691,60.9808898 C9.40508594,60.7495548 9.44044204,60.4285569 9.34818838,60.1621569 C9.23275423,59.8282155 9.01335911,59.8592799 8.84477374,59.4923915 C8.80309569,59.4015519 8.64738838,59.0313689 8.7707835,58.6588325 C8.8925396,58.2914735 9.15970057,58.3034756 9.28894935,57.8998749 C9.31002252,57.8346869 9.31985667,57.7817364 9.33343716,57.2896495 C9.3498274,56.7001336 9.34818838,56.4859781 9.34818838,56.4859781 C9.34163228,55.54087 9.35849082,55.6566551 9.34818838,54.9231138 C9.3306274,53.6668919 9.32172984,53.0387809 9.24469569,52.6012919 C9.18826643,52.2807647 9.12481277,52.0402516 9.09648106,51.6041746 C9.07119325,51.2113993 9.08875423,50.8892247 9.10608106,50.6915428 C9.11544691,50.583759 9.12504691,50.5056276 9.12621765,50.4952728 C9.16297862,50.1825117 8.89698838,49.0656085 7.94471521,46.2444042 C7.41835423,44.557518 6.89175911,42.8706318 6.36516399,41.1837456" id="Fill-94" fill="#FFC857"></path>
                        <path d="M9.42447448,52.2311929 C10.0604159,53.0398063 10.7719867,53.7938219 10.7719867,53.7938219 C11.7495477,54.8302403 12.2382111,55.3484495 12.7118891,55.6393244 C13.1783086,55.9259632 13.5171184,56.3891039 13.9706598,56.6959816 C14.0118696,56.7242219 14.1404159,56.8098841 14.162894,56.9492028 C14.1827964,57.0729894 14.1123184,57.1986586 13.9409233,57.3808085 C13.5698013,57.7747604 13.3862306,57.7328707 13.1708159,58.0058601 C13.1237525,58.0656353 12.8500355,58.4254636 12.9488452,58.7798791 C13.0151086,59.0175682 13.2169428,59.1387661 13.5854891,59.3602169 C13.9067379,59.5531922 14.0682989,59.5816678 14.5778013,59.8661887 C14.884533,60.0377484 14.9524355,60.0979943 14.9922403,60.193776 C15.0313428,60.2876749 15.0437525,60.4173449 14.8145233,60.9675597 C14.5834208,61.5224813 14.4726696,61.6264996 14.4888257,61.8606586 C14.5056842,62.1065844 14.6475769,62.2802622 14.7702696,62.4261703 C15.0032452,62.7041018 15.3830306,62.9928586 16.3694891,63.2449032 C17.1269525,63.4381138 17.7235574,63.4771795 17.8207281,63.4828275 C19.1680062,63.5642537 19.5515266,63.5018897 20.9439949,63.4828275 C21.990629,63.4684721 23.028248,63.4313182 24.0751163,63.4244935 C24.2991943,63.4230815 25.4609397,63.8664247 25.6349105,63.4828275 C25.7814861,63.159947 26.1008452,61.6787442 26.0242794,61.1610056 C25.8854306,60.2166035 25.6035184,59.4552926 25.3728842,58.898959 C25.0036355,58.0084487 24.9713233,58.1418841 24.6917525,57.4106961 C24.5049038,56.9221392 24.3669916,56.433347 24.0993623,55.4757661 C23.9883769,55.0787548 23.9403769,54.8947222 23.7141916,54.0468078 C23.1538794,51.943848 23.0342306,51.5174198 22.9738208,50.8022346 C22.9354208,50.3468601 22.9382306,49.977383 22.9443184,49.7604035 C23.2995184,49.4106947 23.708572,48.9487307 24.0993623,48.3613328 C24.561333,47.6670926 24.8561233,47.0102707 25.0471867,46.4859427 C25.8037135,46.6652685 26.452533,46.7457533 26.9423672,46.7836424 C27.2905428,46.810706 27.6750111,46.8394169 28.1863867,46.81353 C28.5956745,46.7928205 29.0274403,46.7201018 29.8745818,46.5753703 C30.4501135,46.477 30.4997525,46.4605265 31.2073428,46.3372106 C32.0219379,46.1953032 32.434972,46.1239965 32.7175867,46.0990509 C33.5438891,46.0263321 34.1854501,46.0861074 34.3170403,46.0990509 C35.3187184,46.1978919 35.3826403,46.4007512 36.212455,46.3967505 C36.513333,46.3953385 36.8078891,46.3560374 37.3972355,46.2776707 C38.2104257,46.1694162 38.3092355,46.1016396 38.3743281,46.0395109 C38.6531964,45.7735816 38.6213525,45.3189131 38.5520452,44.4917081 C38.5202013,44.1092876 38.4722013,43.8285321 38.3743281,43.3009095 C38.1598501,42.1461173 37.9893916,41.3363272 37.9893916,41.3363272 C37.7400257,40.152118 37.6152257,39.5600134 37.5747184,39.4611724 C37.1843964,38.5057095 36.8561233,38.5697208 36.330933,37.4667025 C36.330933,37.4667025 36.1052159,36.9927364 35.6645525,36.4992374 C35.5985233,36.425342 35.4699769,36.2876707 35.2646306,36.1718855 C35.1625428,36.1139929 34.9986403,36.0217413 34.7909525,36.0080919 C34.4591672,35.9862056 34.2016062,36.1777689 34.1098208,36.2462516 C33.7824842,36.4895887 33.7822501,36.7277484 33.3987184,36.9607307 C33.3137233,37.0122692 33.218894,37.0581597 33.1175086,37.0350968 C32.9730403,37.0019145 32.9252745,36.853653 32.8360647,36.7373972 C32.6119867,36.4446396 32.0987379,36.3189703 31.7699964,36.4396975 C31.4534306,36.5559533 31.4531964,36.8475343 31.0591281,36.9755569 C30.8882013,37.0310961 30.7467769,37.0221533 30.6889428,37.0200353 C30.2194794,37.0037972 24.4929623,37.0687498 16.4582306,37.1690028 C16.2805135,37.1541767 15.9672257,37.1525293 15.614133,37.2880827 C15.3755379,37.3796283 15.1982891,37.5036502 15.0812159,37.6006085 C14.364494,37.3393859 12.8924159,36.9138989 11.0714598,37.2064212 C10.4041428,37.3137343 7.51173302,37.8672438 6.13518668,40.084106 C3.372494,44.5338332 9.11001595,51.8313576 9.42447448,52.2311929 Z" id="Fill-95" fill="#FFC857"></path>
                        <path d="M14.2261529,38.1906542 C15.0053919,38.0612196 16.7933334,37.7639906 17.2644358,36.3839822 C17.4643968,35.7979963 17.3548163,35.2270719 17.2489821,34.6763864 C16.9530212,33.134467 16.2414504,32.8974839 15.6291578,31.3292069 C15.3870504,30.7083913 14.735187,29.0384493 15.2917529,27.7697546 C15.6558504,26.9397256 16.1634797,27.1336422 16.9534895,26.1866514 C17.7086114,25.2815504 18.5957919,23.4854684 18.0483578,22.0854564 C17.6542895,21.0772783 16.6699382,20.6590868 15.8120261,20.3070246 C15.455187,20.1604104 14.80707,19.9038945 14.0046504,20.0316818 C13.8728261,20.0526267 13.7653529,20.0796903 13.6925334,20.0996938 C13.5806114,20.0203857 13.4162407,19.913308 13.2085529,19.813055 C12.8016065,19.6163143 12.1361626,19.4009822 10.7561041,19.6346705 C9.88788946,19.78152 8.87497239,19.9528444 7.70470898,20.7198034 C7.49257239,20.8588868 6.47895288,21.5392422 5.54002605,22.8785376 C5.01577239,23.6266698 4.56269922,24.2731369 4.36765532,25.2803737 C4.26978215,25.7882281 4.2634602,26.3344422 4.25105044,27.4263998 C4.23934312,28.4854104 4.29764556,28.8600648 4.10822117,29.4724083 C3.92558703,30.0623949 3.63875776,30.4659956 3.50271873,30.6544995 C3.0857041,31.2313073 2.87731386,31.2098917 2.34697239,31.801761 C2.05826995,32.1232295 1.66022117,32.5670726 1.40991873,33.23825 C1.28511873,33.5721913 1.08281629,34.2685497 1.21253337,35.2682557 C1.87727483,36.2211299 2.49799678,36.5440104 2.94264068,36.662855 C3.51934312,36.8169998 3.80242605,36.6277899 4.62404556,36.8000557 C5.31243581,36.9445518 5.64609434,37.1893009 6.11345044,37.3935723 C7.14626995,37.8454168 7.87025044,37.6806818 9.08102117,37.6627963 C12.0392261,37.6190239 12.1420163,38.5370684 14.2261529,38.1906542" id="Fill-96" fill="#0B113A"></path>
                        <path d="M60.7244488,34.3355211 C60.3516878,34.1929076 60.0393366,34.1747868 59.8468683,34.1792582 C59.6736,34.1834942 58.9250341,34.2006737 58.6770732,34.6478115 C58.6611512,34.6762871 58.563278,34.8527889 58.6314146,34.9509239 C58.7079805,35.061767 58.9674146,35.0328207 59.1338927,34.9233896 C59.2366829,34.8558483 59.3841951,34.7049981 59.3626537,34.5376744 C59.3347902,34.3261076 59.0540488,34.2211479 58.868839,34.1517239 C58.7400585,34.1034801 58.5286244,34.0453521 58.2382829,34.059943 C57.7571122,34.0841825 57.3749854,34.29269 57.150439,34.4181239 C56.8486244,34.5868596 56.795239,34.6786405 56.547278,34.7398278 C56.4451902,34.7647733 56.2131512,34.8186652 55.9441171,34.7306497 C55.8642732,34.7042921 55.6465171,34.6296907 55.4961951,34.4181239 C55.4680976,34.3785875 55.2887415,34.126543 55.3863805,33.9773401 C55.4282927,33.9130935 55.5186732,33.8721451 55.5877463,33.894502 C55.6903024,33.928155 55.7350244,34.0987733 55.6970927,34.2162059 C55.6472195,34.3701154 55.447961,34.4371861 55.2585366,34.4826059 C54.606439,34.6383981 53.9351415,34.5720334 53.5492683,34.5193182 C53.1825951,34.4691917 52.8697756,34.4035331 52.479922,34.5376744 C52.3644878,34.5772108 52.2738732,34.6235719 52.2146341,34.6569896" id="Stroke-115" stroke="#E5E7EA" stroke-width="0.6"></path>
                        <polygon id="Fill-116" fill="#FDFEFF" points="61.3463415 131.817403 66.0292683 129.9053 85.902439 129.9053 90.4097561 131.817403"></polygon>
                        <polygon id="Fill-117" fill="#F4F6F8" points="74.6926829 129.885767 77.6583805 129.885767 77.6583805 83.3088339 74.6926829 83.3088339"></polygon>
                        <polygon id="Stroke-118" stroke="#CDD1E3" stroke-width="0.6" points="74.6926829 129.885767 77.6583805 129.885767 77.6583805 83.3088339 74.6926829 83.3088339"></polygon>
                        <polyline id="Stroke-119" stroke="#CDD1E3" stroke-width="0.6" points="61.5804878 131.817403 66.2634146 129.9053 86.1365854 129.9053 90.6439024 131.817403"></polyline>
                        <path d="M47.5317073,131.905654 L96.1170732,131.905654" id="Stroke-120" stroke="#CDD1E3" stroke-width="0.6" stroke-linecap="round"></path>
                        <path d="M81.6468293,85.4562721 L70.2553756,85.4562721 C69.990322,85.4562721 69.7756098,85.2402339 69.7756098,84.9738339 L69.7756098,84.0266078 C69.7756098,83.7602078 69.990322,83.5441696 70.2553756,83.5441696 L81.6468293,83.5441696 C81.9118829,83.5441696 82.1268293,83.7602078 82.1268293,84.0266078 L82.1268293,84.9738339 C82.1268293,85.2402339 81.9118829,85.4562721 81.6468293,85.4562721" id="Fill-121" fill="#FDFEFF"></path>
                        <path d="M81.6468293,85.4562721 L70.2553756,85.4562721 C69.990322,85.4562721 69.7756098,85.2402339 69.7756098,84.9738339 L69.7756098,84.0266078 C69.7756098,83.7602078 69.990322,83.5441696 70.2553756,83.5441696 L81.6468293,83.5441696 C81.9118829,83.5441696 82.1268293,83.7602078 82.1268293,84.0266078 L82.1268293,84.9738339 C82.1268293,85.2402339 81.9118829,85.4562721 81.6468293,85.4562721 Z" id="Stroke-122" stroke="#CDD1E3" stroke-width="0.6"></path>
                        <path d="M114.303688,84.7208481 L44.2716878,84.7208481 C43.8738732,84.7208481 43.5512195,84.3965555 43.5512195,83.9964848 L43.5512195,81.915176 C43.5512195,81.5151053 43.8738732,81.1908127 44.2716878,81.1908127 L114.303688,81.1908127 C114.701502,81.1908127 115.02439,81.5151053 115.02439,81.915176 L115.02439,83.9964848 C115.02439,84.3965555 114.701502,84.7208481 114.303688,84.7208481" id="Fill-123" fill="#E8EAF2"></path>
                        <path d="M44.2536585,84.3678445 L114.497561,84.3678445" id="Stroke-124" stroke="#CDD1E3" stroke-width="0.706007067" stroke-linecap="round"></path>
                        <path d="M102.04402,74.9464069 C102.088741,74.9014577 102.557268,74.4394938 102.8928,74.5788125 C103.241678,74.7237793 103.214283,75.4229616 103.2,75.7849079 C103.179161,76.3210026 103.021346,76.6829489 102.746459,77.3145899 C102.517229,77.8408005 102.385405,77.9777659 102.234146,78.0646047 C101.941698,78.2326344 101.61998,78.1883913 101.458654,78.1528556 C101.405034,78.2980577 101.35118,78.4432599 101.297561,78.588462 C101.248859,78.7764952 101.200156,78.9647637 101.15122,79.1530323 C101.307161,79.222221 101.560976,79.3076478 101.86841,79.2852909 C102.443941,79.2438719 102.823024,78.8532146 103.053659,78.6082302 C103.460839,78.1761538 103.632937,77.662416 103.96121,76.6525906 C104.311961,75.5726351 104.308215,75.1789185 104.26841,74.8875729 C104.225093,74.5731644 104.166088,74.1843899 103.843902,73.9168132 C103.46599,73.6028754 102.963512,73.6530019 102.790478,73.6814775 C102.545327,73.7217199 102.360351,73.8179722 102.248898,73.8873963 C102.201834,74.0848429 102.154537,74.2825249 102.107473,74.4799715 C102.0864,74.6355284 102.065093,74.79085 102.04402,74.9464069" id="Fill-125" fill="#D0D4E5"></path>
                        <path d="M94.5962744,72.108554 C94.5810548,71.9162847 94.7182646,71.7482551 94.9083914,71.7221328 C96.0322939,71.5684586 97.4163329,71.4787957 98.9890939,71.5950515 C100.242948,71.6880091 101.350694,71.8922805 102.283299,72.1257335 C102.283299,72.1257335 102.562167,72.2787017 102.551162,72.5491024 C102.479279,74.2795257 101.491416,79.0375427 100.917055,80.6159392 C100.838616,80.8322127 100.642869,80.9809448 100.415045,81.0023604 C99.6760792,81.0717844 98.8656987,81.1141448 97.9937378,81.1099088 C97.1892109,81.1059081 96.4380695,81.0633123 95.7480402,80.9969476 C95.4761963,80.97059 95.2568012,80.764436 95.2176987,80.4926233 C94.9638841,78.732077 94.7412109,73.9248749 94.5962744,72.108554" id="Fill-126" fill="#DEE4F5"></path>
                        <path d="M97.9880573,77.0151163 C98.1343988,76.686117 98.3327207,76.6717616 98.5240183,76.254276 C98.7586329,75.7426562 98.6982232,75.2470393 98.6474134,74.8286124 C98.627511,74.6648188 98.5961353,74.5123213 98.5596085,74.3664131 C98.4062427,74.3628831 98.2800378,74.388064 98.2088573,74.4021842 C97.6895207,74.5069085 97.3792768,74.8665015 97.278828,74.9968775 C96.8124085,75.6009842 96.9400183,76.3368789 96.9945744,76.6505813 C97.0589646,77.0224117 97.1910232,77.7820753 97.7548475,77.9912888 C97.8271988,78.0183524 97.8993158,78.0301191 97.9707305,78.0367085 C97.8377353,77.5641545 97.8887793,77.2382146 97.9880573,77.0151163" id="Fill-127" fill="#FFC857"></path>
                        <path d="M100.102953,75.0221936 C100.059635,74.8911117 99.9221916,74.4731555 99.5065818,74.2549993 C99.3316745,74.1632184 99.1586404,74.1340367 99.0106599,74.130742 C99.0469526,74.2766502 99.0785623,74.4289124 99.0984648,74.5929413 C99.1492745,75.0113682 99.2096843,75.5069852 98.9750696,76.0183696 C98.7835379,76.4358551 98.5854501,76.4502106 98.4391087,76.7794452 C98.3398306,77.0025435 98.2887867,77.3284834 98.4215477,77.8010375 C98.7938404,77.8344551 99.1305428,77.6308898 99.2080452,77.5833519 C99.6543282,77.3087152 99.8055867,76.8620481 99.9685526,76.3826693 C100.120045,75.9355314 100.264045,75.5109859 100.102953,75.0221936" id="Fill-128" fill="#FFC857"></path>
                        <path d="M64.9552773,80.022894 L57.92597,80.022894 C57.0469846,80.022894 56.0666139,80.1556233 55.1955895,80.022894 C53.6239992,79.7833223 53.935648,78.128677 53.935648,76.8825746 C53.935648,75.9148742 53.553287,73.7766141 54.4399992,73.0969647 C55.0630627,72.6197039 56.3321358,72.8482148 57.0394919,72.8482148 C59.5811505,72.8482148 62.289287,72.5568693 64.8157261,72.8482148 C66.4442139,73.0362481 66.1866529,74.5433378 66.1866529,75.8433322 C66.1866529,76.9710608 66.7034139,80.022894 64.9552773,80.022894" id="Fill-129" fill="#E8EAF2"></path>
                        <path d="M65.2685168,80.4907675 L57.5955412,80.4907675 C56.6367119,80.4907675 55.566429,80.6406763 54.616029,80.4907675 C52.9006729,80.2206021 53.2408876,78.3529781 53.2408876,76.9468473 C53.2408876,75.8548898 52.8231705,73.4417576 53.7908973,72.6747986 C54.4710924,72.1361152 55.8563022,72.3942784 56.6285168,72.3942784 C59.4026827,72.3942784 62.3583119,72.0652792 65.1160876,72.3942784 C66.8934924,72.6060806 66.6122827,74.3070869 66.6122827,75.7741696 C66.6122827,77.0466297 67.1763412,80.4907675 65.2685168,80.4907675 Z" id="Stroke-130" stroke="#CDD1E3" stroke-width="0.6"></path>
                        <path d="M56.05214,77.5771962 C55.8912815,77.8657178 55.9587156,78.2137793 56.1343254,78.4415842 C56.3567644,78.7301058 56.7789303,78.8595404 57.1170376,78.6886867 C57.4766864,78.5065368 57.5242181,78.0935227 57.5265595,78.0711658 C57.5598083,77.7306351 57.3652327,77.3828089 57.0350864,77.2481969 C56.6766083,77.1015828 56.2406278,77.2401955 56.05214,77.5771962" id="Fill-131" fill-opacity="0.25" fill="#7380D4"></path>
                        <path d="M59.3301888,77.5771962 C59.1693303,77.8657178 59.2367644,78.2137793 59.4123742,78.4415842 C59.6348132,78.7301058 60.056979,78.8595404 60.3950864,78.6886867 C60.7547351,78.5065368 60.8022668,78.0935227 60.8046083,78.0711658 C60.8378571,77.7306351 60.6432815,77.3828089 60.3131351,77.2481969 C59.9546571,77.1015828 59.5186766,77.2401955 59.3301888,77.5771962" id="Fill-132" fill-opacity="0.25" fill="#7380D4"></path>
                        <path d="M62.6082376,77.5771962 C62.447379,77.8657178 62.5148132,78.2137793 62.6904229,78.4415842 C62.912862,78.7301058 63.3350278,78.8595404 63.6731351,78.6886867 C64.0327839,78.5065368 64.0803156,78.0935227 64.0826571,78.0711658 C64.1159059,77.7306351 63.9213303,77.3828089 63.5911839,77.2481969 C63.2327059,77.1015828 62.7967254,77.2401955 62.6082376,77.5771962" id="Fill-133" fill-opacity="0.25" fill="#7380D4"></path>
                    </g>
                </g>
            </g>
        </g>
    </g>
</svg>