<?xml version="1.0" encoding="UTF-8"?>
<svg width="175px" height="134px" viewBox="0 0 175 134" version="1.1" xmlns="http://www.w3.org/2000/svg" xmlns:xlink="http://www.w3.org/1999/xlink">
    <!-- Generator: Sketch 52.6 (67491) - http://www.bohemiancoding.com/sketch -->
    <title>Group 79</title>
    <desc>Created with Sketch.</desc>
    <g id="Sign-in" stroke="none" stroke-width="1" fill="none" fill-rule="evenodd">
        <g id="Choose-role" transform="translate(-632.000000, -580.000000)">
            <g id="Group" transform="translate(233.000000, 189.000000)">
                <g id="Group-8" transform="translate(331.200000, 363.400000)">
                    <g id="Group-79" transform="translate(68.400000, 27.600000)">
                        <path d="M158.505987,129.548483 C162.163421,125.91419 173.565,114.577836 173.765329,98.9096121 C173.785362,97.2446121 173.341776,85.3111552 164.759112,76.6560259 C159.292993,71.141431 154.86,71.3538621 145.327204,66.7550172 C145.327204,66.7550172 131.959539,59.6816379 120.615197,48.5778103 C105.553322,33.8339483 110.564408,23.189431 97.2225,14.2041724 C88.7142434,8.4627931 79.7652632,8.14414655 73.8298026,7.92310345 C50.9550987,7.07912069 34.3793092,20.7034138 29.0190789,25.1099224 C23.0092105,30.0561207 -0.248980263,49.1663017 0.0228947368,78.6511552 C0.274736842,105.882517 20.4249671,123.864517 26.0656579,128.888224 C27.7236184,130.3695 29.4330921,131.773267 31.1940789,133.099526 L154.585263,133.099526 C155.960855,131.956991 157.267763,130.77331 158.505987,129.548483 Z" id="_Path_132" fill="#F4F6F8"></path>
                        <path d="M34.4565789,130.335052 C35.5755592,129.674793 42.7015461,125.483586 50.2596711,122.343052 C52.4833224,121.41869 62.4482566,117.371017 76.4999013,115.203647 C88.2144054,113.436204 100.115352,113.290351 111.869408,114.770172 C119.08125,115.665828 127.469309,116.779655 137.794836,120.876129 C145.188221,123.821094 152.160192,127.735345 158.528882,132.516776 L30.6045395,132.697629 C31.5460855,132.114879 32.8625329,131.290991 34.4565789,130.335052 Z" id="_Path_134" fill="#FFFFFF"></path>
                        <path d="M50.5830592,122.213871 C50.3694435,122.531177 50.1891408,122.869809 50.0450329,123.224353 C49.6586842,124.177422 49.8332566,124.510422 49.4726645,125.314216 C49.3238487,125.641474 48.9203289,126.537129 48.1791118,126.683534 C47.8929276,126.740948 47.8156579,126.628991 47.4607895,126.611767 C47.1059211,126.594543 46.7768092,126.672052 45.2314145,127.694017 C44.1925658,128.380112 43.6745724,128.724595 43.4713816,128.957121 C43.1394079,129.336052 42.9333553,129.700629 42.4296711,129.895836 C42.1264596,129.986665 41.8097445,130.023584 41.4938487,130.004922 C40.6352961,130.025017 40.3891776,129.87 39.8397039,130.004922 C39.6049748,130.083588 39.3763593,130.179538 39.1557237,130.291991 C38.277164,130.601178 37.3286083,130.650994 36.4226645,130.435526 C36.0510123,130.354566 35.6892452,130.233284 35.34375,130.073819 C36.9292105,129.0375 38.6434539,127.99544 40.4950658,126.973474 C43.3238826,125.401715 46.2401031,123.993729 49.2294079,122.756431" id="_Path_135" fill="#DEE1EE"></path>
                        <path d="M80.0714803,132.74069 C79.9382134,132.561533 79.8862758,132.334385 79.9283882,132.114879 C79.9655921,131.985698 80.0743421,131.793362 80.6953618,131.540741 C81.5109868,131.204871 81.7227632,131.371371 81.9889145,131.156069 C82.5269408,130.722595 82.3838487,129.470974 81.9402632,128.655698 C81.5919442,128.048694 81.0523307,127.575073 80.4063158,127.309345 C80.0056579,127.145716 79.9913487,127.243319 78.7292763,126.924672 C77.9079276,126.717983 77.6703947,126.614638 77.4357237,126.445267 C77.0871952,126.211848 76.8192684,125.875904 76.66875,125.483586 C76.5414306,125.113742 76.5245218,124.714657 76.6200987,124.33531 C76.7523239,123.804648 77.0538104,123.331867 77.4786513,122.988957 C77.6360526,122.854034 78.1425987,122.455009 79.8282237,122.219612 C81.0960197,122.041629 81.88875,121.932543 82.8961184,122.17081 C83.5028289,122.314345 84.1639145,122.650216 85.4717763,123.319086 C86.7224013,123.956379 87.2919079,124.341052 87.76125,124.088431 C88.0216776,123.953509 87.9587171,123.801362 88.5282237,123.12675 C88.782714,122.774205 89.1096424,122.480528 89.4869408,122.265543 C90.0364145,122.010052 90.5858882,122.176552 90.9722368,122.265543 C92.362547,122.548287 93.8031784,122.449104 95.1419408,121.978474 C95.5053947,121.846422 96.1521711,121.404336 97.4314145,120.488586 C98.4301974,119.788138 98.9853947,119.325957 99.3001974,118.565224 C99.4282133,118.278107 99.4935874,117.966865 99.4919408,117.652345 C99.4335386,117.024639 99.1424845,116.441755 98.6763158,116.018922 C98.0152303,115.332828 97.5315789,115.358664 95.8974671,114.3855 C95.5712171,114.190293 95.3050658,114.020922 95.1304934,113.906095 C98.0438487,113.828586 100.482138,113.906095 102.319441,114.000828 C104.47727,114.118526 106.32602,114.287897 107.734046,114.434302 C109.330954,114.589319 110.681743,114.744336 111.689112,114.867776 C111.851391,115.028133 111.952633,115.240384 111.975296,115.46775 C111.979259,115.691486 111.912101,115.910676 111.783553,116.09356 C111.454441,116.667698 111.17398,116.647603 110.873487,117.127009 C110.761875,117.302121 110.492862,117.729853 110.610197,118.137491 C110.727533,118.545129 111.182566,118.743207 111.46875,118.858034 C112.868191,119.406336 114.044408,119.29725 115.518257,119.50681 C116.47125,119.641733 117.361283,119.768043 118.345757,120.324957 C119.015428,120.701017 120.045691,121.283767 120.429178,122.368888 C120.864178,123.600414 119.962697,124.056853 120.237434,126.023276 C120.326151,126.66344 120.472105,127.599284 121.219046,128.233707 C121.630703,128.557628 122.116786,128.772797 122.632796,128.859517 C123.125033,128.971474 123.751776,129.115009 124.349901,128.78775 C124.684737,128.606897 124.690461,128.446138 124.996678,128.187776 C125.775099,127.527517 126.862599,127.613638 127.463586,127.659569 C128.170461,127.714112 129.237928,127.797362 129.715855,128.520776 C129.967697,128.905448 129.81602,129.094914 130.147993,129.669052 C130.454211,130.194388 130.780461,130.363759 131.155362,130.725466 C131.678666,131.249329 132.065839,131.893985 132.282928,132.602897 L80.0714803,132.74069 Z" id="_Path_136" fill="#DEE1EE"></path>
                        <path d="M57.2940789,38.7600517 C59.1508951,40.2383692 61.1724781,41.4955293 63.3182566,42.5063017 C66.3241442,43.8698398 69.4837882,44.862691 72.7279934,45.4631121 C74.8915461,45.8449138 76.7603289,45.9769655 79.4332895,47.1080172 C80.3719675,47.5054328 81.2806109,47.9707532 82.1520395,48.5003017 L72.1985526,50.0361207 C71.8207895,49.9758362 71.2770395,49.8897155 70.6188158,49.7777586 C69.4740789,49.5854224 68.1748026,49.3528966 67.4478947,49.2036207 C66.7696382,49.0686983 65.9110855,48.8792328 61.9731908,47.7166034 C57.8263816,46.4936897 57.3398684,46.2812586 56.821875,45.6468362 C55.7515461,44.3119655 55.7944737,42.6268707 55.8374013,42.0670862 C55.9436629,40.8331387 56.4561283,39.66971 57.2940789,38.7600517 Z" id="_Path_137" fill="#FFC17C"></path>
                        <path d="M56.2523684,16.7619569 C55.8388058,15.1329879 56.0332118,13.4085545 56.7989803,11.9133621 C57.0714486,11.3882104 57.4174212,10.9048647 57.8263816,10.4780172 C57.9952884,10.298873 58.1739498,10.129243 58.3615461,9.96990517 C58.2603849,9.7990911 58.1495452,9.63423447 58.0295724,9.47614655 C57.4656404,8.75541785 56.7387152,8.1797553 55.9089474,7.7967931 C54.9598918,7.33561561 53.9212781,7.08961564 52.8668092,7.07625 C51.3643421,7.05328448 50.2625329,7.50111207 49.2608882,7.92310345 C48.8115789,8.11256897 47.9845066,8.49724138 45.5404934,10.2196552 C43.4227303,11.7124138 43.4112829,11.8731724 42.1721053,12.7028017 C40.9329276,13.532431 39.4791118,14.5055948 37.4500658,15.2060431 C35.4367892,15.9754428 33.2670075,16.2414692 31.1282566,15.9811293 C29.7697207,15.8600112 28.4554626,15.4352842 27.2819408,14.7381207 C24.8093092,13.2051724 23.9078289,10.8081466 23.6187829,10.0043534 C23.2782237,9.05415517 22.8603947,7.89439655 23.1150987,6.39302586 C23.3827022,4.97821505 24.1188699,3.69554851 25.2042434,2.75299138 C25.8821843,2.11631133 26.6997305,1.64825966 27.5910197,1.3865431 C28.4200711,1.16221068 29.2868858,1.11526385 30.1351974,1.24875 C31.2799342,1.38367241 32.1384868,1.77408621 33.8355592,2.54343103 C35.5326316,3.31277586 35.7157895,3.52807759 37.1095066,4.07063793 C38.8466447,4.74525 39.5134539,4.77969828 39.8139474,4.78543966 C40.7303985,4.78211499 41.6349831,4.5773173 42.4640132,4.18546552 C43.1966447,3.87256034 43.3025329,3.69457759 44.9452303,2.62093966 C45.7743816,2.03954415 46.6405011,1.5130876 47.5380592,1.04493103 C48.535616,0.546288021 49.6110404,0.222954581 50.7175658,0.0889913793 C52.3392884,-0.0859531484 53.9779729,0.182879937 55.4596382,0.866948276 C56.6706013,1.44520262 57.7322179,2.29594266 58.561875,3.35296552 C59.3077222,4.31353104 59.8510346,5.41621205 60.1587829,6.59397414 C60.3624617,7.31852773 60.4834345,8.0639437 60.519375,8.81588793 C60.9511662,8.79132275 61.3839983,8.79132275 61.8157895,8.81588793 C62.3822509,8.82130386 62.9453926,8.90338083 63.4899671,9.05989655 C63.8904077,9.1890516 64.2745555,9.36437922 64.6347039,9.58236207 C65.226014,9.9122086 65.7295522,10.3798891 66.1028289,10.9459397 C67.3877961,12.9238448 66.4090461,15.2835517 66.3002961,15.5390431 C65.9183719,14.9702218 65.37358,14.530839 64.7377303,14.2788103 C63.2409868,13.7046724 61.8901974,14.4768879 61.7070395,14.5859741 L61.5296053,15.651 C59.7283569,15.7921624 57.9527499,16.1655559 56.2466447,16.7619569 L56.2523684,16.7619569 Z" id="_Path_138" fill="#0B113A"></path>
                        <path d="M66.0226974,72.6054828 C67.9796556,77.3465245 68.6891885,82.5124727 68.0832237,87.6077069 C67.6015784,91.6224862 66.2811984,95.4902283 64.2082895,98.9584138 C61.7682696,102.924376 58.3717242,106.209988 54.3320724,108.512069 C55.0648833,106.737683 55.5065483,104.856015 55.6399342,102.94006 C56.115,95.9556724 51.1439803,89.7348879 49.8418421,88.1473966 C54.8758224,82.6155776 60.9915789,78.1373017 66.0226974,72.6054828 Z" id="_Path_139" fill="#03256C"></path>
                        <path d="M33.7182237,88.2880603 C36.4770395,90.2831897 39.2272697,92.5424224 41.9889474,94.5375517 C42.6214145,94.2504828 44.0637829,93.2687069 45.1369737,91.6668621 C46.1220087,90.1574132 46.528668,88.3411649 46.2817105,86.5541638 L39.25875,81.4759138 C36.1861014,82.3790847 33.9870602,85.0895729 33.7296711,88.290931 L33.7182237,88.2880603 Z" id="_Path_140" stroke="#DEE1EE" stroke-width="0.91287931" fill="#FFFFFF"></path>
                        <path d="M46.6795066,59.4634655 C41.5759452,59.1014866 36.4652888,60.0613379 31.8379934,62.2509052 C28.1942041,63.9792463 24.9547126,66.4589269 22.3309539,69.5281034 C19.3513278,73.1047517 17.3179103,77.3766776 16.4183882,81.9495776 C17.867374,80.6896264 19.5103942,79.6736214 21.2835197,78.9410948 C27.7369737,76.2799655 33.8527303,78.3411207 35.7673026,79.0760172 L46.6795066,59.4634655 Z" id="_Path_141" fill="#03256C"></path>
                        <ellipse id="_Path_142" fill="#FFBE26" cx="61.606875" cy="56.8339138" rx="6.78256579" ry="6.80353448"></ellipse>
                        <path d="M67.8485526,34.9764828 C66.0832567,35.9804487 64.392307,37.1105941 62.7888158,38.3581552 C59.2544408,41.1111466 56.0291447,44.5330086 48.5740461,56.3803448 C44.3471053,63.0977586 38.8266118,72.4160172 32.9712829,84.0537931 L45.9068092,93.4036293 C53.6857108,86.1500364 61.0867135,78.4990673 68.0803618,70.4811724 C76.7202632,60.568681 79.115625,56.5123966 80.8327303,52.5106552 C81.488348,50.9712151 82.0615327,49.3977501 82.5498355,47.7969828 C79.1087429,46.7800902 75.9456296,44.9859479 73.3032237,42.5522328 C71.0068453,40.4106518 69.1533622,37.8364316 67.8485526,34.9764828 Z" id="_Path_143" fill="#FFFFFF"></path>
                        <path d="M84.6389803,29.3470603 C80.3748355,29.9642586 74.1732237,31.3737672 67.8514145,34.9764828 C69.1592901,37.8384401 71.0167329,40.4137327 73.3175329,42.5551034 C75.9599388,44.9888185 79.1230521,46.7829609 82.5641447,47.7998534 C84.3617704,41.825238 85.0647482,35.5732228 84.6389803,29.3470603 Z" id="_Path_144" fill="#03256C"></path>
                        <ellipse id="_Path_145" fill="#FFBE26" cx="62.6571711" cy="56.8339138" rx="6.78256579" ry="6.80353448"></ellipse>
                        <path d="M55.9575987,78.550681 L53.4592105,84.6623793 C53.4592105,84.6623793 57.3513158,87.9866379 57.2282566,87.3263793 C57.1051974,86.6661207 58.0524671,84.2346466 58.0524671,84.2346466 L59.7867434,79.9286121 L55.9575987,78.550681 Z" id="_Path_146" fill="#FFC17C"></path>
                        <path d="M53.1014803,84.4040172 C53.7110526,84.5188448 53.7282237,85.1475259 54.7613487,85.7704655 C55.2576108,86.0662885 55.8070076,86.2613665 56.3782895,86.3446034 L56.8962829,85.4202414 L57.3770724,84.4183707 C57.8554349,84.1714267 58.408063,84.1110837 58.9281908,84.249 C59.3717763,84.3724397 60.0729276,84.7284052 60.1702303,85.2393879 C60.3075987,85.9283534 59.3746382,86.9359655 57.6975987,87.3924052 C57.9294079,87.7139224 58.2699671,88.1502672 58.6820724,88.6497672 C60.0786513,90.3004138 61.4752303,91.4429483 62.7086842,93.3548276 C62.9519408,93.7337586 63.1780263,94.1241724 63.0950329,94.5633879 C62.9977303,95.0915948 62.4940461,95.5049741 61.7356579,96.1336552 C61.5353289,96.2972845 61.3636184,96.4207241 61.2462829,96.5125862 L49.9477303,89.1463966 C49.918503,88.4744534 50.0215856,87.80332 50.2510855,87.1713621 C50.7662171,85.7675948 52.0740789,84.2145517 53.1014803,84.4040172 Z" id="_Path_147" fill="#0B113A"></path>
                        <path d="M38.7006908,51.7269569 C36.4112171,48.1414655 38.7006908,43.5110431 38.8437829,43.2297155 C39.15,43.4335345 42.9676974,45.9109397 46.6165461,44.1827845 C47.6310974,43.6919482 48.5082648,42.9560851 49.1693092,42.04125 C48.9747039,42.4862069 48.7972697,43.1005345 49.0605592,43.585681 C49.3238487,44.0708276 49.9849342,44.1885259 50.7204276,44.4468879 C51.2927961,44.6507069 51.9452961,45.1358534 53.2817763,46.1032759 C55.2131894,47.5382076 57.0102254,49.1467036 58.6505921,50.9088103 C59.2773201,51.6055303 59.939276,52.2695327 60.6338487,52.8981983 C61.5639474,53.7220862 62.6657566,54.5545862 62.7144079,54.5919052 C63.1408224,54.9134224 63.0864474,54.8531379 63.2123684,54.9622241 C63.6273355,55.3124483 64.8092763,56.4147931 65.1154934,58.0654397 C65.2632531,59.0484139 65.1395253,60.0532109 64.7577632,60.9705776 C63.9392763,63.3188017 63.7704276,65.85075 63.0406579,68.227681 C62.0676316,71.3337672 60.7798026,75.9928966 58.9940132,82.9772845 L54.3292105,83.3504741 C54.2319079,82.4031466 54.1088487,81.0166034 54.0430263,79.3315086 C53.9514852,76.7022747 54.0174263,74.069899 54.2404934,71.4485948 C54.5266776,67.7166983 54.6726316,65.8392672 55.0647039,64.6536724 C55.2895097,63.9710446 55.4148172,63.2594181 55.4367434,62.5408448 C55.451093,62.138097 55.4232762,61.7349505 55.35375,61.3380259 C55.2749293,60.8797313 55.1363732,60.433823 54.9416447,60.0117672 C54.5925,59.3141897 53.9228289,59.1046293 51.5961513,58.2721293 C48.8401974,57.2846121 48.2363487,57.02625 47.9616118,56.905681 C47.1660197,56.5583276 46.9656908,56.4320172 46.1844079,56.1191121 C44.8650987,55.5880345 43.9607566,55.3497672 43.5057237,55.2033621 C42.9505263,55.0512155 40.2375,54.1354655 38.7006908,51.7269569 Z" id="_Path_148" fill="#415F9E"></path>
                        <path d="M35.9447368,40.8212069 C35.8188158,41.7398276 37.2611842,41.9465172 39.25875,44.1856552 C40.6095395,45.7013793 41.6369408,47.498431 42.8990132,48.3596379 C43.37307,48.6753932 43.8651997,48.962957 44.3728618,49.2208448 C44.7792434,49.4246638 44.9967434,49.5079138 45.3258553,49.654319 C46.0195957,49.9830449 46.68906,50.3610226 47.3291447,50.7853707 C48.8859868,51.7212155 49.8590132,52.3068362 50.7232895,52.0829224 L50.8492105,52.0427328 C51.9700732,51.6241481 52.97625,50.9453875 53.7854605,50.0619569 C55.0875987,48.6754138 55.8975,46.832431 56.3611184,45.5262672 C57.5058553,42.3685086 56.7875329,42.1245 57.7920395,39.5494914 C58.7622039,37.0749569 59.4833882,37.0749569 60.4478289,34.4367931 C60.9400658,33.0904397 61.4294408,31.7584397 61.3063816,30.0446379 C61.1575658,27.88875 60.0786513,24.8515603 57.4457566,23.6401293 C56.5053912,23.2209397 55.4748856,23.0461896 54.4494079,23.1320172 C52.0740789,23.2784224 50.4771711,24.7080259 49.6043092,25.5089483 C48.5482895,26.4735 48.5482895,26.8409483 46.5163816,29.9011034 C44.7592105,32.55075 43.8520066,33.920069 42.4239474,35.4472759 C41.0474013,36.9342931 40.2718421,37.7696638 38.9296382,38.6681897 C37.1180921,39.9083276 36.0477632,40.0317672 35.9447368,40.8212069 Z" id="_Path_149" fill="#E56744"></path>
                        <path d="M66.2230263,16.9600345 C66.1064629,18.0014584 65.9054685,19.0316193 65.6220395,20.0402845 C65.5330604,20.370662 65.4250836,20.6955938 65.2986513,21.0134483 C65.0954605,21.4813707 64.2569408,23.4133448 62.6056579,23.6774483 C62.0927468,23.7522906 61.5691989,23.6775516 61.0974671,23.4621466 C61.1370736,24.6470028 60.7339011,25.8039482 59.9670395,26.7060259 C59.3145395,27.5672328 58.7564803,27.6533534 58.5361184,27.6648362 C57.2912171,27.7279914 55.8316776,25.8850086 55.3194079,22.9081034 C55.801289,22.7868167 56.2597115,22.5860006 56.6759211,22.3138707 C57.0243343,22.0975211 57.3339286,21.8238478 57.5917105,21.5043362 C58.3329276,20.4622759 57.4486184,18.6795776 57.3055263,18.39825 C57.1724864,18.3606361 57.0439056,18.3086598 56.9220395,18.2432328 C56.6904164,18.1236294 56.4880981,17.9540194 56.3296382,17.7466034 C56.089019,17.4145491 55.973434,17.0077338 56.0033882,16.5983276 C56.0150625,16.3961095 56.0738755,16.1994601 56.1750987,16.0241897 C56.3200722,15.794596 56.5318627,15.61522 56.7818092,15.5103362 C56.9791961,15.4015896 57.2041748,15.3536588 57.4285855,15.3725431 C57.6861513,15.40125 57.7777303,15.5275603 57.9294079,15.5734914 C58.3157566,15.6911897 58.5819079,15.1802069 59.2630263,14.7122845 C59.621007,14.4768296 60.0051914,14.2841435 60.4077632,14.1381466 C60.9502139,13.9468042 61.5212391,13.8497211 62.09625,13.8510776 C62.7430263,13.8252414 64.3857237,13.7764397 65.685,14.6433879 C65.8683711,14.7544107 66.0271273,14.901934 66.1514803,15.0768621 C66.4090461,15.4529224 66.3832895,15.9093621 66.2230263,16.9600345 Z" id="_Path_150" fill="#FFC17C"></path>
                        <path d="M66.3002961,14.5543966 C66.6150987,15.3438362 67.0043092,16.3227414 66.5864803,16.8165 C66.1056908,17.3705431 65.1841776,16.6241638 62.8660855,16.7131552 C62.1323932,16.7522505 61.3966607,16.7050411 60.6739145,16.5724914 C60.3877303,16.520819 60.1902632,16.4634052 60.1015461,16.4404397 C59.5662493,16.2925764 59.0496439,16.0835616 58.561875,15.8175 C58.8039884,15.1895647 59.1252158,14.5952897 59.5177303,14.0491552 C60.000955,13.3534593 60.610699,12.7554652 61.3149671,12.2865517 C62.0101601,11.7907455 62.8621413,11.5671365 63.7103289,11.6578707 C65.2814803,11.8616897 65.9797697,13.7506034 66.3002961,14.5543966 Z" id="_Path_151" fill="#0B113A"></path>
                        <path d="M21.8387171,104.119914 C21.7442763,104.137138 20.2332237,101.283672 21.1118092,98.5278103 C22.0791118,95.4934914 25.5333553,93.8571983 28.4266776,93.8170086 C33.1115132,93.7509828 35.6843092,97.8675517 35.8674671,98.1460086 C37.7505592,101.27506 37.2211184,104.820362 36.0677961,107.105431 C34.9144737,109.3905 33.0456908,110.576095 31.86375,111.319603 C30.1341731,112.403709 28.1896674,113.096333 26.1658224,113.349181 C27.1427783,112.895661 27.9916241,112.205014 28.6355921,111.339698 C29.0333882,110.800009 29.6114803,110.019181 29.3310197,109.370405 C29.155715,109.042501 28.8516722,108.803095 28.4925,108.710147 C27.7026316,108.483362 26.9442434,108.997216 26.5493092,109.261319 C24.5460197,110.604802 23.2238487,114.26206 22.9691447,114.979733 C22.9670149,114.483709 22.9956888,113.988034 23.055,113.495586 C23.1837829,112.424819 23.4012829,111.859293 23.0836184,111.520552 C22.9229568,111.372586 22.7121759,111.291502 22.4940789,111.293767 C21.2234211,111.26219 20.1645395,114.351052 20.0729605,114.632379 C19.8225918,113.739602 19.7258102,112.810539 19.7867763,111.885129 C19.8608461,110.533448 20.2892906,109.225326 21.0288158,108.092948 C21.4437829,107.478621 21.4638158,107.670957 23.2810855,105.540905 C23.9021053,104.814621 24.3313816,104.283543 24.3313816,103.531422 C24.3313816,103.430948 24.3313816,102.526681 23.7332566,102.236741 C23.1351316,101.946802 22.3023355,102.43769 21.9818092,103.026181 C21.833333,103.370231 21.7837679,103.749085 21.8387171,104.119914 Z" id="_Path_152" fill="#E56744"></path>
                        <path d="M52.3974671,32.263681 C53.1989505,31.8937307 54.0520869,31.6488089 54.9273355,31.5373966 C55.8746053,31.422569 56.3124671,31.5373966 57.2025,31.3163534 C58.0925329,31.0953103 58.5761842,30.7163793 59.1142105,30.4551466 C60.9028618,29.5939397 61.9760526,28.9135862 64.8178618,27.5844569 C68.6641776,25.7759224 68.4438158,26.2036552 71.7606908,24.5616207 C74.2533553,23.3300948 75.0975987,22.7329914 77.9394079,21.3665431 C79.9083553,20.4192155 81.5481908,19.7245086 82.6099342,19.2881638 C82.6843421,19.2508448 82.8675,19.1733362 82.9533553,19.2451034 C83.0392105,19.3168707 82.921875,19.7015431 82.8760855,19.8020172 C82.689061,20.191635 82.3990201,20.522291 82.0375658,20.7579569 C81.4484993,21.1711414 80.8391129,21.554383 80.2117105,21.9062328 C80.3321015,22.2963552 80.3585821,22.7095484 80.2889803,23.1119224 C80.0800658,24.2601983 79.0698355,24.9319397 78.4860197,25.3194828 C77.2411184,26.1462414 76.6601645,25.8936207 75.0747039,26.927069 C74.8772368,27.0533793 74.6654605,27.2141379 74.1074013,27.6361293 C72.8791706,28.5620263 71.7057368,29.5588863 70.5930592,30.6216466 C69.2050658,31.9335517 66.3575329,34.0148017 63.0377961,35.7199914 C60.8771053,36.8280776 59.5062829,37.2730345 57.3141118,37.9792241 C55.5970066,38.5390086 54.9015789,38.6480948 54.1317434,38.415569 C52.5663158,37.9390345 51.0495395,36.1563362 51.3128289,34.2817759 C51.444239,33.5080623 51.825306,32.7990431 52.3974671,32.263681 Z" id="_Path_153" fill="#FFC17C"></path>
                        <path d="M122.893224,84.7571121 C125.486053,87.2699224 128.091283,89.8248362 130.708914,92.4218534 C133.255954,94.9518879 135.761974,97.4713966 138.226974,99.9803793 L133.281711,104.998345 L128.336447,110.01631 C125.875263,107.62981 123.389276,105.155276 120.878487,102.592707 C118.222697,99.8789483 115.665164,97.1919828 113.205888,94.5318103 C114.516612,92.9414483 116.00477,91.2707069 117.684671,89.5655172 C119.479046,87.7541121 121.230493,86.1551379 122.893224,84.7571121 Z" id="_Path_154" stroke="#DEE1EE" stroke-width="0.6" fill="#FFFFFF" stroke-linecap="round" stroke-linejoin="round"></path>
                        <path d="M97.9980592,90.3406034 C97.6392828,90.4253624 97.3237634,90.6387412 97.1108882,90.9405776 C96.7801881,91.4689579 96.7880218,92.142494 97.1309211,92.6629914 L101.174704,96.6561207 C101.458673,97.0614164 101.914703,97.3108326 102.408158,97.3307328 C103.052713,97.3133671 103.617637,96.8935266 103.821908,96.2800603 L97.9980592,90.3406034 Z" id="_Path_155" fill="#EBECED"></path>
                        <path d="M108.775757,96.3747931 C106.895526,94.6696034 104.958059,92.8122672 102.991974,90.7941724 C101.148947,88.9023879 99.4432895,87.0393103 97.8721382,85.2307759 C102.477401,79.106077 107.879969,73.6279124 113.935658,68.9424828 C115.969398,70.6667135 117.911449,72.4969071 119.753783,74.4255 C121.642599,76.4005345 123.282434,78.3325086 124.70477,80.1496552 C120.134765,86.2416983 114.778245,91.6977979 108.775757,96.3747931 Z" id="_Path_156" fill="#EBECED"></path>
                        <path d="M119.70227,61.4097931 C117.824901,64.9263879 117.930789,69.1118534 120.037105,72.1633966 C122.761579,76.1077241 128.422303,77.5689052 133.316053,75.2235517 C129.93432,69.6020243 125.267944,64.8680864 119.70227,61.4126638 L119.70227,61.4097931 Z" id="_Path_157" fill="#EBECED"></path>
                        <polygon id="_Path_158" stroke="#DEE1EE" stroke-width="0.6" fill="#FFFFFF" stroke-linecap="round" stroke-linejoin="round" points="97.6403289 90.5185862 100.413454 93.2514828 103.847664 96.6963103 105.739342 96.3805345 103.764671 93.0591466 97.8377961 88.3569569"></polygon>
                        <path d="M97.8005921,88.3540862 L97.9322368,85.3398621 C99.5901974,86.9244828 101.265329,88.5713017 102.957632,90.280319 C104.976184,92.3223362 106.90602,94.3423448 108.747138,96.3403448 L105.762237,96.3834052 C102.74687,94.0905373 100.066899,91.3848878 97.8005921,88.3454741 L97.8005921,88.3540862 Z" id="_Path_159" stroke="#DEE1EE" stroke-width="0.6" fill="#FFFFFF" stroke-linecap="round" stroke-linejoin="round"></path>
                        <path d="M127.99875,66.8353966 L127.188849,67.6736379" id="_Path_160" stroke="#DEE1EE" stroke-width="0.6" fill="#FFFFFF" stroke-linecap="round" stroke-linejoin="round"></path>
                        <path d="M120.970066,73.3001897 L119.750921,74.4570776" id="_Path_161" stroke="#DEE1EE" stroke-width="0.6" fill="#FFFFFF" stroke-linecap="round" stroke-linejoin="round"></path>
                        <path d="M128.167599,64.8115603 C128.805789,64.4555948 129.512664,64.9637069 129.59852,65.0268621 C129.943295,65.2426645 130.171743,65.6038192 130.219539,66.0086379 C130.233676,66.4883822 129.973694,66.9341699 129.549868,67.1569138 C129.083387,67.3885379 128.525371,67.3280858 128.118947,67.0018966 C127.778406,66.73055 127.579373,66.3185772 127.578059,65.8823276 C127.587008,65.4498573 127.807451,65.0494716 128.167599,64.8115603 Z" id="_Path_162" stroke="#DEE1EE" stroke-width="0.6" fill="#FFFFFF" stroke-linecap="round" stroke-linejoin="round"></path>
                        <path d="M127.938651,100.766948 C128.259178,100.365052 128.201941,100.373664 128.51102,99.9803793 C129.592796,98.5737414 130.482829,98.2321293 131.827895,96.9460603 C132.342539,96.4574484 132.820793,95.9316609 133.258816,95.3729224 C132.898224,94.9796379 132.345888,94.3854052 131.653322,93.6849569 C130.960757,92.9845086 130.548651,92.5969655 130.065,92.1261724 C129.441118,91.5175862 128.551086,90.6248017 127.489342,89.4621724 C127.201694,89.6681817 126.929122,89.8945883 126.673717,90.1396552 C126.496283,90.3090259 126.387533,90.4267241 126.215822,90.613319 C126.215822,90.613319 125.883849,90.9664138 125.24852,91.5950948 C124.613191,92.2237759 124.315559,92.4218534 123.880559,92.8208793 C123.260043,93.405073 122.705339,94.0558331 122.226414,94.7614655 C121.585362,95.6226724 120.38625,97.0149569 117.919342,99.2483534 C118.873289,100.310509 119.855855,101.382233 120.867039,102.463526 C121.775197,103.420422 122.677632,104.359138 123.574342,105.279672 C124.012204,104.889259 124.513026,104.418466 125.048191,103.844328 C125.514671,103.350569 125.443125,103.373534 125.892434,102.891259 C126.862599,101.820491 127.240362,101.628155 127.938651,100.766948 Z" id="_Path_163" fill="#EBECED"></path>
                        <path d="M103.967862,76.0474397 L104.786349,77.1555259" id="_Path_164" stroke="#DEE1EE" stroke-width="0.6" fill="#FFFFFF" stroke-linecap="round" stroke-linejoin="round"></path>
                        <path d="M116.883355,88.8449741 L117.736184,89.531069" id="_Path_165" stroke="#DEE1EE" stroke-width="0.6" fill="#FFFFFF" stroke-linecap="round" stroke-linejoin="round"></path>
                        <path d="M127.263257,89.1521379 C126.894079,89.5454224 126.344605,90.122431 125.660625,90.8056552 C125.059638,91.4056293 124.638947,91.7989138 124.424309,92.0084741 C123.41741,93.0024897 122.462198,94.0478476 121.562467,95.1403966 C120.723947,96.1135603 119.504803,97.5087155 117.905033,99.271319" id="_Path_166" stroke="#DEE1EE" stroke-width="0.6" stroke-linecap="round" stroke-linejoin="round"></path>
                        <path d="M133.419079,95.5422931 C132.411711,96.5384224 131.573191,97.31925 130.983651,97.856069 C130.190921,98.5794828 129.52125,99.1622328 128.616908,100.152621 C128.199079,100.60619 128.279211,100.551647 127.809868,101.068371 C126.779605,102.202293 126.22727,102.655862 125.308618,103.583095 C124.87648,104.01944 124.244013,104.679698 123.511382,105.540905" id="_Path_167" stroke="#DEE1EE" stroke-width="0.6" stroke-linecap="round" stroke-linejoin="round"></path>
                        <path d="M99.6607895,70.2572586 C100.699638,69.060181 101.008717,68.9223879 103.610132,66.4335 C104.205395,65.8593621 104.754868,65.3426379 105.207039,64.8861983 C104.136711,63.7800259 103.052072,62.6709828 101.953125,61.559069 C101.029704,60.6251379 100.108191,59.7046034 99.1885855,58.7974655 L98.5704276,59.4577241 C97.8835855,60.1840086 97.4571711,60.606 97.1023026,60.9705776 C95.6341776,62.4776897 94.6840461,63.6891207 94.0887829,64.4154052 C92.7077862,66.0348115 91.1943324,67.53566 89.5642105,68.9022931 C90.5410526,70.0046379 91.5512829,71.1155948 92.5949013,72.2351638 C93.5278618,73.2360776 94.4550987,74.2092414 95.3766118,75.1546552 C95.8259211,74.7470172 96.3439145,74.2532586 96.8933882,73.6647672 C98.2670724,72.2035862 98.3700987,71.7471466 99.6607895,70.2572586 Z" id="_Path_168" fill="#EBECED"></path>
                        <path d="M94.5266447,54.6033879 C97.1194737,57.1161983 99.7247039,59.6711121 102.342336,62.2681293 C104.889375,64.7981638 107.395395,67.3176724 109.860395,69.8266552 L104.915132,74.8446207 L99.9698684,79.8625862 C97.5086842,77.4760862 95.0226974,75.0015517 92.5119079,72.4389828 C89.8561184,69.7252241 87.2985855,67.0382586 84.8393092,64.3780862 C86.1500329,62.7877241 87.6381908,61.1169828 89.3180921,59.4117931 C91.1096053,57.6003879 92.8639145,56.0042845 94.5266447,54.6033879 Z" id="_Path_169" stroke="#DEE1EE" stroke-width="0.6" stroke-linecap="round" stroke-linejoin="round"></path>
                        <path d="M98.8966776,58.9984138 C98.5275,59.3916983 97.9780263,59.9687069 97.2940461,60.651931 C96.6930592,61.2519052 96.2723684,61.6451897 96.0577303,61.85475 C95.0508308,62.8487656 94.0956191,63.8941234 93.1958882,64.9866724 C92.3573684,65.9598362 91.1382237,67.3549914 89.5384539,69.1175948" id="_Path_170" stroke="#DEE1EE" stroke-width="0.6" stroke-linecap="round" stroke-linejoin="round"></path>
                        <path d="M105.0525,65.388569 C104.045132,66.3846983 103.206612,67.1655259 102.617072,67.7023448 C101.824342,68.4257586 101.154671,69.0085086 100.250329,69.9988966 C99.8325,70.4524655 99.9126316,70.3979224 99.4432895,70.9146466 C98.4130263,72.048569 97.8606908,72.5021379 96.9420395,73.4293707 C96.5099013,73.8657155 95.8774342,74.5259741 95.1448026,75.387181" id="_Path_171" stroke="#DEE1EE" stroke-width="0.6" stroke-linecap="round" stroke-linejoin="round"></path>
                    </g>
                </g>
            </g>
        </g>
    </g>
</svg>