<?xml version="1.0" encoding="UTF-8"?>
<svg width="174px" height="115px" viewBox="0 0 174 115" version="1.1" xmlns="http://www.w3.org/2000/svg" xmlns:xlink="http://www.w3.org/1999/xlink">
    <!-- Generator: Sketch 52.6 (67491) - http://www.bohemiancoding.com/sketch -->
    <title>Group 72</title>
    <desc>Created with Sketch.</desc>
    <defs>
        <polygon id="path-1" points="0 133.140747 173.927678 133.140747 173.927678 0 0 0"></polygon>
    </defs>
    <g id="Sign-in" stroke="none" stroke-width="1" fill="none" fill-rule="evenodd">
        <g id="Choose-role-Copy" transform="translate(-965.000000, -337.000000)">
            <g id="Group" transform="translate(233.000000, 189.000000)">
                <g id="Group-5" transform="translate(663.600000, 97.000000)">
                    <g id="Group-72" transform="translate(68.400000, 51.600000)">
                        <path d="M141.894642,100.449486 C144.923401,97.4477453 154.365907,88.0900898 154.53134,75.152151 C154.548879,73.7770151 154.181512,63.9251923 147.072851,56.7786094 C142.545236,52.2268194 138.873941,52.4000742 130.979352,48.6031631 C130.979352,48.6031631 119.908109,42.7632201 110.513954,33.5949361 C98.0405564,21.4213567 102.189665,12.6332379 91.1397536,5.21575174 C84.0924781,0.485255658 76.6728589,0.211982349 71.7653159,0.0311432028 C52.8220006,-0.666616228 39.0924461,10.5838065 34.6541842,14.2207354 C29.6710347,18.3041923 10.4153394,34.0831781 10.6414475,58.4265446 C10.8500169,80.9089033 27.5369906,95.7562001 32.1985166,99.90365 C33.5724675,101.126151 34.9916874,102.281578 36.4464589,103.380597 L138.636693,103.380597 C139.783351,102.438716 140.872652,101.462232 141.894642,100.449486" id="Fill-1" fill="#F4F6F8"></path>
                        <mask id="mask-2" fill="white">
                            <use xlink:href="#path-1"></use>
                        </mask>
                        <g id="Clip-4"></g>
                        <polygon id="Fill-3" fill="#E8EAF2" mask="url(#mask-2)" points="13.141531 49.6954505 31.7807616 49.6954505 31.7807616 46.3078569 13.141531 46.3078569"></polygon>
                        <polygon id="Fill-5" fill="#FFFFFF" mask="url(#mask-2)" points="13.141531 45.6077274 31.7807616 45.6077274 31.7807616 42.2201338 13.141531 42.2201338"></polygon>
                        <polygon id="Fill-6" fill="#DEE4F5" mask="url(#mask-2)" points="11.5165384 32.0765272 14.6512416 33.360888 8.40885438 48.5954603 5.27415117 47.3108624"></polygon>
                        <polygon id="Fill-7" fill="#DEE1EE" mask="url(#mask-2)" points="13.141531 42.6602626 31.7807616 42.6602626 31.7807616 39.272669 13.141531 39.272669"></polygon>
                        <path d="M68.0273968,103.198928 L17.2741676,103.198928 L5.10343238,103.198928 C4.39737758,103.198928 1.64923879,103.594973 1.21930142,103.060277 C0.362270819,101.993255 1.21930142,95.8046688 1.21930142,94.4482567 C1.21930142,92.3369656 1.3764395,87.3336702 1.21930142,77.2673528 C1.06216335,67.2019834 0.983475801,62.1692987 0.835344128,60.2265222 C0.441195374,55.0566083 -0.0631633452,51.9621969 1.21930142,49.9857649 C2.19697046,48.4793251 3.65126797,48.4878574 6.29085587,48.5596717 C12.5363242,48.7298453 15.6591769,48.8149322 16.19411,48.9360446 C18.4056566,49.4366112 28.3022744,49.4451436 48.0950359,49.4619713 C57.1602203,49.4697927 61.6921014,49.4619713 61.7300231,49.4619713 C62.7418217,49.4619713 67.0897826,48.7156247 67.8956189,49.4619713 C68.6256117,50.1379258 68.0273968,55.0554233 68.0273968,56.1717436 L68.0273968,74.9252133 L68.0273968,103.198928 Z" id="Fill-8" fill="#FFFFFF" mask="url(#mask-2)"></path>
                        <path d="M68.0273968,103.198928 L17.2741676,103.198928 L5.10343238,103.198928 C4.39737758,103.198928 1.64923879,103.594973 1.21930142,103.060277 C0.362270819,101.993255 1.21930142,95.8046688 1.21930142,94.4482567 C1.21930142,92.3369656 1.3764395,87.3336702 1.21930142,77.2673528 C1.06216335,67.2019834 0.983475801,62.1692987 0.835344128,60.2265222 C0.441195374,55.0566083 -0.0631633452,51.9621969 1.21930142,49.9857649 C2.19697046,48.4793251 3.65126797,48.4878574 6.29085587,48.5596717 C12.5363242,48.7298453 15.6591769,48.8149322 16.19411,48.9360446 C18.4056566,49.4366112 28.3022744,49.4451436 48.0950359,49.4619713 C57.1602203,49.4697927 61.6921014,49.4619713 61.7300231,49.4619713 C62.7418217,49.4619713 67.0897826,48.7156247 67.8956189,49.4619713 C68.6256117,50.1379258 68.0273968,55.0554233 68.0273968,56.1717436 L68.0273968,74.9252133 L68.0273968,103.198928 Z" id="Stroke-9" stroke="#E5E7EA" stroke-width="0.79564484" mask="url(#mask-2)"></path>
                        <path d="M2.54393039,99.5516654 L50.9507539,99.5516654 L62.5590628,99.5516654 C63.2324101,99.5516654 65.8537482,99.8941458 66.2635396,99.431738 C67.0809895,98.5090554 66.2635396,93.1573544 66.2635396,91.9841515 L66.2635396,77.1264263 L66.2635396,62.2480811 C66.2635396,55.7044533 66.871709,54.8817893 66.2635396,53.5331985 C64.984156,50.6971288 62.1132457,51.6555999 52.6946784,52.1912441 C47.5148101,52.4858483 43.5764037,52.4694946 42.0621425,52.4531409 C39.1525994,52.4220925 38.3766265,52.3182818 32.3653247,52.0601772 C22.2511311,51.6262106 23.891008,51.8959288 21.5633261,51.6719537 C20.9686663,51.6145971 15.8933197,51.5660099 5.74215246,51.5081793 C5.04913324,51.5043871 3.38081509,51.4946697 2.66954605,53.0802711 C2.21614463,54.0913586 2.40693822,55.1820818 2.54393039,58.8830035 C2.60104996,60.4292611 2.58422221,61.980496 2.63754961,63.5272277 C2.79776883,68.1785622 2.62380299,72.170296 2.54393039,75.100696 C2.43277238,79.1798868 2.36593537,86.2809636 2.54393039,99.5516654" id="Fill-10" fill="#FFFFFF" mask="url(#mask-2)"></path>
                        <path d="M2.54393039,99.5516654 L50.9507539,99.5516654 L62.5590628,99.5516654 C63.2324101,99.5516654 65.8537482,99.8941458 66.2635396,99.431738 C67.0809895,98.5090554 66.2635396,93.1573544 66.2635396,91.9841515 L66.2635396,77.1264263 L66.2635396,62.2480811 C66.2635396,55.7044533 66.871709,54.8817893 66.2635396,53.5331985 C64.984156,50.6971288 62.1132457,51.6555999 52.6946784,52.1912441 C47.5148101,52.4858483 43.5764037,52.4694946 42.0621425,52.4531409 C39.1525994,52.4220925 38.3766265,52.3182818 32.3653247,52.0601772 C22.2511311,51.6262106 23.891008,51.8959288 21.5633261,51.6719537 C20.9686663,51.6145971 15.8933197,51.5660099 5.74215246,51.5081793 C5.04913324,51.5043871 3.38081509,51.4946697 2.66954605,53.0802711 C2.21614463,54.0913586 2.40693822,55.1820818 2.54393039,58.8830035 C2.60104996,60.4292611 2.58422221,61.980496 2.63754961,63.5272277 C2.79776883,68.1785622 2.62380299,72.170296 2.54393039,75.100696 C2.43277238,79.1798868 2.36593537,86.2809636 2.54393039,99.5516654 Z" id="Stroke-11" stroke="#E5E7EA" stroke-width="0.79564484" mask="url(#mask-2)"></path>
                        <path d="M2.54393039,88.0962284 L66.7003503,88.0962284" id="Stroke-12" stroke="#E5E7EA" stroke-width="0.653912456" mask="url(#mask-2)"></path>
                        <path d="M2.54393039,76.5895023 L66.7003503,76.5895023" id="Stroke-13" stroke="#E5E7EA" stroke-width="0.653912456" mask="url(#mask-2)"></path>
                        <path d="M2.54393039,64.2585952 L66.7003503,64.2585952" id="Stroke-14" stroke="#E5E7EA" stroke-width="0.653912456" mask="url(#mask-2)"></path>
                        <path d="M53.112149,92.3210859 C53.2026871,92.9062653 53.4560515,93.8583372 54.2109305,94.2622033 C54.4522074,94.3913742 54.9335761,94.409387 55.8956024,94.4451756 C56.3435526,94.4620033 57.0100266,94.4733799 57.8369569,94.3719393 C58.5119633,94.2894596 58.7556102,94.1977364 58.972238,94.0424944 C59.2801149,93.8216005 59.4438893,93.5364767 59.5948651,93.2733948 C59.8321127,92.8600482 59.9420857,92.4763279 59.9977832,92.211113" id="Stroke-15" stroke="#E5E7EA" stroke-width="0.653912456" mask="url(#mask-2)"></path>
                        <path d="M6.82770875,92.3210859 C6.91824683,92.9062653 7.17161125,93.8583372 7.92649025,94.2622033 C8.16776712,94.3913742 8.6491358,94.409387 9.61116214,94.4451756 C10.0591123,94.4620033 10.7255863,94.4733799 11.5525166,94.3719393 C12.227286,94.2894596 12.47117,94.1977364 12.6877977,94.0424944 C12.9956746,93.8216005 13.159212,93.5364767 13.3104248,93.2733948 C13.5476725,92.8600482 13.6576454,92.4763279 13.7133429,92.211113" id="Stroke-16" stroke="#E5E7EA" stroke-width="0.653912456" mask="url(#mask-2)"></path>
                        <path d="M53.112149,81.9735316 C53.2026871,82.558711 53.4560515,83.5107828 54.2109305,83.914649 C54.4522074,84.0438199 54.9335761,84.0618327 55.8956024,84.0976213 C56.3435526,84.114449 57.0100266,84.1258256 57.8369569,84.024622 C58.5119633,83.9419053 58.7556102,83.8501821 58.972238,83.6949401 C59.2801149,83.4740462 59.4438893,83.1891594 59.5948651,82.9258405 C59.8321127,82.5124939 59.9420857,82.1290106 59.9977832,81.8637957" id="Stroke-17" stroke="#E5E7EA" stroke-width="0.653912456" mask="url(#mask-2)"></path>
                        <path d="M6.82770875,81.9735316 C6.91824683,82.558711 7.17161125,83.5107828 7.92649025,83.914649 C8.16776712,84.0438199 8.6491358,84.0618327 9.61116214,84.0976213 C10.0591123,84.114449 10.7255863,84.1258256 11.5525166,84.024622 C12.227286,83.9419053 12.47117,83.8501821 12.6877977,83.6949401 C12.9956746,83.4740462 13.159212,83.1891594 13.3104248,82.9258405 C13.5476725,82.5124939 13.6576454,82.1290106 13.7133429,81.8637957" id="Stroke-18" stroke="#E5E7EA" stroke-width="0.653912456" mask="url(#mask-2)"></path>
                        <path d="M53.112149,70.4824482 C53.2026871,71.0676275 53.4560515,72.0196994 54.2109305,72.4235656 C54.4522074,72.5524994 54.9335761,72.5707493 55.8956024,72.6065379 C56.3435526,72.6233656 57.0100266,72.6345051 57.8369569,72.5333016 C58.5119633,72.4508219 58.7556102,72.3590987 58.972238,72.2038567 C59.2801149,71.9829628 59.4438893,71.6978389 59.5948651,71.4347571 C59.8321127,71.0211735 59.9420857,70.6376902 59.9977832,70.3724752" id="Stroke-19" stroke="#E5E7EA" stroke-width="0.653912456" mask="url(#mask-2)"></path>
                        <path d="M6.82770875,70.4824482 C6.91824683,71.0676275 7.17161125,72.0196994 7.92649025,72.4235656 C8.16776712,72.5524994 8.6491358,72.5707493 9.61116214,72.6065379 C10.0591123,72.6233656 10.7255863,72.6345051 11.5525166,72.5333016 C12.227286,72.4508219 12.47117,72.3590987 12.6877977,72.2038567 C12.9956746,71.9829628 13.159212,71.6978389 13.3104248,71.4347571 C13.5476725,71.0211735 13.6576454,70.6376902 13.7133429,70.3724752" id="Stroke-20" stroke="#E5E7EA" stroke-width="0.653912456" mask="url(#mask-2)"></path>
                        <path d="M53.112149,56.8553772 C53.2026871,57.4405565 53.4560515,58.3926284 54.2109305,58.7964946 C54.4522074,58.9254284 54.9335761,58.9436782 55.8956024,58.9794668 C56.3435526,58.9962946 57.0100266,59.0074341 57.8369569,58.9062305 C58.5119633,58.8237508 58.7556102,58.7320277 58.972238,58.5767857 C59.2801149,58.3558917 59.4438893,58.0707679 59.5948651,57.807686 C59.8321127,57.3941024 59.9420857,57.0106191 59.9977832,56.7454042" id="Stroke-21" stroke="#E5E7EA" stroke-width="0.653912456" mask="url(#mask-2)"></path>
                        <path d="M6.82770875,56.8553772 C6.91824683,57.4405565 7.17161125,58.3926284 7.92649025,58.7964946 C8.16776712,58.9254284 8.6491358,58.9436782 9.61116214,58.9794668 C10.0591123,58.9962946 10.7255863,59.0074341 11.5525166,58.9062305 C12.227286,58.8237508 12.47117,58.7320277 12.6877977,58.5767857 C12.9956746,58.3558917 13.159212,58.0707679 13.3104248,57.807686 C13.5476725,57.3941024 13.6576454,57.0106191 13.7133429,56.7454042" id="Stroke-22" stroke="#E5E7EA" stroke-width="0.653912456" mask="url(#mask-2)"></path>
                        <path d="M149.937267,34.5321474 C150.542356,34.5496862 156.464067,34.6193673 159.699974,29.6506755 C163.032818,24.533378 160.326156,18.9709744 160.132756,18.5903353 C157.32252,13.0627723 151.253625,12.4439374 150.863979,12.41123 C150.166694,12.3524513 144.97142,12.0054677 141.410097,16.118551 C138.689452,19.2608385 138.101428,23.644825 139.494577,27.3028478 C141.215748,31.8216933 145.646426,34.4070058 149.937267,34.5321474" id="Fill-23" fill="#FFFFFF" mask="url(#mask-2)"></path>
                        <path d="M149.937267,34.5321474 C150.542356,34.5496862 156.464067,34.6193673 159.699974,29.6506755 C163.032818,24.533378 160.326156,18.9709744 160.132756,18.5903353 C157.32252,13.0627723 151.253625,12.4439374 150.863979,12.41123 C150.166694,12.3524513 144.97142,12.0054677 141.410097,16.118551 C138.689452,19.2608385 138.101428,23.644825 139.494577,27.3028478 C141.215748,31.8216933 145.646426,34.4070058 149.937267,34.5321474 Z" id="Stroke-24" stroke="#E5E7EA" stroke-width="0.79564484" mask="url(#mask-2)"></path>
                        <path d="M143.820117,19.6406481 C145.941362,20.8354189 148.062845,22.0299527 150.184564,23.2247236 C150.170344,26.05392 150.15636,28.8828794 150.142376,31.7120759" id="Stroke-25" stroke="#525867" stroke-width="0.6" stroke-linecap="round" stroke-linejoin="round" mask="url(#mask-2)"></path>
                        <path d="M35.303712,102.595191 C35.2842771,102.825091 35.2214693,103.112585 35.0110038,103.238912 C34.7410486,103.40079 34.4559248,103.161409 33.8278465,103.047407 C33.0800778,102.911363 33.1203696,103.195539 32.4027013,103.038638 C32.1941319,102.992895 31.6343127,102.838601 30.997939,102.585947 C30.953618,102.568408 30.9201995,102.554899 30.9028977,102.547788 C30.6327056,102.436867 30.0899511,102.194406 28.9385532,101.558032 C28.4287433,101.276463 28.1305838,101.100601 27.9393162,100.984466 C27.8502002,100.930665 27.668887,100.700053 27.5499077,100.752196 C27.511512,100.76926 27.491366,100.809315 27.4802265,100.840601 C28.3481596,100.617574 29.0622728,100.549788 29.5481447,100.528695 C31.087766,100.461146 31.73125,100.79865 33.6055305,100.723517 C33.8671902,100.713089 34.3554322,100.686307 34.8932095,100.645541 C35.7068671,100.583918 36.304134,100.514948 36.5316643,100.489588 C37.2291867,100.411137 38.302134,100.308038 39.9140436,100.206123 C39.8806251,101.51537 39.8467326,102.82438 39.8128401,104.13339 C38.3099554,103.620499 36.8068337,103.108082 35.303712,102.595191" id="Fill-26" fill="#E3E3E3" mask="url(#mask-2)"></path>
                        <path d="M27.4302884,101.290826 L32.6094457,103.567551 L34.5735532,103.419182 C34.8119859,103.144487 35.0504186,102.870028 35.2888514,102.595333 C35.4149411,102.856756 35.5519332,103.241661 35.5630727,103.715919 C35.5718421,104.071909 35.612134,104.982741 34.990929,105.424055 C34.7124414,105.622196 34.3898699,105.662725 34.1331873,105.653008 C33.2126379,105.774831 32.571998,105.614375 32.1550962,105.443016 C31.7002727,105.256015 31.5670727,105.073042 30.9927959,104.84883 C30.3606884,104.602102 29.8660471,104.549012 29.4107496,104.489522 C28.9364912,104.427662 28.1887226,104.287352 26.6931852,104.006494 C24.424282,103.580586 23.8601966,103.312053 23.6013809,102.80959 C23.5599041,102.728533 23.4212528,102.450993 23.4719731,102.114675 C23.5857382,101.360033 24.5513197,100.973469 24.935514,100.819649 C26.1319439,100.340413 27.2482642,100.614635 27.554245,100.69427 C27.5886115,100.703277 27.6172898,100.711335 27.643835,100.719156 C27.4155937,100.812064 27.2122386,100.900943 27.044672,100.978683 L27.4302884,101.290826 Z" id="Fill-27" fill="#525867" mask="url(#mask-2)"></path>
                        <path d="M31.2460655,102.215144 C31.2640783,102.220595 31.2986819,102.230787 31.3444249,102.244296 C31.4901865,102.286247 31.6286007,102.323221 31.7618007,102.355928 C32.1417288,102.449548 32.7861609,102.55952 32.7861609,102.55952 C34.0627004,102.777807 34.2880975,103.000123 34.8062028,102.843933 C35.0346811,102.7752 35.2039068,102.667597 35.3036883,102.595309 C35.1913452,102.868345 35.0792391,103.141619 34.9671331,103.414655 C34.8358292,103.416077 34.7045253,103.417736 34.5734584,103.419395 L32.6093509,103.567527 L27.4301936,101.290802 L27.0445772,100.978659 C27.2121438,100.90092 27.4154989,100.812278 27.6439772,100.719133 C27.9027929,100.796161 27.8921274,100.854703 29.1956861,101.418788 C30.4027815,101.941397 30.9666299,102.130768 31.2460655,102.215144" id="Fill-28" fill="#525867" mask="url(#mask-2)"></path>
                        <path d="M38.5642204,100.108664 C38.3949948,101.47432 38.2260062,102.839501 38.0567806,104.205157 C39.9784631,104.425103 42.8242503,104.717574 46.2888724,104.946526 C52.60734,105.363428 56.1561009,105.597831 60.8019841,105.180456 C65.0949585,104.794839 68.1007279,104.524647 69.7754453,104.088073 C70.0416083,104.018866 71.0673905,103.738246 72.4671756,103.697954 C73.2637685,103.674964 73.8655386,103.73872 74.2032788,103.77593 C77.0703969,104.091155 78.5038375,104.248767 79.1774219,104.36111 C81.6534724,104.774456 82.1872204,104.545978 89.1847236,105.063372 C94.4622404,105.453729 95.3704653,105.673438 98.3141379,105.648789 C100.557207,105.629828 102.402809,105.48217 103.639294,105.356081 C98.9576219,100.888903 94.276187,96.4219631 89.5945151,91.9547859 C88.8950966,92.0057432 87.8849571,92.0832457 86.6683813,92.1887154 C85.2776026,92.3095909 82.731634,92.5307219 80.2311713,92.8521083 C77.5877912,93.1917446 75.6331642,93.5617183 74.2229507,93.8274073 C67.9360055,95.0117496 60.6766055,96.3458827 57.3297777,96.9486009 C51.5746845,97.9850485 46.4912795,98.8207482 43.6357749,99.2893183 C41.5775742,99.6270585 39.8402859,99.9057831 38.5642204,100.108664" id="Fill-29" fill="#525867" mask="url(#mask-2)"></path>
                        <path d="M110.872623,68.1939205 C104.206223,68.9852991 100.566924,68.5342678 98.449945,67.916618 C96.1751165,67.2529881 93.65593,67.4184216 91.4946297,66.4471518 C91.2718396,66.3471333 90.4612631,65.9650721 89.6938226,66.2648906 C89.193256,66.4606614 88.9240119,66.8628685 88.8491165,66.9778187 C88.3416767,67.7573468 88.5796354,68.6629646 88.6775208,69.0345974 C88.7339293,69.249329 89.1415877,70.8586315 90.0773058,71.0039191 C90.3410987,71.0449219 90.5181457,70.9496436 92.055871,70.0184287 C92.3383877,69.847544 92.6946147,69.6311532 93.1072503,69.3796849 C93.8730318,69.6081632 95.0358062,69.9667604 96.4367763,70.448366 C100.690881,71.911433 102.737468,72.9950458 106.334816,74.3967269 C107.935586,75.020302 110.263742,75.8706963 113.174944,76.730097 C113.786669,76.285702 114.097627,75.8154728 114.266852,75.4341226 C115.127675,73.4951383 113.787854,70.5597611 110.872623,68.1939205" id="Fill-30" fill="#E3E3E3" mask="url(#mask-2)"></path>
                        <path d="M59.1244463,98.2830421 C59.5664712,99.6093538 60.0087331,100.935903 60.450995,102.262451 C62.6101623,100.687989 64.513358,99.725252 65.8349295,99.1412577 C69.4751765,97.5326663 70.8341957,97.8573709 73.7155345,96.0982777 C75.4459495,95.0416841 76.6189153,93.9175424 78.0853004,92.508751 C79.852452,90.8115175 81.1759196,89.2124065 82.1035794,87.9832691 C82.2844185,87.6789474 83.5889253,85.4882577 83.9567658,85.2133253 C83.9999018,85.1810919 84.114852,85.095057 84.2300391,85.1253944 C84.3648982,85.161183 84.425573,85.3372819 84.4445338,85.3889502 C84.6675609,85.9930905 85.1856662,86.448862 85.4686569,87.0274051 C85.7248655,87.5514357 86.6703011,88.9827431 88.5604612,91.8455951 C90.0083594,94.0381809 91.6487103,96.5222898 94.1588904,99.0632812 C96.0014114,100.927844 98.7189758,103.622419 103.024986,105.227455 C105.552705,106.169572 107.478416,106.307987 108.028518,106.339272 C110.939009,106.504468 113.128751,105.815241 113.822007,105.578468 C114.79778,105.245231 115.577308,104.863643 116.123855,104.564062 C115.926662,104.4183 115.654337,104.208309 115.343616,103.940013 C114.006638,102.785771 113.234221,101.653808 113.041531,101.365129 C112.632451,100.75056 111.923789,99.6686065 111.520159,98.126852 C111.213942,96.9574414 111.411846,96.7796833 111.052063,94.3425026 C110.864114,93.0692812 110.770021,92.4326705 110.58373,91.9235716 C109.925078,90.1225275 108.480498,89.1116769 107.774917,88.6075552 C105.228237,86.7880243 102.950327,84.6103702 100.401041,82.7943944 C97.5718441,80.7788556 86.4543843,72.4977026 84.4445338,71.6752755 C83.8330463,71.4252293 83.2353053,71.441346 83.2353053,71.441346 C82.583526,71.4588848 82.0824854,71.707509 81.7916733,71.8705723 C79.3680021,73.2295915 78.1632769,74.7964691 78.1632769,74.7964691 C76.6001915,76.8293097 69.973847,84.5333417 60.8605495,95.2203901 C60.5550427,95.5650036 60.2092441,96.0112947 59.8852505,96.5663737 C59.5129068,97.2041695 59.2770811,97.8002513 59.1244463,98.2830421" id="Fill-31" fill="#525867" mask="url(#mask-2)"></path>
                        <path d="M59.5783217,105.069914 C59.5780847,105.06944 59.5773737,105.068729 59.5771367,105.068255 C57.8035858,105.844939 56.4827253,105.833325 55.699405,105.729041 C54.8404783,105.614564 53.4309758,105.228948 53.3487331,105.207143 C53.0802,105.135566 52.8657053,105.076313 52.6865253,105.025119 C53.2643573,104.755875 53.8424263,104.486631 54.4202584,104.217386 C54.766294,104.023512 55.1549915,103.76991 55.5519843,103.437147 C55.7560505,103.266026 55.9376007,103.095141 56.0980569,102.929944 C57.2684157,101.356431 58.4387744,99.7829167 59.6093701,98.2094028 C60.2853246,99.0804171 60.961753,99.9519053 61.6379445,100.823157 C61.2475879,101.152601 60.5894093,101.796085 60.116573,102.812861 C59.6861616,103.737914 59.5949125,104.573377 59.5783217,105.069914" id="Fill-32" fill="#E3E3E3" mask="url(#mask-2)"></path>
                        <path d="M56.9339462,106.631554 L59.4891583,106.153977 C59.4891583,106.153977 59.5306352,105.719536 59.5782743,105.070127 C59.7844736,105.309982 60.1738821,105.833776 60.2919135,106.600031 C60.3369455,106.892976 60.4620871,107.704975 59.9638907,108.455825 C59.704127,108.846892 59.3753932,109.071104 59.1687199,109.188188 C58.21807,109.217814 57.506564,109.061624 57.0323056,108.913492 C56.5127782,108.751377 56.3125042,108.609408 55.7379903,108.478578 C55.0459191,108.320729 54.5259177,108.342297 54.0454971,108.351066 C53.5454046,108.360072 52.7499967,108.330446 51.1589441,108.270956 C48.7459384,108.180892 48.1204672,107.990099 47.7751426,107.510389 C47.7194451,107.432887 47.5333917,107.166961 47.5338658,106.811208 C47.5350508,106.012956 48.4743241,105.463802 48.84809,105.245278 C50.0120494,104.56482 51.2094273,104.675978 51.5383981,104.711056 C51.8649989,104.745897 51.8081163,104.774812 52.6864779,105.025095 L51.9330209,105.385351 L56.9339462,106.631554 Z" id="Fill-33" fill="#525867" mask="url(#mask-2)"></path>
                        <path d="M55.6993576,105.728969 C56.4829149,105.833254 57.8035384,105.844868 59.5770893,105.068421 C59.5773263,105.068658 59.5780373,105.069369 59.5782743,105.07008 C59.5306352,105.719489 59.4891583,106.15393 59.4891583,106.15393 L56.9339462,106.631506 L51.9330209,105.385304 L52.6864779,105.025048 C52.8656579,105.076242 53.0801526,105.135732 53.3486857,105.207072 C53.4311654,105.229114 54.8404309,105.61473 55.6993576,105.728969" id="Fill-34" fill="#525867" mask="url(#mask-2)"></path>
                        <path d="M117.466331,62.662352 C116.724724,62.9588524 114.771282,63.7696659 113.486921,65.7053321 C112.598605,67.0442054 112.713556,67.8912816 112.316326,67.9292033 C111.163032,68.0396502 109.893603,59.6696182 109.507512,54.8206168 C109.407731,53.5701485 109.322407,51.9926054 109.624358,50.1389449 C109.959255,48.0840623 110.723377,45.9798816 110.84923,45.6452225 C110.8516,45.6388232 110.857999,45.6219954 110.866768,45.5980574 C110.966787,45.3292873 111.32017,44.346641 111.392695,43.5886809 C111.424929,43.2521257 111.443178,42.8653243 111.526606,42.0711015 C111.713134,40.2961285 111.806279,39.4087606 112.262998,38.6121677 C113.013137,37.3036317 114.288018,36.7393093 114.896187,36.4698282 C115.331339,36.2771385 116.122243,35.9377392 117.150158,36.0012581 C117.318673,36.0116865 117.457561,36.0306474 117.551892,36.0458161 C117.684618,35.9488787 117.880625,35.8171008 118.132331,35.688641 C118.625313,35.4369357 119.442526,35.1404353 121.21181,35.2646289 C122.324576,35.3428424 123.62292,35.4340915 125.184109,36.1574481 C125.4671,36.288515 126.821142,36.93271 128.151957,38.2997876 C128.89546,39.063199 129.537758,39.7230367 129.8928,40.7990652 C130.071743,41.3418196 130.13858,41.9345833 130.272018,43.1201107 C130.386731,44.1366495 130.553586,44.6938616 130.673988,45.3292873 C131.278839,48.5303535 131.228119,50.3449072 131.784383,52.7918054 C132.528122,56.0644488 133.23394,55.5266716 133.657241,57.9418104 C134.351445,61.907947 132.987686,66.4457535 130.223667,67.9292033 C129.918398,68.0932147 128.85422,68.6641734 128.195093,68.2413463 C127.299667,67.6670695 128.110717,65.8743207 127.102711,64.3399136 C126.568015,63.5262559 125.800337,63.2093727 124.761756,62.7794353 C121.107289,61.2661221 117.633186,62.595515 117.466331,62.662352" id="Fill-35" fill="#020C1F" mask="url(#mask-2)"></path>
                        <path d="M123.960755,56.3636274 C123.887519,56.0484032 123.925677,56.0569356 123.791766,55.6905171 C123.458292,54.7785 123.466825,53.9480146 123.335047,53.4149776 C123.294044,53.2500181 123.255885,53.1097078 123.21109,52.9454594 C123.191418,52.8731712 123.082156,52.4783114 123.047553,51.9981278 C123.016267,51.5556288 123.055848,51.2174146 123.080497,51.0183256 C123.319878,49.0904808 123.439569,48.1263214 123.90245,47.5202851 C124.269343,47.0405754 124.455633,47.0998281 124.738387,46.5914402 C124.865425,46.3631989 125.26621,45.6433975 125.007394,44.8131491 C124.959755,44.6605142 124.776783,44.1033021 124.223363,43.767932 C123.417053,43.279216 122.51025,43.6747868 122.296703,43.767932 C121.609609,44.0677505 121.249827,44.6050537 121.109991,44.8456196 C121.012816,44.7354096 120.881749,44.5680801 120.761585,44.345053 C120.694037,44.2189633 120.495659,43.8160452 120.434984,42.7120495 C120.419816,42.4309548 120.409624,42.0396502 120.434984,41.568947 C120.105065,41.2733947 119.636258,40.7801754 119.259174,40.0556338 C118.780413,39.1353214 118.680631,38.284927 118.660722,37.8021363 C118.038095,37.8535676 117.01729,38.0469683 116.123997,38.7928409 C114.827075,39.8759797 114.452124,41.5789014 114.447383,42.3854488 C114.445013,42.8502267 114.393345,43.3142936 114.404011,43.7790715 C114.412306,44.1386167 114.4334,44.3723093 114.317028,44.6716537 C114.189516,44.9984915 113.978813,45.1978174 113.794182,45.3684651 C113.624719,45.5251292 113.319924,45.7683021 112.858701,45.9493783 C112.735692,45.9977285 112.675255,46.1366167 112.727871,46.2577292 C112.76366,46.3399719 112.804662,46.4335911 112.849932,46.5359797 C113.074144,47.0431826 113.122494,47.1304025 113.176532,47.2870665 C113.244791,47.4856815 113.25759,47.6098751 113.307125,48.2422196 C113.389131,49.2871996 113.391975,49.428932 113.437955,49.7773377 C113.495312,50.2160445 113.526123,50.4412046 113.625667,50.7324907 C113.736114,51.0567214 113.863389,51.4157925 114.189042,51.7042345 C114.267966,51.7741527 114.474166,51.9424302 115.0027,52.0962502 C115.503977,52.2417747 115.917087,52.2595505 116.559386,52.270216 C116.876032,52.2754302 117.135559,52.2673719 117.305258,52.2595505 C117.351238,52.4828146 117.400062,52.7707826 117.4304,53.1085228 C117.444383,53.2635278 117.449361,53.3825071 117.450309,53.4851327 C117.454101,53.8949242 117.445806,54.1859733 117.441302,54.3061377 C117.420682,54.8586096 117.517146,55.2150737 117.565259,55.9121221 C117.6302,56.8537655 117.67381,57.3237577 117.525678,57.8605868 C117.444858,58.152821 117.333937,58.3843804 116.53047,59.5227427 C115.594515,60.8492915 115.510376,60.8675413 115.301807,61.2199762 C114.946054,61.8205612 114.589353,62.7847206 114.716391,64.3174687 C115.18425,64.8599861 117.106169,66.9729363 119.398062,66.7167278 C122.488682,66.3714032 124.228103,61.9440438 124.274794,58.8361228 C124.290911,57.7866395 124.113153,56.9255797 123.960755,56.3636274" id="Fill-36" fill="#E3E3E3" mask="url(#mask-2)"></path>
                        <path d="M115.538533,60.9075724 C115.74094,61.1528784 116.049054,61.4377653 116.474962,61.5318585 C116.959649,61.6389873 117.627071,61.5055503 119.439966,59.8151902 C121.145021,58.2257966 121.194556,57.747509 122.483183,56.8501866 C123.11932,56.4069767 123.768966,55.9644777 124.745924,55.7575674 C126.106365,55.4698364 127.24378,55.8210863 127.593844,55.9528642 C128.319097,56.2256635 130.149293,57.2417283 130.988311,62.5462642 C131.392414,65.1024243 131.85814,70.4974984 128.686463,80.5315823 C127.033551,85.7598009 126.159219,86.6609154 125.526163,90.714272 C125.266399,92.37785 125.508861,95.1397354 125.994259,100.662795 C126.02436,101.006698 126.258052,103.43345 127.281938,103.822859 C127.413716,103.873105 127.79957,103.981182 128.023071,104.330061 C128.233299,104.658321 128.157693,105.047493 128.140154,105.149407 C128.058622,105.617503 127.75833,105.910686 127.668266,105.998617 C127.249942,106.406275 126.737762,106.450833 124.625049,106.525254 C122.737021,106.59138 122.579883,106.575026 122.342636,106.525254 C121.732096,106.396557 121.389379,106.209082 120.452239,106.054314 C119.905455,105.964013 119.552072,105.9761 119.32312,105.929646 C118.038522,105.668698 117.169167,105.191121 116.241033,104.681074 C114.997675,103.998246 112.806985,102.794469 111.247218,100.467735 C110.686214,99.6310877 110.85615,99.6178151 108.828287,94.6157048 C108.234101,93.1497937 107.782359,92.0735283 107.735905,91.9626073 C106.944289,90.0833496 105.106508,86.9455653 100.245182,82.521287 C100.473424,82.3911681 100.798365,82.2020336 101.181612,81.9654969 C104.020762,80.212329 106.726713,78.5416407 107.891858,76.0449702 C108.985662,73.7014087 107.526861,73.1901767 108.672097,70.5050827 C109.473904,68.625351 110.456313,68.248267 112.417577,65.7843041 C113.489576,64.4371354 114.566078,62.8283069 115.538533,60.9075724" id="Fill-37" fill="#9B9EA7" mask="url(#mask-2)"></path>
                        <polygon id="Fill-38" fill="#0B113A" mask="url(#mask-2)" points="93.5372825 68.8769379 94.480348 69.3983614 93.5218768 70.0627023"></polygon>
                        <path d="M82.7905548,61.081159 C82.0757306,63.6764259 81.3613804,66.2716928 80.6465562,68.8669597 C82.5556772,69.1722295 84.4647982,69.4774992 86.3739192,69.782769 C87.4525548,68.5545796 88.5311904,67.3263903 89.609589,66.098201 C87.3366566,64.4258537 85.0634872,62.7535063 82.7905548,61.081159" id="Fill-39" fill="#C4C4C4" mask="url(#mask-2)"></path>
                        <polyline id="Fill-40" fill="#FFFFFF" mask="url(#mask-2)" points="84.4496295 62.3019773 89.8437555 66.2870748 84.5951541 71.7049019 80.6465562 68.8174008 84.1998203 62.4671737"></polyline>
                        <path d="M80.6174276,68.8669834 C83.8488312,67.5098603 87.0802347,66.1527372 90.3114013,64.795851 C96.2753009,69.2438304 102.239438,73.6918098 108.203337,78.1400261 L95.3061643,79.0494361 L80.6174276,68.8669834 Z" id="Fill-41" fill="#9B9EA7" mask="url(#mask-2)"></path>
                        <path d="M121.693179,63.5897985 C121.879943,60.714148 121.970245,60.2683309 122.190664,59.6983202 C122.534093,58.8095302 123.164304,57.1777117 124.707007,56.7136448 C126.065078,56.3048014 127.294689,57.0480668 127.51582,57.1817409 C128.787146,57.9503665 129.175606,59.1956206 129.271595,59.5226953 C129.541551,60.4437188 129.398633,61.1763188 129.271595,61.980496 C128.869151,64.5264647 129.308806,63.4727152 128.803262,67.0131807 C128.351046,70.1822505 128.124938,71.7666668 127.457279,73.7430989 C127.251316,74.3531643 126.609018,76.1774355 125.350728,78.3662291 C123.857087,80.9645772 123.110266,82.2633957 121.546943,83.2820675 C119.48258,84.6271031 117.313696,84.6275772 115.460509,84.6280512 C112.560921,84.6287622 110.372601,83.8046761 109.023299,83.2820675 C107.043075,82.515575 105.41339,81.516812 104.283086,80.8242668 C103.684634,80.4573743 103.099692,80.0968811 102.351923,79.5368248 C100.197022,77.9223081 99.1788239,76.5137537 98.957693,76.2008996 C98.6403357,75.7527124 98.4078282,75.3611707 98.2554303,75.0893195 C98.0004068,75.1765394 97.604599,75.2751359 97.1289186,75.2355551 C96.6781243,75.1978704 96.3598189,75.0528199 95.8414766,74.811306 C95.1143278,74.4721437 95.0479648,74.3145316 94.3492574,74.0211124 C93.9351997,73.8473836 93.7282894,73.7606377 93.4422175,73.7139465 C93.0862275,73.6558789 92.410747,73.6162981 91.7302894,73.6700996 C91.6245826,73.6783949 91.4129321,73.6973558 91.2036517,73.5821686 C91.1773435,73.567948 90.8953008,73.4082028 90.8670965,73.1726142 C90.8268047,72.8329779 91.3377997,72.5331594 91.5693591,72.3971152 C91.8440545,72.236185 92.25432,72.0543978 93.3395919,71.9145615 C93.5846609,71.8828021 93.8733399,71.8519907 94.5246453,71.8119359 C95.9012033,71.727086 96.5980147,71.6870312 97.02653,71.7972412 C97.6420467,71.9558014 98.048757,72.2387921 98.5919855,72.6165871 C99.4821976,73.236133 100.01642,73.8717957 100.186593,74.0649594 C100.667725,74.6107949 101.258356,75.0445245 104.809961,76.6692327 C107.835876,78.053612 109.349189,78.7459202 110.398672,79.0101871 C111.894684,79.3867971 113.391643,79.7465793 115.285121,79.3905893 C116.172963,79.2234967 117.426513,78.9876711 118.562268,78.0443686 C120.336767,76.5706362 120.69726,74.3050512 121.107763,71.7242419 C121.213469,71.060849 121.275803,70.2092697 121.400471,68.5056369 C121.526561,66.7828063 121.540307,65.9395223 121.693179,63.5897985" id="Fill-42" fill="#E3E3E3" mask="url(#mask-2)"></path>
                        <path d="M56.9084912,40.2295522 L46.246566,40.2295522 C46.6499581,43.1966889 47.1770699,46.1050469 47.9186763,49.0427942 C50.2577347,49.0001323 53.150213,48.9577074 55.4892713,48.9150455 C55.9623446,46.0199601 56.4354179,43.1246377 56.9084912,40.2295522" id="Fill-43" fill="#FFFFFF" mask="url(#mask-2)"></path>
                        <path d="M56.9084912,40.2295522 L46.246566,40.2295522 C46.6499581,43.1966889 47.1770699,46.1050469 47.9186763,49.0427942 C50.2577347,49.0001323 53.150213,48.9577074 55.4892713,48.9150455 C55.9623446,46.0199601 56.4354179,43.1246377 56.9084912,40.2295522 Z" id="Stroke-44" stroke="#E5E7EA" stroke-width="0.79564484" mask="url(#mask-2)"></path>
                        <path d="M56.8730581,41.1002821 C57.0230859,40.677218 57.202029,40.2394593 57.4153386,39.7924572 C58.4823606,37.5564984 59.9859564,35.9860657 61.243061,34.9441668 C59.9245706,35.2041675 58.889782,35.5900209 58.1808831,35.9009789 C56.6872418,36.5563134 54.5768987,37.4818401 53.5238603,39.6011895 C53.2211977,40.21007 53.0827834,40.7625419 53.0135763,41.1322785 C54.3000702,41.121613 55.5863272,41.1109475 56.8730581,41.1002821" id="Fill-45" fill="#525867" mask="url(#mask-2)"></path>
                        <path d="M54.1937473,41.1640616 C54.187585,40.5087271 54.2188704,39.9467748 54.2575031,39.5054609 C54.342827,38.5235257 54.4231736,37.6662581 54.7997836,36.666547 C55.0292099,36.0569556 55.29798,35.5829342 55.5015722,35.2632068 C54.9391458,35.3044467 53.9854149,35.466088 53.07719,36.1242666 C51.3626547,37.3669136 51.1668839,39.395488 51.1315693,39.7607214 C51.0718426,40.3778972 51.1337024,40.8917364 51.1953252,41.2280545 C51.213338,41.2275805 52.1329394,41.2079086 52.1509522,41.2076716 C52.2327209,41.2057755 54.1115046,41.1659577 54.1937473,41.1640616" id="Fill-46" fill="#525867" mask="url(#mask-2)"></path>
                        <path d="M52.1523032,41.1322311 C52.2203253,40.4700233 52.2757858,39.5999571 52.2478185,38.5803372 C52.2271986,37.8287763 52.1892769,36.6536774 51.8650463,35.2311393 C51.6408342,34.246834 51.259721,32.6434567 50.1109302,30.9251293 C49.6250584,30.1986916 48.7836705,29.1252702 47.4312875,28.1179749 C47.6896292,29.0107941 48.0261843,30.2882816 48.3245808,31.849945 C48.5568512,33.0655727 48.7438527,34.0650468 48.8028683,35.4226439 C48.8742085,37.0556475 48.9147374,38.3352681 48.2288285,39.6968944 C47.8880071,40.3735599 47.4739495,40.8591948 47.1762641,41.1639905 C48.8348648,41.1533251 50.4934655,41.1428966 52.1523032,41.1322311" id="Fill-47" fill="#525867" mask="url(#mask-2)"></path>
                        <path d="M49.7599648,41.195987 C49.6805663,40.9727229 49.5381228,40.6437521 49.2812033,40.3029307 C48.5324865,39.308671 47.4351271,39.0410859 46.9848068,38.93135 C46.6250246,38.843656 45.6134631,38.6111485 44.4649093,39.0271023 C44.0624652,39.1726268 43.7517442,39.3586802 43.5398567,39.5053898 C43.9705051,39.5947428 44.679641,39.8033122 45.389962,40.3346902 C45.8106559,40.6494404 46.1102374,40.9869436 46.3150147,41.2597428 C47.4633314,41.2386489 48.6114111,41.2173179 49.7599648,41.195987" id="Fill-48" fill="#525867" mask="url(#mask-2)"></path>
                        <polygon id="Fill-49" fill="#DEE1EE" mask="url(#mask-2)" points="46.1234626 41.8162676 57.1281053 41.8162676 57.1281053 40.9409872 46.1234626 40.9409872"></polygon>
                        <path d="M166.526379,103.652235 C168.066238,104.334351 168.672985,105.166496 168.934882,105.825859 C169.754702,107.887378 167.773055,109.68226 168.817561,112.053078 C168.966878,112.392003 169.343014,113.213956 170.168759,113.521833 C170.983128,113.825681 171.940177,113.5197 172.51872,113.051841 C174.439218,111.49871 173.137555,107.394396 172.988712,106.94218 C172.64007,105.883453 172.126231,104.322501 170.521194,103.241021 C168.830834,102.101711 167.030975,102.236096 166.467601,102.301037 C166.487273,102.751357 166.506707,103.201914 166.526379,103.652235" id="Fill-50" fill="#FFFFFF" mask="url(#mask-2)"></path>
                        <path d="M166.526379,103.652235 C168.066238,104.334351 168.672985,105.166496 168.934882,105.825859 C169.754702,107.887378 167.773055,109.68226 168.817561,112.053078 C168.966878,112.392003 169.343014,113.213956 170.168759,113.521833 C170.983128,113.825681 171.940177,113.5197 172.51872,113.051841 C174.439218,111.49871 173.137555,107.394396 172.988712,106.94218 C172.64007,105.883453 172.126231,104.322501 170.521194,103.241021 C168.830834,102.101711 167.030975,102.236096 166.467601,102.301037 C166.487273,102.751357 166.506707,103.201914 166.526379,103.652235 Z" id="Stroke-51" stroke="#E5E7EA" stroke-width="0.740421352" mask="url(#mask-2)"></path>
                        <path d="M146.405239,97.9683867 C146.441265,97.7503369 146.578257,97.0961874 147.154193,96.5584102 C147.888452,95.8727383 148.78459,95.8905141 148.960689,95.8973874 C149.10645,96.3187924 149.286341,97.0165518 149.224955,97.8802187 C149.135365,99.1449077 148.580049,100.041993 148.299666,100.435668 C147.668269,99.6132408 147.036636,98.7908137 146.405239,97.9683867" id="Fill-52" fill="#FFFFFF" mask="url(#mask-2)"></path>
                        <path d="M146.405239,97.9683867 C146.441265,97.7503369 146.578257,97.0961874 147.154193,96.5584102 C147.888452,95.8727383 148.78459,95.8905141 148.960689,95.8973874 C149.10645,96.3187924 149.286341,97.0165518 149.224955,97.8802187 C149.135365,99.1449077 148.580049,100.041993 148.299666,100.435668 C147.668269,99.6132408 147.036636,98.7908137 146.405239,97.9683867 Z" id="Stroke-53" stroke="#E5E7EA" stroke-width="0.740421352" mask="url(#mask-2)"></path>
                        <path d="M137.328702,100.832305 C137.069176,100.407582 136.786896,99.8475258 136.579749,99.1580618 C136.182282,97.8353052 136.255755,96.6810632 136.359329,95.9856739 C136.795902,96.055829 137.436779,96.2141522 138.12174,96.6023757 C139.12785,97.1728604 139.700942,97.9403009 139.972319,98.364787 C139.091114,99.1874511 138.209908,100.009878 137.328702,100.832305" id="Fill-54" fill="#FFFFFF" mask="url(#mask-2)"></path>
                        <path d="M137.328702,100.832305 C137.069176,100.407582 136.786896,99.8475258 136.579749,99.1580618 C136.182282,97.8353052 136.255755,96.6810632 136.359329,95.9856739 C136.795902,96.055829 137.436779,96.2141522 138.12174,96.6023757 C139.12785,97.1728604 139.700942,97.9403009 139.972319,98.364787 C139.091114,99.1874511 138.209908,100.009878 137.328702,100.832305 Z" id="Stroke-55" stroke="#E5E7EA" stroke-width="0.740421352" mask="url(#mask-2)"></path>
                        <path d="M147.727095,98.8055558 C148.499513,98.0701117 149.751404,97.0474106 151.516185,96.2498697 C152.554292,95.7810626 155.094335,94.791543 158.389732,95.1043971 C160.036956,95.2605871 162.251821,95.4708156 164.293905,97.1313124 C167.397085,99.654291 167.693586,103.568522 167.730559,104.180958 C167.759712,104.661142 167.746913,105.05932 167.730559,105.326431 C160.530175,105.382602 153.329554,105.439011 146.128932,105.495419 C145.668421,105.498974 145.348693,105.038226 145.512705,104.608288 C146.250756,102.674044 146.989044,100.7398 147.727095,98.8055558" id="Fill-56" fill="#FFFFFF" mask="url(#mask-2)"></path>
                        <path d="M147.727095,98.8055558 C148.499513,98.0701117 149.751404,97.0474106 151.516185,96.2498697 C152.554292,95.7810626 155.094335,94.791543 158.389732,95.1043971 C160.036956,95.2605871 162.251821,95.4708156 164.293905,97.1313124 C167.397085,99.654291 167.693586,103.568522 167.730559,104.180958 C167.759712,104.661142 167.746913,105.05932 167.730559,105.326431 C160.530175,105.382602 153.329554,105.439011 146.128932,105.495419 C145.668421,105.498974 145.348693,105.038226 145.512705,104.608288 C146.250756,102.674044 146.989044,100.7398 147.727095,98.8055558 Z" id="Stroke-57" stroke="#E5E7EA" stroke-width="0.740421352" mask="url(#mask-2)"></path>
                        <path d="M141.382201,96.1177836 C140.627796,96.3002819 138.923926,96.8553609 137.681279,98.5412178 C136.209917,100.537085 136.431759,102.6972 136.491486,103.167666 C137.188297,103.498533 138.190141,103.903821 139.443454,104.180887 C141.8612,104.715346 143.762262,104.45179 144.995192,104.269055 C147.202709,103.94198 148.306468,103.778206 148.828602,102.947246 C149.661458,101.621883 148.756077,99.5525423 148.079649,98.5412178 C147.662984,97.9183537 147.194651,97.4898384 146.845771,97.2191722 C144.51169,95.4098327 141.577972,96.0703815 141.382201,96.1177836" id="Fill-58" fill="#FFFFFF" mask="url(#mask-2)"></path>
                        <path d="M141.382201,96.1177836 C140.627796,96.3002819 138.923926,96.8553609 137.681279,98.5412178 C136.209917,100.537085 136.431759,102.6972 136.491486,103.167666 C137.188297,103.498533 138.190141,103.903821 139.443454,104.180887 C141.8612,104.715346 143.762262,104.45179 144.995192,104.269055 C147.202709,103.94198 148.306468,103.778206 148.828602,102.947246 C149.661458,101.621883 148.756077,99.5525423 148.079649,98.5412178 C147.662984,97.9183537 147.194651,97.4898384 146.845771,97.2191722 C144.51169,95.4098327 141.577972,96.0703815 141.382201,96.1177836 Z" id="Stroke-59" stroke="#E5E7EA" stroke-width="0.740421352" mask="url(#mask-2)"></path>
                        <g id="Group-62" mask="url(#mask-2)">
                            <g transform="translate(155.241993, 98.774199)">
                                <path d="M0.151592028,5.45077153 C0.460179929,5.30382491 0.768530819,5.1571153 1.07688171,5.01016868 C0.886799146,4.77789822 0.586506619,4.3446427 0.460179929,3.73244413 C0.161546477,2.28762705 1.10935217,1.19500783 1.16504968,1.13291103 C2.05455075,0.141021352 3.65508384,-0.241513879 4.64578847,0.383720285 C4.91455858,0.553182918 5.09634577,0.770521708 5.21864327,0.956575089" id="Fill-60" stroke="none" fill="#FFFFFF" fill-rule="evenodd"></path>
                                <path d="M0.151592028,5.45077153 C0.460179929,5.30382491 0.768530819,5.1571153 1.07688171,5.01016868 C0.886799146,4.77789822 0.586506619,4.3446427 0.460179929,3.73244413 C0.161546477,2.28762705 1.10935217,1.19500783 1.16504968,1.13291103 C2.05455075,0.141021352 3.65508384,-0.241513879 4.64578847,0.383720285 C4.91455858,0.553182918 5.09634577,0.770521708 5.21864327,0.956575089" id="Stroke-61" stroke="#E5E7EA" stroke-width="0.740421352" fill="none"></path>
                            </g>
                        </g>
                        <path d="M140.875543,101.581306 C140.981487,101.303293 142.006558,101.298553 142.131226,101.603348 C142.209676,101.79509 141.964133,102.188528 141.602455,102.242329 C141.142654,102.310588 140.798278,101.784187 140.875543,101.581306" id="Fill-63" fill="#FFFFFF" mask="url(#mask-2)"></path>
                        <path d="M140.875543,101.581306 C140.981487,101.303293 142.006558,101.298553 142.131226,101.603348 C142.209676,101.79509 141.964133,102.188528 141.602455,102.242329 C141.142654,102.310588 140.798278,101.784187 140.875543,101.581306 Z" id="Stroke-64" stroke="#E5E7EA" stroke-width="0.740421352" mask="url(#mask-2)"></path>
                        <g id="Group-67" mask="url(#mask-2)">
                            <g transform="translate(139.125267, 99.722242)">
                                <path d="M0.230303274,0.206815516 C0.208261281,0.547162847 0.426548114,0.816169964 0.648864128,0.845796299 C0.906731744,0.879925836 1.23996875,0.600490249 1.22171893,0.184773523" id="Fill-65" stroke="none" fill="#FFFFFF" fill-rule="evenodd"></path>
                                <path d="M0.230303274,0.206815516 C0.208261281,0.547162847 0.426548114,0.816169964 0.648864128,0.845796299 C0.906731744,0.879925836 1.23996875,0.600490249 1.22171893,0.184773523" id="Stroke-66" stroke="#E5E7EA" stroke-width="0.740421352" fill="none"></path>
                            </g>
                        </g>
                        <g id="Group-70" mask="url(#mask-2)">
                            <g transform="translate(143.391459, 99.722242)">
                                <path d="M0.116893665,0.206815516 C0.0950886833,0.547162847 0.313375516,0.816169964 0.53569153,0.845796299 C0.793559146,0.879925836 1.12679616,0.600490249 1.10854633,0.184773523" id="Fill-68" stroke="none" fill="#FFFFFF" fill-rule="evenodd"></path>
                                <path d="M0.116893665,0.206815516 C0.0950886833,0.547162847 0.313375516,0.816169964 0.53569153,0.845796299 C0.793559146,0.879925836 1.12679616,0.600490249 1.10854633,0.184773523" id="Stroke-69" stroke="#E5E7EA" stroke-width="0.740421352" fill="none"></path>
                            </g>
                        </g>
                        <path d="M125.398557,39.7573796 C125.398557,39.7573796 125.39666,39.8265867 125.393342,39.9557575 C125.387891,40.0863504 125.379122,40.2811732 125.349969,40.5283753 C125.318684,40.7767625 125.275311,41.0806102 125.145429,41.4394443 C125.077644,41.6181504 124.988765,41.8136842 124.830916,42.0113511 C124.703167,42.1632749 124.568782,42.3230201 124.428472,42.4896386 C124.363057,42.5706963 124.296457,42.653176 124.228435,42.7373148 L124.126046,42.8653006 L124.073904,42.9302415 L124.067505,42.9382999 C124.047359,42.9565497 124.091206,42.918391 124.085754,42.9238422 L124.082436,42.9278714 L124.070112,42.9444621 L124.044515,42.9778806 C123.976967,43.0669967 123.908233,43.1575347 123.838315,43.2494949 L123.812244,43.2838614 L123.798972,43.3014002 C123.762709,43.3376628 123.844715,43.2566052 123.835234,43.2667967 L123.832627,43.2715369 L123.826939,43.2807803 L123.781433,43.3563867 C123.742563,43.4135063 123.738771,43.4433696 123.726683,43.4770251 C123.597038,43.7903532 123.471423,44.2146023 123.355999,44.6312671 C123.328505,44.7350778 123.297457,44.8445767 123.2766,44.9367739 C123.252899,45.0427177 123.228961,45.1493725 123.204786,45.2567383 C123.149799,45.4892458 123.076563,45.7222273 122.990528,45.9540237 C122.816325,46.4147725 122.605386,46.8892678 122.547555,47.3604451 L122.545659,47.3713475 L122.544711,47.3767988 C122.544711,47.3315298 122.544474,47.3680294 122.544237,47.359497 L122.542341,47.3850942 L122.538549,47.4360515 L122.530727,47.5384401 L122.516507,47.7396621 L122.506552,48.0866458 L122.515559,48.4615967 C122.524328,48.5876863 122.53286,48.713776 122.541393,48.8391547 C122.587373,49.3435134 122.670564,49.845265 122.770582,50.3306628 C122.872734,50.8160607 122.999535,51.2827347 123.134157,51.7226265 C123.268779,52.1627554 123.41454,52.5749169 123.555562,52.954371 C123.700375,53.331929 123.841396,53.6765426 123.97673,53.9773091 C124.1059,54.2816308 124.236493,54.5383134 124.33509,54.7549411 C124.548162,55.1806123 124.670223,55.4237853 124.670223,55.4237853 L124.53489,55.5079241 C124.53489,55.5079241 124.376093,55.284423 124.097842,54.8933554 C123.966064,54.6928443 123.795179,54.4548856 123.618369,54.1699988 C123.435871,53.8881931 123.240574,53.5632515 123.027502,53.2065504 C122.820354,52.8467682 122.60112,52.4523824 122.386862,52.0233931 C122.172367,51.5948778 121.960954,51.133418 121.759495,50.6435169 C121.562302,50.1517198 121.376011,49.6321924 121.224325,49.0820906 C121.189247,48.9429653 121.154169,48.803366 121.118618,48.6632927 L121.029739,48.2321703 C121.003431,48.0823796 120.982574,47.9226344 120.960058,47.7664443 L120.938016,47.559297 L120.92735,47.4573824 L120.921899,47.4064251 L120.919529,47.381065 L120.917633,47.3289226 C120.884688,46.7100878 120.834679,46.1026294 120.876393,45.5138949 C120.89962,45.2204757 120.951762,44.9365369 121.03519,44.6620785 C121.077615,44.5222422 121.121936,44.3966265 121.185455,44.2309561 C121.248263,44.0778472 121.310359,43.9470173 121.379567,43.8147653 C121.656869,43.2902607 121.999112,42.8333041 122.460335,42.4182984 C122.522906,42.3623639 122.591639,42.3007411 122.634064,42.275855 L122.706826,42.2258458 L122.715833,42.2196835 L122.720099,42.2163653 C122.713226,42.2239497 122.798312,42.1407589 122.764657,42.1746515 L122.784092,42.164223 L122.822725,42.143129 C122.925587,42.0874315 123.027028,42.032208 123.126572,41.9781696 L123.16402,41.9580237 L123.182507,41.9478322 L123.187247,41.9452251 C123.183929,41.9485433 123.230857,41.9080144 123.213081,41.9241312 L123.222325,41.919154 L123.296035,41.8800472 C123.344859,41.853739 123.393209,41.8279048 123.440848,41.8023077 C123.536601,41.7508764 123.63022,41.7003931 123.72218,41.6508579 C123.89425,41.5546315 124.059683,41.4621974 124.216584,41.3745034 C124.327031,41.3126436 124.434397,41.209307 124.527542,41.09886 C124.714781,40.8732258 124.850351,40.6219945 124.952502,40.4138991 C125.055602,40.2031967 125.124572,40.0313639 125.171974,39.9121475 C125.217717,39.7910351 125.242367,39.7265682 125.242367,39.7265682 L125.398557,39.7573796 Z" id="Fill-71" fill="#020C1F" mask="url(#mask-2)"></path>
                    </g>
                </g>
            </g>
        </g>
    </g>
</svg>