<?xml version="1.0" encoding="UTF-8"?>
<svg width="90px" height="103px" viewBox="0 0 90 103" version="1.1" xmlns="http://www.w3.org/2000/svg" xmlns:xlink="http://www.w3.org/1999/xlink">
    <!-- Generator: Sketch 52.6 (67491) - http://www.bohemiancoding.com/sketch -->
    <title>marketing copy</title>
    <desc>Created with Sketch.</desc>
    <g id="Oifa-seeker" stroke="none" stroke-width="1" fill="none" fill-rule="evenodd">
        <g id="Onboardings-2" transform="translate(-597.000000, -396.000000)">
            <g id="Group-9" transform="translate(208.000000, 234.000000)">
                <g id="Group-8" transform="translate(0.000000, 131.000000)">
                    <g id="Group-4" transform="translate(351.000000, 0.000000)">
                        <g id="marketing-copy" transform="translate(38.000000, 31.000000)">
                            <path d="M83.0263938,40.5402378 L49.2443363,6.47574854 C45.7520575,2.95407212 40.0689159,2.95387135 36.5762389,6.47574854 C33.4365929,9.6414425 33.1661947,14.4695926 35.4846903,17.9171813 L35.4376991,18.1543021 C33.0021239,30.4349942 27.072677,41.6071813 18.2899115,50.4631735 L2.79497788,66.0876511 C-0.705862832,69.617961 -0.706460177,75.3313489 2.79497788,78.8616589 L11.2402434,87.3775302 C14.740885,90.9076394 20.4073009,90.9078402 23.9083407,87.3775302 L26.0197566,85.248462 L40.7992699,100.151538 C44.3001106,103.681848 49.9661283,103.682049 53.4671681,100.151538 C56.9598451,96.6298616 56.9598451,90.8994074 53.4671681,87.377731 L47.1331195,80.9907271 L49.2445354,78.8616589 C52.7453761,75.3317505 52.7457743,69.6183626 49.2445354,66.0878519 L47.8097124,64.6408324 C54.8681416,59.6576803 62.8843142,56.1884074 71.4448673,54.4619025 L71.6830088,54.4139162 C75.1780752,56.7933567 79.9550442,56.4108713 83.0263938,53.3138441 L83.0265929,53.3138441 C86.5186726,49.7923684 86.5186726,44.062115 83.0263938,40.5402378 Z M19.685708,83.1195945 C18.5188938,84.295963 16.6296903,84.2961637 15.4628761,83.1193938 L7.01761062,74.6035224 C5.85059735,73.4265517 5.85059735,71.5223567 7.01761062,70.3455867 L21.7969248,55.4425107 L34.4650221,68.2165185 C33.0190487,69.6745809 21.167323,81.6253918 19.685708,83.1195945 Z M49.2443363,91.6354659 C50.4083628,92.8092242 50.4083628,94.7194425 49.2443363,95.8934016 C48.0803097,97.0671598 46.1857301,97.0671598 45.0217035,95.8934016 L30.2421903,80.9903255 L34.4650221,76.7323899 L49.2443363,91.6354659 Z M38.6876549,72.4744542 C39.5852655,71.5693392 40.9288938,70.1829552 43.049469,68.3566628 L45.0217035,70.3455867 C46.1887168,71.5223567 46.1887168,73.4265517 45.0217035,74.6035224 L42.9102876,76.7325906 L38.6876549,72.4744542 Z M38.8144912,64.0866803 L25.892323,51.0564776 C32.8173451,42.9933645 37.7765044,33.4754016 40.4297124,23.1352456 L66.5042257,49.4277524 C56.2498009,52.1029415 46.8109513,57.1035614 38.8144912,64.0866803 Z M78.8031637,49.0557076 C77.6361504,50.2322768 75.7475442,50.2322768 74.580531,49.0557076 L40.7988717,14.9916199 C39.6318584,13.8146491 39.6318584,11.9104542 40.7988717,10.7336842 C41.965885,9.55691423 43.8546903,9.55691423 45.0217035,10.7336842 L78.8031637,44.7975712 C79.9671903,45.9715302 79.9671903,47.8815478 78.8031637,49.0557076 Z" id="Shape" fill="#03256C" fill-rule="nonzero"></path>
                            <path d="M23.9081416,66.0874503 C22.742323,64.9116842 20.8515265,64.9116842 19.6855088,66.0874503 L15.4628761,70.345386 C14.2968584,71.521152 14.2968584,73.4275556 15.4628761,74.6033216 C16.6286947,75.7790877 18.5196903,75.7790877 19.6855088,74.6033216 L23.9081416,70.345386 C25.0741593,69.1696199 25.0741593,67.2632164 23.9081416,66.0874503 Z" id="Path" fill="#03256C"></path>
                            <path d="M62.9581858,0 C61.309115,0 59.9722566,1.34803509 59.9722566,3.01089279 L59.9722566,9.03267836 C59.9722566,10.6955361 61.309115,12.0435712 62.9581858,12.0435712 C64.6072566,12.0435712 65.944115,10.6955361 65.944115,9.03267836 L65.944115,3.01089279 C65.944115,1.34803509 64.6072566,0 62.9581858,0 Z" id="Path" fill="#03256C"></path>
                            <path d="M86.8454204,24.0867407 L80.8735619,24.0867407 C79.2244912,24.0867407 77.8876327,25.4347758 77.8876327,27.0976335 C77.8876327,28.7604912 79.2244912,30.1085263 80.8735619,30.1085263 L86.8454204,30.1085263 C88.4944912,30.1085263 89.8313496,28.7604912 89.8313496,27.0976335 C89.8313496,25.4347758 88.494292,24.0867407 86.8454204,24.0867407 Z" id="Path" fill="#03256C"></path>
                            <path d="M82.9849779,6.90340936 C81.8191593,5.72764327 79.9283628,5.72764327 78.7623451,6.90340936 L72.7904867,12.9251949 C71.624469,14.100961 71.624469,16.0073645 72.7904867,17.1831306 C73.9563053,18.3588967 75.8471018,18.3590975 77.0131195,17.1831306 L82.9849779,11.161345 C84.1509956,9.98557895 84.1509956,8.07937622 82.9849779,6.90340936 Z" id="Path" fill="#03256C"></path>
                        </g>
                    </g>
                </g>
            </g>
        </g>
    </g>
</svg>