<?xml version="1.0" encoding="UTF-8"?>
<svg width="101px" height="101px" viewBox="0 0 101 101" version="1.1" xmlns="http://www.w3.org/2000/svg" xmlns:xlink="http://www.w3.org/1999/xlink">
    <!-- Generator: Sketch 52.6 (67491) - http://www.bohemiancoding.com/sketch -->
    <title>top</title>
    <desc>Created with Sketch.</desc>
    <g id="Oifa-seeker" stroke="none" stroke-width="1" fill="none" fill-rule="evenodd">
        <g id="Onboardings-2" transform="translate(-245.000000, -399.000000)">
            <g id="Group-9" transform="translate(208.000000, 234.000000)">
                <g id="Group-8" transform="translate(0.000000, 131.000000)">
                    <g id="Group-7">
                        <g id="Group-6" transform="translate(38.000000, 34.000000)">
                            <g id="top">
                                <g id="Group" transform="translate(17.766129, 0.193548)" fill="#03256C">
                                    <path d="M63.040614,75.312185 L64.1422946,78.4737667 C63.1045473,80.485328 61.9225601,82.2419355 59.8790323,82.2419355 C55.0731162,82.2419355 55.0731162,72.6612903 50.2827936,72.6612903 C45.492471,72.6612903 45.492471,82.2419355 40.7021484,82.2419355 C38.657841,82.2419355 37.4922269,80.485328 36.4381065,78.4893602 L37.5561602,75.312185 C38.5143808,72.5973571 40.2546151,70.345656 42.4899429,68.7652549 C44.7252709,67.1840742 47.4245053,66.2741935 50.2983871,66.2741935 C51.0811807,66.2741935 51.8631947,66.3381268 52.6140214,66.4659937 L52.6140214,66.481587 C57.3723774,67.2963474 61.3962795,70.633356 63.040614,75.312185 Z" id="Path"></path>
                                    <path d="M44.9973774,40.3422064 L46.7212387,46.266956 C45.6359312,48.3900108 44.4539441,50.3064516 42.3145161,50.3064516 C37.5086001,50.3064516 37.5086001,40.7258065 32.7182775,40.7258065 C27.9279549,40.7258065 27.9279549,50.3064516 23.1376323,50.3064516 C20.9974248,50.3064516 19.8162172,48.3900108 18.7465033,46.2825495 L20.4703645,40.3422064 C21.2687516,37.6281581 22.9138656,35.3288969 25.0696666,33.7001559 C25.9631741,33.0296355 26.9533612,32.4706086 28.0074816,32.0550419 C29.4763893,31.4648279 31.0731635,31.1451613 32.733871,31.1451613 C38.4184807,31.1451613 43.4006032,34.8977365 44.9973774,40.3422064 Z" id="Path"></path>
                                    <path d="M25.8360871,69.0841419 L26.9533612,72.9326172 C26.0115139,74.561358 24.9098333,75.8548387 23.1532258,75.8548387 C18.3473097,75.8548387 18.3473097,66.2741935 13.5569871,66.2741935 C8.76666457,66.2741935 8.76666457,75.8548387 3.97634199,75.8548387 C2.23532799,75.8548387 1.11805371,74.5777311 0.175426802,72.9489903 L1.30907421,69.0841419 C2.1074613,66.3700936 3.75257524,64.0708324 5.90837629,62.4420914 C8.06339791,60.8289441 10.7306657,59.8870968 13.5725806,59.8870968 C13.9717742,59.8870968 14.3709677,59.9026903 14.7545678,59.95103 C19.9440839,60.4297505 24.3508065,64.0224924 25.8360871,69.0841419 Z" id="Path"></path>
                                    <polygon id="Path" points="35 19.1612903 35 0 58.9516129 9.58064516"></polygon>
                                </g>
                                <polygon id="Path" stroke="#03256C" fill="#03256C" points="95.8064516 96.8064516 99 96.8064516 99 100 95.8064516 100"></polygon>
                                <polygon id="Path" stroke="#03256C" fill="#03256C" points="0 96.8064516 3.19354839 96.8064516 3.19354839 100 0 100"></polygon>
                                <path d="M82.3138546,74.9755544 C80.6469096,70.2359107 76.7555523,66.6626606 71.9769247,65.3902311 L71.6510207,65.3146027 L64.2947879,40.0858824 C62.6598097,34.5127662 57.7681293,30.4888641 52.0952149,29.8425135 L52.0952149,1 L48.9016666,1 L48.9016666,29.8393948 C47.9403273,29.9462104 46.99848,30.1536038 46.0831417,30.4522194 C43.3800088,28.3860808 39.7506221,27.6344742 36.4136135,28.53188 C34.093301,23.4647728 29.0300924,20.1612903 23.3548387,20.1612903 C15.430223,20.1612903 8.98387097,26.6076424 8.98387097,34.5322581 C8.98387097,35.1068784 9.02207499,35.6822786 9.09068638,36.2568989 C4.51477445,36.9749795 1,40.9349483 1,45.7096774 C1,50.9935342 5.29678842,55.2903226 10.5806452,55.2903226 L32.2727603,55.2903226 L31.3418284,58.483871 C31.3402689,58.483871 31.3402689,58.483871 31.3387097,58.483871 C28.210654,58.483871 25.2291772,59.4771767 22.7131662,61.3608712 C20.2143082,63.2500236 18.4257341,65.8323068 17.5439217,68.8293772 L9.38306452,96.8064516 L5.79032258,96.8064516 L5.79032258,100 L93.6129032,100 L93.6129032,96.8064516 L89.9546686,96.8064516 L82.3138546,74.9755544 Z M79.2996313,76.0304545 L86.5724388,96.8064516 L49.5565935,96.8064516 L56.8278415,76.0374715 C57.6597546,73.6836332 59.1637475,71.686106 61.179207,70.2616399 C63.6219287,68.5354398 66.6782543,67.8087828 69.5318642,68.1510601 L70.1096034,68.2500789 C74.3463567,68.9728373 77.8673686,71.9574329 79.2996313,76.0304545 Z M61.2306657,40.9817288 L68.1970608,64.8756459 C68.1526193,64.8756459 68.1089575,64.8709677 68.0645161,64.8709677 C64.9286636,64.8709677 61.9105422,65.8338663 59.335276,67.654407 C56.7756032,69.4632528 54.8669591,71.9940776 53.8151777,74.9771137 L50.061043,85.7007623 L45.1350571,68.8293772 C43.6419796,63.7419985 39.5736359,60.0011182 34.556428,58.8705897 L39.7693343,40.986407 C40.4577873,38.6520602 41.8502866,36.6397194 43.7947959,35.1692524 C44.5853863,34.5751402 45.4492659,34.0917418 46.3692825,33.7307523 C47.6799159,33.203692 49.070856,32.9354839 50.5,32.9354839 C55.4275454,32.9354839 59.8412849,36.2459836 61.2306657,40.9817288 Z M10.5806452,52.0967742 C7.05807387,52.0967742 4.19354839,49.2322487 4.19354839,45.7096774 C4.19354839,42.1871061 7.05807387,39.3225806 10.5806452,39.3225806 C10.6414599,39.3210214 10.7163087,39.3194619 10.9018712,39.3366147 C14.3028132,39.5026856 16.9677419,42.3024982 16.9677419,45.7096774 L20.1612903,45.7096774 C20.1612903,40.9988818 16.7665859,37.0724388 12.3310153,36.295103 C12.2397933,35.7072282 12.1774194,35.1185736 12.1774194,34.5322581 C12.1774194,28.3704873 17.1930679,23.3548387 23.3548387,23.3548387 C28.1927214,23.3548387 32.4598823,26.4431309 33.9716718,31.0385349 L34.5213425,32.7070392 L36.1305915,32.0029927 C37.1207787,31.5687138 38.2240188,31.3387097 39.3225806,31.3387097 C40.5006695,31.3387097 41.631198,31.6209519 42.6681657,32.1020115 C42.4030762,32.2743196 42.127851,32.4279155 41.8744565,32.6189358 C39.3755985,34.5080881 37.5870244,37.0903714 36.7052121,40.0921198 L33.203692,52.0967742 L10.5806452,52.0967742 Z M20.6064847,69.7283425 C21.2949377,67.3939957 22.687437,65.3816549 24.6303868,63.9127473 C26.5850319,62.4500772 28.9069036,61.6774194 31.3387097,61.6774194 C31.6708511,61.6774194 32.0029927,61.6883349 32.3733383,61.7351152 C36.9625047,62.1576991 40.7688776,65.2943313 42.0678159,69.7236643 L48.2467396,90.8840411 L46.1743637,96.8064516 L12.7091575,96.8064516 L20.6064847,69.7283425 Z" id="Shape" stroke="#002470" stroke-width="2" fill="#03256C" fill-rule="nonzero"></path>
                            </g>
                        </g>
                    </g>
                </g>
            </g>
        </g>
    </g>
</svg>