<?xml version="1.0" encoding="UTF-8"?>
<svg width="102px" height="103px" viewBox="0 0 102 103" version="1.1" xmlns="http://www.w3.org/2000/svg" xmlns:xlink="http://www.w3.org/1999/xlink">
    <!-- Generator: Sketch 52.6 (67491) - http://www.bohemiancoding.com/sketch -->
    <title>Group 15</title>
    <desc>Created with Sketch.</desc>
    <defs>
        <polygon id="path-1" points="1.9921875e-05 0.000100389864 102 0.000100389864 102 103 1.9921875e-05 103"></polygon>
    </defs>
    <g id="Oifa-seeker" stroke="none" stroke-width="1" fill="none" fill-rule="evenodd">
        <g id="Onboardings" transform="translate(-948.000000, -396.000000)">
            <g id="Group-9" transform="translate(208.000000, 234.000000)">
                <g id="Group-8" transform="translate(0.000000, 131.000000)">
                    <g id="Group-5" transform="translate(700.000000, 0.000000)">
                        <g id="Group-15" transform="translate(40.000000, 31.000000)">
                            <g id="Group-14">
                                <g id="Group-3">
                                    <mask id="mask-2" fill="white">
                                        <use xlink:href="#path-1"></use>
                                    </mask>
                                    <g id="Clip-2"></g>
                                </g>
                                <path d="M91.0429687,103 C87.8245898,102.422357 85.6072852,100.321799 83.4238477,98.0750741 C78.7547578,93.270616 73.9984102,88.5524932 69.2860898,83.7908012 C68.0441602,82.5357271 67.8857812,80.720076 68.8555781,79.3053821 C69.8054531,77.9200019 71.6579883,77.3997817 73.1840039,78.1474854 C73.6186992,78.3603119 74.0093672,78.7044483 74.356207,79.0528012 C79.5763359,84.2965653 84.7755469,89.5612105 90.0138047,94.7865029 C90.5307773,95.3019045 91.2266484,95.7634971 91.9183359,95.9443996 C93.1234102,96.2598246 94.2731016,95.5930351 94.8177656,94.5154503 C95.3413125,93.4794269 95.1610195,92.1894172 94.2740977,91.2796842 C92.1334922,89.0841579 89.964,86.9171423 87.8044687,84.7404893 C82.6403203,79.5348733 77.4755742,74.3298596 72.3092344,69.1264522 C72.1018477,68.9176413 71.8751367,68.7281053 71.6565937,68.5285302 C66.9283359,73.7795224 61.2535898,77.483306 54.6439102,79.7145712 C31.9459219,87.3773294 7.77491016,74.0897271 1.92106641,50.6725867 C-2.67869531,32.2725302 5.83113281,12.2072066 23.9566523,3.87545029 C46.972793,-6.70423587 74.404418,6.56348928 80.4628594,31.3290663 C82.022543,37.7048265 82.0984453,44.0884172 80.6825977,50.4952982 C80.2518867,52.4446686 78.45075,53.7141988 76.6386562,53.3305088 C74.6365078,52.9066628 73.4633086,51.1149045 73.8856523,49.0547037 C76.0666992,38.4145828 73.9970156,28.7070838 67.3317539,20.1586862 C61.5259219,12.7121676 53.8199414,8.45844834 44.4731953,7.39672515 C26.6606484,5.37366862 10.4055937,17.4692417 7.23622266,35.3137407 C3.88855078,54.1623392 16.0064297,71.321577 33.524332,74.8805984 C47.5680586,77.7338791 59.115375,73.1304016 68.0324062,61.8546121 C68.945625,60.6997271 69.8875312,59.7875848 71.4653437,59.8179025 C72.5753906,59.839386 73.4103164,60.3399298 74.1679453,61.1046998 C81.7446328,68.7519981 89.3125547,76.4083314 96.9253008,84.0190877 C99.072082,86.1652222 101.254125,88.243694 102,91.3547758 L102,94.9688109 C101.920113,95.178425 101.824887,95.3834211 101.762332,95.5982554 C100.689539,99.2833665 98.3449336,101.673649 94.6571953,102.700437 C94.3145391,102.795807 93.9742734,102.900012 93.6328125,103 L91.0429687,103 Z" id="Fill-4" fill="#03256C"></path>
                                <path d="M41.4096691,35.7539904 C44.2736379,35.7612185 46.6244191,33.4231386 46.6208332,30.570661 C46.6174465,27.6832478 44.2678605,25.3736786 41.3096613,25.3501873 C38.6443137,25.3289047 36.2795871,27.7483004 36.2632512,30.5130372 C36.2465168,33.3952302 38.5556613,35.7467624 41.4096691,35.7539904 M41.465052,42.7708404 C34.7344465,42.7646162 29.307927,37.3166591 29.3027473,30.5602205 C29.2973684,23.8399222 34.7750871,18.3222945 41.4612668,18.3128579 C48.1008293,18.3034212 53.5787473,23.8587955 53.5819348,30.604392 C53.5851223,37.2632517 48.0938566,42.7768637 41.465052,42.7708404" id="Fill-8" fill="#F0BC5E"></path>
                                <path d="M41.2867113,47.9782232 C47.9732895,48.1978762 53.4514066,50.7315156 57.6489457,55.914845 C59.0114027,57.5973791 58.8087973,59.7396988 57.2333754,60.9847339 C55.6637309,62.2251511 53.5677504,61.929001 52.2074848,60.2747768 C46.4086254,53.2223889 36.3283559,53.2597339 30.6281098,60.3546871 C29.3971371,61.8868372 27.9213246,62.3669016 26.3415199,61.7487008 C24.929059,61.196155 23.9514926,59.7991296 24.160473,58.2912739 C24.268848,57.5084337 24.6206684,56.6661628 25.1069613,56.0449503 C29.2469262,50.7554084 34.7318168,48.1699678 41.2867113,47.9782232" id="Fill-10" fill="#F0BC5E"></path>
                            </g>
                        </g>
                    </g>
                </g>
            </g>
        </g>
    </g>
</svg>