<?xml version="1.0" encoding="UTF-8"?>
<svg width="19px" height="23px" viewBox="0 0 19 23" version="1.1" xmlns="http://www.w3.org/2000/svg" xmlns:xlink="http://www.w3.org/1999/xlink">
    <title>Combined Shape Copy 14</title>
    <g id="Design-system-" stroke="none" stroke-width="1" fill="none" fill-rule="evenodd">
        <path d="M5.00810213,11.1098319 C5.24057646,11.1098319 5.46557967,11.2061676 5.8992538,11.4916649 C6.17047386,11.6701227 6.48321962,11.8736734 6.82880372,12.0967018 C7.1267809,12.2886712 7.53091795,12.4685328 8.02957371,12.6311979 C8.51710958,12.7903535 9.01142162,12.8710719 9.49947875,12.8710719 C9.98753592,12.8710719 10.4820217,12.7903535 10.9690364,12.6311979 C11.4682133,12.4683573 11.8723504,12.2884958 12.1706751,12.0965264 C12.5195603,11.8713923 12.8321324,11.6678416 13.0993562,11.4918404 C13.5335516,11.206343 13.758381,11.1100074 13.9908554,11.1100074 C14.5828136,11.1100074 15.1361999,11.2110808 15.6355506,11.4105956 C16.1366388,11.6111632 16.5699655,11.8861321 16.9238894,12.2281324 C17.2623498,12.5550418 17.5639757,12.9523166 17.8207748,13.408551 C18.0681914,13.8481152 18.2683487,14.3068061 18.415513,14.7712878 C18.557986,15.2206786 18.6770032,15.7123588 18.7694369,16.2324659 C18.8610019,16.7487126 18.9232036,17.2375851 18.9539569,17.6857476 C18.9843627,18.1237326 19,18.5808443 19,19.044273 C19,20.2453976 18.6220989,21.2175277 17.8767215,21.9338155 C17.1405527,22.6413296 16.1670447,23 14.9827807,23 L14.9827807,23 L4.0172193,23 C2.83295535,23 1.85909981,22.6411542 1.12310478,21.9338155 C0.37790114,21.2170012 0,20.2450467 0,19.0444485 C0,18.5831255 0.0152897928,18.1263647 0.0455219054,17.6862741 C0.0762752275,17.2370588 0.138476862,16.7480107 0.230041883,16.2324659 C0.32247563,15.7123588 0.441492756,15.220854 0.583792089,14.7714632 C0.731130092,14.3066307 0.93128738,13.8481152 1.17853029,13.408551 C1.43498182,12.9524922 1.73678146,12.5553928 2.07506814,12.2283079 C2.4293396,11.8859567 2.86283994,11.6109878 3.36358068,11.4107711 C3.86275765,11.2110808 4.41597016,11.1098319 5.00810213,11.1098319 Z M9.35631069,-8.52651283e-14 C10.863224,-8.52651283e-14 12.1680688,0.545901913 13.2345319,1.62261489 C14.3009949,2.69985426 14.8415239,4.01766954 14.8415239,5.53938645 C14.8415239,7.06162979 14.3009949,8.37926957 13.2347057,9.45615801 C12.1684164,10.533222 10.8633978,11.0791238 9.35631069,11.0791238 C7.8495711,11.0791238 6.54472631,10.5330465 5.47826324,9.45633348 C4.41180021,8.37944503 3.87109754,7.06162979 3.87109754,5.53938645 C3.87109754,4.01749408 4.41180021,2.6996788 5.4780895,1.62279035 C6.54437879,0.545901913 7.8490499,-8.52651283e-14 9.35631069,-8.52651283e-14 Z" id="Combined-Shape-Copy-14" fill="#F9BF58"></path>
    </g>
</svg>