<?xml version="1.0" encoding="UTF-8"?>
<svg width="27px" height="23px" viewBox="0 0 27 23" version="1.1" xmlns="http://www.w3.org/2000/svg" xmlns:xlink="http://www.w3.org/1999/xlink">
    <title>Combined Shape</title>
    <g id="Design-system-" stroke="none" stroke-width="1" fill="none" fill-rule="evenodd">
        <g transform="translate(-913.000000, -2357.000000)" fill="#9EA6C1" id="Group-26-Copy-10">
            <g transform="translate(877.000000, 2195.000000)">
                <path d="M43.4241962,168.999824 L43.4241962,169.633485 C43.4241962,172.217005 43.4266006,174.800524 43.4186913,177.38398 C43.4181218,177.550196 43.531763,177.766436 43.2901806,177.890092 C43.2693632,177.900748 43.3172621,178.063709 43.3445967,178.152337 C43.9886055,180.237337 44.6343226,182.321763 45.2793438,184.406445 C45.4250652,184.877336 45.3383157,184.99474 44.8376239,184.994995 C43.7832794,184.995633 42.7287452,184.980447 41.6748436,184.99978 C41.3384759,185.00597 41.185731,184.881802 41.0896169,184.567109 C40.4250439,182.389526 39.7409824,180.21794 39.0798262,178.039272 C38.9950382,177.759927 38.8620351,177.614832 38.596788,177.489388 C36.9207074,176.69685 36.0772572,175.334584 36.0034157,173.483114 C35.9216017,171.431612 37.317882,169.572486 39.2910368,169.088323 C39.444098,169.050741 39.6008924,169.004546 39.756105,169.003652 L40.967811,168.99954 L40.967811,168.99954 L43.4241962,168.999824 L43.4241962,168.999824 Z M58.95371,162.517199 L58.9544297,164.111856 L58.9544297,164.111856 L58.9540896,173.423621 C58.9540896,177.048525 58.9544422,180.6733 58.9537732,184.29814 C58.9536467,184.844578 58.8239338,184.923889 58.329696,184.686976 C53.9019301,182.564776 49.4748603,180.440854 45.0438674,178.325481 C44.8313281,178.224029 44.757107,178.109305 44.757803,177.872648 C44.7659654,174.895889 44.7665982,171.919195 44.7566581,168.9425 C44.7558415,168.699589 44.8402498,168.592586 45.046525,168.494005 C49.4767585,166.376719 53.9037018,164.252413 58.3311513,162.129384 C58.8316533,161.889408 58.953014,161.963807 58.95371,162.517199 Z M60.3133227,169.141206 C61.4822574,169.590786 63.0403309,171.198132 62.9992024,173.452602 C62.9657302,175.288885 61.7356722,177.237213 60.3133227,177.668991 L60.3133227,169.141206 Z M40.3817641,172.54867 C39.932388,172.563218 39.690426,172.812573 39.6792896,173.267959 C39.6670777,173.768329 39.9004976,174.061647 40.3517087,174.087169 C40.6241691,174.10261 40.8982113,174.093614 41.1714943,174.091061 C41.7079362,174.086021 41.9774227,173.81746 41.9733731,173.296481 C41.9695134,172.795856 41.7082526,172.55186 41.1701655,172.547394 L40.8232942,172.547904 L40.8232942,172.547904 C40.6761175,172.547904 40.5288143,172.543885 40.3817641,172.54867 Z" id="Combined-Shape"></path>
            </g>
        </g>
    </g>
</svg>