<?xml version="1.0" encoding="UTF-8"?>
<svg width="36px" height="25px" viewBox="0 0 36 25" version="1.1" xmlns="http://www.w3.org/2000/svg" xmlns:xlink="http://www.w3.org/1999/xlink">
    <title>Combined Shape Copy</title>
    <g id="Design-system-" stroke="none" stroke-width="1" fill="none" fill-rule="evenodd">
        <g transform="translate(-1244.000000, -1244.000000)" fill="#ADB5C6" fill-rule="nonzero" id="Group-23-Copy-2">
            <g transform="translate(19.000000, 1197.000000)">
                <g id="Group-7" transform="translate(1163.000000, 46.000000)">
                    <path d="M96.8685989,9.2616579 C97.8264086,9.2616579 98.260481,9.9640437 97.8387984,10.8211366 L97.8387984,10.8211366 L91.1264674,24.4420275 C90.7062888,25.2991204 89.5754517,26 88.6207215,26 L88.6207215,26 L63.6560783,26 C62.7013482,26 62.2641962,25.2976142 62.6874544,24.4420275 L62.6874544,24.4420275 L69.4012894,10.8211366 C69.8199641,9.9640437 70.9492256,9.2616579 71.9039557,9.2616579 L71.9039557,9.2616579 Z M78.4448349,1 C79.8799739,1 81.0509883,2.16808487 81.0509883,3.61000912 L81.0509883,3.61000912 L81.0509883,4.62338694 L88.7010045,4.62338694 C89.6557346,4.62338694 90.4389414,5.40624623 90.4389414,6.36389509 L90.4389414,6.36389509 L90.4389414,7.52423385 L71.9039557,7.52423385 C70.3004445,7.52423385 68.5516934,8.61026733 67.8426105,10.0538412 L67.8426105,10.0538412 L62,21.9079016 L62,6.36389509 C62,5.40617451 62.7817028,4.62338694 63.7379369,4.62489313 L63.7379369,4.62489313 L71.3879531,4.62489313 L71.3879531,3.61000912 C71.3879531,2.91221361 71.6583084,2.26247267 72.1526826,1.76736707 C72.6470568,1.27226146 73.300493,1 73.9956821,1 L73.9956821,1 Z M78.4433309,2.73900196 L73.9941781,2.73900196 C73.7640001,2.73900196 73.5446363,2.83023393 73.3824232,2.99734911 C73.22021,3.16130846 73.1259616,3.37949059 73.1259616,3.61000912 L73.1259616,3.61000912 L73.1260333,3.61000912 L73.1260333,4.62489313 L79.3115474,4.62489313 L79.3115474,3.61000912 C79.3115474,3.12888955 78.9238114,2.73900196 78.4433309,2.73900196 L78.4433309,2.73900196 Z" id="Combined-Shape-Copy"></path>
                </g>
            </g>
        </g>
    </g>
</svg>