<?xml version="1.0" encoding="UTF-8"?>
<svg width="24px" height="21px" viewBox="0 0 24 21" version="1.1" xmlns="http://www.w3.org/2000/svg" xmlns:xlink="http://www.w3.org/1999/xlink">
    <title>Combined Shape Copy 10</title>
    <g id="Design-system-" stroke="none" stroke-width="1" fill="none" fill-rule="evenodd">
        <path d="M12.703125,18.6392389 L12.703125,19.5929145 L17.6484375,19.5929145 C18.03675,19.5929145 18.3515625,19.9079141 18.3515625,20.2964573 C18.3515625,20.6850005 18.03675,21 17.6484375,21 L17.6484375,21 L6.3515625,21 C5.96325,21 5.6484375,20.6850005 5.6484375,20.2964573 C5.6484375,19.9079141 5.96325,19.5929145 6.3515625,19.5929145 L6.3515625,19.5929145 L11.296875,19.5929145 L11.296875,18.6392389 L12.703125,18.6392389 Z M24,14.2178012 L24,16.5285638 C24,16.917107 23.6851875,17.2321066 23.296875,17.2321066 L23.296875,17.2321066 L0.703125,17.2321066 C0.3148125,17.2321066 0,16.917107 0,16.5285638 L0,16.5285638 L0,14.2178012 L24,14.2178012 Z M11.296875,0 L11.296875,12.8107626 L8.98748437,12.8107626 L8.98748437,10.1232294 C8.98748437,8.98109815 8.41148438,7.97137363 7.53515625,7.36857822 C7.968375,6.90574091 8.23439062,6.28441887 8.23439062,5.60179482 C8.23439062,4.17505707 7.07432812,3.01430537 5.6484375,3.01430537 C4.22254687,3.01430537 3.06248437,4.17505707 3.06248437,5.60179482 C3.06248437,6.28441887 3.32854688,6.90574091 3.76171875,7.36857822 C2.8854375,7.97142053 2.30939063,8.98109815 2.30939063,10.1232294 L2.30939063,10.1232294 L2.30939063,12.8107626 L0,12.8107626 L0,0.703542728 C0,0.314999531 0.3148125,0 0.703125,0 L0.703125,0 L11.296875,0 Z M23.296875,0 C23.6851875,0 24,0.314999531 24,0.703542728 L24,0.703542728 L24,12.8107626 L21.6906094,12.8107626 L21.6906094,10.1232294 C21.6906094,8.98109815 21.1146094,7.97137363 20.2382813,7.36857822 C20.6715,6.90574091 20.9375156,6.28441887 20.9375156,5.60179482 C20.9375156,4.17505707 19.7774531,3.01430537 18.3515625,3.01430537 C16.9256719,3.01430537 15.7656094,4.17505707 15.7656094,5.60179482 C15.7656094,6.28441887 16.0316719,6.90574091 16.4648438,7.36857822 C15.5885625,7.97142053 15.0125156,8.98109815 15.0125156,10.1232294 L15.0125156,10.1232294 L15.0125156,12.8107626 L12.703125,12.8107626 L12.703125,0 Z M18.3515625,8.18923736 C19.4173125,8.18923736 20.2843594,9.05679935 20.2844063,10.1231825 L20.2844063,10.1231825 L20.2844063,12.8107157 L16.4187656,12.8107157 L16.4187656,10.1231825 C16.4187656,9.05679935 17.2858125,8.18923736 18.3515625,8.18923736 Z M5.6484375,8.18923736 C6.7141875,8.18923736 7.58123438,9.05679935 7.58128125,10.1231825 L7.58128125,10.1231825 L7.58128125,12.8107157 L3.71564063,12.8107157 L3.71564063,10.1231825 C3.71564063,9.05679935 4.5826875,8.18923736 5.6484375,8.18923736 Z M5.6484375,4.42139083 C6.29892187,4.42139083 6.82814062,4.95087708 6.82814062,5.60174791 C6.82814062,6.25261874 6.29892187,6.7821519 5.6484375,6.7821519 C4.99795312,6.7821519 4.46873437,6.25266565 4.46873437,5.60179482 C4.46873437,4.95092399 4.99795312,4.42139083 5.6484375,4.42139083 Z M18.3515625,4.42139083 C19.0020469,4.42139083 19.5312656,4.95087708 19.5312656,5.60174791 C19.5312656,6.25261874 19.0020469,6.7821519 18.3515625,6.7821519 C17.7010781,6.7821519 17.1718594,6.25266565 17.1718594,5.60179482 C17.1718594,4.95092399 17.7010781,4.42139083 18.3515625,4.42139083 Z" id="Combined-Shape-Copy-10" fill="#F9BF58"></path>
    </g>
</svg>