<?xml version="1.0" encoding="UTF-8"?>
<svg width="22px" height="25px" viewBox="0 0 22 25" version="1.1" xmlns="http://www.w3.org/2000/svg" xmlns:xlink="http://www.w3.org/1999/xlink">
    <title>Combined Shape</title>
    <g id="Design-system-" stroke="none" stroke-width="1" fill="none" fill-rule="evenodd">
        <path d="M20.3539462,8.7890625 L19.47,20.8222656 C19.3826906,21.9619141 18.8682063,23.0175781 18.0212556,23.7949219 C17.1747982,24.5717773 16.0723318,25 14.9175785,25 L14.9175785,25 L7.08242152,25 C5.92766816,25 4.82520179,24.5717773 3.97874439,23.7949219 C3.13179372,23.0175781 2.61730942,21.9619141 2.53,20.8222656 L2.53,20.8222656 L1.64605381,8.7890625 L20.3539462,8.7890625 Z M11,11.0839844 C7.76313901,11.0839844 5.13004484,13.6904297 5.13004484,16.8945312 C5.13004484,20.0986328 7.76313901,22.7050781 11,22.7050781 C14.236861,22.7050781 16.8699552,20.0986328 16.8699552,16.8945312 C16.8699552,13.6904297 14.236861,11.0839844 11,11.0839844 Z M11,12.5488281 C13.4209865,12.5488281 15.3901345,14.4985352 15.3901345,16.8945312 C15.3901345,19.2905273 13.4209865,21.2402344 11,21.2402344 C8.57950673,21.2402344 6.60986547,19.2905273 6.60986547,16.8945312 C6.60986547,14.4985352 8.57950673,12.5488281 11,12.5488281 Z M9.98829596,14.8574219 C9.69973094,14.5712891 9.23112108,14.5712891 8.94206278,14.8574219 C8.65300448,15.1435547 8.65300448,15.6074219 8.94206278,15.8930664 L8.94206278,15.8930664 L9.95376682,16.8945312 L8.94206278,17.8959961 C8.65300448,18.1816406 8.65300448,18.6455078 8.94206278,18.9316406 C9.08659193,19.074707 9.27600897,19.1459961 9.46542601,19.1459961 C9.65484305,19.1459961 9.84376682,19.074707 9.98829596,18.9316406 L9.98829596,18.9316406 L11,17.9301758 L12.011704,18.9316406 C12.1557399,19.074707 12.345157,19.1459961 12.534574,19.1459961 C12.723991,19.1459961 12.9134081,19.074707 13.0579372,18.9316406 C13.3469955,18.6455078 13.3469955,18.1816406 13.0579372,17.8959961 L13.0579372,17.8959961 L12.0462332,16.8945312 L13.0579372,15.8930664 C13.3469955,15.6074219 13.3469955,15.1435547 13.0579372,14.8574219 C12.7688789,14.5712891 12.3002691,14.5712891 12.011704,14.8574219 L12.011704,14.8574219 L11,15.8588867 Z M11.9865471,0 C13.7733318,0 15.2679507,1.26030273 15.6116637,2.9296875 L15.6116637,2.9296875 L19.3215247,2.9296875 C20.7983857,2.9296875 22,4.11914062 22,5.58105469 L22,5.58105469 L22,6.59179688 C22,6.99609375 21.6685202,7.32421875 21.2600897,7.32421875 L21.2600897,7.32421875 L0.739910314,7.32421875 C0.331479821,7.32421875 0,6.99609375 0,6.59179688 L0,6.59179688 L0,5.58105469 C0,4.11914062 1.20161435,2.9296875 2.67847534,2.9296875 L2.67847534,2.9296875 L6.38838565,2.9296875 C6.73219731,1.26030273 8.22711211,0 10.0134529,0 L10.0134529,0 Z M11.9865471,1.46484375 L10.0134529,1.46484375 C9.04860987,1.46484375 8.2258296,2.07714844 7.92049327,2.9296875 L7.92049327,2.9296875 L14.0795067,2.9296875 C13.7741704,2.07714844 12.9513901,1.46484375 11.9865471,1.46484375 L11.9865471,1.46484375 Z" id="Combined-Shape" fill="#9EA6C1" fill-rule="nonzero"></path>
    </g>
</svg>