<?xml version="1.0" encoding="UTF-8"?>
<svg width="25px" height="25px" viewBox="0 0 25 25" version="1.1" xmlns="http://www.w3.org/2000/svg" xmlns:xlink="http://www.w3.org/1999/xlink">
    <title>Combined Shape</title>
    <g id="Design-system-" stroke="none" stroke-width="1" fill="none" fill-rule="evenodd">
        <g transform="translate(-1103.000000, -1539.000000)" fill="#ADB5C6" fill-rule="nonzero" id="Group-8">
            <g transform="translate(19.000000, 1492.000000)">
                <path d="M1103.41297,47 C1104.26608,47 1104.95773,47.6897283 1104.95773,48.5405435 L1104.95773,48.5405435 L1104.95773,50.0872826 C1104.63801,50.2611413 1104.34123,50.4813043 1104.07655,50.7452717 L1104.07655,50.7452717 L1100.77123,54.0416848 C1100.77248,54.0176087 1100.77319,53.9933152 1100.77319,53.968913 C1100.77319,53.2185326 1100.16323,52.6102174 1099.41082,52.6102174 L1099.41082,52.6102174 L1089.54685,52.6102174 C1088.79444,52.6102174 1088.18448,53.2185326 1088.18448,53.968913 C1088.18448,54.7192935 1088.79444,55.3276087 1089.54685,55.3276087 L1089.54685,55.3276087 L1099.44741,55.3270992 L1099.44741,55.3270992 L1099.48379,55.3256522 L1097.08401,57.718913 L1089.5468,57.718913 C1088.79439,57.718913 1088.18443,58.3272283 1088.18443,59.0776087 C1088.18443,59.8279891 1088.79439,60.4363043 1089.5468,60.4363043 L1089.5468,60.4363043 L1094.35928,60.4363043 L1093.3417,61.4511413 C1092.95032,61.8415217 1092.64967,62.3119565 1092.45981,62.8276087 L1092.45981,62.8276087 L1089.5468,62.8276087 C1088.79439,62.8276087 1088.18443,63.4359239 1088.18443,64.1863043 C1088.18443,64.9366848 1088.79439,65.545 1089.5468,65.545 L1089.5468,65.545 L1091.74004,65.545 L1091.68119,65.7734239 C1091.48277,66.543913 1091.70985,67.3720109 1092.27387,67.9345109 C1092.70204,68.3615217 1093.27134,68.5966848 1093.87683,68.5966848 C1094.06691,68.5966848 1094.25666,68.5727717 1094.4408,68.5255978 L1094.4408,68.5255978 L1097.03001,67.8622826 C1097.68977,67.6932609 1098.29314,67.35 1098.77482,66.8695652 L1098.77482,66.8695652 L1104.95773,60.7033696 L1104.95773,70.4594565 C1104.95773,71.3102717 1104.26608,72 1103.41297,72 L1103.41297,72 L1085.54471,72 C1084.69159,72 1084,71.3102717 1084,70.4594022 L1084,70.4594022 L1084,48.5405435 C1084,47.6897283 1084.69159,47 1085.54471,47 L1085.54471,47 Z M1103.28921,53.8363043 L1106.41028,56.9489674 L1097.61882,65.7167391 C1097.34379,65.9910326 1096.99998,66.1866304 1096.62326,66.2831522 L1096.62326,66.2831522 L1094.03411,66.9464674 C1093.98206,66.9597826 1093.92926,66.9663043 1093.87689,66.9663043 C1093.71133,66.9663043 1093.54997,66.901413 1093.42992,66.7816848 C1093.27194,66.6240761 1093.20911,66.395 1093.2647,66.1791304 L1093.2647,66.1791304 L1093.9298,63.5969565 C1094.02659,63.22125 1094.22271,62.8783696 1094.49775,62.6040761 L1094.49775,62.6040761 L1103.28921,53.8363043 Z M1106.79311,51.2535326 C1107.35789,51.2535326 1107.92267,51.4684239 1108.35362,51.8982065 C1109.21545,52.7577174 1109.21545,54.1513043 1108.35367,55.0108152 L1108.35367,55.0108152 L1107.56176,55.8005978 L1104.44471,52.6839674 L1105.2326,51.8982065 C1105.66349,51.4684239 1106.22833,51.2535326 1106.79311,51.2535326 Z" id="Combined-Shape" transform="translate(1096.500000, 59.500000) scale(-1, 1) translate(-1096.500000, -59.500000) "></path>
            </g>
        </g>
    </g>
</svg>