<?xml version="1.0" encoding="UTF-8"?>
<svg width="25px" height="25px" viewBox="0 0 25 25" version="1.1" xmlns="http://www.w3.org/2000/svg" xmlns:xlink="http://www.w3.org/1999/xlink">
    <title>Combined Shape</title>
    <g id="Design-system-" stroke="none" stroke-width="1" fill="none" fill-rule="evenodd">
        <g transform="translate(-1329.000000, -1539.000000)" fill="#ADB5C6" fill-rule="nonzero" id="Group-8">
            <g transform="translate(19.000000, 1492.000000)">
                <path d="M1312.58621,67.6896552 L1312.58621,72 L1312.15517,72 C1310.96681,72 1310,71.0331897 1310,69.8448276 C1310,68.6564655 1310.96681,67.6896552 1312.15517,67.6896552 L1312.15517,67.6896552 L1312.58621,67.6896552 Z M1314.31034,67.6896552 L1314.31034,72 L1313.44828,72 L1313.44828,67.6896552 L1314.31034,67.6896552 Z M1322.93103,70.2758621 L1322.93103,72 L1315.17241,72 L1315.17241,70.2758621 L1322.93103,70.2758621 Z M1335,65.1034483 L1335,72 L1327.24138,72 L1327.24138,65.1034483 L1335,65.1034483 Z M1323.7931,68.0362069 L1326.21638,69.550431 C1326.3181,69.6146552 1326.37931,69.724569 1326.37931,69.8448276 C1326.37931,69.9650862 1326.3181,70.075 1326.21638,70.1387931 L1326.21638,70.1387931 L1323.7931,71.6530172 L1323.7931,68.0362069 Z M1332.97112,66.5228448 L1330.25862,69.2353448 L1329.27026,68.2469828 L1328.66078,68.8564655 L1330.25862,70.4543103 L1333.5806,67.1323276 L1332.97112,66.5228448 Z M1322.93103,67.6896552 L1322.93103,69.4137931 L1315.17241,69.4137931 L1315.17241,67.6896552 L1322.93103,67.6896552 Z M1324.65517,64.2413793 L1324.65517,67.5581897 L1323.48578,66.8275862 L1322.93103,66.8275862 L1322.93103,64.2413793 L1324.65517,64.2413793 Z M1313.44828,64.2413793 L1313.44828,66.8275862 L1312.15517,66.8275862 C1312.00862,66.8275862 1311.86552,66.8418103 1311.72414,66.862069 L1311.72414,66.862069 L1311.72414,64.2413793 L1313.44828,64.2413793 Z M1321.43966,58.4672414 L1321.55172,58.4857759 C1322.07328,58.5728448 1322.56121,58.7655172 1323.00129,59.0590517 C1324.03664,59.749569 1324.65517,60.9047414 1324.65517,62.1491379 L1324.65517,62.1491379 L1324.65517,63.3793103 L1322.93103,63.3793103 L1322.93103,61.6551724 L1322.06897,61.6551724 L1322.06897,66.8275862 L1314.31034,66.8275862 L1314.31034,61.6551724 L1313.44828,61.6551724 L1313.44828,63.3793103 L1311.72414,63.3793103 L1311.72414,62.1491379 C1311.72414,60.9051724 1312.34267,59.749569 1313.37802,59.0590517 C1313.8181,58.7655172 1314.30603,58.5728448 1314.82759,58.4857759 L1314.82759,58.4857759 L1314.93966,58.4672414 L1316.30862,62.5413793 L1318.18966,60.1900862 L1320.07069,62.5413793 L1321.43966,58.4672414 Z M1335,57.3448276 L1335,64.2413793 L1327.24138,64.2413793 L1327.24138,57.3448276 L1335,57.3448276 Z M1332.97112,58.7642241 L1330.25862,61.4767241 L1329.27026,60.4883621 L1328.66078,61.0978448 L1330.25862,62.6956897 L1333.5806,59.3737069 L1332.97112,58.7642241 Z M1320.06164,58.2375 L1320.57845,58.3237069 L1319.7569,60.7689655 L1318.76724,59.5318966 L1320.06164,58.2375 Z M1316.31767,58.2375 L1317.61207,59.5318966 L1316.62241,60.7689655 L1315.80086,58.3237069 L1316.31767,58.2375 Z M1319.1944,56.7637931 L1319.43276,57.6474138 L1318.18966,58.8905172 L1316.94655,57.6469828 L1317.18491,56.7633621 C1317.50302,56.8607759 1317.84009,56.9137931 1318.18966,56.9137931 C1318.53922,56.9137931 1318.87629,56.8607759 1319.1944,56.7637931 L1319.1944,56.7637931 Z M1316.05776,50.5068966 C1317.18922,51.0331897 1318.43836,51.3103448 1319.68621,51.3103448 L1319.68621,51.3103448 L1320.77586,51.3103448 L1320.77586,53.4655172 C1320.77586,54.8918103 1319.61595,56.0517241 1318.18966,56.0517241 C1316.76336,56.0517241 1315.60345,54.8918103 1315.60345,53.4655172 L1315.60345,53.4655172 L1315.60345,51.412069 C1315.60345,51.0491379 1315.77371,50.7172414 1316.05776,50.5068966 Z M1330.68966,54.7586207 L1330.68966,55.6206897 L1329.82759,55.6206897 L1329.82759,54.7586207 L1330.68966,54.7586207 Z M1328.96552,54.7586207 L1328.96552,55.6206897 L1328.10345,55.6206897 L1328.10345,54.7586207 L1328.96552,54.7586207 Z M1332.41379,54.7586207 L1332.41379,55.6206897 L1331.55172,55.6206897 L1331.55172,54.7586207 L1332.41379,54.7586207 Z M1334.13793,54.7586207 L1334.13793,55.6206897 L1333.27586,55.6206897 L1333.27586,54.7586207 L1334.13793,54.7586207 Z M1317.32759,53.4655172 L1316.46552,53.4655172 C1316.46552,54.4163793 1317.23879,55.1896552 1318.18966,55.1896552 C1319.14052,55.1896552 1319.91379,54.4163793 1319.91379,53.4655172 L1319.91379,53.4655172 L1319.05172,53.4655172 C1319.05172,53.9409483 1318.66509,54.3275862 1318.18966,54.3275862 C1317.71422,54.3275862 1317.32759,53.9409483 1317.32759,53.4655172 L1317.32759,53.4655172 Z M1314.74138,52.1724138 L1314.74138,53.4655172 C1314.74138,53.6116379 1314.75345,53.7551724 1314.77112,53.8965517 L1314.77112,53.8965517 L1314.74138,53.8965517 C1314.26595,53.8965517 1313.87931,53.5099138 1313.87931,53.0344828 C1313.87931,52.5590517 1314.26595,52.1724138 1314.74138,52.1724138 L1314.74138,52.1724138 Z M1321.63793,52.1724138 C1322.11336,52.1724138 1322.5,52.5590517 1322.5,53.0344828 C1322.5,53.5099138 1322.11336,53.8965517 1321.63793,53.8965517 L1321.63793,53.8965517 L1321.60819,53.8965517 C1321.62586,53.7551724 1321.63793,53.6116379 1321.63793,53.4655172 L1321.63793,53.4655172 Z M1334.13793,53.0344828 L1334.13793,53.8965517 L1328.10345,53.8965517 L1328.10345,53.0344828 L1334.13793,53.0344828 Z M1316.89655,51.7413793 C1316.65862,51.7413793 1316.46552,51.9344828 1316.46552,52.1724138 C1316.46552,52.4103448 1316.65862,52.6034483 1316.89655,52.6034483 C1317.13448,52.6034483 1317.32759,52.4103448 1317.32759,52.1724138 C1317.32759,51.9344828 1317.13448,51.7413793 1316.89655,51.7413793 Z M1319.48276,51.7413793 C1319.24483,51.7413793 1319.05172,51.9344828 1319.05172,52.1724138 C1319.05172,52.4103448 1319.24483,52.6034483 1319.48276,52.6034483 C1319.72069,52.6034483 1319.91379,52.4103448 1319.91379,52.1724138 C1319.91379,51.9344828 1319.72069,51.7413793 1319.48276,51.7413793 Z M1334.13793,51.3103448 L1334.13793,52.1724138 L1328.10345,52.1724138 L1328.10345,51.3103448 L1334.13793,51.3103448 Z M1319.70388,47 C1320.29483,47 1320.77586,47.4810345 1320.77586,48.0719828 C1320.77586,48.5340517 1320.48103,48.9426724 1320.04353,49.0892241 L1320.04353,49.0892241 L1319.77802,49.1775862 L1320.05,49.9952586 L1320.31595,49.9068966 C1320.82629,49.7366379 1321.22586,49.3676724 1321.44698,48.9043103 C1322.09741,49.2771552 1322.5,49.9577586 1322.5,50.7146552 C1322.5,50.9728448 1322.44914,51.2306034 1322.3556,51.4715517 C1322.13621,51.3706897 1321.89483,51.3103448 1321.63793,51.3103448 L1321.63793,51.3103448 L1321.63793,50.4482759 L1319.68621,50.4482759 C1318.49181,50.4482759 1317.29569,50.1659483 1316.22716,49.6318966 L1316.22716,49.6318966 L1316.03448,49.5353448 L1315.84138,49.6314655 C1315.19397,49.9556034 1314.78448,50.5931034 1314.74828,51.3103448 L1314.74828,51.3103448 C1314.46207,51.3103448 1314.20172,51.3836207 1313.9681,51.5021552 C1313.90991,51.3224138 1313.87931,51.1357759 1313.87931,50.9465517 C1313.87931,50.462069 1314.06767,50.0073276 1314.40991,49.6650862 L1314.40991,49.6650862 L1314.74138,49.3336207 L1314.74138,49.1551724 C1314.74138,47.9668103 1315.70819,47 1316.89655,47 L1316.89655,47 Z M1334.13793,49.5862069 L1334.13793,50.4482759 L1328.10345,50.4482759 L1328.10345,49.5862069 L1334.13793,49.5862069 Z" id="Combined-Shape"></path>
            </g>
        </g>
    </g>
</svg>