<?xml version="1.0" encoding="UTF-8"?>
<svg width="20px" height="25px" viewBox="0 0 20 25" version="1.1" xmlns="http://www.w3.org/2000/svg" xmlns:xlink="http://www.w3.org/1999/xlink">
    <title>Combined Shape</title>
    <g id="Design-system-" stroke="none" stroke-width="1" fill="none" fill-rule="evenodd">
        <path d="M18.1640625,3.28603516 C18.9425781,3.96044922 19.4335938,4.95537109 19.4335938,6.0546875 L19.4335938,6.0546875 L19.4335938,21.3378906 C19.4335938,23.3571777 17.7907715,25 15.7714844,25 L15.7714844,25 L3.66210938,25 C1.64282227,25 0,23.3571777 0,21.3378906 L0,21.3378906 L0,6.0546875 C0,4.95537109 0.491015625,3.96044922 1.26953125,3.28603516 L1.26953125,3.28603516 L1.26953125,4.00390625 C1.26953125,6.02319336 2.91235352,7.66601563 4.93164062,7.66601563 L4.93164062,7.66601563 L14.5019531,7.66601563 C16.5212402,7.66601563 18.1640625,6.02319336 18.1640625,4.00390625 L18.1640625,4.00390625 Z M6.2362793,15.8053711 C5.90708008,15.5702637 5.44970703,15.6464844 5.21455078,15.9756348 L5.21455078,15.9756348 L4.83398438,16.5084473 L4.45341797,15.9756836 C4.21826172,15.6465332 3.76083984,15.5703125 3.43168945,15.8054199 C3.10253906,16.0405762 3.02631836,16.497998 3.26142578,16.8271484 L3.26142578,16.8271484 L3.93388672,17.7686035 L3.26142578,18.7100586 C3.02631836,19.039209 3.10253906,19.4966797 3.43168945,19.7317871 C3.56074219,19.8239746 3.70942383,19.8682617 3.85678711,19.8682617 C4.08530273,19.8682617 4.31044922,19.7616211 4.45341797,19.5615234 L4.45341797,19.5615234 L4.83398438,19.0287109 L5.21455078,19.5615234 C5.35751953,19.7616211 5.58266602,19.8682617 5.81118164,19.8682617 C5.95849609,19.8682617 6.10722656,19.8239258 6.2362793,19.7317871 C6.56542969,19.4966309 6.64165039,19.039209 6.40654297,18.7100586 L6.40654297,18.7100586 L5.73408203,17.7685547 L6.40654297,16.8270996 C6.64165039,16.4979492 6.56542969,16.0404785 6.2362793,15.8053711 Z M15.5761719,17.0977051 L11.2792969,17.0977051 C10.8748047,17.0977051 10.546875,17.4256348 10.546875,17.830127 C10.546875,18.2346191 10.8748047,18.5625488 11.2792969,18.5625488 L11.2792969,18.5625488 L15.5761719,18.5625488 C15.9806641,18.5625488 16.3085938,18.2346191 16.3085938,17.830127 C16.3085938,17.4256348 15.9806641,17.0977051 15.5761719,17.0977051 L15.5761719,17.0977051 Z M7.06123047,10.3752441 C6.75078125,10.1160156 6.28891602,10.1574707 6.02958984,10.4679688 L6.02958984,10.4679688 L4.79282227,11.9490234 L4.51220703,11.3889648 C4.33100586,11.0273438 3.8909668,10.8810547 3.52929687,11.0622559 C3.16767578,11.243457 3.02138672,11.6835449 3.20258789,12.045166 L3.20258789,12.045166 L3.98383789,13.6044434 C4.09443359,13.8252441 4.30888672,13.9754395 4.55415039,14.0039063 C4.5824707,14.0071777 4.61064453,14.0087891 4.63876953,14.0087891 C4.8543457,14.0087891 5.06083984,13.9135254 5.20087891,13.7458496 L5.20087891,13.7458496 L7.15400391,11.4069824 C7.41323242,11.0964844 7.37172852,10.6345703 7.06123047,10.3752441 Z M15.5761719,11.3745117 L11.2792969,11.3745117 C10.8748047,11.3745117 10.546875,11.7024414 10.546875,12.1069336 C10.546875,12.5114258 10.8748047,12.8393555 11.2792969,12.8393555 L11.2792969,12.8393555 L15.5761719,12.8393555 C15.9806641,12.8393555 16.3085938,12.5114258 16.3085938,12.1069336 C16.3085938,11.7024414 15.9806641,11.3745117 15.5761719,11.3745117 L15.5761719,11.3745117 Z M14.5019531,0 C15.7135254,0 16.6992188,0.985693359 16.6992188,2.19726562 L16.6992188,2.19726562 L16.6992188,4.00390625 C16.6992188,5.21547852 15.7135254,6.20117188 14.5019531,6.20117188 L14.5019531,6.20117188 L4.93164062,6.20117188 C3.72006836,6.20117188 2.734375,5.21547852 2.734375,4.00390625 L2.734375,4.00390625 L2.734375,2.19726562 C2.734375,0.985693359 3.72006836,0 4.93164062,0 L4.93164062,0 Z" id="Combined-Shape" fill="#9EA6C1" fill-rule="nonzero"></path>
    </g>
</svg>