<?xml version="1.0" encoding="UTF-8"?>
<svg width="25px" height="25px" viewBox="0 0 25 25" version="1.1" xmlns="http://www.w3.org/2000/svg" xmlns:xlink="http://www.w3.org/1999/xlink">
    <title>Combined Shape</title>
    <g id="Design-system-" stroke="none" stroke-width="1" fill="none" fill-rule="evenodd">
        <path d="M12.5,5.15143483e-14 C19.3927765,5.15143483e-14 25,5.60722354 25,12.5 C25,19.3927765 19.3927765,25 12.5,25 C5.60722354,25 -1.77635684e-15,19.3927765 -1.77635684e-15,12.5 C-1.77635684e-15,5.60722354 5.60722354,5.15143483e-14 12.5,5.15143483e-14 Z M18.8354492,8.37821963 C18.4280396,7.97080996 17.7698135,7.97080996 17.3625946,8.37821963 L17.3625946,8.37821963 L11.328125,14.4124985 L8.67919922,11.7635727 C8.27178955,11.356163 7.61356353,11.356163 7.20634463,11.7635727 C6.79893496,12.1707916 6.79893496,12.8292084 7.20634463,13.2364273 L7.20634463,13.2364273 L10.5916977,16.6217804 C10.7948303,16.824913 11.0614776,16.9271469 11.328125,16.9271469 C11.5947724,16.9271469 11.8614197,16.824913 12.0645523,16.6217804 L12.0645523,16.6217804 L18.8354492,9.85107422 C19.2426682,9.44366455 19.2426682,8.78543853 18.8354492,8.37821963 Z" id="Combined-Shape" fill="#9EA6C1" fill-rule="nonzero"></path>
    </g>
</svg>