<?xml version="1.0" encoding="UTF-8"?>
<svg width="23px" height="23px" viewBox="0 0 23 23" version="1.1" xmlns="http://www.w3.org/2000/svg" xmlns:xlink="http://www.w3.org/1999/xlink">
    <title>Combined Shape Copy 18</title>
    <g id="Design-system-" stroke="none" stroke-width="1" fill="none" fill-rule="evenodd">
        <path d="M7.41210938,0 C11.4991465,0 14.8242188,3.36999414 14.8242188,7.45703125 C14.8242188,9.43705273 14.053,11.2986602 12.6533691,12.6982461 C11.5399805,13.8116797 10.3568281,15.6818223 10.6858359,17.2887227 C10.7489961,17.6012891 10.78125,17.920459 10.78125,18.2382812 C10.78125,20.8388535 8.66502539,23 6.06445312,23 C3.46388086,23 1.34765625,20.8388535 1.34765625,18.2382812 C1.34765625,16.4905508 1.01074219,14.7019863 0.6856875,12.9720449 C0.348773438,11.1821777 0,9.33112695 0,7.45703125 C0,3.36999414 3.32507227,0 7.41210938,0 Z M17.1912547,16.2877748 L22.5813913,18.982843 L21.9787395,20.1881466 L16.5886029,17.4930783 L17.1912547,16.2877748 Z M8.29320703,2.82118359 C5.34808398,2.27888672 2.6953125,4.53122461 2.6953125,7.45703125 C2.6953125,9.07907031 3.00522852,10.7274785 3.33423633,12.4739063 C3.44150977,13.0417637 3.54941211,13.6162246 3.64747656,14.1972891 C3.84683984,15.3672793 4.83853516,16.2167969 6.005875,16.2167969 C7.14100586,16.2167969 8.12672656,15.4087422 8.34913477,14.2959824 C8.35061719,14.1028633 9.14258984,11.8904609 7.47594336,9.85689258 C6.62642578,8.8205 5.39260156,8.20192578 4.06206055,8.13678906 C4.04952734,7.90777734 4.04296875,7.68141602 4.04296875,7.45703125 C4.04296875,5.42220508 5.87173828,3.75304297 8.0504043,4.14646875 C9.33817969,4.38271289 10.4278496,5.43226758 10.7003008,6.69964844 C10.9510098,7.86829102 10.6213281,9.01263086 9.79485547,9.83977734 L9.79485547,9.83977734 L10.7476934,10.7926152 C11.8867324,9.65290234 12.3618711,8.01702734 12.0176797,6.41668555 C11.6281172,4.6024707 10.1310957,3.15742383 8.29320703,2.82118359 Z M4.19431055,9.49823633 C5.06754687,9.59234766 5.86967187,10.023373 6.43362109,10.711666 C7.07735156,11.4963613 7.34126758,12.9304473 7.07568945,13.8917754 C6.91742969,14.4643047 6.57139648,14.8691406 6.005875,14.8691406 C5.49789844,14.8691406 5.06489648,14.4914375 4.97671484,13.9716016 C4.87604492,13.382002 4.76679492,12.7996348 4.65821875,12.2231523 C4.48185547,11.286127 4.31079297,10.3773574 4.19431055,9.49823633 Z M23,10.8261719 L23,12.1738281 L16.2167969,12.1738281 L16.2167969,10.8261719 L23,10.8261719 Z M21.9794858,2.81160621 L22.5821375,4.01690979 L17.192001,6.71197805 L16.5893492,5.50667448 L21.9794858,2.81160621 Z" id="Combined-Shape-Copy-18" fill="#FFFFFF" fill-rule="nonzero"></path>
    </g>
</svg>