<?xml version="1.0" encoding="UTF-8"?>
<svg width="25px" height="25px" viewBox="0 0 25 25" version="1.1" xmlns="http://www.w3.org/2000/svg" xmlns:xlink="http://www.w3.org/1999/xlink">
    <title>Shape Copy 4</title>
    <g id="Design-system-" stroke="none" stroke-width="1" fill="none" fill-rule="evenodd">
        <path d="M21.3367814,3.65639302 C16.4608744,-1.21848837 8.53127442,-1.21848837 3.65536744,3.65639302 C-1.21843953,8.53127442 -1.21843953,16.4629256 3.65536744,21.337807 C6.09332093,23.7747349 9.29494186,24.9926372 12.4966116,24.9926372 C15.6982814,24.9926372 18.8988279,23.774686 21.3367814,21.337807 C26.2116628,16.4629744 26.2116628,8.53127442 21.3367814,3.65639302 Z M17.6527465,16.1805977 C18.0600977,16.5879488 18.0600977,17.2464209 17.6527465,17.6537721 C17.4495837,17.8569349 17.1828837,17.9590535 16.9161349,17.9590535 C16.6494349,17.9590535 16.382686,17.8569349 16.1795233,17.6537721 L12.4965628,13.9697372 L8.81462791,17.6526977 C8.61043953,17.8558605 8.3436907,17.9579791 8.07801628,17.9579791 C7.81131628,17.9579791 7.54456744,17.8558605 7.34140465,17.6526977 C6.93405349,17.2453465 6.93405349,16.5858488 7.34140465,16.1795233 L11.0233395,12.4965628 L7.34037907,8.81360233 C6.93302791,8.40625116 6.93302791,7.74675349 7.34037907,7.34042791 C7.74670465,6.93307674 8.40620233,6.93307674 8.81355349,7.34042791 L12.496514,11.0233884 L16.1794744,7.34042791 C16.5868256,6.93307674 17.2452977,6.93307674 17.6526488,7.34042791 C18.06,7.74675349 18.06,8.40625116 17.6526488,8.81360233 L13.9696884,12.4965628 L17.6527465,16.1805977 Z" id="Shape-Copy-4" fill="#9EA6C1" fill-rule="nonzero"></path>
    </g>
</svg>