<?xml version="1.0" encoding="UTF-8"?>
<svg width="21px" height="18px" viewBox="0 0 21 18" version="1.1" xmlns="http://www.w3.org/2000/svg" xmlns:xlink="http://www.w3.org/1999/xlink">
    <title>Combined Shape Copy 4</title>
    <g id="Design-system-" stroke="none" stroke-width="1" fill="none" fill-rule="evenodd">
        <g transform="translate(-915.000000, -2439.000000)" fill="#9EA6C1" id="Group-26-Copy-10">
            <g transform="translate(877.000000, 2195.000000)">
                <g id="Group-7" transform="translate(28.000000, 73.000000)">
                    <path d="M14.6555286,180.717898 C14.4899892,181.175857 14.3995496,181.670039 14.3995496,182.185191 L14.3995496,182.185191 L14.3995496,188.387329 C14.3995496,188.602093 14.4365458,188.808196 14.5038525,189 L14.5038525,189 L11.8188825,189 C10.8159254,189 10,188.175507 10,187.162112 L10,187.162112 L10,183.781045 C10,182.092025 11.3599167,180.717898 13.0314708,180.717898 L13.0314708,180.717898 Z M27.9685703,180.717857 C29.6401243,180.717857 31,182.091983 31,183.780962 L31,183.780962 L31,187.162029 C31,188.175424 30.1840746,188.999917 29.1811175,188.999917 L29.1811175,188.999917 L26.4961885,188.999917 C26.5634952,188.808196 26.6004914,188.602052 26.6004914,188.387288 L26.6004914,188.387288 L26.6004914,182.18515 C26.6004914,181.670039 26.5100518,181.175816 26.3445124,180.717857 L26.3445124,180.717857 Z M22.3564323,179.122044 C24.0279864,179.122044 25.3879031,180.496171 25.3879031,182.185191 L25.3879031,182.185191 L25.3879031,188.387329 C25.3879031,188.72568 25.1164612,188.999959 24.7816089,188.999959 L24.7816089,188.999959 L16.2184321,188.999959 C15.8835799,188.999959 15.6121379,188.725639 15.6121379,188.387329 L15.6121379,188.387329 L15.6121379,182.185191 C15.6121379,180.496171 16.9720546,179.122044 18.6436087,179.122044 L18.6436087,179.122044 Z M14.0982072,174.433618 C15.6016379,174.433618 16.8247262,175.669528 16.8247262,177.188627 C16.8247262,177.65616 16.7085287,178.096671 16.5042705,178.482808 C16.2132641,179.03298 15.742978,179.472207 15.1726136,179.720334 C14.8427243,179.863814 14.4795712,179.943636 14.0982072,179.943636 C12.5947766,179.943636 11.3716882,178.707767 11.3716882,177.188627 C11.3716882,175.669486 12.5947766,174.433618 14.0982072,174.433618 Z M26.9018338,174.433618 C28.4052645,174.433618 29.6283528,175.669486 29.6283528,177.188627 C29.6283528,178.707767 28.4052645,179.943636 26.9018338,179.943636 C26.5204698,179.943636 26.1573167,179.863814 25.8274274,179.720334 C25.257063,179.472248 24.7867769,179.033022 24.4957705,178.482808 C24.2915123,178.096713 24.1753148,177.656201 24.1753148,177.188627 C24.1753148,175.669486 25.3984031,174.433618 26.9018338,174.433618 Z M20.5000205,171 C22.5102822,171 24.1457425,172.652591 24.1457425,174.683858 C24.1457425,176.061632 23.3931863,177.265009 22.2817017,177.896785 C21.7545269,178.196428 21.1467561,178.367675 20.5000205,178.367675 C19.8532849,178.367675 19.2455142,178.196428 18.7183393,177.896785 C17.6068957,177.265009 16.8542985,176.061674 16.8542985,174.683858 C16.8542985,172.65255 18.4897588,171 20.5000205,171 Z" id="Combined-Shape-Copy-4"></path>
                </g>
            </g>
        </g>
    </g>
</svg>