<?xml version="1.0" encoding="UTF-8"?>
<svg width="26px" height="25px" viewBox="0 0 26 25" version="1.1" xmlns="http://www.w3.org/2000/svg" xmlns:xlink="http://www.w3.org/1999/xlink">
    <title>Combined Shape Copy 21</title>
    <g id="Design-system-" stroke="none" stroke-width="1" fill="none" fill-rule="evenodd">
        <path d="M20.6593359,0 C23.6041406,0 26,2.42955426 26,5.41577408 L26,14.3177886 C26,17.2875299 23.6173437,19.7036953 20.6882812,19.7036953 L16.4744531,19.7036953 L13.6789453,24.6137843 C13.5428516,24.8527231 13.2914844,25 13.0192969,25 C12.7471094,25 12.4957422,24.8527231 12.3596484,24.6137843 L9.56414062,19.7036953 L5.31171875,19.7036953 C2.38265625,19.7036953 0,17.2875299 0,14.3177886 L0,5.38642169 C0,2.41616544 2.38265625,0 5.31171875,0 L20.6593359,0 Z M10.3487109,13.7281659 L3.93707031,13.7281659 C3.51609375,13.7281659 3.17535156,14.0742152 3.17535156,14.5005973 C3.17535156,14.9274944 3.51609375,15.2730288 3.93707031,15.2730288 L10.3487109,15.2730288 C10.7696875,15.2730288 11.1104297,14.9274944 11.1104297,14.5005973 C11.1104297,14.0742152 10.7696875,13.7281659 10.3487109,13.7281659 Z M18.8241016,6.55948752 C18.500625,6.57081651 18.013125,6.62746148 17.4672266,6.84940677 C17.0091797,7.03530526 16.6653906,7.274759 16.4348438,7.46374722 C15.6614453,8.14348686 15.1714063,9.14661778 15.1714063,10.2635536 C15.1714063,11.2847079 15.5807031,12.2100807 16.2423828,12.8810662 C16.9035547,13.5520516 17.8171094,13.9676197 18.8241016,13.9676197 C19.2196875,13.9676197 19.6101953,13.9022205 19.9814062,13.7760567 C20.4008594,13.6339293 20.7954297,13.4145588 21.14125,13.1266993 C21.46625,12.8563484 21.5134766,12.3692016 21.2463672,12.0396309 C20.9792578,11.7100601 20.499375,11.6621694 20.174375,11.9330353 C20.0062891,12.0731029 19.8219531,12.184333 19.6264453,12.2651809 C19.5949609,12.2780547 19.5634766,12.2904136 19.5314844,12.3017426 C19.5152344,12.3074071 19.4994922,12.3125566 19.4832422,12.3182211 L19.3236224,12.3633681 L19.3236224,12.3633681 L19.1603369,12.3963655 C19.1053345,12.4051197 19.0497766,12.4117175 18.9937189,12.4161268 L18.8241016,12.4222419 L18.8241016,12.4222419 L18.6362881,12.4144105 L18.6362881,12.4144105 L18.4529597,12.3893672 L18.4529597,12.3893672 L18.2748231,12.3493862 C18.1579531,12.3177474 18.0450156,12.2763039 17.9369531,12.2260443 C17.8470703,12.1838181 17.7602344,12.1354124 17.6774609,12.0818571 C17.6485156,12.0628038 17.6200781,12.0437505 17.5926562,12.0236673 L17.5103906,11.9613578 L17.5103906,11.9613578 C17.0142578,11.565873 16.6948438,10.9520475 16.6948438,10.2635536 C16.6948438,9.07297932 17.6500391,8.10435033 18.8241016,8.10435033 C19.4563281,8.10435033 20.0311719,8.38139573 20.4242187,8.83507045 C20.1291797,8.9020145 19.8894922,9.14455796 19.8387109,9.46537447 C19.7716797,9.88660707 20.0540234,10.2831219 20.4694141,10.3510958 C20.4694141,10.3510958 20.5015891,10.3562866 20.5551897,10.3648884 L20.6877734,10.3861127 L20.6877734,10.3861127 L21.6383984,10.5323597 C21.8227344,10.5323597 21.9994531,10.4643858 22.1370703,10.3433715 C22.1995312,10.2887864 22.2538672,10.2233872 22.2965234,10.1482038 L22.8144922,9.24651891 C22.8495312,9.18575431 22.8754297,9.12189998 22.8921875,9.05650078 C22.9282422,8.92055285 22.9257031,8.77945538 22.8886328,8.64814204 L22.8784766,8.61467002 L22.8784766,8.61467002 C22.8632422,8.56780918 22.8434375,8.52197825 22.8195703,8.47872209 C22.7555859,8.36285738 22.660625,8.2624413 22.5392578,8.19086265 C22.5138672,8.17592898 22.4879687,8.16254017 22.4615625,8.15121117 C22.4255078,8.13473264 22.3889453,8.12185878 22.351875,8.11155969 C22.2188281,8.07551289 22.0801953,8.07808767 21.9512109,8.11464942 L21.8339062,8.15842053 L21.4154687,7.64707094 C21.1082422,7.33346379 20.7461719,7.07753152 20.3470313,6.89317789 L20.1444141,6.80666557 C20.0418359,6.76701409 19.9367188,6.73096729 19.8300781,6.70058499 C19.5096484,6.60840817 19.1719531,6.55948752 18.8241016,6.55948752 Z M10.3487109,10.6291711 L3.93707031,10.6291711 C3.51609375,10.6291711 3.17535156,10.9747054 3.17535156,11.4016025 C3.17535156,11.8279847 3.51609375,12.1740339 3.93707031,12.1740339 L10.3487109,12.1740339 C10.7696875,12.1740339 11.1104297,11.8279847 11.1104297,11.4016025 C11.1104297,10.9747054 10.7696875,10.6291711 10.3487109,10.6291711 Z M10.3487109,7.53017632 L3.93707031,7.53017632 C3.51609375,7.53017632 3.17535156,7.87571064 3.17535156,8.30260773 C3.17535156,8.72898987 3.51609375,9.07503914 3.93707031,9.07503914 L10.3487109,9.07503914 C10.7696875,9.07503914 11.1104297,8.72898987 11.1104297,8.30260773 C11.1104297,7.87571064 10.7696875,7.53017632 10.3487109,7.53017632 Z M8.33167969,4.43066656 L3.93707031,4.43066656 C3.51609375,4.43066656 3.17535156,4.77671583 3.17535156,5.20309796 C3.17535156,5.62999506 3.51609375,5.97552937 3.93707031,5.97552937 L8.33167969,5.97552937 C8.75214844,5.97552937 9.09339844,5.62999506 9.09339844,5.20309796 C9.09339844,4.77671583 8.75214844,4.43066656 8.33167969,4.43066656 Z" id="Combined-Shape-Copy-21" fill="#9EA6C1" fill-rule="nonzero"></path>
    </g>
</svg>