<?xml version="1.0" encoding="UTF-8"?>
<svg width="30px" height="23px" viewBox="0 0 30 23" version="1.1" xmlns="http://www.w3.org/2000/svg" xmlns:xlink="http://www.w3.org/1999/xlink">
    <title>Combined Shape</title>
    <defs>
        <path d="M27.337435,2.61940237e-07 C28.0568377,-0.000294907533 28.6686295,0.248872339 29.1919488,0.73846205 C29.6304358,1.14858058 29.850824,1.67551288 30,2.24221031 L30,20.7591715 C29.9816245,20.8041362 29.9571435,20.8476829 29.9458129,20.8943611 C29.6299074,22.1950295 28.6256555,22.9992541 27.3074355,22.9993723 C19.0852625,23.0000003 10.8631482,23.0006131 2.64097525,22.9987815 C1.16530147,22.998486 0.00206944226,21.828753 0.00154107403,20.3456259 C-0.000513691342,14.4488056 -0.000513691342,8.55192622 0.00154107403,2.65510591 C0.00206944226,1.17174244 1.16565372,0.00537738455 2.64167974,0.002304893 C4.07713883,-0.000649425788 5.51259791,0.00159585649 6.948057,0.00159585649 C13.7445163,0.00159585649 20.5409757,0.00271849763 27.337435,2.61940237e-07 Z M11.4317899,3.54408933 C7.08866166,3.51741248 3.51284155,7.13184426 3.51624416,11.5042952 C3.51965163,15.8632153 7.1292873,19.5020497 11.447817,19.4567305 C15.7503196,19.4115294 19.2957292,15.9653756 19.3356503,11.4881055 C19.2902694,7.12676283 15.8631556,3.57159468 11.4317899,3.54408933 Z M22.0465316,15.9247833 C21.5122926,15.9269695 21.1001654,16.3149897 21.0954271,16.8018024 C21.0906548,17.3025594 21.5035452,17.6873299 22.0610911,17.6918204 C22.6370125,17.6964883 23.2128752,17.692884 23.7888552,17.6928249 C24.3647766,17.6928249 24.941696,17.7126779 25.5160323,17.6827211 C25.7355987,17.6713175 25.9774152,17.587533 26.1594674,17.4631562 C26.4648055,17.2545813 26.5472897,16.8594116 26.4220664,16.515647 C26.2898569,16.1527385 25.9580417,15.9257878 25.5312963,15.9244879 C24.3697081,15.9210018 23.2080611,15.9199382 22.0465316,15.9247833 Z M11.6368965,14.1621835 C13.204389,14.2259968 14.3744898,14.9979603 15.2154172,16.3102687 C13.2497112,18.0422676 9.93525728,18.2517879 7.62922346,16.3187181 C8.58375003,14.8507171 9.901383,14.0915753 11.6368965,14.1621835 Z M15.4319777,6.79926478 C18.034661,9.04874219 18.1510194,12.7149927 16.4482647,15.0316514 C15.8179801,14.1451785 15.0260735,13.454636 14.0336218,12.9726093 C15.456224,11.2172713 15.022962,9.20904353 13.8672445,8.0876432 C12.5813724,6.83985712 10.6591687,6.73946937 9.24883649,7.85425202 C8.45716475,8.48009491 8.02049775,9.31900328 7.92985325,10.3234126 C7.83997194,11.3191953 8.17202202,12.1902466 8.82942952,12.972373 C7.83697785,13.4558768 7.04483645,14.1363746 6.42218383,15.0161707 C5.02171447,13.2998297 4.62978265,9.93757854 6.77208102,7.44431074 C8.98829224,4.86501318 12.8488441,4.56662698 15.4319777,6.79926478 Z M22.0593886,12.3861593 C21.504191,12.3881683 21.0914767,12.7749477 21.0954401,13.2746412 C21.0995196,13.7764027 21.5093573,14.1498286 22.0694863,14.1537873 C22.6346055,14.1578052 23.1997247,14.1546736 23.7648438,14.1546145 C24.3494539,14.1546145 24.9341228,14.158337 25.5186741,14.1536101 C26.0748111,14.1490013 26.4864099,13.7648808 26.4825624,13.2644783 C26.4786018,12.7624804 26.0686468,12.3875183 25.5085764,12.3859821 C24.3588472,12.3826732 23.2091179,12.3821414 22.0593886,12.3861593 Z M11.4476644,8.84744598 C12.4273178,8.85171867 13.1891074,9.6404627 13.1832703,10.6444584 C13.1776007,11.6124705 12.3930913,12.3861475 11.4184867,12.3847314 C10.4344302,12.3834295 9.66594799,11.6002987 9.66864144,10.601798 C9.67134909,9.61546917 10.4545669,8.84309206 11.4476644,8.84744598 Z M23.7997161,8.84664906 L23.7997161,8.84942612 L22.9503936,8.84936703 L22.9503936,8.84936703 C22.6672469,8.84889434 22.3841002,8.84576277 22.1010123,8.84706267 C21.5148171,8.84972155 21.0986977,9.21487536 21.0954512,9.7268588 C21.0922986,10.2333472 21.5170479,10.6145134 22.0952002,10.6156952 C23.2277282,10.6180586 24.3601974,10.6184131 25.4927254,10.615577 C26.0682945,10.6141589 26.4923394,10.2258432 26.4825352,9.71894123 C26.4727898,9.21463901 26.0647721,8.85054876 25.4984787,8.8473581 C24.9322441,8.84416743 24.3659508,8.84664906 23.7997161,8.84664906 Z M22.0696624,5.30938408 C21.5144061,5.3110385 21.095234,5.69657711 21.0954687,6.19319809 C21.0957036,6.69507777 21.5071851,7.07305332 22.0673141,7.07718936 C22.6333726,7.0813845 23.1996072,7.07813475 23.7657245,7.07813475 L23.7657245,7.07535769 L24.6149296,7.07547586 L24.6149296,7.07547586 C24.9078218,7.07588946 25.2006552,7.07925739 25.4934299,7.07760297 C26.0711125,7.07429413 26.4922807,6.69129624 26.4825352,6.18114447 C26.4729659,5.68192368 26.0574336,5.31050673 25.4958369,5.30920683 C24.3537983,5.30648885 23.211701,5.30601616 22.0696624,5.30938408 Z" id="path-1"></path>
    </defs>
    <g id="Design-system-" stroke="none" stroke-width="1" fill="none" fill-rule="evenodd">
        <mask id="mask-2" fill="white">
            <use xlink:href="#path-1"></use>
        </mask>
        <use id="Combined-Shape" fill="#FFFFFF" xlink:href="#path-1"></use>
    </g>
</svg>