<?xml version="1.0" encoding="UTF-8"?>
<svg width="25px" height="25px" viewBox="0 0 25 25" version="1.1" xmlns="http://www.w3.org/2000/svg" xmlns:xlink="http://www.w3.org/1999/xlink">
    <title>Combined Shape</title>
    <g id="Design-system-" stroke="none" stroke-width="1" fill="none" fill-rule="evenodd">
        <g transform="translate(-913.000000, -2276.000000)" fill="#9EA6C1" fill-rule="nonzero" id="Group-26-Copy-10">
            <g transform="translate(877.000000, 2195.000000)">
                <g id="Group-7" transform="translate(28.000000, 73.000000)">
                    <path d="M23.3808594,25.6757812 C23.7853516,25.6757812 24.1132812,26.0037109 24.1132812,26.4082031 L24.1132812,26.4082031 L24.1132812,32.2675781 C24.1132812,32.6720703 23.7853516,33 23.3808594,33 L23.3808594,33 L8.73242188,33 C8.32792969,33 8,32.6720703 8,32.2675781 L8,32.2675781 L8,26.4082031 C8,26.0037109 8.32792969,25.6757812 8.73242188,25.6757812 L8.73242188,25.6757812 Z M11.6621094,28.6054687 C11.2576172,28.6054687 10.9296875,28.9333984 10.9296875,29.3378906 C10.9296875,29.7423828 11.2576172,30.0703125 11.6621094,30.0703125 C12.0666016,30.0703125 12.3945312,29.7423828 12.3945312,29.3378906 C12.3945312,28.9333984 12.0666016,28.6054687 11.6621094,28.6054687 Z M26.3105469,16.8378906 C26.7150391,16.8378906 27.0429688,17.1658203 27.0429688,17.5703125 L27.0429688,17.5703125 L27.0429688,23.4296875 C27.0429688,23.8341797 26.7150391,24.1621094 26.3105469,24.1621094 L26.3105469,24.1621094 L11.6621094,24.1621094 C11.2576172,24.1621094 10.9296875,23.8341797 10.9296875,23.4296875 L10.9296875,23.4296875 L10.9296875,17.5703125 C10.9296875,17.1658203 11.2576172,16.8378906 11.6621094,16.8378906 L11.6621094,16.8378906 Z M28.2933105,9.72817383 C28.5793457,10.014209 28.5793457,10.4779297 28.2933105,10.7639648 L28.078,10.978 L30.8027344,10.9785156 C32.0143066,10.9785156 33,11.964209 33,13.1757812 L33,19.0351562 C33,20.2467285 32.0143066,21.2324219 30.8027344,21.2324219 L29.2402344,21.2324219 C28.8357422,21.2324219 28.5078125,20.9044922 28.5078125,20.5 C28.5078125,20.0955078 28.8357422,19.7675781 29.2402344,19.7675781 L30.8027344,19.7675781 C31.2065918,19.7675781 31.5351562,19.4390137 31.5351562,19.0351562 L31.5351562,13.1757812 C31.5351562,12.7719238 31.2065918,12.4433594 30.8027344,12.4433594 L28.079,12.443 L28.2933105,12.6579102 C28.5793457,12.9439453 28.5793457,13.407666 28.2933105,13.6937012 C28.150293,13.8367187 27.9628418,13.9082031 27.7753906,13.9082031 C27.5879395,13.9082031 27.4004883,13.8367187 27.2575195,13.6936523 L25.7926758,12.2288086 L25.7307383,12.158493 C25.729021,12.1562715 25.7273161,12.1540398 25.7256238,12.1517981 L25.7926758,12.2288086 C25.758784,12.1949168 25.728908,12.1585304 25.7030477,12.1202405 C25.6917236,12.1034271 25.6809283,12.0859099 25.6708695,12.0679249 C25.6649968,12.057452 25.6595653,12.0471438 25.6543967,12.0367383 C25.6446198,12.0171015 25.635555,11.996609 25.627427,11.9756495 C25.622604,11.9630605 25.6181083,11.9504071 25.613971,11.9376626 C25.6078204,11.9190188 25.6023824,11.8996654 25.5977367,11.8800059 C25.5950736,11.8682982 25.5926879,11.8569748 25.5905723,11.845611 C25.5868595,11.8261796 25.5839684,11.8061229 25.5819066,11.7858212 C25.5800069,11.7666864 25.5787945,11.7473263 25.5783464,11.7279518 C25.5781908,11.7223827 25.578125,11.7166678 25.578125,11.7109375 L25.5783239,11.6948766 C25.5787546,11.6750881 25.5799826,11.6553139 25.582008,11.635606 L25.578125,11.7109375 C25.578125,11.6630371 25.5827237,11.6162104 25.5915038,11.5708748 C25.5933673,11.5616533 25.5954488,11.5519356 25.5977296,11.5422553 C25.6023824,11.5222096 25.6078204,11.5028562 25.6140151,11.4838445 C25.6181083,11.4714191 25.622604,11.4587656 25.6274581,11.4462189 C25.635555,11.425266 25.6446198,11.4047735 25.6545701,11.3847995 C25.6595653,11.3746824 25.6649968,11.3643742 25.6706911,11.3541732 C25.6809283,11.3359651 25.6917236,11.3184479 25.7032146,11.3014393 C25.7102767,11.2908821 25.7178195,11.2803272 25.7256762,11.269934 C25.7461729,11.2428562 25.7685782,11.2171151 25.7926514,11.193042 L27.2575195,9.72817383 C27.5435059,9.44213867 28.0072754,9.44213867 28.2933105,9.72817383 Z M14.5917969,19.7675781 C14.1873047,19.7675781 13.859375,20.0955078 13.859375,20.5 C13.859375,20.9044922 14.1873047,21.2324219 14.5917969,21.2324219 C14.9962891,21.2324219 15.3242188,20.9044922 15.3242188,20.5 C15.3242188,20.0955078 14.9962891,19.7675781 14.5917969,19.7675781 Z M23.3808594,8 C23.7853516,8 24.1132812,8.32792969 24.1132812,8.73242188 L24.1132812,8.73242188 L24.1132812,14.5917969 C24.1132812,14.9962891 23.7853516,15.3242188 23.3808594,15.3242188 L23.3808594,15.3242188 L8.73242188,15.3242188 C8.32792969,15.3242188 8,14.9962891 8,14.5917969 L8,14.5917969 L8,8.73242188 C8,8.32792969 8.32792969,8 8.73242188,8 L8.73242188,8 Z M11.6621094,10.9296875 C11.2576172,10.9296875 10.9296875,11.2576172 10.9296875,11.6621094 C10.9296875,12.0666016 11.2576172,12.3945312 11.6621094,12.3945312 C12.0666016,12.3945312 12.3945312,12.0666016 12.3945312,11.6621094 C12.3945312,11.2576172 12.0666016,10.9296875 11.6621094,10.9296875 Z" id="Combined-Shape"></path>
                </g>
            </g>
        </g>
    </g>
</svg>