<?xml version="1.0" encoding="UTF-8"?>
<svg width="26px" height="23px" viewBox="0 0 26 23" version="1.1" xmlns="http://www.w3.org/2000/svg" xmlns:xlink="http://www.w3.org/1999/xlink">
    <title>Shape Copy</title>
    <g id="Design-system-" stroke="none" stroke-width="1" fill="none" fill-rule="evenodd">
        <path d="M25.1875,0 L0.8125,0 C0.364,0 0,0.366357143 0,0.821428571 L0,2.46428571 C0,2.91771429 0.364,3.28571429 0.8125,3.28571429 L1.625,3.28571429 L1.625,16.4285714 C1.625,17.3354286 2.354625,18.0714286 3.25,18.0714286 L12.1875,18.0714286 L12.1875,20.0954286 L10.112375,21.4951429 C9.738625,21.7465 9.637875,22.2574286 9.8865,22.6336429 C10.1335,23.0098571 10.635625,23.1117143 11.012625,22.862 L13,21.5230714 L14.987375,22.862 C15.1255,22.9556429 15.2815,23 15.4375,23 C15.699125,23 15.955875,22.8718571 16.1135,22.6336429 C16.362125,22.2574286 16.261375,21.7465 15.887625,21.4951429 L13.8125,20.0954286 L13.8125,18.0714286 L22.75,18.0714286 C23.647,18.0714286 24.375,17.3354286 24.375,16.4285714 L24.375,3.28571429 L25.1875,3.28571429 C25.636,3.28571429 26,2.91771429 26,2.46428571 L26,0.821428571 C26,0.366357143 25.636,0 25.1875,0 Z M6.5,14.7857143 L4.875,14.7857143 L4.875,9.85714286 L6.5,9.85714286 L6.5,14.7857143 Z M9.75,14.7857143 L8.125,14.7857143 L8.125,6.57142857 L9.75,6.57142857 L9.75,14.7857143 Z M17.0625,14.7857143 C14.821625,14.7857143 13,12.9424286 13,10.6785714 C13,8.69564286 14.3975,7.03635714 16.25,6.65521429 L16.25,11.5 L21.042125,11.5 C20.665125,13.3728571 19.0255,14.7857143 17.0625,14.7857143 Z M17.875,9.85714286 L17.875,6.65521429 C19.46425,6.98214286 20.71875,8.25042857 21.042125,9.85714286 L17.875,9.85714286 Z" id="Shape-Copy" fill="#FFFFFF" fill-rule="nonzero"></path>
    </g>
</svg>