<?xml version="1.0" encoding="UTF-8"?>
<svg width="25px" height="25px" viewBox="0 0 25 25" version="1.1" xmlns="http://www.w3.org/2000/svg" xmlns:xlink="http://www.w3.org/1999/xlink">
    <title>Combined Shape</title>
    <g id="Design-system-" stroke="none" stroke-width="1" fill="none" fill-rule="evenodd">
        <g transform="translate(-1182.000000, -1539.000000)" fill="#ADB5C6" fill-rule="nonzero" id="Group-8">
            <g transform="translate(19.000000, 1492.000000)">
                <g id="Group-7" transform="translate(1163.000000, 46.000000)">
                    <path d="M9.63541667,9.33333333 C10.640625,9.33333333 11.4583333,10.1510417 11.4583333,11.15625 L11.4583333,11.15625 L11.4583333,24.1770833 C11.4583333,25.1822917 10.640625,26 9.63541667,26 L9.63541667,26 L1.82291667,26 C0.817708333,26 1.77635684e-15,25.1822917 1.77635684e-15,24.1770833 L1.77635684e-15,24.1770833 L1.77635684e-15,11.15625 C1.77635684e-15,10.1510417 0.817708333,9.33333333 1.82291667,9.33333333 L1.82291667,9.33333333 Z M23.1770833,18.7083333 C24.1822917,18.7083333 25,19.5260417 25,20.53125 L25,20.53125 L25,24.1770833 C25,25.1822917 24.1822917,26 23.1770833,26 L23.1770833,26 L15.3645833,26 C14.359375,26 13.5416667,25.1822917 13.5416667,24.1770833 L13.5416667,24.1770833 L13.5416667,20.53125 C13.5416667,19.5260417 14.359375,18.7083333 15.3645833,18.7083333 L15.3645833,18.7083333 Z M23.1770833,9.33333333 C24.1822917,9.33333333 25,10.1510417 25,11.15625 L25,11.15625 L25,14.8020833 C25,15.8072917 24.1822917,16.625 23.1770833,16.625 L23.1770833,16.625 L15.3645833,16.625 C14.359375,16.625 13.5416667,15.8072917 13.5416667,14.8020833 L13.5416667,14.8020833 L13.5416667,11.15625 C13.5416667,10.1510417 14.359375,9.33333333 15.3645833,9.33333333 L15.3645833,9.33333333 Z M23.1770833,1 C24.1822917,1 25,1.81770833 25,2.82291667 L25,2.82291667 L25,5.42708333 C25,6.43229167 24.1822917,7.25 23.1770833,7.25 L23.1770833,7.25 L1.82291667,7.25 C0.817708333,7.25 0,6.43229167 0,5.42708333 L0,5.42708333 L0,2.82291667 C0,1.81770833 0.817708333,1 1.82291667,1 L1.82291667,1 Z" id="Combined-Shape"></path>
                </g>
            </g>
        </g>
    </g>
</svg>