<?xml version="1.0" encoding="UTF-8"?>
<svg width="21px" height="25px" viewBox="0 0 21 25" version="1.1" xmlns="http://www.w3.org/2000/svg" xmlns:xlink="http://www.w3.org/1999/xlink">
    <title>Combined Shape Copy 13</title>
    <g id="Design-system-" stroke="none" stroke-width="1" fill="none" fill-rule="evenodd">
        <path d="M5.53527078,12.0759043 C5.79221609,12.0759043 6.04090385,12.1806169 6.52022788,12.4909402 C6.81999742,12.684916 7.16566379,12.9061668 7.54762517,13.1485889 C7.87696836,13.3572513 8.32364615,13.5527531 8.874792,13.7295629 C9.41364743,13.9025581 9.95999232,13.9902955 10.4994239,13.9902955 C11.0388555,13.9902955 11.5853924,13.9025581 12.1236718,13.7295629 C12.6753937,13.5525623 13.1220715,13.3570606 13.4517988,13.1483982 C13.8374088,12.9036873 14.1828831,12.6824365 14.4782358,12.4911309 C14.958136,12.1808077 15.2066317,12.076095 15.463577,12.076095 C16.1178467,12.076095 16.7294841,12.1859574 17.2813981,12.4028213 C17.8352324,12.6208296 18.3141723,12.9197089 18.7053514,13.2914483 C19.0794393,13.6467846 19.4128153,14.078605 19.6966458,14.5745119 C19.9701063,15.0522991 20.1913328,15.5508762 20.353988,16.0557476 C20.5114582,16.5442158 20.6430035,17.0786509 20.7451671,17.6439846 C20.8463705,18.2051223 20.9151197,18.7365056 20.9491102,19.2236387 C20.9827167,19.6997093 21,20.1965698 21,20.7002968 C21,22.005867 20.5823198,23.0625301 19.7584816,23.8411038 C18.9448214,24.6101409 17.8688388,25 16.5599155,25 L16.5599155,25 L4.44008449,25 C3.13116117,25 2.05479452,24.6099502 1.24132634,23.8411038 C0.417680207,23.0619579 0,22.0054855 0,20.7004875 C0,20.1990494 0.0168992447,19.7025703 0.0503136849,19.224211 C0.0843041988,18.7359334 0.153053374,18.2043594 0.254256818,17.6439846 C0.356420433,17.0786509 0.487965678,16.5444065 0.645243888,16.0559383 C0.808091154,15.5506855 1.02931763,15.0522991 1.30258611,14.5745119 C1.58603253,14.0787958 1.91960057,13.6471661 2.29349637,13.291639 C2.68505956,12.9195181 3.16419152,12.6206389 3.7176418,12.4030121 C4.26936372,12.1859574 4.88080912,12.0759043 5.53527078,12.0759043 Z M10.3411855,-9.23705556e-14 C12.0067213,-9.23705556e-14 13.4489182,0.593371645 14.6276405,1.76371184 C15.8063628,2.93462419 16.4037895,4.36703211 16.4037895,6.02107223 C16.4037895,7.67568456 15.8063628,9.10790171 14.6278326,10.2784326 C13.4493023,11.4491543 12.0069133,12.0425259 10.3411855,12.0425259 C8.67584175,12.0425259 7.23364487,11.4489635 6.05492253,10.2786233 C4.87620024,9.10809243 4.27858149,7.67568456 4.27858149,6.02107223 C4.27858149,4.36684139 4.87620024,2.93443347 6.0547305,1.76390256 C7.23326077,0.593371645 8.67526567,-9.23705556e-14 10.3411855,-9.23705556e-14 Z" id="Combined-Shape-Copy-13" fill="#9EA6C1"></path>
    </g>
</svg>