<?xml version="1.0" encoding="UTF-8"?>
<svg width="34px" height="26px" viewBox="0 0 34 26" version="1.1" xmlns="http://www.w3.org/2000/svg" xmlns:xlink="http://www.w3.org/1999/xlink">
    <title>Combined Shape Copy 3</title>
    <g id="Design-system-" stroke="none" stroke-width="1" fill="none" fill-rule="evenodd">
        <g transform="translate(-1250.000000, -1538.000000)" fill="#ADB5C6" id="Group-8">
            <g transform="translate(19.000000, 1492.000000)">
                <g id="Group-7" transform="translate(1163.000000, 46.000000)">
                    <path d="M102,23.3153222 L102,26 L68,26 L68,23.3153222 L102,23.3153222 Z M97.8541958,20.266343 C98.4873359,20.27515 98.9574609,20.7553984 98.9754728,21.369283 C98.9929549,21.9706081 98.5397822,22.5188617 97.9185996,22.5397687 C96.9050155,22.5740776 95.8895394,22.5490351 94.8501483,22.5490351 L94.8501483,20.2626671 C95.8717546,20.2626671 96.8631644,20.2525582 97.8541958,20.266343 Z M75.1549518,20.2626211 L75.1549518,22.540029 C74.0989112,22.540029 73.0561902,22.5749506 72.0172532,22.5267037 C71.4114337,22.4985214 70.991863,21.9246127 71.0268272,21.335311 C71.0623212,20.7368195 71.5296461,20.2743382 72.1487096,20.2662205 C73.1417844,20.2530483 74.1351619,20.2626211 75.1549518,20.2626211 Z M92.3533167,10.700778 C93.4792102,10.7009312 94.0657313,11.3030221 94.0661097,12.4498438 L94.0682623,22.1215138 L94.0682623,22.1215138 L94.0682623,22.5365139 L94.0682623,22.5365139 L75.934867,22.5365139 L75.934867,22.1088011 C75.934867,18.8849111 75.9346616,15.6610977 75.9352671,12.4371311 C75.9355698,11.2945981 76.5213341,10.7037647 77.6606229,10.7032286 C82.5581875,10.7010843 87.4557521,10.7000122 92.3533167,10.700778 Z M75.1591218,14.510914 L75.1591218,19.4762882 L72.5879647,19.4762882 C72.3859744,17.846691 73.6127495,15.3746871 75.1591218,14.510914 Z M94.8463114,14.4449536 C96.5273943,15.7283983 97.381142,17.3720102 97.4801316,19.4666158 L94.8463114,19.4666158 L94.8463114,14.4449536 Z M85.021122,13.7646107 C83.5564086,13.7569525 82.3660356,14.9395382 82.3572567,16.4109161 C82.3485535,17.8814517 83.5245472,19.0926026 84.9802547,19.1123609 L85.1451119,19.1091687 C86.5097549,19.0378586 87.6366137,17.8589907 87.643454,16.4533351 C87.6507193,14.9726141 86.4800232,13.7722613 85.0211371,13.7646031 L85.021122,13.7646107 Z M85.0013089,14.5292784 C86.049933,14.5295083 86.8951288,15.3854699 86.8902096,16.4421541 C86.885366,17.4863554 86.0069466,18.3644494 84.9815564,18.3500519 C83.9451926,18.3356544 83.1004508,17.4556458 83.1129381,16.4036332 C83.1253496,15.3631079 83.9656262,14.5290488 85.0013089,14.5292784 Z M84.9981304,3.86497797e-07 C87.7192855,-0.0010709935 89.9156745,2.22540961 89.910847,4.98007913 C89.9060632,7.70342645 87.6961274,9.93588048 85.003428,9.93764394 C82.299755,9.93940327 80.0845216,7.68864604 80.090326,4.94584679 C80.0961763,2.21285009 82.2909004,0.00107331416 84.9981304,3.86497797e-07 Z" id="Combined-Shape-Copy-3"></path>
                </g>
            </g>
        </g>
    </g>
</svg>