<?xml version="1.0" encoding="UTF-8"?>
<svg width="86px" height="72px" viewBox="0 0 86 72" version="1.1" xmlns="http://www.w3.org/2000/svg" xmlns:xlink="http://www.w3.org/1999/xlink">
    <title>9EFDC071-E5E1-4AAE-AA88-E017140173A0</title>
    <g id="Avatar-colors" stroke="none" stroke-width="1" fill="none" fill-rule="evenodd">
        <g id="Empty-status" transform="translate(-677.000000, -667.000000)" fill="#ABB5C8" fill-rule="nonzero">
            <g id="Group-6" transform="translate(677.000000, 667.000000)">
                <path d="M85.6703333,37.1916 L71.4695833,6.2784 C69.7173333,2.466 65.88675,0 61.705,0 L24.295,0 C20.11325,0 16.2826667,2.466 14.534,6.2748 L0.329666667,37.1916 C0.111083333,37.6632 0,38.178 0,38.7 L0,61.2 C0,67.1544 4.82316667,72 10.75,72 L75.25,72 C81.1768333,72 86,67.1544 86,61.2 L86,38.7 C86,38.178 85.8889167,37.6632 85.6703333,37.1916 Z M21.0413333,9.2916 C21.6254167,8.0208 22.9010833,7.2 24.295,7.2 L61.705,7.2 C63.0989167,7.2 64.3745833,8.0208 64.9586667,9.2916 L77.228,36 L69.8499167,36 C67.0620833,36 64.6469167,37.8036 63.84425,40.4892 L59.9993333,53.3592 C59.88825,53.7408 59.54425,54 59.1465,54 L26.8535,54 C26.45575,54 26.11175,53.7408 25.9970833,53.3556 L22.1521667,40.4892 C21.3495,37.8036 18.9379167,36 16.1465,36 L8.772,36 L21.0413333,9.2916 Z" id="Shape"></path>
                <path d="M33.3428948,40.3109798 L30.4893522,44.2379868 C29.9252936,45.0147287 30.0960549,46.1019294 30.8712495,46.6669407 C31.1802349,46.8917557 31.5379074,47 31.8913049,47 C32.4282887,47 32.95696,46.7518708 33.2965827,46.2848741 L36.1726877,42.3267022 C38.0610371,43.3351582 40.2146721,43.9089718 42.5005937,43.9089718 C49.9442671,43.9089718 56,37.8427725 56,30.3862884 C56,26.5848923 54.4239609,23.1477204 51.895316,20.6885532 L55.4753661,15.7618925 C56.0394247,14.9851506 55.8684259,13.8981878 55.0937063,13.3329386 C54.3163742,12.7674515 53.2317192,12.9401665 52.6690856,13.715481 L49.1156353,18.6057431 C47.1584114,17.4983209 44.9026521,16.8636051 42.4998813,16.8636051 C35.0559704,16.8636051 29,22.9298044 29,30.3860505 C29,34.3059206 30.6743634,37.839204 33.3428948,40.3109798 Z M52.5282491,30.3860505 C52.5282491,35.9253025 48.0300303,40.4315948 42.4996438,40.4315948 C40.9779918,40.4315948 39.5401768,40.0802172 38.2472358,39.4707187 L49.8202929,23.5431093 C51.4948938,25.3387747 52.5282491,27.7415597 52.5282491,30.3860505 Z M42.4998813,20.3409821 C44.1388574,20.3409821 45.6830716,20.7449354 47.0501122,21.4462631 L35.4024805,37.4761693 C33.5920306,35.6579034 32.4708009,33.1509185 32.4708009,30.3865263 C32.4715134,24.8472744 36.9699697,20.3409821 42.4998813,20.3409821 Z" id="Shape"></path>
            </g>
        </g>
    </g>
</svg>