<?xml version="1.0" encoding="UTF-8"?>
<svg width="103px" height="103px" viewBox="0 0 103 103" version="1.1" xmlns="http://www.w3.org/2000/svg" xmlns:xlink="http://www.w3.org/1999/xlink">
    <title>A8328CBC-408A-442C-BBFE-33A53B11E217</title>
    <defs>
        <path d="M268.2,17.36608 L268.2,102.20048 L166,102.20048 L166,17.38148 L166.932,17.38148 L166.932,17.38148 C183.6604,17.38068 200.3888,17.38108 217.1172,17.37868 C234.1448,17.37608 251.1724,17.37048 268.2,17.36608 Z M255.2204,93.48608 C229.8056,93.48388 204.391,93.48408 178.9762,93.48448 C178.677,93.48448 178.3764,93.47448 178.0786,93.49648 C177.4008,93.54628 176.9062,93.84968 176.910768,94.58948 C176.9154,95.32148 177.3738,95.64868 178.0802,95.65768 C178.413,95.66168 178.7456,95.66288 179.0782,95.66288 L198.089225,95.663055 L198.089225,95.663055 L217.1004,95.66308 C229.8076,95.66308 242.5148,95.66328 255.2222,95.66228 C255.5878,95.66228 256.0148,95.76708 256.3042,95.61508 C256.6904,95.41248 257.2418,94.99368 257.228061,94.69068 C257.2096,94.29448 256.774,93.81848 256.3922,93.57108 C256.1038,93.38428 255.6182,93.48628 255.2204,93.48608 Z M242.339,84.81968 L226.4246,84.818905 L226.4246,84.818905 L210.5102,84.81888 C199.9338,84.81888 189.3574,84.81888 178.781,84.81928 C178.4818,84.81948 178.1168,84.71888 177.898,84.85348 C177.5192,85.08628 176.9608,85.47708 176.972028,85.78308 C176.9874,86.18228 177.4348,86.62088 177.794,86.92808 C177.973,87.08128 178.3698,86.99208 178.668,86.99208 C199.9204,86.99388 221.1728,86.99408 242.4254,86.99028 C242.7878,86.99028 243.2334,87.05888 243.4918,86.88048 C243.8248,86.65088 244.2396,86.17068 244.1954,85.85868 C244.1422,85.48448 243.691,85.09668 243.319,84.86248 C243.0786,84.71088 242.6716,84.81968 242.339,84.81968 Z M238.1468,76.09108 C234.1566,76.08648 230.1664,76.08968 226.176,76.08968 C210.3148,76.08928 194.4534,76.08908 178.5922,76.08568 L178.350938,76.08771 C177.632812,76.10301 176.9842,76.22766 176.9068,77.17608 C176.8452,77.92928 177.3866,78.26488 178.5568,78.27188 L178.8561,78.27243 L178.8561,78.27243 L208.3842,78.27208 C218.26,78.27208 228.136,78.27228 238.012,78.27108 C238.3442,78.27108 238.7414,78.36768 238.993,78.22128 C239.3492,78.01428 239.8326,77.62268 239.8326,77.30988 C239.8326,76.92808 239.4498,76.47268 239.1134,76.19188 C238.9064,76.01888 238.4766,76.09148 238.1468,76.09108 Z M242.3158,67.43268 L210.589,67.43208 C199.9802,67.43208 189.3716,67.43188 178.7628,67.43308 C178.4304,67.43308 178.03,67.33348 177.7824,67.48208 C177.43,67.69348 176.9852,68.07688 176.96,68.41528 C176.9344,68.75768 177.3096,69.21108 177.628,69.46928 C177.8428,69.64328 178.2638,69.59208 178.5926,69.59228 C199.8766,69.59708 221.1606,69.59748 242.4446,69.59468 C242.7752,69.59468 243.1944,69.67008 243.4156,69.50288 C243.7652,69.23868 244.2092,68.78648 244.190978,68.43648 C244.1718,68.09208 243.6726,67.69988 243.2966,67.47428 C243.0502,67.32628 242.6482,67.43268 242.3158,67.43268 Z M217.195,23.9366091 C206.9514,23.90868 198.625,32.17208 198.609378,42.38168 C198.5938,52.53788 206.8966,60.86488 217.0546,60.8809035 C227.2622,60.89708 235.6202,52.55048 235.590082,42.37108 C235.5598,32.22068 227.3212,23.96428 217.195,23.9366091 Z M217.06256,26.1138703 C226.06916,26.0969 233.39376,33.3721 233.421437,42.3623 C233.44876,51.3297 226.11716,58.6847 217.13656,58.6993213 C208.14556,58.7137 200.80376,51.4161 200.778294,42.4389 C200.75296,33.4629 208.06656,26.1309 217.06256,26.1138703 Z M209.79836,35.1573 C209.33556,35.6447 209.41516,36.1905 209.84636,36.6775 C210.08836,36.9507 210.35976,37.1979 210.61856,37.4561 C212.25716,39.0927 213.89616,40.7291 215.57156,42.4019 C213.68456,44.2835 211.87676,46.0929 210.06056,47.8941 C209.49796,48.4519 209.19536,49.0739 209.86056,49.6979 C210.47336,50.2729 211.07196,49.9803 211.59976,49.4479 C213.07396,47.9609 214.57516,46.5001 216.02776,44.9923 C216.19636,44.8173 216.32731,44.60605 216.448085,44.385 L216.684209,43.9376704 C216.724016,43.86355 216.764727,43.7903 216.80736,43.7189 C217.70596,44.4821 218.14736,44.9773 218.61396,45.4479 C219.99436,46.8407 221.37876,48.2295 222.77436,49.6071 C223.26936,50.0957 223.85936,50.1767 224.36956,49.6773 C224.88376,49.1741 224.79036,48.5983 224.31836,48.0847 C224.09376,47.8403 223.85416,47.6091 223.61916,47.3745 C221.97576,45.7325 220.33176,44.0913 218.53956,42.3013 C218.87716,42.0387 219.19176,41.8407 219.44976,41.5853 C221.05596,39.9951 222.65056,38.3935 224.24616,36.7925 C224.76056,36.2763 224.92316,35.6899 224.36916,35.1291 C223.85896,34.6125 223.29056,34.7189 222.77796,35.1877 C222.60636,35.3447 222.44476,35.5127 222.28116,35.6779 C220.59816,37.3771 218.91556,39.0769 217.07336,40.9377 C216.31276,40.1367 215.66436,39.4307 214.99076,38.7495 C213.79896,37.5443 212.60236,36.3433 211.38616,35.1627 C210.88496,34.6759 210.29676,34.6325 209.79836,35.1573 Z M268.19992,-2.84217094e-14 L268.19992,15.1704 C267.93452,15.1818 267.66932,15.203 267.40392,15.203 C233.94312,15.2046 200.48232,15.2046 167.02132,15.2022 C166.70232,15.2022 166.38332,15.1686 166.06732,15.1508 L166.06732,-2.84217094e-14 L268.19992,-2.84217094e-14 Z M175.70612,5.499 L171.48572,5.499 L171.48572,9.734 L175.70612,9.734 L175.70612,5.499 Z M193.13392,5.503 L188.89372,5.503 L188.89372,9.7154 L193.13392,9.7154 L193.13392,5.503 Z M184.42992,5.4774 L180.22332,5.4774 L180.22332,9.7134 L184.42992,9.7134 L184.42992,5.4774 Z" id="path-1"></path>
    </defs>
    <g id="Avatar-colors" stroke="none" stroke-width="1" fill="none" fill-rule="evenodd">
        <g id="Empty-status" transform="translate(-660.000000, -253.000000)">
            <g id="Group-2" transform="translate(494.000000, 253.000000)">
                <mask id="mask-2" fill="white">
                    <use xlink:href="#path-1"></use>
                </mask>
                <use id="Combined-Shape" fill="#ABB5C8" xlink:href="#path-1"></use>
            </g>
        </g>
    </g>
</svg>