<?xml version="1.0" encoding="UTF-8"?>
<svg width="23px" height="23px" viewBox="0 0 23 23" version="1.1" xmlns="http://www.w3.org/2000/svg" xmlns:xlink="http://www.w3.org/1999/xlink">
    <!-- Generator: Sketch 52.6 (67491) - http://www.bohemiancoding.com/sketch -->
    <title>application question selected</title>
    <desc>Created with Sketch.</desc>
    <g id="Oifa-seeker" stroke="none" stroke-width="1" fill="none" fill-rule="evenodd">
        <g id="application-question-selected" fill="#F9BF58">
            <g id="Group-28-Copy">
                <g id="Group-71">
                    <g id="Group-3">
                        <g id="online-recruitment-(1)">
                            <path d="M5.76455469,9.46189453 C4.8084375,9.61718945 4.08789062,10.5364707 4.08789062,11.5991875 L4.08789062,12.1289062 L8.13085937,12.1289062 L8.13085937,11.4550781 C8.13085937,10.2445684 7.05210547,9.2484707 5.76455469,9.46189453 Z" id="Path"></path>
                            <path d="M23,17.5195312 L23,0 L0,0 L0,17.5195312 L10.8261719,17.5195312 L10.8261719,18.9570312 L10.1523438,18.9570312 C8.29468945,18.9570312 6.78320312,20.4685176 6.78320312,22.3261719 L6.78320312,23 L16.2167969,23 L16.2167969,22.3261719 C16.2167969,20.4685176 14.7053105,18.9570312 12.8476562,18.9570312 L12.1738281,18.9570312 L12.1738281,17.5195312 L23,17.5195312 Z M20.2597656,13.4765625 L17.5644531,13.4765625 L17.5644531,12.1289062 L20.2597656,12.1289062 L20.2597656,13.4765625 Z M14.8691406,4.04296875 L20.2597656,4.04296875 L20.2597656,5.390625 L14.8691406,5.390625 L14.8691406,4.04296875 Z M10.8261719,4.04296875 L13.5214844,4.04296875 L13.5214844,5.390625 L10.8261719,5.390625 L10.8261719,4.04296875 Z M10.8261719,6.73828125 L20.2597656,6.73828125 L20.2597656,8.0859375 L10.8261719,8.0859375 L10.8261719,6.73828125 Z M10.8261719,9.43359375 L20.2597656,9.43359375 L20.2597656,10.78125 L10.8261719,10.78125 L10.8261719,9.43359375 Z M10.8261719,12.1289062 L16.2167969,12.1289062 L16.2167969,13.4765625 L10.8261719,13.4765625 L10.8261719,12.1289062 Z M6.109375,4.04296875 C7.22406641,4.04296875 8.13085938,4.94976172 8.13085938,6.06445312 C8.13085938,7.17914453 7.22406641,8.0859375 6.109375,8.0859375 C4.99468359,8.0859375 4.08789062,7.17914453 4.08789062,6.06445312 C4.08789062,4.94976172 4.99468359,4.04296875 6.109375,4.04296875 Z M9.47851562,13.4765625 L2.74023438,13.4765625 L2.74023438,11.5991875 C2.74023438,6.89375586 9.47851562,7.04235742 9.47851562,11.4550781 L9.47851562,13.4765625 Z" id="Shape" fill-rule="nonzero"></path>
                            <circle id="Oval" cx="6.109375" cy="6.06445312" r="1"></circle>
                        </g>
                    </g>
                </g>
            </g>
        </g>
    </g>
</svg>