<?xml version="1.0" encoding="UTF-8"?>
<svg width="21px" height="25px" viewBox="0 0 21 25" version="1.1" xmlns="http://www.w3.org/2000/svg" xmlns:xlink="http://www.w3.org/1999/xlink">
    <!-- Generator: Sketch 52.6 (67491) - http://www.bohemiancoding.com/sketch -->
    <title>challenge information</title>
    <desc>Created with Sketch.</desc>
    <g id="Oifa-seeker" stroke="none" stroke-width="1" fill="inherit" fill-rule="evenodd">
        <g id="challenge-information" transform="translate(-1.000000, 0.000000)">
            <g id="Group-63">
                <g id="Group-70">
                    <g id="Group-9-Copy">
                        <path d="M7.4536,14.3886364 L8.8176,17.1611818 C8.89224286,17.3108788 9.03524286,17.4156667 9.20102857,17.4400909 L12.2519571,17.8844545 C12.6691714,17.9451212 12.8357429,18.4596061 12.5340286,18.7550606 L10.3261714,20.9122727 C10.2059571,21.0296667 10.1517429,21.1990606 10.1800286,21.3645152 L10.7009571,24.4112424 C10.7724571,24.8280303 10.3356,25.1455455 9.96238571,24.9485758 L7.23438571,23.510697 C7.08588571,23.4319091 6.9091,23.4319091 6.7606,23.510697 L4.03181429,24.9485758 C3.6586,25.1455455 3.22252857,24.8280303 3.29324286,24.4112424 L3.81495714,21.3645152 C3.84324286,21.1990606 3.78824286,21.0296667 3.66802857,20.9122727 L1.46095714,18.7550606 C1.15845714,18.4596061 1.32502857,17.9451212 1.74224286,17.8844545 L4.79317143,17.4400909 C4.95895714,17.4156667 5.10274286,17.3108788 5.1766,17.1611818 L6.5406,14.3886364 C6.7276,14.0096667 7.2666,14.0096667 7.4536,14.3886364" id="Fill-521" fill="inherit"></path>
                        <path d="M6.98822143,14.6636848 L5.65957857,17.3999879 C5.50872143,17.7096242 5.21329286,17.9262909 4.87072143,17.9751394 L1.81979286,18.419503 L4.04415,20.525503 C4.29165,20.7658061 4.40479286,21.1148364 4.34586429,21.4559879 L3.82493571,24.5019273 L6.50972143,23.0317455 C6.81536429,22.8702303 7.17993571,22.8710182 7.48557857,23.0317455 L10.2127929,24.4696242 L9.64865,21.4552 C9.58972143,21.1148364 9.70207857,20.7673818 9.94879286,20.5262909 L12.1574357,18.3682909 L9.12300714,17.9751394 C8.78279286,17.9262909 8.48657857,17.7104121 8.33415,17.3999879 L6.98822143,14.6636848 Z M3.79429286,25.5490182 C3.57822143,25.5490182 3.36293571,25.4804727 3.17907857,25.3473212 C2.85457857,25.1109576 2.69429286,24.7170182 2.76186429,24.3191394 L3.28279286,21.2724121 L1.08436429,19.1419879 C0.797578571,18.861503 0.695435714,18.4486545 0.818792857,18.0657455 C0.942935714,17.6820485 1.26743571,17.4070788 1.66422143,17.3487758 L4.71593571,16.9044121 L6.05715,14.1492 C6.41465,13.4251394 7.57986429,13.4267152 7.93736429,14.1484121 L7.93736429,14.1492 L9.30057857,16.9209576 L12.3295071,17.3487758 C12.7270786,17.4070788 13.0515786,17.6820485 13.1757214,18.0657455 C13.2990786,18.4486545 13.1969357,18.861503 12.9093643,19.1427758 L10.7022929,21.2992 L11.23265,24.3191394 C11.3002214,24.7170182 11.1399357,25.1109576 10.8154357,25.3473212 C10.49015,25.5836848 10.06665,25.6128364 9.71150714,25.4276848 L6.98350714,23.9890182 L4.28300714,25.4276848 C4.12822143,25.5088364 3.96086429,25.5490182 3.79429286,25.5490182 Z" id="Fill-522"></path>
                        <path d="M17.9284286,9.48669091 L12.6885,16.2963273" id="Fill-523" fill="#4B49AC"></path>
                        <path d="M12.6874,16.836103 C12.5726857,16.836103 12.4571857,16.7998606 12.3589714,16.7234364 C12.1232571,16.5406485 12.0800429,16.2018606 12.2615429,15.965497 L17.5006857,9.15586061 C17.6821857,8.92107273 18.0216143,8.87537576 18.2573286,9.05816364 C18.4930429,9.24095152 18.5362571,9.58052727 18.3547571,9.81689091 L13.1148286,16.6257394 C13.0095429,16.7636182 12.8492571,16.836103 12.6874,16.836103" id="Fill-524" fill="inherit"></path>
                        <path d="M21.1049929,5.52539394 L19.30885,7.85987879" id="Fill-525" fill="#4B49AC"></path>
                        <path d="M19.3083786,8.40028485 C19.1936643,8.40028485 19.0773786,8.36404242 18.97995,8.28761818 C18.7442357,8.1048303 18.7002357,7.76604242 18.8825214,7.52967879 L20.6778786,5.19519394 C20.8601643,4.9588303 21.1988071,4.91392121 21.4345214,5.09749697 C21.66945,5.28028485 21.7142357,5.61907273 21.53195,5.85622424 L19.7358071,8.18992121 C19.6297357,8.3278 19.4702357,8.40028485 19.3083786,8.40028485" id="Fill-526" fill="inherit"></path>
                        <path d="M19.4982857,3.12212727 L10.7729286,14.4604909" id="Fill-527" fill="#4B49AC"></path>
                        <path d="M10.7722214,15.0007394 C10.6575071,15.0007394 10.5412214,14.964497 10.4437929,14.8880727 C10.2080786,14.7052848 10.1640786,14.366497 10.3463643,14.1301333 L19.0709357,2.7917697 C19.25165,2.55698182 19.5910786,2.51128485 19.8275786,2.69407273 C20.0625071,2.87686061 20.1065071,3.21564848 19.9250071,3.4528 L11.19965,14.7903758 C11.0935786,14.9282545 10.9340786,15.0007394 10.7722214,15.0007394" id="Fill-528" fill="inherit"></path>
                        <path d="M11.7854,9.12395152 L9.4589,12.1478303" id="Fill-529" fill="#4B49AC"></path>
                        <path d="M9.45819286,12.6882364 C9.34347857,12.6882364 9.22719286,12.6519939 9.12897857,12.5755697 C8.89405,12.3927818 8.85005,12.0539939 9.03155,11.8176303 L11.3588357,8.79375152 C11.5403357,8.55817576 11.8781929,8.51326667 12.1154786,8.69605455 C12.3511929,8.87884242 12.3944071,9.2176303 12.2129071,9.45478182 L9.88562143,12.4778727 C9.77955,12.6157515 9.62005,12.6882364 9.45819286,12.6882364" id="Fill-530" fill="inherit"></path>
                        <path d="M18.5161429,0.589175758 L13.3249286,7.33578182" id="Fill-531" fill="#4B49AC"></path>
                        <path d="M13.3238286,7.87555758 C13.2091143,7.87555758 13.0936143,7.83931515 12.9954,7.76289091 C12.7596857,7.58010303 12.7164714,7.24131515 12.8979714,7.00495152 L18.0891857,0.259133333 C18.2691143,0.0235575758 18.6093286,-0.0221393939 18.8458286,0.160648485 C19.0807571,0.343436364 19.1247571,0.683012121 18.9432571,0.919375758 L13.7512571,7.66519394 C13.6459714,7.80307273 13.4856857,7.87555758 13.3238286,7.87555758" id="Fill-532" fill="inherit"></path>
                    </g>
                </g>
            </g>
        </g>
    </g>
</svg>