<?xml version="1.0" encoding="UTF-8"?>
<svg width="17px" height="18px" viewBox="0 0 17 18" version="1.1" xmlns="http://www.w3.org/2000/svg" xmlns:xlink="http://www.w3.org/1999/xlink">
    <!-- Generator: Sketch 52.6 (67491) - http://www.bohemiancoding.com/sketch -->
    <title>copyright selected</title>
    <desc>Created with Sketch.</desc>
    <g id="Oifa-seeker" stroke="none" stroke-width="1" fill="none" fill-rule="evenodd">
        <path d="M16.4176415,12.1224264 C15.8301298,11.751685 15.0494463,11.9210599 14.6736239,12.5007848 C13.45399,14.3832979 11.3765161,15.5071554 9.11639167,15.5071554 C5.48189947,15.5071554 2.52512195,12.5880343 2.52512195,9 C2.52512195,5.41196565 5.48189947,2.49284461 9.11639167,2.49284461 C11.3094601,2.49284461 13.3529852,3.56573724 14.5830001,5.36280122 C14.9732717,5.93297018 15.7578833,6.08309482 16.3359959,5.69767335 C16.9136877,5.31239036 17.0656159,4.53753116 16.6752039,3.96708522 C14.9752357,1.48296556 12.1493437,0 9.11639167,0 C4.08957528,0 0,4.03730034 0,9 C0,13.9626997 4.08957528,18 9.11639167,18 C12.2420718,18 15.1148189,16.4464038 16.8008989,13.8440126 C17.1765809,13.2641492 17.0050129,12.4934447 16.4176415,12.1224264 Z" id="copyright-selected" fill="#F9BF58"></path>
    </g>
</svg>