<?xml version="1.0" encoding="UTF-8"?>
<svg width="20px" height="25px" viewBox="0 0 20 25" version="1.1" xmlns="http://www.w3.org/2000/svg" xmlns:xlink="http://www.w3.org/1999/xlink">
    <!-- Generator: Sketch 52.6 (67491) - http://www.bohemiancoding.com/sketch -->
    <title>details </title>
    <desc>Created with Sketch.</desc>
    <g id="Oifa-seeker" stroke="none" stroke-width="1" fill="inherit" fill-rule="evenodd">
        <g id="details-">
            <path d="M14.91528,20.9006452 L7.31528,20.9006452 C5.15048,20.9006452 3.39608,19.1320968 3.39608,16.9506452 L3.39608,5.10709677 C3.39608,2.92564516 5.15048,1.15709677 7.31528,1.15709677 L14.91528,1.15709677 C17.08008,1.15709677 18.83368,2.92564516 18.83368,5.10709677 L18.83368,16.9506452 C18.83368,19.1320968 17.08008,20.9006452 14.91528,20.9006452" id="Fill-467" fill="inherit"></path>
            <path d="M7.31528,1.85370968 C5.53528,1.85370968 4.08728,3.3133871 4.08728,5.10693548 L4.08728,16.9496774 C4.08728,18.7432258 5.53528,20.2037097 7.31528,20.2037097 L14.91528,20.2037097 C16.69528,20.2037097 18.14328,18.7432258 18.14328,16.9496774 L18.14328,5.10693548 C18.14328,3.3133871 16.69528,1.85370968 14.91528,1.85370968 L7.31528,1.85370968 Z M14.91528,21.5964516 L7.31528,21.5964516 C4.77288,21.5964516 2.70408,19.5125806 2.70408,16.9496774 L2.70408,5.10693548 C2.70408,2.54403226 4.77288,0.459354839 7.31528,0.459354839 L14.91528,0.459354839 C17.45768,0.459354839 19.52568,2.54403226 19.52568,5.10693548 L19.52568,16.9496774 C19.52568,19.5125806 17.45768,21.5964516 14.91528,21.5964516 Z" id="Fill-468" fill="#243160"></path>
            <path d="M12.58208,23.8767742 L4.98208,23.8767742 C2.81728,23.8767742 1.06288,22.1082258 1.06288,19.9259677 L1.06288,8.08322581 C1.06288,5.90177419 2.81728,4.13322581 4.98208,4.13322581 L12.58208,4.13322581 C14.74608,4.13322581 16.50048,5.90177419 16.50048,8.08322581 L16.50048,19.9259677 C16.50048,22.1082258 14.74608,23.8767742 12.58208,23.8767742" id="Fill-469" fill="inherit"></path>
            <path d="M4.98136,4.8291129 C3.20216,4.8291129 1.75416,6.28959677 1.75416,8.08314516 L1.75416,19.9258871 C1.75416,21.7202419 3.20216,23.1799194 4.98136,23.1799194 L12.58216,23.1799194 C14.36136,23.1799194 15.80936,21.7202419 15.80936,19.9258871 L15.80936,8.08314516 C15.80936,6.28959677 14.36136,4.8291129 12.58216,4.8291129 L4.98136,4.8291129 Z M12.58216,24.5734677 L4.98136,24.5734677 C2.43896,24.5734677 0.37176,22.4879839 0.37176,19.9258871 L0.37176,8.08314516 C0.37176,5.52024194 2.43896,3.43556452 4.98136,3.43556452 L12.58216,3.43556452 C15.12456,3.43556452 17.19176,5.52024194 17.19176,8.08314516 L17.19176,19.9258871 C17.19176,22.4879839 15.12456,24.5734677 12.58216,24.5734677 Z" id="Fill-470" fill="#243160"></path>
            <polyline id="Fill-471" fill="inherit" points="1.72504 20.9439516 5.35464 17.2858871 8.36424 20.3197581 12.90024 15.7471774"></polyline>
            <path d="M1.72504,21.6409677 C1.54824,21.6409677 1.37144,21.5724194 1.23624,21.436129 C0.96584,21.1643548 0.96584,20.7232258 1.23624,20.4506452 L4.86504,16.7925806 C5.13544,16.52 5.57304,16.52 5.84264,16.7925806 L8.36424,19.3345161 L12.41144,15.253871 C12.68184,14.9820968 13.11944,14.9820968 13.38984,15.253871 C13.65944,15.5264516 13.65944,15.9675806 13.38984,16.2393548 L8.85304,20.8127419 C8.58264,21.0853226 8.14504,21.0853226 7.87544,20.8127419 L5.35384,18.2708065 L2.21384,21.436129 C2.07864,21.5724194 1.90184,21.6409677 1.72504,21.6409677" id="Fill-472" fill="#202E78"></path>
            <path d="M4.404,7.96516129 L12.3536,7.96516129" id="Fill-473" fill="inherit"></path>
            <path d="M12.3532,8.66209677 L4.4036,8.66209677 C4.0212,8.66209677 3.7124,8.35 3.7124,7.96532258 C3.7124,7.57983871 4.0212,7.26774194 4.4036,7.26774194 L12.3532,7.26774194 C12.7356,7.26774194 13.0444,7.57983871 13.0444,7.96532258 C13.0444,8.35 12.7356,8.66209677 12.3532,8.66209677" id="Fill-474" fill="#202E78"></path>
            <path d="M4.404,10.8396774 L8.7816,10.8396774" id="Fill-475" fill="inherit"></path>
            <path d="M8.78208,11.5366935 L4.40368,11.5366935 C4.02128,11.5366935 3.71248,11.2245968 3.71248,10.8399194 C3.71248,10.4544355 4.02128,10.1423387 4.40368,10.1423387 L8.78208,10.1423387 C9.16448,10.1423387 9.47328,10.4544355 9.47328,10.8399194 C9.47328,11.2245968 9.16448,11.5366935 8.78208,11.5366935" id="Fill-476" fill="#202E78"></path>
        </g>
    </g>
</svg>