<?xml version="1.0" encoding="UTF-8"?>
<svg width="13px" height="21px" viewBox="0 0 13 21" version="1.1" xmlns="http://www.w3.org/2000/svg" xmlns:xlink="http://www.w3.org/1999/xlink">
    <!-- Generator: Sketch 52.6 (67491) - http://www.bohemiancoding.com/sketch -->
    <title>Q:A</title>
    <desc>Created with Sketch.</desc>
    <g id="Oifa-seeker" stroke="none" stroke-width="1" fill="inherit" fill-rule="evenodd">
        <path d="M6.5,21 C5.11928813,21 4,19.8982008 4,18.5390625 C4,17.1799242 5.11928813,16.078125 6.5,16.078125 C7.88071187,16.078125 9,17.1799242 9,18.5390625 C9,19.8982008 7.88071187,21 6.5,21 Z M6.5,0 C10.084125,1.16573418e-15 13,2.87031445 13,6.3984375 C13,8.27912695 12.1643333,10.0566621 10.7073333,11.2754004 L9,12.7042617 L9,14.8476562 L4,14.8476562 L4,10.4285508 L7.46916667,7.52517773 C7.80654167,7.24294922 8,6.83230078 8,6.3984375 C8,5.58423633 7.327125,4.921875 6.5,4.921875 C5.672875,4.921875 5,5.58423633 5,6.3984375 L5,7.01367188 L0,7.01367188 L0,6.3984375 C0,2.87031445 2.915875,0 6.5,0 Z" id="Q:A" fill="inherit"></path>
    </g>
</svg>