<?xml version="1.0" encoding="UTF-8"?>
<svg width="20px" height="22px" viewBox="0 0 20 22" version="1.1" xmlns="http://www.w3.org/2000/svg" xmlns:xlink="http://www.w3.org/1999/xlink">
    <!-- Generator: Sketch 52.6 (67491) - http://www.bohemiancoding.com/sketch -->
    <title>incentive</title>
    <desc>Created with Sketch.</desc>
    <g id="Oifa-seeker" stroke="none" stroke-width="1" fill="inherit" fill-rule="evenodd">
        <g id="incentive">
            <polygon id="Fill-499" fill="inherit" points="8.2784 17.8663571 12.1664 17.8663571 12.1664 13.2840714 8.2784 13.2840714"></polygon>
            <path d="M8.9696,17.1882857 L11.4752,17.1882857 L11.4752,13.9637143 L8.9696,13.9637143 L8.9696,17.1882857 Z M12.1664,18.546 L8.2776,18.546 C7.896,18.546 7.5864,18.2427143 7.5864,17.8671429 L7.5864,13.2840714 C7.5864,12.9085 7.896,12.6052143 8.2776,12.6052143 L12.1664,12.6052143 C12.548,12.6052143 12.8576,12.9085 12.8576,13.2840714 L12.8576,17.8671429 C12.8576,18.2427143 12.548,18.546 12.1664,18.546 Z" id="Fill-500" fill="#243160"></path>
            <path d="M4.36064,1.31803571 L15.53584,1.31803571 L15.53584,10.2555357 C15.53584,12.3808929 13.78144,14.1039643 11.61744,14.1039643 L8.27984,14.1039643 C6.11504,14.1039643 4.36064,12.3808929 4.36064,10.2555357 L4.36064,1.31803571 Z" id="Fill-501" fill="inherit"></path>
            <path d="M5.0516,1.99712857 L5.0516,10.2557714 C5.0516,12.0032 6.4996,13.4253429 8.2796,13.4253429 L11.6172,13.4253429 C13.3972,13.4253429 14.8452,12.0032 14.8452,10.2557714 L14.8452,1.99712857 L5.0516,1.99712857 Z M11.6172,14.7830571 L8.2796,14.7830571 C5.7372,14.7830571 3.6692,12.7519857 3.6692,10.2557714 L3.6692,1.31827143 C3.6692,0.9427 3.978,0.639414286 4.3604,0.639414286 L15.5356,0.639414286 C15.918,0.639414286 16.2276,0.9427 16.2276,1.31827143 L16.2276,10.2557714 C16.2276,12.7519857 14.1596,14.7830571 11.6172,14.7830571 Z" id="Fill-502" fill="#243160"></path>
            <path d="M4.36064,2.78897143 L1.96784,2.78897143 C1.31664,2.78897143 0.78944,3.2714 0.78944,3.86775714 L0.78944,9.2224 C0.78944,9.50682857 0.97664,9.76375714 1.26304,9.87454286 L4.36064,11.0617571 L4.36064,2.78897143 Z" id="Fill-503" fill="inherit"></path>
            <path d="M1.96808,3.44425714 C1.68568,3.44425714 1.45608,3.6344 1.45608,3.86775714 L1.45608,9.2224 L3.69368,10.0969 L3.69368,3.44425714 L1.96808,3.44425714 Z M4.36088,11.7170429 C4.27848,11.7170429 4.19688,11.7029 4.11768,11.6730429 L1.02008,10.4850429 C0.47448,10.2736857 0.12248,9.77868571 0.12248,9.2224 L0.12248,3.86775714 C0.12248,2.91154286 0.95048,2.13368571 1.96808,2.13368571 L4.36088,2.13368571 C4.72888,2.13368571 5.02728,2.42675714 5.02728,2.78897143 L5.02728,11.0625429 C5.02728,11.2786143 4.91848,11.4813286 4.73608,11.6039 C4.62408,11.6785429 4.49288,11.7170429 4.36088,11.7170429 Z" id="Fill-504" fill="#243160"></path>
            <path d="M15.536,2.78897143 L17.9288,2.78897143 C18.58,2.78897143 19.108,3.2714 19.108,3.86775714 L19.108,9.2224 C19.108,9.50682857 18.9208,9.76375714 18.6336,9.87454286 L15.536,11.0617571 L15.536,2.78897143 Z" id="Fill-505" fill="inherit"></path>
            <path d="M16.2032,3.44425714 L16.2032,10.1031857 L18.3912,9.26325714 L18.4408,3.86775714 C18.4408,3.6344 18.2112,3.44425714 17.9296,3.44425714 L16.2032,3.44425714 Z M15.536,11.7170429 C15.4032,11.7170429 15.272,11.6785429 15.16,11.6039 C14.9776,11.4813286 14.8696,11.2786143 14.8696,11.0625429 L14.8696,2.78897143 C14.8696,2.42675714 15.168,2.13368571 15.536,2.13368571 L17.9296,2.13368571 C18.9472,2.13368571 19.7744,2.91154286 19.7744,3.86775714 L19.7744,9.2224 C19.7744,9.77868571 19.4232,10.2736857 18.8776,10.4842571 L15.7784,11.6730429 C15.7,11.7029 15.6176,11.7170429 15.536,11.7170429 Z" id="Fill-506" fill="#243160"></path>
            <polygon id="Fill-507" fill="inherit" points="16.0548 20.5542857 4.238 20.5542857 5.8588 16.8763571 14.4996 16.8763571"></polygon>
            <path d="M5.29072,19.8751929 L15.01872,19.8751929 L14.03792,17.5557643 L6.31232,17.5557643 L5.29072,19.8751929 Z M16.05472,21.2336929 L4.23872,21.2336929 C4.00592,21.2336929 3.78832,21.1174071 3.66032,20.9264786 C3.53312,20.7363357 3.51152,20.4943357 3.60352,20.28455 L5.22432,16.6066214 C5.33312,16.3583357 5.58272,16.1972643 5.85792,16.1972643 L14.49952,16.1972643 C14.77872,16.1972643 15.03072,16.3622643 15.13792,16.61605 L16.69312,20.2931929 C16.78192,20.5029786 16.75792,20.7426214 16.62992,20.9311929 C16.50112,21.1197643 16.28512,21.2336929 16.05472,21.2336929 Z" id="Fill-508" fill="#243160"></path>
        </g>
    </g>
</svg>