<?xml version="1.0" encoding="UTF-8"?>
<svg width="22px" height="18px" viewBox="0 0 22 18" version="1.1" xmlns="http://www.w3.org/2000/svg" xmlns:xlink="http://www.w3.org/1999/xlink">
    <!-- Generator: Sketch 52.6 (67491) - http://www.bohemiancoding.com/sketch -->
    <title>target audience</title>
    <desc>Created with Sketch.</desc>
    <g id="Oifa-seeker" stroke="none" stroke-width="1" fill="inherit" fill-rule="evenodd">
        <g id="target-audience" fill="inherit">
            <path d="M18.41675,3.92735455 C18.41675,5.58417273 17.1273929,6.92680909 15.5363214,6.92680909 C13.9460357,6.92680909 12.6558929,5.58417273 12.6558929,3.92735455 C12.6558929,2.27135455 13.9460357,0.9279 15.5363214,0.9279 C17.1273929,0.9279 18.41675,2.27135455 18.41675,3.92735455" id="Fill-445"></path>
            <path d="M15.5367143,1.45840909 C14.2292857,1.45840909 13.1646429,2.56622727 13.1646429,3.92768182 C13.1646429,5.28913636 14.2292857,6.39695455 15.5367143,6.39695455 C16.8441429,6.39695455 17.9072143,5.28913636 17.9072143,3.92768182 C17.9072143,2.56622727 16.8441429,1.45840909 15.5367143,1.45840909 M15.5367143,7.45731818 C13.6675,7.45731818 12.1471429,5.87331818 12.1471429,3.92768182 C12.1471429,1.98122727 13.6675,0.398045455 15.5367143,0.398045455 C17.4051429,0.398045455 18.9255,1.98122727 18.9255,3.92768182 C18.9255,5.87331818 17.4051429,7.45731818 15.5367143,7.45731818" id="Fill-446"></path>
            <path d="M9.65265714,14.8109727 L9.65265714,13.1017909 C9.65265714,10.8886091 11.3757286,9.09433636 13.5010857,9.09433636 L17.2316571,9.09433636 C19.3578,9.09433636 21.0808714,10.8886091 21.0808714,13.1017909 L21.0808714,14.8109727" id="Fill-447"></path>
            <path d="M21.0812643,15.3415636 C20.7999786,15.3415636 20.5721214,15.1042909 20.5721214,14.8113818 L20.5721214,13.1022 C20.5721214,11.1843818 19.0737643,9.62410909 17.23205,9.62410909 L13.5022643,9.62410909 C11.6597643,9.62410909 10.1614071,11.1843818 10.1614071,13.1022 L10.1614071,14.8113818 C10.1614071,15.1042909 9.93355,15.3415636 9.65226429,15.3415636 C9.37097857,15.3415636 9.14312143,15.1042909 9.14312143,14.8113818 L9.14312143,13.1022 C9.14312143,10.6002 11.0979786,8.56374545 13.5022643,8.56374545 L17.23205,8.56374545 C19.63555,8.56374545 21.5904071,10.6002 21.5904071,13.1022 L21.5904071,14.8113818 C21.5904071,15.1042909 21.36255,15.3415636 21.0812643,15.3415636" id="Fill-448"></path>
            <path d="M9.35534286,6.24526364 C9.35534286,7.90208182 8.06598571,9.24471818 6.47491429,9.24471818 C4.88462857,9.24471818 3.59448571,7.90208182 3.59448571,6.24526364 C3.59448571,4.58926364 4.88462857,3.24580909 6.47491429,3.24580909 C8.06598571,3.24580909 9.35534286,4.58926364 9.35534286,6.24526364" id="Fill-449"></path>
            <path d="M6.47530714,3.77590909 C5.16787857,3.77590909 4.10323571,4.88372727 4.10323571,6.246 C4.10323571,7.60745455 5.16787857,8.71445455 6.47530714,8.71445455 C7.78273571,8.71445455 8.84659286,7.60745455 8.84659286,6.246 C8.84659286,4.88372727 7.78273571,3.77590909 6.47530714,3.77590909 M6.47530714,9.77481818 C4.60609286,9.77481818 3.08573571,8.19163636 3.08573571,6.246 C3.08573571,4.29954545 4.60609286,2.71554545 6.47530714,2.71554545 C8.34452143,2.71554545 9.86409286,4.29954545 9.86409286,6.246 C9.86409286,8.19163636 8.34452143,9.77481818 6.47530714,9.77481818" id="Fill-450"></path>
            <path d="M0.590857143,17.1288818 L0.590857143,15.4197 C0.590857143,13.2065182 2.31392857,11.4122455 4.44007143,11.4122455 L8.17064286,11.4122455 C10.296,11.4122455 12.0190714,13.2065182 12.0190714,15.4197 L12.0190714,17.1288818" id="Fill-451"></path>
            <path d="M12.0194643,17.6594727 C11.7381786,17.6594727 11.5103214,17.4213818 11.5103214,17.1292909 L11.5103214,15.4201091 C11.5103214,13.5022909 10.0119643,11.9420182 8.17103571,11.9420182 L4.43967857,11.9420182 C2.59875,11.9420182 1.10039286,13.5022909 1.10039286,15.4201091 L1.10039286,17.1292909 C1.10039286,17.4213818 0.87175,17.6594727 0.59125,17.6594727 C0.309964286,17.6594727 0.0821071429,17.4213818 0.0821071429,17.1292909 L0.0821071429,15.4201091 C0.0821071429,12.9181091 2.03696429,10.8816545 4.43967857,10.8816545 L8.17103571,10.8816545 C10.57375,10.8816545 12.5286071,12.9181091 12.5286071,15.4201091 L12.5286071,17.1292909 C12.5286071,17.4213818 12.2999643,17.6594727 12.0194643,17.6594727" id="Fill-452"></path>
        </g>
    </g>
</svg>