<?xml version="1.0" encoding="UTF-8"?>
<svg width="23px" height="26px" viewBox="0 0 23 26" version="1.1" xmlns="http://www.w3.org/2000/svg" xmlns:xlink="http://www.w3.org/1999/xlink">
    <!-- Generator: Sketch 52.6 (67491) - http://www.bohemiancoding.com/sketch -->
    <title>timeline selected</title>
    <desc>Created with Sketch.</desc>
    <g id="Oifa-seeker" stroke="none" stroke-width="1" fill="none" fill-rule="evenodd">
        <g id="timeline-selected">
            <g id="Group-28-Copy">
                <g id="Group-73">
                    <g id="Group-8">
                        <g id="Group-Copy-2">
                            <path d="M2.66673103,21.8303879 C2.28762759,21.8303879 1.98148966,21.5254788 1.98148966,21.1496606 L1.98148966,4.57190303 C1.98148966,4.19529697 2.28762759,3.89038788 2.66673103,3.89038788 C3.04583448,3.89038788 3.35197241,4.19529697 3.35197241,4.57190303 L3.35197241,21.1496606 C3.35197241,21.5254788 3.04583448,21.8303879 2.66673103,21.8303879" id="Fill-533" fill="#FBCA67"></path>
                            <path d="M4.60420345,4.57166667 C4.60420345,5.63530303 3.73654828,6.49645455 2.66665172,6.49645455 C1.59596207,6.49645455 0.728306897,5.63530303 0.728306897,4.57166667 C0.728306897,3.50881818 1.59596207,2.64687879 2.66665172,2.64687879 C3.73654828,2.64687879 4.60420345,3.50881818 4.60420345,4.57166667" id="Fill-534" fill="#FBCA67"></path>
                            <path d="M2.66673103,3.15829091 C1.88155862,3.15829091 1.24231724,3.79253333 1.24231724,4.57174545 C1.24231724,5.35174545 1.88155862,5.98598788 2.66673103,5.98598788 C3.45190345,5.98598788 4.08955862,5.35174545 4.08955862,4.57174545 C4.08955862,3.79253333 3.45190345,3.15829091 2.66673103,3.15829091 M2.66673103,7.00786667 C1.31448966,7.00786667 0.214455172,5.91429091 0.214455172,4.57174545 C0.214455172,3.22841212 1.31448966,2.13641212 2.66673103,2.13641212 C4.01897241,2.13641212 5.11821379,3.22841212 5.11821379,4.57174545 C5.11821379,5.91429091 4.01897241,7.00786667 2.66673103,7.00786667" id="Fill-535" fill="#FBCA67"></path>
                            <path d="M4.60420345,12.8605455 C4.60420345,13.9241818 3.73654828,14.7853333 2.66665172,14.7853333 C1.59596207,14.7853333 0.728306897,13.9241818 0.728306897,12.8605455 C0.728306897,11.7969091 1.59596207,10.9357576 2.66665172,10.9357576 C3.73654828,10.9357576 4.60420345,11.7969091 4.60420345,12.8605455" id="Fill-536" fill="#FBCA67"></path>
                            <path d="M2.66673103,11.4455939 C1.88155862,11.4455939 1.24231724,12.0798364 1.24231724,12.8606242 C1.24231724,13.6406242 1.88155862,14.2756545 2.66673103,14.2756545 C3.45190345,14.2756545 4.08955862,13.6406242 4.08955862,12.8606242 C4.08955862,12.0798364 3.45190345,11.4455939 2.66673103,11.4455939 M2.66673103,15.2967455 C1.31448966,15.2967455 0.214455172,14.2031697 0.214455172,12.8606242 C0.214455172,11.5172909 1.31448966,10.424503 2.66673103,10.424503 C4.01897241,10.424503 5.11821379,11.5172909 5.11821379,12.8606242 C5.11821379,14.2031697 4.01897241,15.2967455 2.66673103,15.2967455" id="Fill-537" fill="#FBCA67"></path>
                            <path d="M4.60420345,21.149503 C4.60420345,22.2123515 3.73654828,23.0742909 2.66665172,23.0742909 C1.59596207,23.0742909 0.728306897,22.2123515 0.728306897,21.149503 C0.728306897,20.0858667 1.59596207,19.2239273 2.66665172,19.2239273 C3.73654828,19.2239273 4.60420345,20.0858667 4.60420345,21.149503" id="Fill-538" fill="#FBCA67"></path>
                            <path d="M2.66673103,19.7345515 C1.88155862,19.7345515 1.24231724,20.3695818 1.24231724,21.1495818 C1.24231724,21.9287939 1.88155862,22.5630364 2.66673103,22.5630364 C3.45190345,22.5630364 4.08955862,21.9287939 4.08955862,21.1495818 C4.08955862,20.3695818 3.45190345,19.7345515 2.66673103,19.7345515 M2.66673103,23.5841273 C1.31448966,23.5841273 0.214455172,22.4929152 0.214455172,21.1495818 C0.214455172,19.8070364 1.31448966,18.7134606 2.66673103,18.7134606 C4.01897241,18.7134606 5.11821379,19.8070364 5.11821379,21.1495818 C5.11821379,22.4929152 4.01897241,23.5841273 2.66673103,23.5841273" id="Fill-539" fill="#FBCA67"></path>
                            <path d="M17.0269793,6.73526061 L8.71446207,6.73526061 C7.69373793,6.73526061 6.86653103,5.91350303 6.86653103,4.90029091 L6.86653103,2.78641212 C6.86653103,1.7732 7.69373793,0.951442424 8.71446207,0.951442424 L17.0269793,0.951442424 C18.0477034,0.951442424 18.8749103,1.7732 18.8749103,2.78641212 L18.8749103,4.90029091 C18.8749103,5.91350303 18.0477034,6.73526061 17.0269793,6.73526061" id="Fill-540" fill="#FBCA67"></path>
                            <path d="M8.71454138,1.46096364 C7.97933448,1.46096364 7.38054138,2.05581212 7.38054138,2.78696364 L7.38054138,4.89926667 C7.38054138,5.6296303 7.97933448,6.22447879 8.71454138,6.22447879 L17.0270586,6.22447879 C17.7630586,6.22447879 18.3610586,5.6296303 18.3610586,4.89926667 L18.3610586,2.78696364 C18.3610586,2.05581212 17.7630586,1.46096364 17.0270586,1.46096364 L8.71454138,1.46096364 Z M17.0270586,7.2455697 L8.71454138,7.2455697 C7.41226552,7.2455697 6.35267931,6.19375152 6.35267931,4.89926667 L6.35267931,2.78696364 C6.35267931,1.49326667 7.41226552,0.439872727 8.71454138,0.439872727 L17.0270586,0.439872727 C18.3293345,0.439872727 19.3889207,1.49326667 19.3889207,2.78696364 L19.3889207,4.89926667 C19.3889207,6.19375152 18.3293345,7.2455697 17.0270586,7.2455697 Z" id="Fill-541" fill="#243160"></path>
                            <path d="M8.85238276,3.09289697 L11.6734517,3.09289697" id="Fill-542" fill="#FFFFFF"></path>
                            <path d="M11.6732138,3.43294545 L8.85214483,3.43294545 C8.66338621,3.43294545 8.50952414,3.28088485 8.50952414,3.09258182 C8.50952414,2.90506667 8.66338621,2.75221818 8.85214483,2.75221818 L11.6732138,2.75221818 C11.8627655,2.75221818 12.0158345,2.90506667 12.0158345,3.09258182 C12.0158345,3.28088485 11.8627655,3.43294545 11.6732138,3.43294545" id="Fill-543" fill="#243160"></path>
                            <path d="M8.85238276,4.75248485 L16.7334517,4.75248485" id="Fill-544" fill="#FFFFFF"></path>
                            <path d="M16.7334517,5.09261212 L8.85238276,5.09261212 C8.66283103,5.09261212 8.50976207,4.93976364 8.50976207,4.75224848 C8.50976207,4.56473333 8.66283103,4.41188485 8.85238276,4.41188485 L16.7334517,4.41188485 C16.9230034,4.41188485 17.0760724,4.56473333 17.0760724,4.75224848 C17.0760724,4.93976364 16.9230034,5.09261212 16.7334517,5.09261212" id="Fill-545" fill="#243160"></path>
                            <path d="M20.1966966,15.8720545 L8.71414483,15.8720545 C7.69421379,15.8720545 6.86621379,15.0495091 6.86621379,14.036297 L6.86621379,11.9232061 C6.86621379,10.9092061 7.69421379,10.0874485 8.71414483,10.0874485 L20.1966966,10.0874485 C21.2174207,10.0874485 22.0446276,10.9092061 22.0446276,11.9232061 L22.0446276,14.036297 C22.0446276,15.0495091 21.2174207,15.8720545 20.1966966,15.8720545" id="Fill-546" fill="#FBCA67"></path>
                            <path d="M8.71454138,10.5984667 C7.97933448,10.5984667 7.38054138,11.1933152 7.38054138,11.9236788 L7.38054138,14.0359818 C7.38054138,14.7671333 7.97933448,15.3619818 8.71454138,15.3619818 L20.1970931,15.3619818 C20.9323,15.3619818 21.5303,14.7671333 21.5303,14.0359818 L21.5303,11.9236788 C21.5303,11.1933152 20.9323,10.5984667 20.1970931,10.5984667 L8.71454138,10.5984667 Z M20.1970931,16.3830727 L8.71454138,16.3830727 C7.41226552,16.3830727 6.35267931,15.3296788 6.35267931,14.0359818 L6.35267931,11.9236788 C6.35267931,10.6291939 7.41226552,9.57737576 8.71454138,9.57737576 L20.1970931,9.57737576 C21.499369,9.57737576 22.5589552,10.6291939 22.5589552,11.9236788 L22.5589552,14.0359818 C22.5589552,15.3296788 21.499369,16.3830727 20.1970931,16.3830727 Z" id="Fill-547" fill="#243160"></path>
                            <path d="M8.85238276,12.1496424 L14.7570379,12.1496424" id="Fill-548" fill="#FFFFFF"></path>
                            <path d="M14.7572759,12.4904788 L8.85262069,12.4904788 C8.66306897,12.4904788 8.51,12.3384182 8.51,12.1501152 C8.51,11.9626 8.66306897,11.8105394 8.85262069,11.8105394 L14.7572759,11.8105394 C14.9468276,11.8105394 15.0998966,11.9626 15.0998966,12.1501152 C15.0998966,12.3384182 14.9468276,12.4904788 14.7572759,12.4904788" id="Fill-549" fill="#243160"></path>
                            <path d="M8.85238276,13.8092303 L19.8170379,13.8092303" id="Fill-550" fill="#FFFFFF"></path>
                            <path d="M19.8171966,14.1501455 L8.85254138,14.1501455 C8.66298966,14.1501455 8.50992069,13.997297 8.50992069,13.8097818 C8.50992069,13.6222667 8.66298966,13.4694182 8.85254138,13.4694182 L19.8171966,13.4694182 C20.0067483,13.4694182 20.1598172,13.6222667 20.1598172,13.8097818 C20.1598172,13.997297 20.0067483,14.1501455 19.8171966,14.1501455" id="Fill-551" fill="#243160"></path>
                            <path d="M17.3712655,25.0080606 L9.05874828,25.0080606 C8.03802414,25.0080606 7.21081724,24.186303 7.21081724,23.172303 L7.21081724,21.0592121 C7.21081724,20.0452121 8.03802414,19.2234545 9.05874828,19.2234545 L17.3712655,19.2234545 C18.3919897,19.2234545 19.2191966,20.0452121 19.2191966,21.0592121 L19.2191966,23.172303 C19.2191966,24.186303 18.3919897,25.0080606 17.3712655,25.0080606" id="Fill-552" fill="#FBCA67"></path>
                            <path d="M9.05843103,19.7345515 C8.32322414,19.7345515 7.72443103,20.3294 7.72443103,21.0597636 L7.72443103,23.1720667 C7.72443103,23.9032182 8.32322414,24.4980667 9.05843103,24.4980667 L17.3709483,24.4980667 C18.1069483,24.4980667 18.7049483,23.9032182 18.7049483,23.1720667 L18.7049483,21.0597636 C18.7049483,20.3294 18.1069483,19.7345515 17.3709483,19.7345515 L9.05843103,19.7345515 Z M17.3709483,25.5191576 L9.05843103,25.5191576 C7.75615517,25.5191576 6.69656897,24.4657636 6.69656897,23.1720667 L6.69656897,21.0597636 C6.69656897,19.7652788 7.75615517,18.7134606 9.05843103,18.7134606 L17.3709483,18.7134606 C18.6740172,18.7134606 19.7328103,19.7652788 19.7328103,21.0597636 L19.7328103,23.1720667 C19.7328103,24.4657636 18.6740172,25.5191576 17.3709483,25.5191576 Z" id="Fill-553" fill="#243160"></path>
                            <path d="M9.19666897,21.2071758 L12.0177379,21.2071758" id="Fill-554" fill="#FFFFFF"></path>
                            <path d="M12.0170241,21.5472242 L9.19595517,21.5472242 C9.00719655,21.5472242 8.85333448,21.3943758 8.85333448,21.2068606 C8.85333448,21.0193455 9.00719655,20.866497 9.19595517,20.866497 L12.0170241,20.866497 C12.2065759,20.866497 12.3596448,21.0193455 12.3596448,21.2068606 C12.3596448,21.3943758 12.2065759,21.5472242 12.0170241,21.5472242" id="Fill-555" fill="#243160"></path>
                            <path d="M9.19666897,22.8660545 L17.0777379,22.8660545" id="Fill-556" fill="#FFFFFF"></path>
                            <path d="M17.0773414,23.2068909 L9.19627241,23.2068909 C9.00672069,23.2068909 8.85365172,23.0540424 8.85365172,22.8657394 C8.85365172,22.6790121 9.00672069,22.5261636 9.19627241,22.5261636 L17.0773414,22.5261636 C17.2668931,22.5261636 17.4199621,22.6790121 17.4199621,22.8657394 C17.4199621,23.0540424 17.2668931,23.2068909 17.0773414,23.2068909" id="Fill-557" fill="#243160"></path>
                        </g>
                    </g>
                </g>
            </g>
        </g>
    </g>
</svg>