<?xml version="1.0" encoding="UTF-8"?>
<svg width="21px" height="20px" viewBox="0 0 21 20" version="1.1" xmlns="http://www.w3.org/2000/svg" xmlns:xlink="http://www.w3.org/1999/xlink">
    <!-- Generator: Sketch 52.6 (67491) - http://www.bohemiancoding.com/sketch -->
    <title>image</title>
    <desc>Created with Sketch.</desc>
    <g id="Oifa-seeker" stroke="none" stroke-width="1" fill="inherit" fill-rule="evenodd">
        <path d="M18.6260423,0 L2.37515273,0 C1.06522299,0 0,1.08188022 0,2.41430413 L0,17.5884099 C0,18.9192625 1.06522299,20 2.37515273,20 L18.625972,20 C19.9359018,20 21,18.9192625 21,17.5884099 L21,2.41430413 C21.0000703,1.08188022 19.9359721,0 18.6260423,0 Z M13.5797127,3.59053105 C14.8464796,3.59053105 15.8738121,4.63434405 15.8738121,5.921273 C15.8738121,7.20820195 14.8464093,8.25201496 13.5797127,8.25201496 C12.3125944,8.25201496 11.2856134,7.20820195 11.2856134,5.921273 C11.2856134,4.63434405 12.3125944,3.59053105 13.5797127,3.59053105 Z M17.8811665,17.7693898 L10.4998243,17.7693898 L3.44733521,17.7693898 C2.81374088,17.7693898 2.5315654,17.3036557 2.81718548,16.7290764 L6.75428566,8.80638215 C7.03955424,8.23187433 7.58323765,8.18059429 7.96825886,8.69175198 L11.9271514,13.9480272 C12.3121726,14.4592563 12.9851337,14.5027515 13.4305407,14.0447308 L14.3990339,13.0483411 C14.8440895,12.5903204 15.4998276,12.6470284 15.8630565,13.1741843 L18.3709315,16.8137099 C18.7334574,17.3416515 18.5147609,17.7693898 17.8811665,17.7693898 Z" id="image" fill="inherit" fill-rule="nonzero"></path>
    </g>
</svg>