<?xml version="1.0" encoding="UTF-8"?>
<svg width="21px" height="21px" viewBox="0 0 21 21" version="1.1" xmlns="http://www.w3.org/2000/svg" xmlns:xlink="http://www.w3.org/1999/xlink">
    <title>5993C9E2-F66E-4CEF-A827-0892F1C81454</title>
    <g id="Seeker" stroke="none" stroke-width="1" fill="none" fill-rule="evenodd">
        <g id="profile-dropdown" transform="translate(-1211.000000, -301.000000)" fill="#021C30">
            <g id="Group-22" transform="translate(1179.000000, 85.000000)">
                <g id="Group-21" transform="translate(32.000000, 169.000000)">
                    <g id="Group-6" transform="translate(0.000000, 47.000000)">
                        <g id="Group-3" transform="translate(0.000000, 0.001568)">
                            <path d="M15.9041906,17.6801788 C16.0980805,17.5716498 16.2786106,17.5072556 16.4108102,17.3890544 C16.7083902,17.1230253 16.9686418,16.8151705 17.2683611,16.5518863 C17.7473008,16.1312328 17.6781449,15.7023448 17.3136792,15.3207722 C16.8088933,14.7921996 16.662068,14.1344465 16.8533383,13.4220585 C17.0996189,12.504768 17.8826002,11.9089257 18.8406979,11.8935896 C19.2684256,11.8867058 19.5568809,11.642156 19.5672281,11.2462494 C19.5801948,10.7529672 19.5793653,10.2588573 19.5671407,9.76548797 C19.5574484,9.37228257 19.2748871,9.11514149 18.8753632,9.10320373 C18.7592738,9.09976183 18.6408268,9.10416224 18.5277499,9.08259585 C17.7193154,8.92831992 17.1464214,8.47494647 16.8875233,7.6921083 C16.625962,6.90112282 16.8143944,6.19147967 17.385673,5.58387386 C17.7127665,5.23597967 17.7077457,4.89431577 17.3679037,4.55195477 C17.060806,4.24248797 16.7523549,3.93432822 16.4419391,3.62812905 C16.1014422,3.29225975 15.7656168,3.2934361 15.4083112,3.62120166 C14.7463965,4.22824108 13.9831927,4.40469336 13.153016,4.05374938 C12.3257644,3.70402531 11.9075108,3.04483444 11.887253,2.14279295 C11.877648,1.71386141 11.6039931,1.44029502 11.1715067,1.43650456 C10.7205524,1.43253983 10.2694672,1.43349834 9.81846923,1.43615602 C9.36803888,1.43877012 9.10529875,1.70497344 9.08897027,2.15115809 C9.08242141,2.33083444 9.06788295,2.51508548 9.02129875,2.68770373 C8.61081642,4.20933237 6.75993493,4.72487801 5.59310333,3.64673278 C5.19323015,3.2772722 4.88447339,3.28245685 4.49892037,3.66629502 C4.20535696,3.95850871 3.91166258,4.25063527 3.61984553,4.5445917 C3.26708046,4.9000668 3.2653341,5.22173278 3.60163971,5.59088838 C4.20522599,6.25334689 4.38296195,7.01348589 4.02871247,7.84298589 C3.67581642,8.66934896 3.01569168,9.08364149 2.11234241,9.10368299 C1.68898067,9.11309378 1.41353576,9.38029917 1.40886424,9.79785934 C1.40366881,10.2623863 1.40379979,10.7270876 1.40882058,11.1916145 C1.41336112,11.609349 1.69029044,11.8773822 2.10701601,11.8958116 C2.29440062,11.9041332 2.48680603,11.915156 2.66646299,11.9635606 C4.19356902,12.3750647 4.70468545,14.2138718 3.62185385,15.3842079 C3.25407006,15.781683 3.26000769,16.0942867 3.64350873,16.4777763 C3.92615738,16.760405 4.20893701,17.0427722 4.49254615,17.3244423 C4.8884027,17.717517 5.19152744,17.717822 5.60580811,17.344571 C6.26802848,16.7478573 7.02931123,16.5946705 7.84726341,16.9471394 C8.65644012,17.2958178 9.06631123,17.9459029 9.09045468,18.82799 C9.10307214,19.288378 9.363542,19.5567162 9.82488711,19.5606809 C10.2613466,19.5644278 10.6978497,19.5627722 11.1343091,19.5612909 C11.6230721,19.5595917 11.879438,19.2997058 11.8878206,18.8061187 C11.8985607,18.1738967 12.1508663,17.6517286 12.6360929,17.2506809 C13.4518622,16.5763718 14.5902717,16.6246021 15.3856085,17.3433946 C15.5287665,17.4727494 15.7123528,17.5576207 15.9041906,17.6801788 M1.94298898,15.9276373 C1.95700353,15.3595046 2.15006383,14.865961 2.5557,14.4605564 C2.72858981,14.2878075 2.83446299,14.0889174 2.78281435,13.8356104 C2.7118684,13.4875419 2.46113451,13.2941851 2.0753632,13.2861249 C1.0099079,13.2639921 0.187851767,12.5801851 0.0363548857,11.5343676 C-0.0245058212,11.1143241 0.0078018711,10.6792929 0.0150492723,10.2513635 C0.020724948,9.91187801 0.00526964657,9.56163112 0.0822841996,9.235739 C0.295733264,8.33199834 1.11084761,7.71689876 2.04384137,7.7122805 C2.35408254,7.7107556 2.59970832,7.60985104 2.7336106,7.31511037 C2.87297027,7.00834481 2.77115738,6.75743402 2.55329875,6.52538838 C1.7267894,5.64482614 1.7466106,4.44011452 2.59861684,3.58159793 C2.92116985,3.25657718 3.24516362,2.93295062 3.57251913,2.61272241 C4.43587672,1.76823485 5.64400977,1.75830124 6.52221143,2.58945685 C6.74234033,2.79780124 6.9895815,2.88698589 7.27760021,2.76769544 C7.57347755,2.64513734 7.6917499,2.40172033 7.69655239,2.09072863 C7.71475821,0.909848963 8.5991158,0.0436643154 9.78480811,0.0430107884 C10.272305,0.0427058091 10.7598455,0.0406145228 11.2473424,0.0434900415 C12.372174,0.0501995851 13.2687998,0.936295021 13.2806314,2.05918506 C13.2841241,2.38673278 13.3923985,2.64688008 13.7063507,2.77619129 C14.0050222,2.89918506 14.2528746,2.78991535 14.4774131,2.57734481 C15.0921324,1.99540083 15.816043,1.82931784 16.6101574,2.10806888 C16.8884401,2.20574938 17.1500015,2.39326805 17.3750202,2.5900668 C17.740883,2.90994647 18.0741324,3.26764357 18.414542,3.61584274 C19.2311407,4.45113734 19.245199,5.65902946 18.4436189,6.51157718 C18.2201719,6.74924315 18.1020742,7.0000668 18.2452322,7.31633029 C18.3830202,7.62056888 18.641831,7.71023278 18.9583154,7.71328257 C20.0662946,7.72404398 20.9580742,8.6232971 20.9659765,9.73233237 C20.9696002,10.2406021 20.968858,10.7489154 20.9662821,11.2571415 C20.9606938,12.3777224 20.0682156,13.2751456 18.9458289,13.2842515 C18.6914713,13.2862556 18.4708185,13.3461187 18.3138206,13.5584714 C18.1055233,13.8402722 18.1352988,14.164683 18.4046314,14.4452203 C18.7422468,14.7967743 18.9579661,15.2030066 19.0103133,15.6921498 C19.0758455,16.3045046 18.9086751,16.8467577 18.490989,17.2948593 C18.1097146,17.7039672 17.7125919,18.0999174 17.3030701,18.4809237 C16.5102655,19.218712 15.3040534,19.197712 14.4971906,18.4434112 C14.3145212,18.2725793 14.1213299,18.1418303 13.8581969,18.185268 C13.4946917,18.2453054 13.2895378,18.5098967 13.2827707,18.9163905 C13.2671407,19.8568593 12.6817603,20.6308531 11.7856148,20.8794112 C11.6197977,20.9253759 11.442804,20.9475087 11.270438,20.9506892 C10.7685773,20.9600129 10.266411,20.9556124 9.76433202,20.9538697 C8.60400561,20.949905 7.72397027,20.0883822 7.69428212,18.929156 C7.68000561,18.3709133 7.26249418,18.0362639 6.795779,18.2185544 C6.69139023,18.2593344 6.59573326,18.3365813 6.51225717,18.4144382 C5.63689335,19.2300834 4.42897859,19.2231996 3.57509501,18.3896041 C3.22145676,18.0443241 2.87218441,17.6945129 2.52636112,17.341434 C2.14264179,16.9496228 1.96429459,16.4700212 1.94298898,15.9276373" id="Fill-1"></path>
                        </g>
                        <path d="M6.99770208,10.5086919 C6.97713867,12.3790861 8.55838191,13.9650654 10.4643175,13.9857604 C12.3749682,14.006499 13.9690472,12.4326317 13.9820576,10.5127438 C13.994806,8.632111 12.4370514,7.0409471 10.5575295,7.01467531 C8.60020728,6.98735788 7.01935696,8.53896162 6.99770208,10.5086919 M5.60048107,10.4818973 C5.60174782,7.79603216 7.79137983,5.61965664 10.4906002,5.6213113 C13.2090742,5.62301141 15.3795836,7.80243672 15.3784053,10.5289948 C15.3771823,13.1987396 13.1793424,15.3826961 10.4981096,15.3784326 C7.7682842,15.3741131 5.59912827,13.2054056 5.60048107,10.4818973" id="Fill-4"></path>
                    </g>
                </g>
            </g>
        </g>
    </g>
</svg>