<svg xmlns="http://www.w3.org/2000/svg" width="21" height="21" viewBox="0 0 21 21">
    <g fill="none" fill-rule="evenodd">
        <g fill="#F9BF58" fill-rule="nonzero" stroke="#FFBC3C" stroke-width=".6">
            <g>
                <path d="M664.5 39.335c4.88 0 8.835-3.956 8.835-8.835 0-4.88-3.956-8.835-8.835-8.835-4.88 0-8.835 3.956-8.835 8.835 0 4.88 3.956 8.835 8.835 8.835zm0 .665c-5.247 0-9.5-4.253-9.5-9.5s4.253-9.5 9.5-9.5 9.5 4.253 9.5 9.5-4.253 9.5-9.5 9.5zm3.261-12.161l.603.572-4.795 5.054-2.92-2.819.577-.598 2.317 2.237 4.218-4.446z" transform="translate(-1038 -462) translate(384 442)"/>
            </g>
        </g>
    </g>
</svg>
