<?xml version="1.0" encoding="UTF-8"?>
<svg width="15px" height="15px" viewBox="0 0 15 15" version="1.1" xmlns="http://www.w3.org/2000/svg" xmlns:xlink="http://www.w3.org/1999/xlink">
    
    <g id="Challenge" stroke="none" stroke-width="1" fill="none" fill-rule="evenodd">
        <g id="Program-page" transform="translate(-877.000000, -494.000000)" fill="#FBCA66" fill-rule="nonzero">
            <g id="Group-12" transform="translate(493.000000, 366.000000)">
                <g id="link" transform="translate(376.000000, 120.000000)">
                    <path d="M12.2179687,13.20375 C12.4685156,13.4533594 12.4675781,13.8585937 12.2179687,14.1091406 L10.5119531,15.8151563 C9.9234375,16.39875 9.6,17.1782813 9.6,18.0114844 C9.6,19.7252344 10.9947656,21.12 12.7085156,21.12 C13.5417187,21.12 14.32125,20.7965625 14.9029687,20.2099219 L16.6108594,18.5020313 C16.8604687,18.2524219 17.2657031,18.2524219 17.51625,18.5020313 C17.7667969,18.7516406 17.7658594,19.156875 17.51625,19.4074219 L15.8102344,21.1132031 C14.9885156,21.9426563 13.8864844,22.3996875 12.7085156,22.3996875 C10.2883594,22.3996875 8.3203125,20.4307031 8.3203125,18.0105469 C8.3203125,16.8325781 8.77828128,15.7314844 9.60867186,14.9078906 L11.3125781,13.20375 C11.5621875,12.9541406 11.9674219,12.9541406 12.2179687,13.20375 Z M18.3733594,12.3475781 C18.6239063,12.5971875 18.6229687,13.0021875 18.3733594,13.2527344 L13.2536719,18.3724219 C13.1280469,18.4973437 12.96375,18.5596875 12.800625,18.5596875 C12.6365625,18.5596875 12.4732031,18.4973437 12.3485156,18.3724219 C12.0989063,18.1228125 12.0989063,17.7178125 12.3485156,17.4672656 L17.4682031,12.3475781 C17.7178125,12.0979687 18.1228125,12.0979687 18.3733594,12.3475781 Z M18.0114844,8.319375 C20.4316406,8.319375 22.400625,10.2883594 22.400625,12.7085156 C22.400625,13.8864844 21.9426563,14.9885156 21.1113281,15.8121094 L19.4083594,17.5153125 C19.2825,17.6409375 19.1184375,17.7032813 18.9553125,17.7032813 C18.7910156,17.7032813 18.6278906,17.6409375 18.5029687,17.51625 C18.2533594,17.2666406 18.2533594,16.8614063 18.5029687,16.6108594 L20.2089844,14.9048437 C20.7984375,14.3221875 21.1209375,13.5426563 21.1209375,12.7085156 C21.12,10.9938281 19.7252344,9.6 18.0114844,9.6 C17.1782813,9.6 16.39875,9.9234375 15.8170313,10.5100781 L14.1091406,12.2179687 C13.8595313,12.4675781 13.4542969,12.4675781 13.20375,12.2179687 C12.9532031,11.9683594 12.9541406,11.563125 13.20375,11.3125781 L14.9097656,9.60679686 C15.7314844,8.77734372 16.8344531,8.319375 18.0114844,8.319375 Z" id="Combined-Shape"></path>
                </g>
            </g>
        </g>
    </g>
</svg>