<?xml version="1.0" encoding="UTF-8"?>
<svg width="19px" height="5px" viewBox="0 0 19 5" version="1.1" xmlns="http://www.w3.org/2000/svg" xmlns:xlink="http://www.w3.org/1999/xlink">
    <!-- Generator: Sketch 52.6 (67491) - http://www.bohemiancoding.com/sketch -->
    <title>Combined Shape</title>
    <desc>Created with Sketch.</desc>
    <g id="Oifa-seeker" stroke="none" stroke-width="1" fill="none" fill-rule="evenodd">
        <g id="Seeker---program-/-CFA-dashboard" transform="translate(-1352.000000, -462.000000)" fill="#8993A8" fill-rule="nonzero">
            <g id="Group-4-Copy-6" transform="translate(248.000000, 405.000000)">
                <g id="Group-66-Copy" transform="translate(1104.000000, 57.000000)">
                    <path d="M2.5,0 C3.8785,0 5,1.1215 5,2.5 C5,3.8785 3.8785,5 2.5,5 C1.1215,5 0,3.8785 0,2.5 C0,1.1215 1.1215,0 2.5,0 Z M16.5,0 C17.8785,0 19,1.1215 19,2.5 C19,3.8785 17.8785,5 16.5,5 C15.1215,5 14,3.8785 14,2.5 C14,1.1215 15.1215,0 16.5,0 Z M9.5,0 C10.8785,0 12,1.1215 12,2.5 C12,3.8785 10.8785,5 9.5,5 C8.1215,5 7,3.8785 7,2.5 C7,1.1215 8.1215,0 9.5,0 Z" id="Combined-Shape"></path>
                </g>
            </g>
        </g>
    </g>
</svg>