<?xml version="1.0" encoding="UTF-8"?>
<svg width="21px" height="21px" viewBox="0 0 21 21" version="1.1" xmlns="http://www.w3.org/2000/svg" xmlns:xlink="http://www.w3.org/1999/xlink">
    <title>09959D6E-745C-483F-A3D9-22B893654DE5</title>
    <g id="Seeker" stroke="none" stroke-width="1" fill="none" fill-rule="evenodd">
        <g id="profile-dropdown" transform="translate(-1211.000000, -254.000000)" fill="#021C30" fill-rule="nonzero">
            <g id="Group-22" transform="translate(1179.000000, 85.000000)">
                <g id="Group-21" transform="translate(32.000000, 169.000000)">
                    <path d="M8.09369658,8.74994658 C8.9382019,8.74994658 9.62505342,9.4367981 9.62505342,10.2813034 L9.62505342,19.4688034 C9.62505342,20.3131485 8.9382019,21 8.09369658,21 L1.53119658,21 C0.686851512,21 4.26325641e-14,20.3131485 4.26325641e-14,19.4688034 L4.26325641e-14,10.2813034 C4.26325641e-14,9.4367981 0.686851512,8.74994658 1.53119658,8.74994658 L8.09369658,8.74994658 Z M19.4688034,13.9999466 C20.3131485,13.9999466 21,14.6867981 21,15.5313034 L21,19.4688034 C21,20.3131485 20.3131485,21 19.4688034,21 L12.9063034,21 C12.0617981,21 11.3749466,20.3131485 11.3749466,19.4688034 L11.3749466,15.5313034 C11.3749466,14.6867981 12.0617981,13.9999466 12.9063034,13.9999466 L19.4688034,13.9999466 Z M8.09369658,10.0624466 L1.53119658,10.0624466 C1.41055298,10.0624466 1.3125,10.1604996 1.3125,10.2813034 L1.3125,19.4688034 C1.3125,19.589447 1.41055298,19.6875 1.53119658,19.6875 L8.09369658,19.6875 C8.21450044,19.6875 8.31255342,19.589447 8.31255342,19.4688034 L8.31255342,10.2813034 C8.31255342,10.1604996 8.21450044,10.0624466 8.09369658,10.0624466 Z M19.4688034,15.3124466 L12.9063034,15.3124466 C12.7854996,15.3124466 12.6874466,15.4104996 12.6874466,15.5313034 L12.6874466,19.4688034 C12.6874466,19.589447 12.7854996,19.6875 12.9063034,19.6875 L19.4688034,19.6875 C19.589447,19.6875 19.6875,19.589447 19.6875,19.4688034 L19.6875,15.5313034 C19.6875,15.4104996 19.589447,15.3124466 19.4688034,15.3124466 Z M19.4688034,-8.52651283e-13 C20.3131485,-8.52651283e-13 21,0.686851512 21,1.53119658 L21,10.7186966 C21,11.5632019 20.3131485,12.2500534 19.4688034,12.2500534 L12.9063034,12.2500534 C12.0617981,12.2500534 11.3749466,11.5632019 11.3749466,10.7186966 L11.3749466,1.53119658 C11.3749466,0.686851512 12.0617981,-8.52651283e-13 12.9063034,-8.52651283e-13 L19.4688034,-8.52651283e-13 Z M19.4688034,1.3125 L12.9063034,1.3125 C12.7854996,1.3125 12.6874466,1.41055298 12.6874466,1.53119658 L12.6874466,10.7186966 C12.6874466,10.8395004 12.7854996,10.9375534 12.9063034,10.9375534 L19.4688034,10.9375534 C19.589447,10.9375534 19.6875,10.8395004 19.6875,10.7186966 L19.6875,1.53119658 C19.6875,1.41055298 19.589447,1.3125 19.4688034,1.3125 Z M8.09369658,-8.66862138e-13 C8.9382019,-8.66862138e-13 9.62505342,0.686851512 9.62505342,1.53119658 L9.62505342,5.46869658 C9.62505342,6.3132019 8.9382019,7.00005342 8.09369658,7.00005342 L1.53119658,7.00005342 C0.686851512,7.00005342 4.26325641e-14,6.3132019 4.26325641e-14,5.46869658 L4.26325641e-14,1.53119658 C4.26325641e-14,0.686851512 0.686851512,-8.66862138e-13 1.53119658,-8.66862138e-13 L8.09369658,-8.66862138e-13 Z M8.09369658,1.3125 L1.53119658,1.3125 C1.41055298,1.3125 1.3125,1.41055298 1.3125,1.53119658 L1.3125,5.46869658 C1.3125,5.58950044 1.41055298,5.68755342 1.53119658,5.68755342 L8.09369658,5.68755342 C8.21450044,5.68755342 8.31255342,5.58950044 8.31255342,5.46869658 L8.31255342,1.53119658 C8.31255342,1.41055298 8.21450044,1.3125 8.09369658,1.3125 Z" id="Combined-Shape"></path>
                </g>
            </g>
        </g>
    </g>
</svg>