<?xml version="1.0" encoding="UTF-8"?>
<svg width="16px" height="16px" viewBox="0 0 16 16" version="1.1" xmlns="http://www.w3.org/2000/svg" xmlns:xlink="http://www.w3.org/1999/xlink">
    <!-- Generator: Sketch 52.6 (67491) - http://www.bohemiancoding.com/sketch -->
    <title>cross copy</title>
    <desc>Created with Sketch.</desc>
    <g id="Oifa-seeker" stroke="none" stroke-width="1" fill="none" fill-rule="evenodd">
        <g id="Seeker---program-/-CFA-dashboard-Copy-4" transform="translate(-379.000000, -996.000000)">
            <g id="cross-copy" transform="translate(379.000000, 996.000000)">
                <g id="Group" transform="translate(0.498496, 0.499470)">
                    <g id="Group-11">
                        <path d="M0.856761631,5.16499741 C0.840311256,5.16496803 0.823890204,5.16344024 0.807703738,5.16044342 C0.685836072,5.13688019 0.59777818,5.02999364 0.59777818,4.90565503 L0.59777818,1.99036702 C0.598628556,1.22159478 1.22045861,0.598608969 1.98773228,0.597815693 L4.89719085,0.597815693 C5.02128709,0.597815693 5.12790663,0.686045573 5.1513946,0.808151262 C5.17488257,0.93022757 5.10858257,1.05186317 4.99340062,1.09804944 C3.21828488,1.81352531 1.811118,3.22332305 1.09691952,5.00187643 C1.05771426,5.10036013 0.962589448,5.16499741 0.856761631,5.16499741 Z M1.98773228,1.11655921 C1.50627289,1.11708806 1.11609696,1.50796729 1.11548117,1.99036702 L1.11548117,3.79169036 C1.76560822,2.68830269 2.68419015,1.76795604 3.78542697,1.11652983 L1.98773228,1.11652983 L1.98773228,1.11655921 Z" id="Shape" fill="#F9BF58" fill-rule="nonzero"></path>
                        <path d="M14.3169222,5.16499741 C14.2110944,5.16499741 14.1159696,5.10036013 14.0767643,5.00187643 C13.3625658,3.22335243 11.9553989,1.81352531 10.1802832,1.09804944 C10.0650719,1.05183379 9.99880124,0.93022757 10.0222599,0.808151262 C10.0457479,0.686074954 10.1523674,0.597845073 10.2764636,0.597815693 L13.1859222,0.597815693 C13.9531959,0.598608969 14.5750259,1.22159478 14.5758763,1.99036702 L14.5758763,4.90562565 C14.5758763,5.02999364 14.4878184,5.13685081 14.3659507,5.16041404 C14.3497936,5.16344024 14.3333726,5.16496803 14.3169222,5.16499741 Z M11.3882568,1.11655921 C12.4894937,1.76795604 13.4080463,2.68833207 14.0582026,3.79171974 L14.0582026,1.9903964 C14.0575868,1.50799667 13.6674109,1.11711744 13.1859515,1.11658859 L11.3882568,1.11658859 L11.3882568,1.11655921 Z" id="Shape" fill="#F9BF58" fill-rule="nonzero"></path>
                        <path d="M13.1859515,14.6032442 L10.276493,14.6032442 C10.1523967,14.6032442 10.0457772,14.5150143 10.0222892,14.3929086 C9.99880124,14.2708323 10.0651012,14.1492261 10.1803125,14.1030104 C11.9554283,13.3875346 13.3625658,11.9777074 14.0767643,10.1991834 C14.1227432,10.083659 14.2441417,10.0171414 14.3660387,10.0406458 C14.4879357,10.0641503 14.5759936,10.1710662 14.5759056,10.2954342 L14.5759056,13.2106928 C14.5750553,13.9794651 13.9532252,14.6024509 13.1859515,14.6032442 Z M11.3882568,14.08453 L13.1859515,14.08453 C13.6674109,14.0839718 14.0575868,13.6930926 14.0582026,13.2107222 L14.0582026,11.4093989 C13.4080463,12.5127572 12.4894937,13.4331038 11.3882568,14.08453 Z" id="Shape" fill="#F9BF58" fill-rule="nonzero"></path>
                        <path d="M4.89719085,14.6032442 L1.98773228,14.6032442 C1.22045861,14.6024509 0.598628556,13.9794651 0.59777818,13.2106928 L0.59777818,10.2954342 C0.59769021,10.1710662 0.685748102,10.0641503 0.807645091,10.0406458 C0.929542081,10.0171414 1.05091125,10.083659 1.09691952,10.1991834 C1.811118,11.9777074 3.21828488,13.3875346 4.99340062,14.1030104 C5.10861189,14.1492261 5.17488257,14.2708323 5.1513946,14.3929086 C5.12790663,14.5150143 5.02128709,14.6032442 4.89719085,14.6032442 Z M1.11548117,11.4093695 L1.11548117,13.2106928 C1.11609696,13.6930926 1.50627289,14.0839718 1.98773228,14.0845007 L3.78542697,14.0845007 C2.68419015,13.4331038 1.76563755,12.5127572 1.11548117,11.4093695 Z" id="Shape" fill="#F9BF58" fill-rule="nonzero"></path>
                        <ellipse id="Oval" fill-opacity="0.8" fill="#F9BF58" cx="7.5868419" cy="7.60052993" rx="7.24790056" ry="7.26205662"></ellipse>
                        <ellipse id="Oval" fill="#F9FAFF" cx="7.5868419" cy="7.60052993" rx="6.47136073" ry="7.26205662"></ellipse>
                        <path d="M1.11548117,7.60052993 C1.11548117,3.58984578 4.01279989,0.338473317 7.5868419,0.338473317 C3.5839172,0.338473317 0.338941344,3.58981639 0.338941344,7.60052993 C0.338941344,11.6112435 3.5839172,14.8626159 7.5868419,14.8626159 C4.01279989,14.8626159 1.11548117,11.6112435 1.11548117,7.60052993 Z" id="Path" fill="#FFFFFF"></path>
                        <path d="M14.5421838,5.55846213 L11.1856328,6.47566506 C11.4035343,7.1751579 11.4123313,7.92324622 11.2109388,8.62767499 L14.5633259,9.56817673 C14.9323011,8.25612819 14.9249703,6.86648553 14.5421838,5.55846213 Z" id="Path" fill-opacity="0.1" fill="#F9BF58"></path>
                        <path d="M13.7908034,5.55846213 L11.2107922,6.47566506 C11.4286937,7.1751579 11.4374907,7.92324622 11.2360982,8.62767499 L13.8119162,9.56817673 C14.1809207,8.25612819 14.1735899,6.86648553 13.7908034,5.55846213 Z" id="Path" fill-opacity="0.3" fill="#F9BF58"></path>
                        <path d="M7.5868419,0.338473317 C6.90935621,0.338561459 6.23521337,0.433842678 5.58414797,0.621525821 L6.48874269,3.9448807 C7.18687199,3.72655361 7.93350205,3.71776882 8.63655767,3.91955464 L9.56050576,0.613299258 C8.91835465,0.431051523 8.25421106,0.338590839 7.5868419,0.338473317 Z" id="Path" fill-opacity="0.3" fill="#F9BF58"></path>
                        <path d="M6.90747952,0.338473317 C6.21242916,0.338473317 6.2831863,0.43851419 5.6468412,0.621525821 L6.55143592,3.9448807 C6.90604267,3.83414529 6.54105547,3.77441458 6.93205245,3.77441458 C7.27880056,3.77526661 7.62375995,3.82409714 7.95716595,3.91955464 L8.88111405,0.613299258 C8.23899226,0.431051523 7.57484867,0.338590839 6.90747952,0.338473317 Z" id="Path" fill-opacity="0.5" fill="#F9BF58"></path>
                        <path d="M8.65978173,11.1817288 C7.96165242,11.4000559 7.21502237,11.4088407 6.51196674,11.2070548 L5.57329835,14.5659896 C6.88275997,14.935656 8.26966444,14.9283403 9.57516742,14.5448356 L8.65978173,11.1817288 Z" id="Path" fill-opacity="0.5" fill="#F9BF58"></path>
                        <path d="M7.96569904,11.1817288 C7.60220732,11.2950497 7.22367274,11.3525475 6.84299756,11.3521949 C6.48718855,11.3521949 6.90006072,11.299398 6.57372163,11.2070548 L5.51600061,14.5659896 C6.84991786,14.9414146 6.91794794,14.8379362 6.84299756,14.8379362 C7.53282837,14.8379362 8.21911106,14.7392469 8.88108473,14.5448356 L7.96569904,11.1817288 Z" id="Path" fill="#F9BF58"></path>
                        <path d="M3.96289162,8.65094441 C3.74499013,7.95145158 3.73619313,7.20336326 3.93758561,6.49893448 L0.62809848,5.57047879 C0.265515782,6.81956475 0.243523302,8.14315986 0.564408256,9.40364548 C0.566343594,9.41093187 0.568044346,9.41821825 0.569979684,9.42550463 C0.582295473,9.47313055 0.596869157,9.51984567 0.610123292,9.56714841 L3.96289162,8.65094441 Z" id="Path" fill-opacity="0.8" fill="#F9BF58"></path>
                        <path d="M3.18632247,8.65094441 C2.96842097,7.95145158 2.95962398,7.20336326 3.16101646,6.49893448 L0.628069156,5.57047879 C0.265486459,6.81956475 0.243493979,8.14315986 0.564378932,9.40364548 C0.566314271,9.41093187 0.568015023,9.41821825 0.569950361,9.42550463 C0.58226615,9.47313055 0.596839834,9.51984567 0.610093969,9.56714841 L3.18632247,8.65094441 Z" id="Path" fill="#FFFFFF"></path>
                        <path d="M3.18632247,8.65094441 C2.96842097,7.95145158 2.95962398,7.20336326 3.16101646,6.49893448 L1.40463831,5.57047879 C1.04205561,6.81956475 1.02006313,8.14315986 1.34097741,9.40364548 C1.34291275,9.41093187 1.3446135,9.41821825 1.34654884,9.42550463 C1.35886463,9.47313055 1.37343831,9.51984567 1.38669244,9.56714841 L3.18632247,8.65094441 Z" id="Path" fill-opacity="0.5" fill="#F9BF58"></path>
                        <path d="M7.5868419,15.1219583 C3.44096607,15.1219583 0.0800751858,11.7545032 0.0800751858,7.60052993 C0.0800751858,3.44655669 3.44096607,0.0791015604 7.5868419,0.0791015604 C11.7327177,0.0791015604 15.0936086,3.44655669 15.0936086,7.60052993 C15.0888876,11.7525347 11.7307531,15.117228 7.5868419,15.1219583 Z M7.5868419,0.597815693 C3.72689765,0.597815693 0.59777818,3.73304672 0.59777818,7.60052993 C0.59777818,11.4680131 3.72689765,14.6032442 7.5868419,14.6032442 C11.4467862,14.6032442 14.5759056,11.4680131 14.5759056,7.60052993 C14.5715071,3.73486832 11.4449681,0.60222278 7.5868419,0.597815693 Z" id="Shape" fill="#F9BF58" fill-rule="nonzero"></path>
                        <path d="M7.5868419,11.6360701 C5.36243444,11.6360113 3.5592563,9.8291938 3.55931494,7.60047117 C3.55937359,5.37171917 5.36261038,3.56501919 7.58701784,3.56501919 C9.8114253,3.56504857 11.6146328,5.37180731 11.6146328,7.60052993 C11.6120523,9.828283 9.81025237,11.6335433 7.5868419,11.6360701 Z M7.5868419,4.08373332 C5.64836602,4.08379208 4.07695929,5.6583561 4.07701794,7.60061807 C4.07707658,9.54288005 5.64854196,11.1173559 7.58701784,11.1173265 C9.52549373,11.1172972 11.0969298,9.54279191 11.0969298,7.60052993 C11.0946719,5.65914938 9.52446742,4.08590748 7.5868419,4.08373332 Z" id="Shape" fill="#F9BF58" fill-rule="nonzero"></path>
                        <path d="M14.5633846,9.8273722 C14.53975,9.82740158 14.5162327,9.82414034 14.4935071,9.81773537 L11.1411787,8.8772924 C11.0749959,8.85872387 11.0188711,8.81453548 10.9852373,8.75448158 C10.9516035,8.69442767 10.9431584,8.62341481 10.9618373,8.55713222 C11.1495944,7.90112264 11.1415305,7.20439158 10.9385839,6.55290661 C10.9176764,6.48568384 10.9249193,6.41284938 10.9586704,6.35109141 C10.9924215,6.28933343 11.0497779,6.24396981 11.1175734,6.22543067 L14.4740951,5.30831588 C14.6103019,5.27050307 14.7514936,5.34956621 14.7906989,5.48559829 C15.1870913,6.84024867 15.1946567,8.27936822 14.812574,9.63813189 C14.7811395,9.75004252 14.6793583,9.82734282 14.5633846,9.8273722 Z M11.5228801,8.44572107 L14.3794981,9.24710575 C14.6476011,8.13898781 14.64115,6.98198059 14.3606726,5.87694761 L11.5039373,6.65756023 C11.5776561,6.96643826 11.6148087,7.28292587 11.6146621,7.60052993 C11.6141636,7.88472828 11.5834035,8.16807459 11.5228801,8.44572107 Z" id="Shape" fill="#F9BF58" fill-rule="nonzero"></path>
                        <path d="M6.48874269,4.20428184 C6.37197727,4.20428184 6.26966825,4.12592383 6.23899608,4.01304364 L5.33437204,0.689776907 C5.29710212,0.552922167 5.3765976,0.411454677 5.5127164,0.372407886 C6.85795245,-0.0137410711 8.28394489,-0.0167378902 9.63076441,0.363799377 C9.76817343,0.40252298 9.8482847,0.545488881 9.80972455,0.683195657 L8.88577646,3.9895098 C8.86727345,4.05585115 8.82314187,4.11208558 8.76314638,4.1457851 C8.70318022,4.17948463 8.63227646,4.18785809 8.56612308,4.1690839 C7.91118701,3.98216465 7.216078,3.99033246 6.56568704,4.19264713 C6.54079156,4.2004036 6.51484043,4.20431122 6.48874269,4.20428184 Z M5.90227654,0.804743115 L6.67025396,3.62604265 C7.25616297,3.48519215 7.8662637,3.47869904 8.45504639,3.60703341 L9.24032457,0.797133545 C8.14331031,0.530034696 6.99805921,0.532649567 5.90227654,0.804743115 Z" id="Shape" fill="#F9BF58" fill-rule="nonzero"></path>
                        <path d="M7.53705093,15.0973961 C6.84944869,15.097073 6.16515999,15.0023206 5.50324497,14.8157539 C5.36571865,14.7770009 5.28551941,14.6339469 5.32402091,14.4961226 L6.26274795,11.1370997 C6.28125096,11.0707583 6.32538254,11.0145239 6.3853487,10.9808244 C6.44531487,10.9471248 6.51621862,10.9387514 6.58237201,10.9575256 C7.23727876,11.1447092 7.93244641,11.1365121 8.58280804,10.9339623 C8.64989977,10.9130728 8.72262157,10.9203885 8.78422984,10.9542643 C8.84583811,10.9881108 8.89108397,11.0456086 8.90955766,11.1135365 L9.82491403,14.4768489 C9.86194936,14.6132336 9.78321628,14.754231 9.64783057,14.7939535 C8.962193,14.9950636 8.25145467,15.0972199 7.53705093,15.0973961 Z M5.89353819,14.3818615 C6.99970132,14.6493717 8.1542479,14.6429667 9.25736141,14.3631167 L8.47827045,11.5005374 C7.89236145,11.6415348 7.28223139,11.648028 6.69347802,11.5195467 L5.89353819,14.3818615 Z" id="Shape" fill="#F9BF58" fill-rule="nonzero"></path>
                        <path d="M0.610035322,9.82637326 C0.494208258,9.82628512 0.392515027,9.74913172 0.361051118,9.63742675 L0.347151871,9.58956579 C0.337533826,9.55663016 0.327945104,9.52345949 0.319353375,9.49028881 C-0.0189496236,8.17829903 0.00184060145,6.79923339 0.379524802,5.49808504 C0.418993974,5.36134782 0.561182692,5.28216716 0.697917275,5.32080262 L4.00740441,6.24931708 C4.07358711,6.2678856 4.12971192,6.312074 4.16334575,6.3721279 C4.19697959,6.43218181 4.2054247,6.50319467 4.18674575,6.56947725 C3.99898862,7.22548683 4.00705253,7.9222179 4.20999914,8.57370287 C4.23090665,8.64092564 4.2236638,8.71376009 4.18991267,8.77551807 C4.15616154,8.83727605 4.09880515,8.88263966 4.03100967,8.90117881 L0.678299982,9.8172359 C0.656043592,9.82337644 0.633083442,9.82643202 0.610035322,9.82637326 Z M0.809609753,5.89063896 C0.533002993,6.99202875 0.527196979,8.14424694 0.792660881,9.24836912 L3.64461644,8.46901986 C3.57089765,8.16014183 3.53374502,7.84365423 3.53389164,7.52605016 C3.53436081,7.24185182 3.56512096,6.95850551 3.62564426,6.68085903 L0.809609753,5.89063896 Z" id="Shape" fill="#F9BF58" fill-rule="nonzero"></path>
                    </g>
                </g>
                <g id="Group" transform="translate(0.578571, 0.578571)"></g>
            </g>
        </g>
    </g>
</svg>