<?xml version="1.0" encoding="UTF-8"?>
<svg width="25px" height="29px" viewBox="0 0 25 29" version="1.1" xmlns="http://www.w3.org/2000/svg" xmlns:xlink="http://www.w3.org/1999/xlink">
    <defs>
        <filter x="-0.3%" y="-4.4%" width="100.7%" height="108.9%" filterUnits="objectBoundingBox" id="filter-1">
            <feOffset dx="0" dy="0" in="SourceAlpha" result="shadowOffsetOuter1"></feOffset>
            <feGaussianBlur stdDeviation="1" in="shadowOffsetOuter1" result="shadowBlurOuter1"></feGaussianBlur>
            <feColorMatrix values="0 0 0 0 0   0 0 0 0 0   0 0 0 0 0  0 0 0 0.15 0" type="matrix" in="shadowBlurOuter1" result="shadowMatrixOuter1"></feColorMatrix>
            <feMerge>
                <feMergeNode in="shadowMatrixOuter1"></feMergeNode>
                <feMergeNode in="SourceGraphic"></feMergeNode>
            </feMerge>
        </filter>
    </defs>
    <g id="Oifa-seeker" stroke="none" stroke-width="1" fill="inherit" fill-rule="evenodd">
        <g id="Seeker---program-/-CFA-dashboard" transform="translate(-1158.000000, -31.000000)" fill="inherit">
            <g id="Group-22-Copy" transform="translate(248.000000, 0.000000)">
                <g id="Group-17">
                    <g id="Group-16" filter="url(#filter-1)">
                        <g id="Group-15">
                            <g id="Group-12" transform="translate(912.000000, 20.000000)">
                                <g id="Group-11">
                                    <g id="Group-10" transform="translate(0.000000, 13.000000)">
                                        <path d="M11.9540579,21.4269536 C11.6407752,21.4261173 11.3274924,21.4253367 11.0142097,21.4245004 L8.16792823,21.4245004 C8.39036889,22.1520528 8.93886127,22.7520369 9.58611772,22.9888301 C9.85442244,23.1399273 10.1459198,23.1776179 10.442681,23.1894381 C11.4962513,23.2286899 12.5923501,22.410981 12.8082759,21.4269536 L11.9540579,21.4269536 Z M8.51232558,0.237776855 C9.27617054,0.0771455019 10.0441328,-0.0248869094 10.8258022,0.00527677067 C11.3104498,0.0240105904 11.7850385,0.121025014 12.26437,0.180404532 C12.5236582,0.25645492 12.7829465,0.332505307 13.0421826,0.408555694 C13.917717,0.735895742 14.7338365,1.18634375 15.4912188,1.75889611 C15.6673785,1.91417495 15.843486,2.06945378 16.0196457,2.22473261 C16.0518547,2.25283334 16.0839596,2.28087832 16.1161165,2.30897905 C16.69416,2.91124905 17.2087755,3.56921872 17.6423993,4.29827654 C17.7595611,4.52207877 17.8767229,4.74593677 17.9938847,4.96973901 C18.2963269,5.72583821 18.5733874,6.49074676 18.6984191,7.30784238 C18.7361006,7.55416981 18.7689351,7.80127781 18.8040107,8.04799553 C18.8168839,8.39713594 18.8297049,8.7462206 18.8425781,9.09530526 C18.8419527,10.4141996 18.8413273,11.7331497 18.8407019,13.0520441 L18.8425781,14.1132927 C18.8399722,14.5026328 18.8272033,14.8923074 18.8378354,15.2811456 C18.846487,15.5994533 18.9294593,15.9030973 19.0987914,16.1694409 C19.3029907,16.4905364 19.5163628,16.8048854 19.7257739,17.1221895 C19.8614898,17.3637219 20.0086717,17.5966681 20.1784208,17.8126088 C20.3240913,18.0417636 20.4613708,18.2776647 20.6169958,18.4987349 C21.0355574,19.0935337 21.1223864,19.7368397 20.8212993,20.4045666 C20.5151047,21.0836118 19.9850621,21.4166389 19.274899,21.4169734 C18.4155734,21.4173637 17.5561957,21.4231623 16.6968701,21.4265633 L15.7049036,21.4246119 C15.383751,21.4218241 15.0623899,21.425281 14.7414979,21.4132378 C14.6069807,21.4082198 14.5782114,21.4675436 14.5458981,21.5978997 C14.0890296,23.4452997 12.7471412,24.7180286 10.9761112,24.9665862 C10.296333,25.0619837 9.6294801,24.946347 8.98238001,24.7058181 C8.76019994,24.5861113 8.53801987,24.4664044 8.3158398,24.3466975 C7.53536913,23.8172441 6.97608827,23.0869596 6.60281742,22.187792 C6.5262036,21.9364466 6.44958978,21.6851012 6.37297597,21.4337558 C5.53152695,21.4279572 4.6900258,21.4202072 3.84852466,21.4171407 C3.44069942,21.415691 3.03282205,21.4231623 2.62494469,21.4265633 C2.29425444,21.4258943 1.96361631,21.4252252 1.63292607,21.4245562 C0.589831564,21.3430975 -0.0603956273,20.5388814 0.00443946611,19.4105033 C0.0530136679,19.0655445 0.18935499,18.7675318 0.380941649,18.4831234 C0.779229256,17.8919488 1.15567932,17.2837687 1.54109372,16.682558 C1.96679553,16.1715596 2.18537943,15.5920378 2.16203046,14.8893523 C2.13055104,13.9439635 2.14978267,12.9966232 2.14722888,12.050175 C2.14644711,11.6964069 2.14566533,11.3426388 2.14488356,10.9889265 C2.14816701,10.376732 2.16593933,9.76409147 2.15124199,9.15239881 C2.13216671,8.35938952 2.23463117,7.58254931 2.36925259,6.80760479 C2.5221154,6.2620938 2.69749328,5.72494612 2.89314516,5.19538118 C3.38415113,4.15749411 3.98945239,3.21004233 4.78821657,2.41039815 C5.39164158,1.80634397 6.07626681,1.33008121 6.79586339,0.905336451 C6.8376101,0.900206953 6.87883563,0.894073857 6.89879691,0.845845422 C6.93997033,0.843336428 6.9827594,0.84489758 7.00616049,0.797393966 C7.5010232,0.588645688 8.00234858,0.399913605 8.51232558,0.237776855 Z" id="Fill-1"></path>
                                    </g>
                                </g>
                            </g>
                        </g>
                    </g>
                </g>
            </g>
        </g>
    </g>
</svg>