<?xml version="1.0" encoding="UTF-8"?>
<svg width="527px" height="533px" viewBox="0 0 527 533" version="1.1" xmlns="http://www.w3.org/2000/svg" xmlns:xlink="http://www.w3.org/1999/xlink">
    <title>Group 19</title>
    <defs>
        <polygon id="path-1" points="0.749970291 0.644 525.064644 0.644 525.064644 531.999677 0.749970291 531.999677"></polygon>
        <polygon id="path-3" points="0 0.363138837 518.763625 0.363138837 518.763625 514.618726 0 514.618726"></polygon>
    </defs>
    <g id="Home-page" stroke="none" stroke-width="1" fill="none" fill-rule="evenodd">
        <g id="Group-19">
            <g id="Group-3" transform="translate(1.000000, 0.356000)">
                <mask id="mask-2" fill="white">
                    <use xlink:href="#path-1"></use>
                </mask>
                <g id="Clip-2"></g>
                <path d="M363.333,490.6113 C449.429,386.1473 589.817,345.1113 491.437,166.4993 C425.774,47.2843 263.231,-58.1757 167.326,38.3943 C43.94,162.6333 -36.174,232.4373 17.952,357.3133 C72.078,482.1903 276.772,595.6393 363.333,490.6113" id="Fill-1" fill="#E55831" mask="url(#mask-2)"></path>
            </g>
            <path d="M26.9888,192.1275 C79.4558,316.9165 -23.9032,456.4675 173.2728,508.4505 C304.8778,543.1475 570.2288,463.9135 511.4898,318.3795 C445.9558,156.0065 481.2698,108.0805 361.7428,34.0265 C246.0478,-37.6545 -31.2352,53.6435 26.9888,192.1275" id="Fill-4" fill="#FCC657"></path>
            <g id="Group-8" transform="translate(0.000000, 11.356000)">
                <mask id="mask-4" fill="white">
                    <use xlink:href="#path-3"></use>
                </mask>
                <g id="Clip-7"></g>
                <path d="M504.0928,238.9775 C437.0888,121.3525 448.6778,-24.4515 246.7518,3.9555 C111.9768,22.9155 -44.4072,137.3105 11.7298,261.2955 C83.9508,420.8065 120.6888,520.5115 256.6518,514.3485 C392.6138,508.1855 571.4578,357.2385 504.0928,238.9775" id="Fill-6" fill="#0FB8DA" mask="url(#mask-4)"></path>
            </g>
            <path d="M509.5967,267.2872 C447.9887,146.7482 399.2647,20.8522 263.1627,20.8522 C127.0607,20.8522 -9.5043,133.7372 16.7287,267.2872 C46.1937,417.2902 127.0607,513.7212 263.1627,513.7212 C399.2647,513.7212 571.5387,388.4772 509.5967,267.2872" id="Fill-9" fill="#243160"></path>
            <path d="M312.6563,264.2066 C312.3233,265.8286 312.4203,267.3916 312.9373,268.7216 L324.8023,299.1356 C326.6353,303.8346 326.5253,308.9776 324.4883,313.6186 C322.4553,318.2586 318.7443,321.8246 314.0413,323.6576 L305.2683,327.0796 L305.2683,351.1946 C305.2683,357.4196 303.1423,363.1446 299.6093,367.7316 L300.7793,374.7266 C300.8833,375.0626 300.9643,375.3326 301.0303,375.6106 C301.1043,375.9626 301.1533,376.2256 301.1863,376.4396 C301.2753,376.6696 301.3453,376.8516 301.4083,377.0406 L301.4863,377.2696 C303.1043,381.7656 307.9073,384.3806 312.5003,383.2216 L394.5553,362.6086 C394.8853,362.4786 395.1633,362.3756 395.4523,362.2826 C395.7523,362.1856 396.0413,362.1016 396.3103,361.9826 C396.5583,361.8756 396.8063,361.7306 397.0583,361.5946 C397.3743,361.4196 397.6623,361.2576 397.9283,361.0676 C398.1553,360.9126 398.3293,360.7616 398.5103,360.6086 C398.7963,360.3716 399.0883,360.1166 399.3623,359.8276 L399.6743,359.4606 C400.0033,359.0646 400.2613,358.7246 400.4953,358.3536 L400.6993,357.9906 C400.9363,357.5756 401.1433,357.1496 401.3173,356.7016 C401.5733,355.9426 401.7063,355.4576 401.7923,354.9536 C401.8953,354.1806 401.9283,353.6696 401.9143,353.1436 L401.8583,352.1026 L398.2663,330.4166 C396.4923,319.7996 399.4033,308.8226 406.2543,300.2986 C419.5743,283.7196 426.6183,263.7066 426.6183,242.4206 C426.6183,216.2086 415.4303,191.1156 395.9223,173.5776 C376.1503,155.8016 350.5873,147.5916 323.8803,150.4216 C308.7713,152.0326 294.6653,157.4386 282.5373,165.6316 C299.3723,182.1526 310.8863,204.0956 313.9823,228.4296 C315.5083,240.4686 315.0633,252.5046 312.6563,264.2066" id="Fill-11" fill="#FFFFFF"></path>
            <path d="M270.6494,227.418 C263.9764,227.418 258.5664,232.827 258.5664,239.5 C258.5664,246.172 263.9764,251.582 270.6494,251.582 C277.3214,251.582 282.7304,246.172 282.7304,239.5 C282.7304,232.827 277.3214,227.418 270.6494,227.418" id="Fill-13" fill="#F3B703"></path>
            <path d="M218.961,135.3414 C187.965,132.0304 158.184,141.6074 135.172,162.2974 C112.467,182.7094 99.447,211.9134 99.447,242.4204 C99.447,266.8464 107.868,290.7774 123.159,309.8004 C127.303,314.9594 129.069,321.5584 128.006,327.9054 L124.407,349.3924 C124.277,350.1544 124.232,350.9034 124.199,351.9984 L124.159,352.6764 C124.118,354.0394 124.195,355.4354 124.399,356.8834 L124.488,357.4874 C124.711,358.7944 125.036,360.0644 125.536,361.5244 L125.755,362.1314 C126.195,363.2784 126.717,364.3784 127.351,365.4894 C127.528,365.8124 127.706,366.1264 127.917,366.4634 C128.514,367.4034 129.173,368.2934 129.843,369.0894 C130.173,369.4924 130.506,369.8894 130.902,370.3074 C131.576,371.0114 132.291,371.6594 133.065,372.3034 C133.565,372.7144 134.065,373.1184 134.572,373.4744 C135.305,373.9884 136.068,374.4474 136.835,374.8664 C137.494,375.2334 138.157,375.5774 138.872,375.8924 C139.624,376.2184 140.394,376.4884 141.067,376.7024 C141.59,376.9144 142.116,377.1034 142.679,377.2434 L225.038,397.9304 C226.982,398.4184 228.945,398.6554 230.882,398.6554 C241.04,398.6554 250.565,392.2084 254.071,382.2544 L254.209,381.8804 C254.435,381.3174 254.642,380.7434 254.809,380.0874 C254.912,379.6774 254.979,379.2774 255.005,379.0254 C255.054,378.8584 255.1,378.6914 255.146,378.5234 C249.668,376.9124 244.912,373.7454 241.332,369.4824 L240.455,374.7264 C240.362,375.0184 240.27,375.3324 240.125,375.9664 C240.092,376.1284 240.066,376.2884 240.044,376.4544 C239.992,376.5844 239.944,376.7144 239.896,376.8434 L239.855,376.9504 C239.847,376.9814 239.836,377.0104 239.825,377.0394 L239.755,377.2394 C238.155,381.7544 233.348,384.3684 228.734,383.2204 L146.678,362.6094 C146.385,362.4934 146.086,362.3794 145.767,362.2784 C145.482,362.1864 145.193,362.1014 144.941,361.9894 C144.674,361.8754 144.426,361.7314 144.149,361.5784 C143.86,361.4194 143.571,361.2564 143.274,361.0494 C143.078,360.9124 142.904,360.7604 142.745,360.6274 C142.438,360.3714 142.146,360.1164 141.908,359.8674 L141.512,359.4024 C141.231,359.0654 140.971,358.7244 140.756,358.3834 L140.534,357.9904 C140.297,357.5754 140.09,357.1504 139.949,356.7834 L139.823,356.4244 C139.66,355.9434 139.527,355.4574 139.412,354.6884 C139.338,354.1804 139.305,353.6684 139.316,353.2734 L142.967,330.4124 C144.741,319.7994 141.831,308.8224 134.979,300.2984 C121.659,283.7194 114.615,263.7064 114.615,242.4204 C114.615,216.2094 125.803,191.1164 145.312,173.5774 C165.083,155.8014 190.665,147.6024 217.354,150.4214 C231.977,151.9804 245.62,157.1554 257.481,164.9104 C257.875,165.1674 258.307,165.3674 258.696,165.6314 C260.926,163.4434 263.282,161.3894 265.695,159.4034 C267.309,158.0754 268.932,156.7584 270.617,155.5214 C255.735,144.5954 238.033,137.3744 218.961,135.3414" id="Fill-15" fill="#FCC657"></path>
            <path d="M270.6494,251.5816 C263.9764,251.5816 258.5664,246.1726 258.5664,239.4996 C258.5664,232.8276 263.9764,227.4176 270.6494,227.4176 C277.3214,227.4176 282.7304,232.8276 282.7304,239.4996 C282.7304,246.1726 277.3214,251.5816 270.6494,251.5816 M290.1004,351.1946 L290.1004,316.7186 L308.5314,309.5266 C309.7794,309.0376 310.3644,308.0636 310.6014,307.5226 C310.8354,306.9856 311.1604,305.8966 310.6714,304.6526 L310.6714,304.6496 L298.8064,274.2306 C297.2254,270.1726 296.8774,265.6506 297.7984,261.1556 C299.8694,251.0856 300.2514,240.7206 298.9324,230.3406 C296.1954,208.8276 285.7814,189.5026 270.6174,175.1826 C255.4524,189.5026 245.0374,208.8276 242.3014,230.3406 C240.9824,240.7206 241.3644,251.0856 243.4344,261.1476 C244.3564,265.6506 244.0084,270.1726 242.4274,274.2306 L230.5624,304.6526 C230.0734,305.8966 230.3984,306.9856 230.6324,307.5226 C230.8694,308.0636 231.4544,309.0376 232.7024,309.5266 L251.1334,316.7186 L251.1334,351.1946 C251.1334,357.8206 256.5214,363.2086 263.1464,363.2086 L278.0864,363.2086 C284.7124,363.2086 290.1004,357.8206 290.1004,351.1946" id="Fill-17" fill="#FFFFFF"></path>
        </g>
    </g>
</svg>