<svg xmlns="http://www.w3.org/2000/svg" viewBox="0 0 968.44 354"><defs><style>.cls-1{fill:#243160;}.cls-2{fill:#e55831;}.cls-2,.cls-3,.cls-4{opacity:0.9;}.cls-3,.cls-6{fill:#fcc657;}.cls-4{fill:#0fb8da;}.cls-5{fill:#fff;}</style></defs><g id="UNI_COLOR" data-name="UNI COLOR"><path class="cls-1" d="M626.28,334.16q-23.26,0-41.64-9.85A71.65,71.65,0,0,1,556,296.9q-10.26-17.55-10.26-39.6T556,217.7a71.69,71.69,0,0,1,28.63-27.4q18.38-9.86,41.64-9.85a88.87,88.87,0,0,1,32.3,5.77A76.31,76.31,0,0,1,684.1,202a71.23,71.23,0,0,1,16.58,24.39,82.06,82.06,0,0,1,0,61.75,71.23,71.23,0,0,1-16.58,24.39,76.31,76.31,0,0,1-25.52,15.82A88.87,88.87,0,0,1,626.28,334.16Zm-27.66-48.64q10.92,11.19,27.66,11.18t27.56-11.12q10.81-11.13,10.82-28.28t-10.82-28.22Q643,218,626.28,218t-27.66,11.12Q587.7,240.26,587.7,257.3T598.62,285.52Z" transform="translate(-104.89 -108)"/><path class="cls-1" d="M737.67,330.48V184.13h0A40.82,40.82,0,0,1,778.5,225V330.48Z" transform="translate(-104.89 -108)"/><path class="cls-1" d="M910.3,220.66H857.84v23.27h47v35.32h-47v51.23H817.22V184.13h56.54a36.53,36.53,0,0,1,36.54,36.53Z" transform="translate(-104.89 -108)"/><path class="cls-1" d="M1028.94,330.48l-8.06-23.78H969L961,330.48H917.79l57.46-146.35h12.39a39.91,39.91,0,0,1,37.06,25.07l48.64,121.28Zm-17.86-55.31-16.23-45.32-16,45.32Z" transform="translate(-104.89 -108)"/><path class="cls-1" d="M558.92,389.55a13.32,13.32,0,0,1-5.06-1,12.31,12.31,0,0,1-4.05-2.6,11.88,11.88,0,0,1-2.65-4,12.84,12.84,0,0,1,0-9.84,11.88,11.88,0,0,1,2.65-4,12.47,12.47,0,0,1,4.05-2.6,13.94,13.94,0,0,1,10.09,0,11.76,11.76,0,0,1,6.66,6.56,13.14,13.14,0,0,1,0,9.86A11.76,11.76,0,0,1,564,388.6,13.39,13.39,0,0,1,558.92,389.55Zm-5.34-7a7.19,7.19,0,0,0,5.34,2.18,7.09,7.09,0,0,0,5.3-2.17,7.92,7.92,0,0,0,0-10.81,7.13,7.13,0,0,0-5.3-2.17,7.2,7.2,0,0,0-5.34,2.19,7.81,7.81,0,0,0,0,10.78Z" transform="translate(-104.89 -108)"/><path class="cls-1" d="M584.8,365.19a8.81,8.81,0,0,1,4.28,1.05,7.78,7.78,0,0,1,3,2.95,8.14,8.14,0,0,1,1.11,4.2,7.85,7.85,0,0,1-2.41,5.86,8.28,8.28,0,0,1-6,2.33h-4V389h-5.16V365.19Zm-.24,11.62a3.3,3.3,0,0,0,2.46-1,3.4,3.4,0,0,0,1-2.46,3.26,3.26,0,0,0-3.41-3.41h-3.79v6.83Z" transform="translate(-104.89 -108)"/><path class="cls-1" d="M601.93,384.23h9.53V389H596.78V365.19H611.1V370h-9.17v4.71h8.27v4.67h-8.27Z" transform="translate(-104.89 -108)"/><path class="cls-1" d="M630.92,365.19H636V389h-4.31l-10.81-14.9V389h-5.05V365.19h4.65l10.46,14.55Z" transform="translate(-104.89 -108)"/><path class="cls-1" d="M649.54,389V365.19h5.16V389Z" transform="translate(-104.89 -108)"/><path class="cls-1" d="M675.27,365.19h5.05V389H676l-10.81-14.9V389h-5.06V365.19h4.66l10.46,14.55Z" transform="translate(-104.89 -108)"/><path class="cls-1" d="M700.88,365.19h5V389h-4.3l-10.81-14.9V389h-5.06V365.19h4.66l10.46,14.55Z" transform="translate(-104.89 -108)"/><path class="cls-1" d="M722.69,389.55a13.36,13.36,0,0,1-5.06-1,12.16,12.16,0,0,1-4-2.6,11.75,11.75,0,0,1-2.66-4,12.84,12.84,0,0,1,0-9.84,11.75,11.75,0,0,1,2.66-4,12.32,12.32,0,0,1,4-2.6,13.94,13.94,0,0,1,10.09,0,11.76,11.76,0,0,1,6.66,6.56,13,13,0,0,1,0,9.86,11.76,11.76,0,0,1-6.66,6.56A13.36,13.36,0,0,1,722.69,389.55Zm-5.34-7a7.21,7.21,0,0,0,5.34,2.18,7.09,7.09,0,0,0,5.3-2.17,7.92,7.92,0,0,0,0-10.81,7.13,7.13,0,0,0-5.3-2.17,7.22,7.22,0,0,0-5.34,2.19,7.81,7.81,0,0,0,0,10.78Z" transform="translate(-104.89 -108)"/><path class="cls-1" d="M753.52,365.19h5.64l-9,23.84h-4.88L736,365.19h5.7l6,16.86Z" transform="translate(-104.89 -108)"/><path class="cls-1" d="M775.92,389l-1.66-4.52h-9.5L763.13,389h-5.47L767,365.19h4.85L781.51,389Zm-6.43-17.54L766.37,380h6.26Z" transform="translate(-104.89 -108)"/><path class="cls-1" d="M798.69,365.19V370h-6.64v19h-5.16V370h-6.61v-4.79Z" transform="translate(-104.89 -108)"/><path class="cls-1" d="M802.14,389V365.19h5.16V389Z" transform="translate(-104.89 -108)"/><path class="cls-1" d="M824.08,389.55a13.32,13.32,0,0,1-5.06-1,12.31,12.31,0,0,1-4-2.6,12.05,12.05,0,0,1-2.66-4,13,13,0,0,1,0-9.84,12.05,12.05,0,0,1,2.66-4,12.47,12.47,0,0,1,4-2.6,13.94,13.94,0,0,1,10.09,0,11.76,11.76,0,0,1,6.66,6.56,13.14,13.14,0,0,1,0,9.86,11.76,11.76,0,0,1-6.66,6.56A13.39,13.39,0,0,1,824.08,389.55Zm-5.34-7a7.19,7.19,0,0,0,5.34,2.18,7.1,7.1,0,0,0,5.3-2.17,7.92,7.92,0,0,0,0-10.81,7.58,7.58,0,0,0-10.64,0,7.81,7.81,0,0,0,0,10.78Z" transform="translate(-104.89 -108)"/><path class="cls-1" d="M855.89,365.19h5.05V389h-4.3l-10.81-14.9V389h-5.06V365.19h4.66l10.46,14.55Z" transform="translate(-104.89 -108)"/><path class="cls-1" d="M888.74,370h-9.08v5.23h8.2v4.67h-8.2V389h-5.15V365.19h14.23Z" transform="translate(-104.89 -108)"/><path class="cls-1" d="M903.81,389.55a13.36,13.36,0,0,1-5.06-1,12.31,12.31,0,0,1-4-2.6,11.88,11.88,0,0,1-2.65-4,12.84,12.84,0,0,1,0-9.84,11.88,11.88,0,0,1,2.65-4,12.47,12.47,0,0,1,4-2.6,13.94,13.94,0,0,1,10.09,0,11.76,11.76,0,0,1,6.66,6.56,13,13,0,0,1,0,9.86,11.76,11.76,0,0,1-6.66,6.56A13.36,13.36,0,0,1,903.81,389.55Zm-5.34-7a7.19,7.19,0,0,0,5.34,2.18,7.09,7.09,0,0,0,5.3-2.17,7.92,7.92,0,0,0,0-10.81,7.13,7.13,0,0,0-5.3-2.17,7.2,7.2,0,0,0-5.34,2.19,7.81,7.81,0,0,0,0,10.78Z" transform="translate(-104.89 -108)"/><path class="cls-1" d="M933.62,389,929,380.9h-3.31V389h-5.15V365.19h9.62a8.32,8.32,0,0,1,6,2.24,8,8,0,0,1,1.2,9.79,7.63,7.63,0,0,1-3.17,2.8l5.27,9Zm-8-19.07v6.17h4.12a3.55,3.55,0,0,0,2.53-.86,2.88,2.88,0,0,0,.93-2.22,2.93,2.93,0,0,0-.93-2.23,3.59,3.59,0,0,0-2.53-.86Z" transform="translate(-104.89 -108)"/><path class="cls-1" d="M966.09,389l-1.67-4.52h-9.49L953.3,389h-5.48l9.35-23.84H962L971.67,389Zm-6.44-17.54L956.54,380h6.25Z" transform="translate(-104.89 -108)"/><path class="cls-1" d="M988.93,370h-9.08v5.23h8.2v4.67h-8.2V389H974.7V365.19h14.23Z" transform="translate(-104.89 -108)"/><path class="cls-1" d="M1006,389l-4.66-8.13h-3.31V389h-5.15V365.19h9.62a8.32,8.32,0,0,1,6,2.24,7.92,7.92,0,0,1,1.2,9.79,7.63,7.63,0,0,1-3.17,2.8l5.27,9Zm-8-19.07v6.17h4.13a3.54,3.54,0,0,0,2.52-.86,2.88,2.88,0,0,0,.93-2.22,2.93,2.93,0,0,0-.93-2.23,3.58,3.58,0,0,0-2.52-.86Z" transform="translate(-104.89 -108)"/><path class="cls-1" d="M1015.4,389V365.19h5.16V389Z" transform="translate(-104.89 -108)"/><path class="cls-1" d="M1036.94,389.55a12.39,12.39,0,0,1-4.86-1,11.63,11.63,0,0,1-3.92-2.6,12,12,0,0,1-2.58-3.95,13.19,13.19,0,0,1,0-9.83,11.7,11.7,0,0,1,6.5-6.57,12.57,12.57,0,0,1,4.86-.95,11.54,11.54,0,0,1,11.54,9.49h-5.17a6.84,6.84,0,0,0-2.44-3.35,6.57,6.57,0,0,0-3.93-1.22,6.66,6.66,0,0,0-5,2.15,7.53,7.53,0,0,0-2,5.38,7.45,7.45,0,0,0,2,5.35,6.69,6.69,0,0,0,5,2.14,6.41,6.41,0,0,0,4-1.32,6.66,6.66,0,0,0,2.37-3.61h5.2a11.83,11.83,0,0,1-4,7.14A11.34,11.34,0,0,1,1036.94,389.55Z" transform="translate(-104.89 -108)"/><path class="cls-1" d="M1067.32,389l-1.66-4.52h-9.5l-1.63,4.52h-5.47l9.34-23.84h4.86l9.65,23.84Zm-6.44-17.54-3.11,8.53H1064Z" transform="translate(-104.89 -108)"/><path id="cercle" class="cls-2" d="M347.62,434.43C405,364.83,498.51,337.49,433,218.5c-43.74-79.43-152-149.69-215.93-85.35-82.2,82.77-135.57,129.28-99.51,212.47S290,504.4,347.62,434.43Z" transform="translate(-104.89 -108)"/><path id="cercle-2" data-name="cercle" class="cls-3" d="M122.87,235.33c35,83.14-33.9,176.11,97.46,210.74C308,469.19,484.79,416.4,445.66,319.44,402,211.27,425.52,179.34,345.89,130,268.81,82.25,84.08,143.07,122.87,235.33Z" transform="translate(-104.89 -108)"/><path id="cercle-3" data-name="cercle" class="cls-4" d="M440.73,274.11c-44.64-78.36-36.92-175.5-171.45-156.58-89.79,12.64-194,88.85-156.57,171.45,48.11,106.27,72.59,172.69,163.17,168.59S485.61,352.9,440.73,274.11Z" transform="translate(-104.89 -108)"/><path id="cercle-4" data-name="cercle" class="cls-1" d="M444.4,285.41c-41-80.31-73.51-164.18-164.18-164.18S98.56,196.43,116,285.41c19.63,99.93,73.5,164.18,164.18,164.18S485.66,366.14,444.4,285.41Z" transform="translate(-104.89 -108)"/><path class="cls-5" d="M313.19,283.35a5.32,5.32,0,0,0,.19,3l7.9,20.26A12.64,12.64,0,0,1,314.11,323l-5.84,2.28v16.07a18,18,0,0,1-3.77,11l.78,4.66c.07.23.12.41.17.59s.08.41.1.56.1.27.15.4l.05.15a6.24,6.24,0,0,0,7.34,4l54.66-13.73.6-.22a4.77,4.77,0,0,0,.57-.2c.17-.07.33-.16.5-.25a6.39,6.39,0,0,0,.58-.36,4.41,4.41,0,0,0,.39-.3c.19-.16.38-.33.57-.52l.2-.25a6.34,6.34,0,0,0,.55-.73l.14-.25a8.32,8.32,0,0,0,.41-.85,6.66,6.66,0,0,0,.31-1.17,7.1,7.1,0,0,0,.09-1.21l0-.69-2.39-14.45a25.35,25.35,0,0,1,5.32-20.06,61,61,0,0,0,13.56-38.56,61.66,61.66,0,0,0-68.44-61.29,60.64,60.64,0,0,0-27.55,10.13,71.35,71.35,0,0,1,20.95,41.84A72.65,72.65,0,0,1,313.19,283.35Z" transform="translate(-104.89 -108)"/><circle class="cls-6" cx="285.2" cy="266.89" r="8.05" transform="translate(-210.08 171.84) rotate(-45)"/><path class="cls-6" d="M250.77,197.5a71.78,71.78,0,0,0-79.62,71.34,71.93,71.93,0,0,0,15.79,44.89,15.28,15.28,0,0,1,3.23,12.06l-2.4,14.32a12.91,12.91,0,0,0-.13,1.73l0,.45a15.9,15.9,0,0,0,.16,2.81l.06.4a16.23,16.23,0,0,0,.7,2.69l.14.4a15.8,15.8,0,0,0,1.07,2.24c.11.22.23.42.37.65a15.84,15.84,0,0,0,1.29,1.75c.22.27.44.53.7.81a18.29,18.29,0,0,0,1.44,1.33c.34.27.67.54,1,.78a16.88,16.88,0,0,0,1.5.93c.44.24.89.47,1.36.68a14.88,14.88,0,0,0,1.46.54,7.6,7.6,0,0,0,1.08.36l54.87,13.78a15.71,15.71,0,0,0,3.89.49A16.47,16.47,0,0,0,274.16,362l.09-.25a9.22,9.22,0,0,0,.4-1.19,5.83,5.83,0,0,0,.13-.71c0-.11.07-.22.1-.34a19,19,0,0,1-9.21-6l-.58,3.49c-.06.2-.12.41-.22.83,0,.11,0,.21-.06.33l-.09.25,0,.08,0,.06-.05.13a6.23,6.23,0,0,1-7.34,4l-54.67-13.73c-.19-.08-.39-.15-.6-.22s-.39-.12-.55-.19-.35-.17-.53-.27a5.05,5.05,0,0,1-.58-.36,3.76,3.76,0,0,1-.36-.28c-.2-.17-.4-.34-.56-.5l-.26-.32a5.82,5.82,0,0,1-.5-.67l-.15-.27a5.3,5.3,0,0,1-.39-.8l-.08-.24a6.17,6.17,0,0,1-.28-1.16,5.27,5.27,0,0,1-.06-.94l2.43-15.23a25.42,25.42,0,0,0-5.32-20.06,60.92,60.92,0,0,1-13.57-38.56,61.66,61.66,0,0,1,68.45-61.29,60.54,60.54,0,0,1,26.73,9.65c.26.17.55.31.81.48,1.49-1.46,3.06-2.83,4.66-4.15,1.08-.88,2.16-1.76,3.28-2.58A70.86,70.86,0,0,0,250.77,197.5Z" transform="translate(-104.89 -108)"/><path id="rocket" class="cls-5" d="M298.16,341.31v-23l12.28-4.79a2.54,2.54,0,0,0,1.38-1.34,2.49,2.49,0,0,0,.05-1.91h0L304,290a15.47,15.47,0,0,1-.67-8.71,62.5,62.5,0,0,0,.76-20.53A61.33,61.33,0,0,0,285.18,224a61.32,61.32,0,0,0-18.86,36.75,62.5,62.5,0,0,0,.75,20.53,15.3,15.3,0,0,1-.67,8.71l-7.9,20.27a2.5,2.5,0,0,0,0,1.91,2.54,2.54,0,0,0,1.38,1.34l12.28,4.79v23a8,8,0,0,0,8,8h10A8,8,0,0,0,298.16,341.31Zm-13-66.37a8.05,8.05,0,1,1,8.05-8.05A8,8,0,0,1,285.2,274.94Z" transform="translate(-104.89 -108)"/></g></svg>