<?xml version="1.0" encoding="UTF-8"?>
<svg width="969px" height="355px" viewBox="0 0 969 355" version="1.1" xmlns="http://www.w3.org/2000/svg" xmlns:xlink="http://www.w3.org/1999/xlink">
    
    <defs>
        <polygon id="path-1" points="0.2451 0.0069 155.855 0.0069 155.855 146.4269 0.2451 146.4269"></polygon>
        <polygon id="path-3" points="0 354.151 968.855 354.151 968.855 0 0 0"></polygon>
    </defs>
    <g id="Home-page" stroke="none" stroke-width="1" fill="none" fill-rule="evenodd">
        <g id="Group-46">
            <path d="M493.9383,177.6007 C501.2223,185.0547 510.4453,188.7817 521.6093,188.7817 C532.7723,188.7817 541.9613,185.0717 549.1773,177.6517 C556.3933,170.2317 560.0013,160.8047 560.0013,149.3687 C560.0013,137.9327 556.3933,128.5217 549.1773,121.1357 C541.9613,113.7497 532.7723,110.0577 521.6093,110.0577 C510.4453,110.0577 501.2223,113.7677 493.9383,121.1867 C486.6543,128.6067 483.0133,138.0007 483.0133,149.3687 C483.0133,160.7357 486.6543,170.1467 493.9383,177.6007 M521.6093,226.2537 C506.0883,226.2537 492.2023,222.9697 479.9493,216.4007 C467.6973,209.8317 458.1503,200.6937 451.3093,188.9857 C444.4683,177.2767 441.0473,164.0717 441.0473,149.3687 C441.0473,134.6647 444.4683,121.4587 451.3093,109.7507 C458.1503,98.0427 467.6973,88.9047 479.9493,82.3357 C492.2023,75.7667 506.0883,72.4827 521.6093,72.4827 C533.1813,72.4827 543.9533,74.4057 553.9253,78.2507 C563.8983,82.0977 572.4073,87.3727 579.4523,94.0777 C586.4983,100.7827 592.0283,108.9167 596.0443,118.4807 C600.0603,128.0447 602.0683,138.3407 602.0683,149.3687 C602.0683,160.3957 600.0603,170.6917 596.0443,180.2557 C592.0283,189.8197 586.4983,197.9537 579.4523,204.6587 C572.4073,211.3637 563.8983,216.6397 553.9253,220.4847 C543.9533,224.3307 533.1813,226.2537 521.6093,226.2537" id="Fill-1" fill="#FDFDFD"></path>
            <path d="M633.0477,222.5782 L633.0477,76.1582 C655.6047,76.1582 673.8897,94.4442 673.8897,117.0002 L673.8897,222.5782 L633.0477,222.5782 Z" id="Fill-3" fill="#FDFDFD"></path>
            <path d="M805.7488,112.712 L753.2668,112.712 L753.2668,135.992 L800.3378,135.992 L800.3378,171.321 L753.2668,171.321 L753.2668,222.578 L712.6288,222.578 L712.6288,76.158 L769.1948,76.158 C789.3838,76.158 805.7488,92.524 805.7488,112.712" id="Fill-5" fill="#FDFDFD"></path>
            <g id="Group-9" transform="translate(813.000000, 76.151000)">
                <mask id="mask-2" fill="white">
                    <use xlink:href="#path-1"></use>
                </mask>
                <g id="Clip-8"></g>
                <path d="M93.5701,91.0859 L77.3361,45.7509 L61.3041,91.0859 L93.5701,91.0859 Z M111.4391,146.4269 L103.3731,122.6369 L51.5031,122.6369 L43.4361,146.4269 L0.2451,146.4269 L57.7311,0.0069 L70.1211,0.0069 C86.4451,0.0069 101.1261,9.9379 107.2011,25.0879 L155.8551,146.4269 L111.4391,146.4269 Z" id="Fill-7" fill="#FDFDFD" mask="url(#mask-2)"></path>
            </g>
            <path d="M448.8797,274.6237 C450.3217,276.0827 452.1007,276.8107 454.2187,276.8107 C456.3377,276.8107 458.1077,276.0877 459.5247,274.6407 C460.9447,273.1947 461.6557,271.3907 461.6557,269.2247 C461.6557,267.0637 460.9447,265.2597 459.5247,263.8217 C458.1077,262.3797 456.3377,261.6567 454.2187,261.6567 C452.1007,261.6567 450.3217,262.3837 448.8797,263.8387 C447.4377,265.2897 446.7187,267.0847 446.7187,269.2247 C446.7187,271.3697 447.4377,273.1687 448.8797,274.6237 M454.2187,281.6687 C452.4237,281.6687 450.7387,281.3507 449.1607,280.7117 C447.5867,280.0777 446.2377,279.2097 445.1097,278.1077 C443.9867,277.0107 443.0977,275.6917 442.4517,274.1517 C441.8007,272.6117 441.4767,270.9697 441.4767,269.2247 C441.4767,267.4847 441.8007,265.8427 442.4517,264.3027 C443.0977,262.7627 443.9867,261.4397 445.1097,260.3417 C446.2377,259.2447 447.5867,258.3757 449.1607,257.7377 C450.7387,257.1037 452.4237,256.7847 454.2187,256.7847 C456.0057,256.7847 457.6817,257.0997 459.2517,257.7297 C460.8217,258.3637 462.1617,259.2307 463.2767,260.3327 C464.3917,261.4397 465.2717,262.7587 465.9147,264.2937 C466.5567,265.8297 466.8797,267.4767 466.8797,269.2247 C466.8797,270.9777 466.5567,272.6237 465.9147,274.1607 C465.2717,275.6957 464.3917,277.0147 463.2767,278.1167 C462.1617,279.2227 460.8217,280.0907 459.2517,280.7207 C457.6817,281.3537 456.0057,281.6687 454.2187,281.6687" id="Fill-10" fill="#FDFDFD"></path>
            <path d="M479.8734,268.9269 C480.8814,268.9269 481.7024,268.6039 482.3364,267.9619 C482.9664,267.3189 483.2854,266.4979 483.2854,265.5019 C483.2854,264.5029 482.9704,263.6859 482.3454,263.0479 C481.7154,262.4089 480.8944,262.0909 479.8734,262.0909 L476.0784,262.0909 L476.0784,268.9269 L479.8734,268.9269 Z M480.1074,257.2999 C481.6814,257.2999 483.1064,257.6529 484.3914,258.3549 C485.6724,259.0609 486.6804,260.0399 487.4164,261.2989 C488.1564,262.5579 488.5224,263.9579 488.5224,265.5019 C488.5224,267.8509 487.7184,269.8079 486.1104,271.3649 C484.5014,272.9219 482.5024,273.7009 480.1074,273.7009 L476.0784,273.7009 L476.0784,281.1549 L470.9214,281.1549 L470.9214,257.2999 L480.1074,257.2999 Z" id="Fill-12" fill="#FDFDFD"></path>
            <polygon id="Fill-14" fill="#FDFDFD" points="497.2523 276.3468 506.7863 276.3468 506.7863 281.1548 492.0963 281.1548 492.0963 257.2998 506.4203 257.2998 506.4203 262.0738 497.2523 262.0738 497.2523 266.7828 505.5233 266.7828 505.5233 271.4538 497.2523 271.4538"></polygon>
            <polygon id="Fill-16" fill="#FDFDFD" points="526.2547 257.2999 531.3097 257.2999 531.3097 281.1539 527.0037 281.1539 516.1897 266.2469 516.1897 281.1539 511.1307 281.1539 511.1307 257.2999 515.7887 257.2999 526.2547 271.8539"></polygon>
            <mask id="mask-4" fill="white">
                <use xlink:href="#path-3"></use>
            </mask>
            <g id="Clip-19"></g>
            <polygon id="Fill-18" fill="#FDFDFD" mask="url(#mask-4)" points="544.881 281.154 550.037 281.154 550.037 257.3 544.881 257.3"></polygon>
            <polygon id="Fill-20" fill="#FDFDFD" mask="url(#mask-4)" points="570.6199 257.2999 575.6749 257.2999 575.6749 281.1539 571.3689 281.1539 560.5539 266.2469 560.5539 281.1539 555.4959 281.1539 555.4959 257.2999 560.1539 257.2999 570.6199 271.8539"></polygon>
            <polygon id="Fill-21" fill="#FDFDFD" mask="url(#mask-4)" points="596.2401 257.2999 601.2951 257.2999 601.2951 281.1539 596.9891 281.1539 586.1741 266.2469 586.1741 281.1539 581.1161 281.1539 581.1161 257.2999 585.7741 257.2999 596.2401 271.8539"></polygon>
            <path d="M612.7215,274.6237 C614.1635,276.0827 615.9425,276.8107 618.0615,276.8107 C620.1795,276.8107 621.9505,276.0877 623.3665,274.6407 C624.7865,273.1947 625.4975,271.3907 625.4975,269.2247 C625.4975,267.0637 624.7865,265.2597 623.3665,263.8217 C621.9505,262.3797 620.1795,261.6567 618.0615,261.6567 C615.9425,261.6567 614.1635,262.3837 612.7215,263.8387 C611.2795,265.2897 610.5605,267.0847 610.5605,269.2247 C610.5605,271.3697 611.2795,273.1687 612.7215,274.6237 M618.0615,281.6687 C616.2655,281.6687 614.5805,281.3507 613.0025,280.7117 C611.4285,280.0777 610.0795,279.2097 608.9515,278.1077 C607.8285,277.0107 606.9405,275.6917 606.2935,274.1517 C605.6425,272.6117 605.3195,270.9697 605.3195,269.2247 C605.3195,267.4847 605.6425,265.8427 606.2935,264.3027 C606.9405,262.7627 607.8285,261.4397 608.9515,260.3417 C610.0795,259.2447 611.4285,258.3757 613.0025,257.7377 C614.5805,257.1037 616.2655,256.7847 618.0615,256.7847 C619.8475,256.7847 621.5245,257.0997 623.0935,257.7297 C624.6635,258.3637 626.0035,259.2307 627.1185,260.3327 C628.2335,261.4397 629.1145,262.7587 629.7565,264.2937 C630.3995,265.8297 630.7225,267.4767 630.7225,269.2247 C630.7225,270.9777 630.3995,272.6237 629.7565,274.1607 C629.1145,275.6957 628.2335,277.0147 627.1185,278.1167 C626.0035,279.2227 624.6635,280.0907 623.0935,280.7207 C621.5245,281.3537 619.8475,281.6687 618.0615,281.6687" id="Fill-22" fill="#FDFDFD" mask="url(#mask-4)"></path>
            <polygon id="Fill-23" fill="#FDFDFD" mask="url(#mask-4)" points="648.9051 257.2999 654.5431 257.2999 645.5271 281.1539 640.6521 281.1539 631.3221 257.2999 637.0271 257.2999 643.0481 274.1689"></polygon>
            <path d="M664.8768,263.6046 L661.7628,272.1396 L668.0208,272.1396 L664.8768,263.6046 Z M671.3138,281.1546 L669.6498,276.6276 L660.1498,276.6276 L658.5208,281.1546 L653.0448,281.1546 L662.3968,257.2996 L667.2548,257.2996 L676.9038,281.1546 L671.3138,281.1546 Z" id="Fill-24" fill="#FDFDFD" mask="url(#mask-4)"></path>
            <polygon id="Fill-25" fill="#FDFDFD" mask="url(#mask-4)" points="694.0877 257.2999 694.0877 262.0909 687.4457 262.0909 687.4457 281.1539 682.2897 281.1539 682.2897 262.0909 675.6697 262.0909 675.6697 257.2999"></polygon>
            <polygon id="Fill-26" fill="#FDFDFD" mask="url(#mask-4)" points="697.547 281.154 702.703 281.154 702.703 257.3 697.547 257.3"></polygon>
            <path d="M714.1512,274.6237 C715.5932,276.0827 717.3722,276.8107 719.4912,276.8107 C721.6092,276.8107 723.3792,276.0877 724.7962,274.6407 C726.2162,273.1947 726.9272,271.3907 726.9272,269.2247 C726.9272,267.0637 726.2162,265.2597 724.7962,263.8217 C723.3792,262.3797 721.6092,261.6567 719.4912,261.6567 C717.3722,261.6567 715.5932,262.3837 714.1512,263.8387 C712.7092,265.2897 711.9902,267.0847 711.9902,269.2247 C711.9902,271.3697 712.7092,273.1687 714.1512,274.6237 M719.4912,281.6687 C717.6952,281.6687 716.0102,281.3507 714.4322,280.7117 C712.8582,280.0777 711.5092,279.2097 710.3812,278.1077 C709.2582,277.0107 708.3702,275.6917 707.7222,274.1517 C707.0722,272.6117 706.7492,270.9697 706.7492,269.2247 C706.7492,267.4847 707.0722,265.8427 707.7222,264.3027 C708.3702,262.7627 709.2582,261.4397 710.3812,260.3417 C711.5092,259.2447 712.8582,258.3757 714.4322,257.7377 C716.0102,257.1037 717.6952,256.7847 719.4912,256.7847 C721.2772,256.7847 722.9542,257.0997 724.5232,257.7297 C726.0932,258.3637 727.4332,259.2307 728.5482,260.3327 C729.6632,261.4397 730.5442,262.7587 731.1862,264.2937 C731.8292,265.8297 732.1522,267.4767 732.1522,269.2247 C732.1522,270.9777 731.8292,272.6237 731.1862,274.1607 C730.5442,275.6957 729.6632,277.0147 728.5482,278.1167 C727.4332,279.2227 726.0932,280.0907 724.5232,280.7207 C722.9542,281.3537 721.2772,281.6687 719.4912,281.6687" id="Fill-27" fill="#FDFDFD" mask="url(#mask-4)"></path>
            <polygon id="Fill-28" fill="#FDFDFD" mask="url(#mask-4)" points="751.3133 257.2999 756.3683 257.2999 756.3683 281.1539 752.0623 281.1539 741.2483 266.2469 741.2483 281.1539 736.1893 281.1539 736.1893 257.2999 740.8473 257.2999 751.3133 271.8539"></polygon>
            <polygon id="Fill-29" fill="#FDFDFD" mask="url(#mask-4)" points="784.1834 262.1071 775.1004 262.1071 775.1004 267.3491 783.3024 267.3491 783.3024 272.0201 775.1004 272.0201 775.1004 281.1541 769.9444 281.1541 769.9444 257.3001 784.1834 257.3001"></polygon>
            <path d="M793.9178,274.6237 C795.3598,276.0827 797.1388,276.8107 799.2568,276.8107 C801.3758,276.8107 803.1458,276.0877 804.5628,274.6407 C805.9828,273.1947 806.6928,271.3907 806.6928,269.2247 C806.6928,267.0637 805.9828,265.2597 804.5628,263.8217 C803.1458,262.3797 801.3758,261.6567 799.2568,261.6567 C797.1388,261.6567 795.3598,262.3837 793.9178,263.8387 C792.4758,265.2897 791.7568,267.0847 791.7568,269.2247 C791.7568,271.3697 792.4758,273.1687 793.9178,274.6237 M799.2568,281.6687 C797.4618,281.6687 795.7768,281.3507 794.1978,280.7117 C792.6238,280.0777 791.2748,279.2097 790.1478,278.1077 C789.0248,277.0107 788.1358,275.6917 787.4888,274.1517 C786.8378,272.6117 786.5148,270.9697 786.5148,269.2247 C786.5148,267.4847 786.8378,265.8427 787.4888,264.3027 C788.1358,262.7627 789.0248,261.4397 790.1478,260.3417 C791.2748,259.2447 792.6238,258.3757 794.1978,257.7377 C795.7768,257.1037 797.4618,256.7847 799.2568,256.7847 C801.0438,256.7847 802.7198,257.0997 804.2898,257.7297 C805.8588,258.3637 807.1998,259.2307 808.3138,260.3327 C809.4298,261.4397 810.3098,262.7587 810.9518,264.2937 C811.5948,265.8297 811.9178,267.4767 811.9178,269.2247 C811.9178,270.9777 811.5948,272.6237 810.9518,274.1607 C810.3098,275.6957 809.4298,277.0147 808.3138,278.1167 C807.1998,279.2227 805.8588,280.0907 804.2898,280.7207 C802.7198,281.3537 801.0438,281.6687 799.2568,281.6687" id="Fill-30" fill="#FDFDFD" mask="url(#mask-4)"></path>
            <path d="M821.116,262.0734 L821.116,268.2464 L825.243,268.2464 C826.306,268.2464 827.149,267.9614 827.77,267.3864 C828.391,266.8174 828.702,266.0764 828.702,265.1664 C828.702,264.2604 828.391,263.5154 827.77,262.9374 C827.149,262.3624 826.306,262.0734 825.243,262.0734 L821.116,262.0734 Z M829.085,281.1544 L824.43,273.0194 L821.116,273.0194 L821.116,281.1544 L815.96,281.1544 L815.96,257.3004 L825.592,257.3004 C827.987,257.3004 829.978,258.0444 831.556,259.5374 C833.139,261.0264 833.926,262.9154 833.926,265.2004 C833.926,266.7444 833.539,268.1184 832.764,269.3354 C831.986,270.5484 830.927,271.4844 829.587,272.1394 L834.858,281.1544 L829.085,281.1544 Z" id="Fill-31" fill="#FDFDFD" mask="url(#mask-4)"></path>
            <path d="M855.1219,263.6046 L852.0079,272.1396 L858.2659,272.1396 L855.1219,263.6046 Z M861.5589,281.1546 L859.8949,276.6276 L850.3949,276.6276 L848.7659,281.1546 L843.2899,281.1546 L852.6419,257.2996 L857.4999,257.2996 L867.1489,281.1546 L861.5589,281.1546 Z" id="Fill-32" fill="#FDFDFD" mask="url(#mask-4)"></path>
            <polygon id="Fill-33" fill="#FDFDFD" mask="url(#mask-4)" points="884.4129 262.1071 875.3299 262.1071 875.3299 267.3491 883.5329 267.3491 883.5329 272.0201 875.3299 272.0201 875.3299 281.1541 870.1739 281.1541 870.1739 257.3001 884.4129 257.3001"></polygon>
            <path d="M893.5477,262.0734 L893.5477,268.2464 L897.6747,268.2464 C898.7377,268.2464 899.5797,267.9614 900.2007,267.3864 C900.8227,266.8174 901.1337,266.0764 901.1337,265.1664 C901.1337,264.2604 900.8227,263.5154 900.2007,262.9374 C899.5797,262.3624 898.7377,262.0734 897.6747,262.0734 L893.5477,262.0734 Z M901.5167,281.1544 L896.8617,273.0194 L893.5477,273.0194 L893.5477,281.1544 L888.3917,281.1544 L888.3917,257.3004 L898.0237,257.3004 C900.4187,257.3004 902.4097,258.0444 903.9877,259.5374 C905.5697,261.0264 906.3577,262.9154 906.3577,265.2004 C906.3577,266.7444 905.9707,268.1184 905.1957,269.3354 C904.4177,270.5484 903.3587,271.4844 902.0187,272.1394 L907.2887,281.1544 L901.5167,281.1544 Z" id="Fill-34" fill="#FDFDFD" mask="url(#mask-4)"></path>
            <polygon id="Fill-35" fill="#FDFDFD" mask="url(#mask-4)" points="910.897 281.154 916.053 281.154 916.053 257.3 910.897 257.3"></polygon>
            <path d="M932.4412,281.6691 C930.7222,281.6691 929.1012,281.3501 927.5792,280.7121 C926.0512,280.0781 924.7452,279.2101 923.6602,278.1081 C922.5712,277.0101 921.7122,275.6961 921.0822,274.1601 C920.4482,272.6241 920.1332,270.9901 920.1332,269.2591 C920.1332,267.5061 920.4482,265.8591 921.0822,264.3191 C921.7122,262.7791 922.5712,261.4561 923.6602,260.3581 C924.7452,259.2611 926.0512,258.3931 927.5792,257.7551 C929.1012,257.1171 930.7222,256.8021 932.4412,256.8021 C935.3382,256.8021 937.8442,257.6741 939.9712,259.4271 C942.0942,261.1801 943.4342,263.4691 943.9882,266.2981 L938.8142,266.2981 C938.3172,264.8811 937.5032,263.7621 936.3772,262.9451 C935.2502,262.1331 933.9392,261.7241 932.4412,261.7241 C930.4242,261.7241 928.7402,262.4431 927.3872,263.8771 C926.0302,265.3151 925.3582,267.1101 925.3582,269.2591 C925.3582,271.3991 926.0302,273.1821 927.3872,274.6071 C928.7402,276.0321 930.4242,276.7471 932.4412,276.7471 C934.0062,276.7471 935.3602,276.3041 936.5002,275.4231 C937.6442,274.5431 938.4312,273.3431 938.8662,271.8201 L944.0692,271.8201 C943.5282,274.7731 942.1922,277.1511 940.0612,278.9591 C937.9342,280.7671 935.3942,281.6691 932.4412,281.6691" id="Fill-36" fill="#FDFDFD" mask="url(#mask-4)"></path>
            <path d="M956.3983,263.6046 L953.2843,272.1396 L959.5423,272.1396 L956.3983,263.6046 Z M962.8353,281.1546 L961.1713,276.6276 L951.6713,276.6276 L950.0423,281.1546 L944.5663,281.1546 L953.9183,257.2996 L958.7763,257.2996 L968.4253,281.1546 L962.8353,281.1546 Z" id="Fill-37" fill="#FDFDFD" mask="url(#mask-4)"></path>
            <path d="M242.8289,326.5651 C300.2119,256.9401 393.7819,229.5891 328.2109,110.5441 C284.4469,31.0871 176.1109,-39.2029 112.1889,25.1611 C29.9529,107.9671 -23.4441,154.4921 12.6309,237.7221 C48.7059,320.9531 185.1359,396.5671 242.8289,326.5651" id="Fill-38" fill="#E55831" mask="url(#mask-4)"></path>
            <path d="M17.9881,127.3878 C52.9571,210.5598 -15.9319,303.5708 115.4871,338.2188 C203.2021,361.3438 380.0591,308.5338 340.9101,211.5348 C297.2311,103.3128 320.7681,71.3698 241.1031,22.0128 C163.9911,-25.7622 -20.8189,35.0878 17.9881,127.3878" id="Fill-39" fill="#FCC657" mask="url(#mask-4)"></path>
            <path d="M335.9793,166.1823 C291.3213,87.7853 299.0443,-9.3937 164.4613,9.5393 C74.6333,22.1763 -29.5977,98.4203 7.8173,181.0573 C55.9533,287.3713 80.4393,353.8263 171.0593,349.7173 C261.6783,345.6103 380.8783,245.0033 335.9793,166.1823" id="Fill-40" fill="#0FB8DA" mask="url(#mask-4)"></path>
            <path d="M339.6478,177.4816 C298.5858,97.1426 266.1108,13.2326 175.3988,13.2326 C84.6868,13.2326 -6.3342,88.4706 11.1498,177.4816 C30.7878,277.4596 84.6868,341.7316 175.3988,341.7316 C266.1108,341.7316 380.9318,258.2546 339.6478,177.4816" id="Fill-41" fill="#FDFDFD" mask="url(#mask-4)"></path>
            <path d="M208.3865,175.4288 C208.1645,176.5098 208.2285,177.5518 208.5735,178.4378 L216.4825,198.7088 C217.7035,201.8408 217.6295,205.2688 216.2725,208.3618 C214.9175,211.4548 212.4445,213.8318 209.3095,215.0538 L203.4625,217.3338 L203.4625,233.4068 C203.4625,237.5548 202.0455,241.3708 199.6905,244.4288 L200.4695,249.0898 C200.5385,249.3148 200.5935,249.4948 200.6375,249.6798 C200.6875,249.9138 200.7195,250.0898 200.7415,250.2328 C200.8005,250.3858 200.8475,250.5068 200.8895,250.6328 L200.9415,250.7858 C202.0195,253.7818 205.2205,255.5248 208.2825,254.7518 L262.9725,241.0138 C263.1925,240.9278 263.3775,240.8588 263.5695,240.7968 C263.7695,240.7328 263.9625,240.6758 264.1425,240.5968 C264.3075,240.5248 264.4725,240.4288 264.6405,240.3378 C264.8505,240.2218 265.0435,240.1128 265.2205,239.9868 C265.3715,239.8838 265.4875,239.7828 265.6085,239.6808 C265.7985,239.5228 265.9935,239.3528 266.1765,239.1598 L266.3835,238.9158 C266.6035,238.6518 266.7755,238.4248 266.9315,238.1778 L267.0675,237.9358 C267.2245,237.6598 267.3635,237.3758 267.4795,237.0768 C267.6495,236.5708 267.7385,236.2478 267.7955,235.9118 C267.8645,235.3958 267.8865,235.0558 267.8765,234.7048 L267.8395,234.0118 L265.4455,219.5578 C264.2635,212.4818 266.2035,205.1658 270.7695,199.4838 C279.6475,188.4338 284.3425,175.0958 284.3425,160.9078 C284.3425,143.4378 276.8855,126.7138 263.8835,115.0238 C250.7055,103.1768 233.6675,97.7048 215.8665,99.5908 C205.7965,100.6638 196.3955,104.2668 188.3115,109.7278 C199.5325,120.7398 207.2065,135.3648 209.2705,151.5828 C210.2865,159.6078 209.9905,167.6288 208.3865,175.4288" id="Fill-42" fill="#243160" mask="url(#mask-4)"></path>
            <path d="M180.3885,150.9088 C175.9405,150.9088 172.3355,154.5138 172.3355,158.9618 C172.3355,163.4088 175.9405,167.0138 180.3885,167.0138 C184.8355,167.0138 188.4405,163.4088 188.4405,158.9618 C188.4405,154.5138 184.8355,150.9088 180.3885,150.9088" id="Fill-43" fill="#F3B703" mask="url(#mask-4)"></path>
            <path d="M145.9383,89.5397 C125.2793,87.3327 105.4303,93.7157 90.0923,107.5057 C74.9593,121.1107 66.2813,140.5747 66.2813,160.9087 C66.2813,177.1887 71.8943,193.1377 82.0853,205.8167 C84.8473,209.2557 86.0243,213.6537 85.3163,217.8847 L82.9173,232.2047 C82.8313,232.7137 82.8013,233.2117 82.7793,233.9427 L82.7513,234.3937 C82.7253,235.3027 82.7763,236.2327 82.9123,237.1977 L82.9713,237.6007 C83.1203,238.4717 83.3363,239.3177 83.6703,240.2907 L83.8153,240.6957 C84.1093,241.4607 84.4573,242.1937 84.8793,242.9347 C84.9983,243.1487 85.1163,243.3587 85.2573,243.5827 C85.6543,244.2097 86.0943,244.8027 86.5413,245.3327 C86.7603,245.6017 86.9823,245.8667 87.2473,246.1447 C87.6963,246.6137 88.1723,247.0457 88.6883,247.4757 C89.0213,247.7497 89.3543,248.0187 89.6923,248.2557 C90.1813,248.5987 90.6893,248.9047 91.2003,249.1837 C91.6403,249.4277 92.0823,249.6577 92.5583,249.8677 C93.0593,250.0847 93.5723,250.2647 94.0223,250.4077 C94.3703,250.5487 94.7203,250.6747 95.0953,250.7687 L149.9883,264.5557 C151.2843,264.8817 152.5923,265.0397 153.8833,265.0397 C160.6543,265.0397 167.0013,260.7427 169.3393,254.1077 L169.4313,253.8587 C169.5813,253.4827 169.7193,253.1007 169.8303,252.6637 C169.8993,252.3897 169.9443,252.1227 169.9613,251.9557 C169.9943,251.8447 170.0253,251.7327 170.0553,251.6207 C166.4043,250.5477 163.2343,248.4367 160.8483,245.5947 L160.2633,249.0897 C160.2023,249.2847 160.1403,249.4947 160.0443,249.9167 C160.0213,250.0247 160.0043,250.1317 159.9893,250.2427 C159.9553,250.3287 159.9233,250.4147 159.8913,250.5017 L159.8643,250.5737 C159.8583,250.5927 159.8523,250.6127 159.8443,250.6327 L159.7973,250.7657 C158.7313,253.7747 155.5273,255.5177 152.4523,254.7517 L97.7613,241.0137 C97.5663,240.9367 97.3663,240.8607 97.1543,240.7937 C96.9643,240.7327 96.7723,240.6757 96.6043,240.6017 C96.4253,240.5247 96.2603,240.4287 96.0753,240.3277 C95.8833,240.2217 95.6903,240.1127 95.4933,239.9747 C95.3623,239.8837 95.2463,239.7827 95.1403,239.6937 C94.9353,239.5227 94.7403,239.3527 94.5823,239.1867 L94.3183,238.8757 C94.1303,238.6517 93.9583,238.4247 93.8143,238.1977 L93.6663,237.9357 C93.5083,237.6597 93.3703,237.3757 93.2763,237.1317 L93.1923,236.8917 C93.0843,236.5707 92.9953,236.2477 92.9183,235.7347 C92.8693,235.3957 92.8473,235.0557 92.8543,234.7917 L95.2883,219.5557 C96.4703,212.4807 94.5303,205.1657 89.9643,199.4837 C81.0853,188.4337 76.3913,175.0957 76.3913,160.9087 C76.3913,143.4377 83.8483,126.7137 96.8503,115.0237 C110.0283,103.1767 127.0793,97.7117 144.8673,99.5907 C154.6133,100.6297 163.7073,104.0787 171.6113,109.2477 C171.8743,109.4187 172.1623,109.5527 172.4223,109.7277 C173.9083,108.2687 175.4783,106.9007 177.0863,105.5767 C178.1613,104.6917 179.2433,103.8147 180.3673,102.9897 C170.4483,95.7067 158.6493,90.8947 145.9383,89.5397" id="Fill-44" fill="#F3B703" mask="url(#mask-4)"></path>
            <path d="M180.3885,167.0143 C175.9405,167.0143 172.3355,163.4093 172.3355,158.9613 C172.3355,154.5143 175.9405,150.9093 180.3885,150.9093 C184.8355,150.9093 188.4405,154.5143 188.4405,158.9613 C188.4405,163.4093 184.8355,167.0143 180.3885,167.0143 M193.3525,233.4073 L193.3525,210.4283 L205.6375,205.6343 C206.4685,205.3083 206.8585,204.6603 207.0165,204.2993 C207.1725,203.9413 207.3895,203.2163 207.0635,202.3863 L207.0635,202.3843 L199.1555,182.1103 C198.1015,179.4053 197.8695,176.3913 198.4845,173.3943 C199.8635,166.6833 200.1175,159.7753 199.2395,152.8573 C197.4155,138.5183 190.4735,125.6383 180.3675,116.0943 C170.2595,125.6383 163.3185,138.5183 161.4945,152.8573 C160.6155,159.7753 160.8695,166.6833 162.2495,173.3893 C162.8645,176.3913 162.6325,179.4053 161.5785,182.1103 L153.6705,202.3863 C153.3445,203.2163 153.5615,203.9413 153.7175,204.2993 C153.8755,204.6603 154.2645,205.3083 155.0965,205.6343 L167.3815,210.4283 L167.3815,233.4073 C167.3815,237.8223 170.9725,241.4133 175.3885,241.4133 L185.3455,241.4133 C189.7615,241.4133 193.3525,237.8223 193.3525,233.4073" id="Fill-45" fill="#243160" mask="url(#mask-4)"></path>
        </g>
    </g>
</svg>