<?xml version="1.0" encoding="UTF-8"?>
<svg width="21px" height="21px" viewBox="0 0 21 21" version="1.1" xmlns="http://www.w3.org/2000/svg" xmlns:xlink="http://www.w3.org/1999/xlink">
    <title>A01C3C01-08C8-43BB-B1F3-CF188D6BADD6</title>
    <g id="Seeker" stroke="none" stroke-width="1" fill="none" fill-rule="evenodd">
        <g id="profile-dropdown" transform="translate(-1211.000000, -348.000000)" fill="#021C30">
            <g id="Group-22" transform="translate(1179.000000, 85.000000)">
                <g id="Group-21" transform="translate(32.000000, 169.000000)">
                    <path d="M10.4651367,94 C10.9473984,94 11.3372109,94.3898945 11.3372109,94.8721563 C11.3372109,95.354418 10.9473984,95.7442305 10.4651367,95.7442305 L10.4651367,95.7442305 L2.61626367,95.7442305 C2.1349043,95.7442305 1.74418945,96.1349043 1.74418945,96.6163047 L1.74418945,96.6163047 L1.74418945,112.31401 C1.74418945,112.795369 2.13486328,113.186084 2.61626367,113.186084 L2.61626367,113.186084 L10.4651367,113.186084 C10.9473984,113.186084 11.3372109,113.575896 11.3372109,114.058158 C11.3372109,114.54042 10.9473984,114.930232 10.4651367,114.930232 L10.4651367,114.930232 L2.61626367,114.930232 C1.17382617,114.930232 6.83009205e-13,113.756406 6.83009205e-13,112.313969 L6.83009205e-13,112.313969 L6.83009205e-13,96.6163047 C6.83009205e-13,95.1738672 1.17382617,94 2.61626367,94 L2.61626367,94 Z M14.2046543,98.6203691 C14.5430332,98.2776426 15.0959238,98.2732539 15.4377891,98.6116328 L15.4377891,98.6116328 L20.740125,103.844201 C20.9066895,104.009043 21,104.23143 21,104.465055 C21,104.698762 20.9058281,104.922051 20.740125,105.08599 L20.740125,105.08599 L15.4377891,110.318559 C15.2685996,110.486025 15.0471152,110.569738 14.8255898,110.569738 C14.6005781,110.569738 14.3755664,110.482539 14.2046543,110.309863 C13.8671777,109.967137 13.8698027,109.415107 14.2133906,109.076729 L14.2133906,109.076729 L18.0026191,105.337211 L7.84883203,105.337211 C7.36657031,105.337211 6.97675781,104.947357 6.97675781,104.465096 C6.97675781,103.982834 7.36657031,103.593021 7.84883203,103.593021 L7.84883203,103.593021 L18.0026191,103.593021 L14.2133906,99.8535039 C13.8697617,99.515125 13.8662754,98.9630957 14.2046543,98.6203691 Z" id="Combined-Shape"></path>
                </g>
            </g>
        </g>
    </g>
</svg>