<?xml version="1.0" encoding="UTF-8"?>
<svg width="22px" height="20px" viewBox="0 0 22 20" version="1.1" xmlns="http://www.w3.org/2000/svg" xmlns:xlink="http://www.w3.org/1999/xlink">
    <title>Combined Shape Copy</title>
    <g id="apply-on-program" stroke="none" stroke-width="1" fill="none" fill-rule="evenodd">
        <path d="M11.229159,7.72723856 C12.1091573,7.72723856 12.8333369,8.44543418 12.8333369,9.31816083 L12.8333369,9.31816083 L12.8333369,18.4090777 C12.8333369,19.2818044 12.1091573,20 11.229159,20 L11.229159,20 L1.60417794,20 C0.724179677,20 -8.8817842e-16,19.2818044 -8.8817842e-16,18.4090777 L-8.8817842e-16,18.4090777 L-8.8817842e-16,9.31816083 C-8.8817842e-16,8.44543418 0.724179677,7.72723856 1.60417794,7.72723856 L1.60417794,7.72723856 Z M21.312458,18.6363217 C21.6919573,18.6363217 21.9999567,18.941776 21.9999567,19.3181394 C21.9999567,19.6945027 21.6919573,19.9999571 21.312458,19.9999571 L21.312458,19.9999571 L15.3541509,19.9999571 C14.9746516,19.9999571 14.6666522,19.6945027 14.6666522,19.3181394 C14.6666522,18.941776 14.9746516,18.6363217 15.3541509,18.6363217 L15.3541509,18.6363217 Z M21.312458,15.9090509 C21.6919573,15.9090509 21.9999567,16.2145052 21.9999567,16.5908686 C21.9999567,16.9672319 21.6919573,17.2726863 21.312458,17.2726863 L21.312458,17.2726863 L15.3541509,17.2726863 C14.9746516,17.2726863 14.6666522,16.9672319 14.6666522,16.5908686 C14.6666522,16.2145052 14.9746516,15.9090509 15.3541509,15.9090509 L15.3541509,15.9090509 Z M7.24166685,14.5454155 L5.5916701,14.5454155 C4.52835329,14.5454155 3.66667388,15.3090513 3.66667388,16.2544909 L3.66667388,16.2544909 L3.66667388,16.5908686 C3.66667388,16.9635813 3.97835437,17.2726863 4.35417253,17.2726863 L4.35417253,17.2726863 L8.47916441,17.2726863 C8.85498257,17.2726863 9.16666306,16.9635813 9.16666306,16.5908686 L9.16666306,16.5908686 L9.16666306,16.2544909 C9.16666306,15.3090513 8.30498365,14.5454155 7.24166685,14.5454155 L7.24166685,14.5454155 Z M21.312458,13.1817801 C21.6919573,13.1817801 21.9999567,13.4872344 21.9999567,13.8635978 C21.9999567,14.2399612 21.6919573,14.5454155 21.312458,14.5454155 L21.312458,14.5454155 L15.3541509,14.5454155 C14.9746516,14.5454155 14.6666522,14.2399612 14.6666522,13.8635978 C14.6666522,13.4872344 14.9746516,13.1817801 15.3541509,13.1817801 L15.3541509,13.1817801 Z M6.41666847,10.9090831 C5.65580776,10.9090831 5.04167118,11.5181879 5.04167118,12.2727185 C5.04167118,13.0272491 5.65585107,13.6363539 6.41666847,13.6363539 C7.17748587,13.6363539 7.79166576,13.0272491 7.79166576,12.2727185 C7.79166576,11.5181879 7.17748587,10.9090831 6.41666847,10.9090831 Z M21.312458,10.4545093 C21.6919573,10.4545093 21.9999567,10.7599637 21.9999567,11.136327 C21.9999567,11.5126904 21.6919573,11.8181447 21.312458,11.8181447 L21.312458,11.8181447 L15.3541509,11.8181447 C14.9746516,11.8181447 14.6666522,11.5126904 14.6666522,11.136327 C14.6666522,10.7599637 14.9746516,10.4545093 15.3541509,10.4545093 L15.3541509,10.4545093 Z M21.312458,7.72723856 C21.6919573,7.72723856 21.9999567,8.03269289 21.9999567,8.40905626 C21.9999567,8.78541962 21.6919573,9.09087395 21.312458,9.09087395 L21.312458,9.09087395 L15.3541509,9.09087395 C14.9746516,9.09087395 14.6666522,8.78541962 14.6666522,8.40905626 C14.6666522,8.03269289 14.9746516,7.72723856 15.3541509,7.72723856 L15.3541509,7.72723856 Z M20.3957787,0 C21.2803676,0 22,0.713643011 22,1.59087932 L22,1.59087932 L22,3.86361928 C22,4.74089854 21.2804109,5.45454155 20.3958221,5.45454155 L20.3958221,5.45454155 L1.60417794,5.45454155 C0.719589135,5.45454155 7.10542736e-15,4.74089854 7.10542736e-15,3.86361928 L7.10542736e-15,3.86361928 L7.10542736e-15,1.59087932 C7.10542736e-15,0.713643011 0.719589135,0 1.60417794,0 L1.60417794,0 Z" id="Combined-Shape-Copy" fill="#FFFFFF" fill-rule="nonzero"></path>
    </g>
</svg>