<?xml version="1.0" encoding="UTF-8"?>
<svg width="16px" height="26px" viewBox="0 0 16 26" version="1.1" xmlns="http://www.w3.org/2000/svg" xmlns:xlink="http://www.w3.org/1999/xlink">
    <title>Combined Shape Copy</title>
    <g id="apply-on-program" stroke="none" stroke-width="1" fill="none" fill-rule="evenodd">
        <path d="M12.3668363,21.0041816 L12.3668363,21.6467181 C12.3668363,24.0471017 10.4078802,26 8,26 C5.59211976,26 3.63316375,24.0471524 3.63316375,21.6467181 L3.63316375,21.6467181 L3.63316375,21.0041816 L12.3668363,21.0041816 Z M8.00005094,4.47566499 C12.4112549,4.47566499 16,8.05341417 16,12.4509774 C16,15.1478226 14.6187926,17.6684564 12.3666834,19.13426 L12.3666834,19.13426 L12.3666834,19.4667763 L8.77090881,19.4667763 L8.77090881,15.4916631 C9.77221412,15.1669163 10.4981439,14.2281215 10.4981439,13.1230178 C10.4981439,12.6984857 10.1528803,12.3542898 9.72703135,12.3542898 C9.30118242,12.3542898 8.95591878,12.6984857 8.95591878,13.1230178 C8.95591878,13.6486048 8.52706446,14.0761837 7.99984718,14.0761837 C7.47262991,14.0761837 7.04372465,13.648554 7.04372465,13.1230178 C7.04372465,12.6984857 6.69846101,12.3542898 6.27261208,12.3542898 C5.84676315,12.3542898 5.50149951,12.6984857 5.50149951,13.1230178 C5.50149951,14.2281215 6.22748025,15.1669163 7.22873461,15.4916631 L7.22873461,15.4916631 L7.22873461,19.4667763 L3.63311281,19.4667763 L3.63311281,19.1341585 C1.38115644,17.6683548 8.8817842e-15,15.1477718 8.8817842e-15,12.4509774 C8.8817842e-15,8.05336339 3.58884694,4.47566499 8.00005094,4.47566499 Z M4.3583804,0.605719933 C4.75662046,0.455661046 5.20172428,0.655891906 5.35229957,1.05300206 L5.35229957,1.05300206 L5.83092117,2.3154264 C5.98149646,2.71258733 5.78059357,3.1562132 5.38225163,3.30627208 C5.29254828,3.34009246 5.20034893,3.35613937 5.10977963,3.35613937 C4.79828845,3.35613937 4.50498246,3.16667415 4.38833245,2.85898996 L4.38833245,2.85898996 L3.90971086,1.59656562 C3.75913557,1.19940469 3.96003846,0.75577882 4.3583804,0.605719933 Z M10.6477514,1.05300206 C10.7983267,0.655891906 11.2432777,0.455559484 11.6416705,0.605669152 C12.0400125,0.75577882 12.2409154,1.1993539 12.090391,1.59651484 L12.090391,1.59651484 L11.6117694,2.85893918 C11.4951704,3.16662337 11.2018134,3.35613937 10.8903223,3.35613937 C10.7997529,3.35613937 10.7076045,3.34009246 10.6178503,3.30627208 C10.2195083,3.15616241 10.0186054,2.71253655 10.1691298,2.3154264 L10.1691298,2.3154264 Z M8.00005094,2.88657986e-15 C8.42589987,2.88657986e-15 8.77116351,0.344195985 8.77116351,0.768728064 L8.77116351,0.768728064 L8.77116351,2.11824242 C8.77116351,2.5427745 8.42589987,2.88697048 8.00005094,2.88697048 C7.57420201,2.88697048 7.22893837,2.5427745 7.22893837,2.11824242 L7.22893837,2.11824242 L7.22893837,0.768728064 C7.22893837,0.344195985 7.57420201,2.88657986e-15 8.00005094,2.88657986e-15 Z" id="Combined-Shape-Copy" fill="#FFFFFF" fill-rule="nonzero" transform="translate(8.000000, 13.000000) scale(-1, 1) translate(-8.000000, -13.000000) "></path>
    </g>
</svg>