<?xml version="1.0" encoding="UTF-8"?>
<svg width="23px" height="20px" viewBox="0 0 23 20" version="1.1" xmlns="http://www.w3.org/2000/svg" xmlns:xlink="http://www.w3.org/1999/xlink">
    <title>Combined Shape Copy</title>
    <g id="apply-on-program" stroke="none" stroke-width="1" fill="none" fill-rule="evenodd">
        <path d="M5.0989123,10.7976644 C4.91760726,11.3065081 4.81855433,11.8555989 4.81855433,12.4279906 L4.81855433,12.4279906 L4.81855433,19.3192546 C4.81855433,19.5578816 4.85907394,19.7868843 4.93279088,20 L4.93279088,20 L1.99210936,20 C0.893632605,20 -3.10862447e-15,19.0838971 -3.10862447e-15,17.9579018 L-3.10862447e-15,17.9579018 L-3.10862447e-15,14.2011614 C-3.10862447e-15,12.3244719 1.4894326,10.7976644 3.32018227,10.7976644 L3.32018227,10.7976644 Z M19.6798627,10.7976183 C21.5106123,10.7976183 23,12.3244259 23,14.2010693 L23,14.2010693 L23,17.9578097 C23,19.083805 22.1063674,19.9999079 21.0078906,19.9999079 L21.0078906,19.9999079 L18.067254,19.9999079 C18.140971,19.7868843 18.1814906,19.5578355 18.1814906,19.3192085 L18.1814906,19.3192085 L18.1814906,12.4279445 C18.1814906,11.8555989 18.0824377,11.3064621 17.9011326,10.7976183 L17.9011326,10.7976183 Z M13.5332354,9.02449357 C15.3639851,9.02449357 16.8534177,10.5513011 16.8534177,12.4279906 L16.8534177,12.4279906 L16.8534177,19.3192546 C16.8534177,19.6952003 16.5561241,19.999954 16.1893812,19.999954 L16.1893812,19.999954 L6.81066369,19.999954 C6.44392079,19.999954 6.14662724,19.6951542 6.14662724,19.3192546 L6.14662724,19.3192546 L6.14662724,12.4279906 C6.14662724,10.5513011 7.63605984,9.02449357 9.46680951,9.02449357 L9.46680951,9.02449357 Z M4.48851267,3.81513085 C6.13512722,3.81513085 7.47470015,5.18836429 7.47470015,6.87625196 C7.47470015,7.39573308 7.34743623,7.88519011 7.12372485,8.31423059 C6.80500353,8.92553383 6.2899283,9.41356333 5.66524349,9.68925994 C5.30393614,9.8486823 4.90619708,9.93737308 4.48851267,9.93737308 C2.84189813,9.93737308 1.5023252,8.56418569 1.5023252,6.87625196 C1.5023252,5.18831824 2.84189813,3.81513085 4.48851267,3.81513085 Z M18.5115322,3.81513085 C20.1581468,3.81513085 21.4977197,5.18831824 21.4977197,6.87625196 C21.4977197,8.56418569 20.1581468,9.93737308 18.5115322,9.93737308 C18.0938478,9.93737308 17.6961088,9.8486823 17.3348014,9.68925994 C16.7101166,9.41360938 16.1950414,8.92557987 15.8763201,8.31423059 C15.6526087,7.88523616 15.5253448,7.39577913 15.5253448,6.87625196 C15.5253448,5.18831824 16.8649177,3.81513085 18.5115322,3.81513085 Z M11.5000225,3.55271368e-15 C13.7017377,3.55271368e-15 15.492956,1.83621218 15.492956,4.09317597 C15.492956,5.62403584 14.6687279,6.96112065 13.4513876,7.66309478 C12.8740056,7.99603056 12.208352,8.18630589 11.5000225,8.18630589 C10.791693,8.18630589 10.1260393,7.99603056 9.54865732,7.66309478 C8.33136198,6.96112065 7.50708888,5.62408189 7.50708888,4.09317597 C7.50708888,1.83616613 9.29830722,3.55271368e-15 11.5000225,3.55271368e-15 Z" id="Combined-Shape-Copy" fill="#FFFFFF" fill-rule="nonzero"></path>
    </g>
</svg>