<?xml version="1.0" encoding="UTF-8"?>
<svg width="71px" height="71px" viewBox="0 0 71 71" version="1.1" xmlns="http://www.w3.org/2000/svg" xmlns:xlink="http://www.w3.org/1999/xlink">
    <!-- Generator: Sketch 52.6 (67491) - http://www.bohemiancoding.com/sketch -->
    <title>Cash prize selected</title>
    <desc>Created with Sketch.</desc>
    <defs>
        <path d="M45.0203789,7.12755999 L45.0203789,22.4392849 C45.9921914,22.6316951 46.6843027,22.4720002 47.277541,21.5789837 C47.7273926,20.9020822 48.5153262,20.4300672 49.2056348,19.9412786 C49.521668,19.7174007 49.6816953,19.536219 49.6794766,19.1362885 C49.6606172,15.952786 49.6714336,12.7690063 49.6592305,9.58550389 C49.6538223,8.16987459 48.7844883,7.22515135 47.3826543,7.13615468 C46.6256445,7.0879135 45.8629492,7.12755999 45.0203789,7.12755999 Z M7.11026172,7.12062878 C6.39610156,7.12062878 5.77915039,7.11896529 5.16247656,7.12090603 C3.27764844,7.12686687 2.3642168,8.04123143 2.36324609,9.92845992 C2.36158203,13.5985329 2.35839258,17.2684674 2.36837695,20.9385404 C2.36976367,21.3969703 2.41150391,21.8620541 2.49623242,22.3124438 C2.90878125,24.5085268 5.16386328,26.2460413 7.11026172,25.9420386 L7.11026172,7.12062878 Z M25.9968164,4.74488897 L39.441748,4.74488897 C40.850793,4.74475035 42.2599766,4.75431541 43.6690215,4.74031437 C44.4465547,4.73282867 44.9374531,4.26330885 44.9399492,3.57573332 C44.9423066,2.93057676 44.4654141,2.46022519 43.7379414,2.39826022 C43.5773594,2.38453643 43.4146973,2.39257663 43.2530059,2.392438 C31.7718066,2.39035864 20.2906074,2.38772478 8.8094082,2.39022002 C8.51306641,2.39022002 8.13795898,2.34544443 7.93841016,2.50028755 C7.60559766,2.75840563 7.19277148,3.15001871 7.17169336,3.50655989 C7.15033789,3.86407144 7.51088477,4.30600507 7.8134668,4.5972543 C7.9865293,4.76360322 8.378,4.73906676 8.67101367,4.73934401 C14.4461426,4.74655246 20.2215488,4.74475035 25.9968164,4.74488897 Z M45.7374512,35.1652544 C44.9690703,33.8899127 44.2038789,32.6199774 43.4006914,31.2866908 C43.292666,31.4807645 43.2438535,31.5579781 43.204748,31.6400436 C41.1511563,35.9333706 37.9524121,39.0592054 33.6101797,41.0036856 C33.2259199,41.1757181 33.1292656,41.3894765 33.1305137,41.7806737 C33.1431328,45.7978615 33.1377246,49.8150493 33.1402207,53.832237 C33.1403594,54.0096759 33.1694805,54.1871147 33.184457,54.3583155 L35.4326055,54.3583155 C36.4263281,46.6350124 40.0783906,40.4110676 45.7374512,35.1652544 Z M30.726082,54.3721779 L30.726082,42.0340786 C27.5844707,42.8195227 24.4851543,42.779599 21.3689199,42.0270087 L21.3689199,54.3721779 L30.726082,54.3721779 Z M35.4643613,56.8342805 L34.9389336,56.8342805 C28.5661289,56.8344192 22.1933242,56.8344192 15.8205195,56.8352509 C14.8968262,56.8353895 13.9732715,56.841489 13.0497168,56.8427366 C12.4374805,56.8435684 11.9528223,57.1298271 11.919125,57.730624 C11.8500664,58.9652102 11.8983242,60.2064504 11.8983242,61.4725043 L36.8613418,61.4725043 C36.4008125,59.9434805 35.9516543,58.4518852 35.4643613,56.8342805 Z M60.0910996,24.9056849 C59.780752,26.1594012 59.4950879,27.3687579 59.1796094,28.5704902 C58.948998,29.4492283 58.149832,29.8416732 57.4284609,29.4623976 C56.8841738,29.1764161 56.6890625,28.631762 56.8812617,27.8350893 C57.1512559,26.7163928 57.4028066,25.5909038 57.7379766,24.4916147 C57.9092363,23.9299098 57.7903945,23.5328904 57.4395547,23.1044033 C56.1851289,21.5730229 54.5192637,21.2275716 52.6534336,21.3277969 C51.0926816,21.4113872 49.858502,22.0709606 48.944377,23.3034675 C48.7564766,23.5568724 48.6729961,23.9964494 48.7384492,24.3089081 C48.9930508,25.5245028 49.3416719,26.7198584 49.6263652,27.9294923 C49.8279941,28.7853575 49.4864453,29.4098591 48.7880938,29.5570779 C48.050082,29.7127527 47.515918,29.3327841 47.2968164,28.4859295 C47.0258516,27.438763 46.7404648,26.3943691 46.505416,25.3391624 C46.4217969,24.9641842 46.2588574,24.8663156 45.8994199,24.8658997 C44.2135859,24.8638204 43.2908633,26.370803 44.1380098,27.8287126 C45.3196328,29.8620509 46.5335664,31.8769522 47.7696875,33.8775752 C47.9015645,34.0910563 48.2716797,34.2709904 48.5330762,34.2734856 C51.6738555,34.3030126 54.8150508,34.2872094 57.9558301,34.3093893 C58.3932012,34.3123004 58.6105,34.1383271 58.8180918,33.7864992 C59.9543691,31.86004 61.103127,29.9406508 62.2681094,28.0315197 C62.7237852,27.2850289 62.8987891,26.5379836 62.4026211,25.762659 C61.8738652,24.9363208 61.0630508,24.7907655 60.0910996,24.9056849 Z M8.31074414,68.6020803 L43.814627,68.6020803 C43.504002,68.3909558 43.3296914,68.2614809 43.1449805,68.1485023 C41.5117031,67.1505474 40.0991914,65.8972469 38.9050879,64.4084241 C38.6134609,64.0448131 38.3236367,63.9096546 37.8650488,63.9104863 C29.9152676,63.9233784 21.9654863,63.9197741 14.0155664,63.9199128 C12.5364922,63.9199128 11.057418,63.9121498 9.57848242,63.9236556 C8.82133398,63.9294778 8.33764648,64.328438 8.31948047,65.0147659 C8.2882793,66.1894665 8.31074414,67.3654147 8.31074414,68.6020803 Z M52.9281426,68.6307755 C56.2084258,68.6338252 59.1697637,67.8417271 61.7142539,66.3682916 C66.6294785,63.521923 69.3722695,58.3527689 68.4552324,53.1582467 C67.315627,46.7018292 64.0945566,41.3668808 59.1699023,37.0574734 C58.9535742,36.8679743 58.5984355,36.7484803 58.3069473,36.7465395 C54.9562188,36.7233893 51.6050742,36.719092 48.2543457,36.7436284 C47.9216719,36.7459851 47.5182754,36.8890451 47.2697754,37.1065463 C42.7037266,41.0996135 39.6844238,46.0508505 38.2599863,51.9433451 C37.2733359,56.0247158 38.134627,59.7492681 40.8123809,62.9749123 C44.0294297,66.8497331 48.3081504,68.5025482 52.9281426,68.6307755 Z M42.5825273,7.17330594 L9.50637305,7.17330594 C9.49236719,7.42698804 9.47128906,7.63076547 9.47128906,7.83468152 C9.46976367,12.7777397 9.45312305,17.7207978 9.48238281,22.6635787 C9.49000977,23.9756558 9.51954687,25.3078334 9.74391797,26.5952354 C11.2410195,35.1817507 19.1363027,41.133715 27.8584863,40.0872417 C34.5707598,39.2818357 39.1433262,35.5405099 41.5860312,29.2369948 C41.7206816,28.8894642 41.6923926,28.426737 41.5993437,28.0527292 C41.2627871,26.7000352 41.4236465,25.4619834 42.1945234,24.2810447 C42.414873,23.9436336 42.5642227,23.4913032 42.5664414,23.0908181 C42.5914023,18.3326846 42.5825273,13.5744124 42.5825273,8.81614014 L42.5825273,7.17330594 Z M55.0527344,71 L51.4472656,71 C49.6161035,70.5859298 47.7850801,70.1718596 46.0459961,69.7787217 C45.4981035,70.1790681 44.9366211,70.589534 44.375,71 L7.62695312,71 C6.61991797,70.4974876 5.90229102,69.7936931 5.90658984,68.5711672 C5.91075,67.4171215 5.88024219,66.2625214 5.90520313,65.1091689 C5.93931641,63.5184574 6.72489258,62.4025334 8.17276562,61.7723482 C8.54329688,61.6111284 8.96513672,61.5676004 9.44410937,61.4501858 C9.44410937,60.4070394 9.44189062,59.3512783 9.44452539,58.2952399 C9.45048828,55.9332239 10.9211035,54.4352519 13.2735332,54.4136265 C14.8897539,54.3989324 16.506252,54.4084974 18.1224727,54.4072498 C18.3657031,54.4071112 18.6087949,54.4072498 18.8542441,54.4072498 C18.8787891,54.2140078 18.9001445,54.1245953 18.9001445,54.0351827 C18.9027793,49.926503 18.8945977,45.8176847 18.9173398,41.7091437 C18.9196973,41.2550111 18.6904727,41.1223479 18.3576602,40.9713862 C14.5378047,39.2390009 11.5487324,36.5742298 9.54131836,32.8883536 C8.77792969,31.4867253 8.22851172,29.9687915 7.54888086,28.4303412 C7.44931445,28.4303412 7.24338672,28.4335296 7.03745898,28.4297867 C3.76549609,28.3693466 0.982212891,26.1609261 0.188039062,22.9983559 C0.132708984,22.7779436 0.0629570312,22.5612741 0,22.3429411 L0,8.6191553 C0.336417969,7.66043103 0.712773437,6.73261993 1.49363477,6.02009206 C2.440625,5.1557708 3.5642832,4.7629101 4.82481055,4.70496523 C4.83216016,4.60141303 4.85739844,4.52932849 4.83867773,4.471245 C4.18386914,2.43679772 5.901875,-0.0143536092 8.56479102,6.32971521e-05 C20.2334746,0.062582766 31.9024355,0.0262632519 43.5713965,0.0306992231 C43.914748,0.0308378472 44.2690547,0.0409574065 44.5997871,0.12191388 C46.6357676,0.620406142 47.6125723,2.34336507 47.2004395,4.67252719 C47.2406543,4.69304356 47.2796211,4.72631334 47.3217773,4.73074931 C50.4850215,5.06677413 52.0909805,6.856134 52.0948633,10.0529444 C52.0980527,12.7785714 52.1008262,15.5041984 52.1035996,18.2298255 C52.1037383,18.4753288 52.1035996,18.7211093 52.1035996,19.0059818 C52.4515273,18.9767321 52.7004434,18.9488687 52.9500527,18.9355608 C55.6545703,18.7902827 57.8959238,19.7040928 59.5122832,21.9150085 C59.8484238,22.3749633 60.181791,22.4954276 60.7074961,22.4943186 C62.4486602,22.4901599 63.7901719,23.2534242 64.5977969,24.7994988 C65.364791,26.2682211 65.2189082,27.7351413 64.3717617,29.1475823 C63.1649004,31.1595725 61.9663594,33.1766917 60.758666,35.2010195 C60.9106504,35.345743 61.0238066,35.4587217 61.1425098,35.5657395 C65.2799238,39.2988865 68.1864863,43.840212 69.9264023,49.1155521 C70.3996895,50.5500342 70.6483281,52.0586803 71,53.5333635 L71,56.5830937 C70.8366445,57.3198808 70.7187734,58.0703916 70.5028613,58.7915142 C68.736043,64.6916331 64.6735117,68.2880967 58.9444219,70.1427486 C57.686668,70.5501648 56.3519512,70.7205338 55.0527344,71 Z M21.3574518,27.5200661 C21.3611959,28.1994628 21.9301666,28.5725002 22.5476725,28.2571304 C23.4710885,27.7858085 24.3809146,27.2860686 25.2803404,26.7702483 C25.7939811,26.4758107 26.2681002,26.4733155 26.7795221,26.763733 C27.6008756,27.2300644 28.4207037,27.7052679 29.2743678,28.1060301 C29.5870729,28.2526944 30.1070924,28.3531969 30.3275807,28.1929474 C30.5606881,28.0232715 30.6588678,27.5073126 30.6244771,27.1617228 C30.5292096,26.2010578 30.3687662,25.242888 30.167276,24.2980261 C30.026108,23.6356802 30.1907115,23.136772 30.6678814,22.678758 C31.3504244,22.0236205 32.0379596,21.367374 32.6525533,20.6509647 C32.8878795,20.3766276 33.0852096,19.8974041 33.0088014,19.5818956 C32.9469537,19.3259955 32.4729732,19.0727293 32.1412701,18.9978723 C31.2894088,18.8060165 30.4178561,18.6897109 29.5487994,18.5890698 C28.8166119,18.5045091 28.3173932,18.1860896 28.0213287,17.486731 C27.6444186,16.5969029 27.2315924,15.7188579 26.7723111,14.8693694 C26.6319752,14.6098651 26.2868209,14.3041989 26.0362408,14.304892 C25.7809459,14.3057238 25.4309381,14.605845 25.2899088,14.8657651 C24.8185631,15.7350769 24.3947818,16.6334997 24.0062232,17.5435669 C23.7274928,18.1964864 23.2524029,18.4885674 22.5826178,18.5785344 C21.6694635,18.701494 20.7533971,18.8197403 19.8521686,19.0063284 C19.5534693,19.0680161 19.1173463,19.2921713 19.0647896,19.5168809 C18.9911549,19.832528 19.118733,20.2992753 19.3335357,20.5578093 C19.8919674,21.2302748 20.5054518,21.8703023 21.1703834,22.4372748 C21.8997975,23.0591425 22.0487311,23.7676503 21.8502916,24.6613599 C21.6408971,25.604281 21.5172018,26.5661936 21.3574518,27.5200661 Z M18.98644,27.2189745 C19.0801822,26.6539427 19.2051256,25.7872648 19.3738893,24.9293203 C19.474565,24.4173815 19.4385104,24.0124605 18.9975338,23.639423 C18.4707193,23.1933307 18.0027018,22.6748765 17.5298307,22.1684827 C16.6215299,21.1953415 16.3071607,20.0647234 16.7457799,18.7853616 C17.1749693,17.5340018 18.0684322,16.8282665 19.3835963,16.6425102 C20.1139811,16.5393739 20.8460299,16.4309699 21.5643502,16.2682252 C21.7878893,16.2176274 22.0469283,16.0228605 22.1555084,15.8217169 C22.5274264,15.1333097 22.8331979,14.4094146 23.1758561,13.7049269 C23.7539791,12.5169184 24.7199674,11.8498592 26.0293072,11.8487503 C27.3383697,11.8475026 28.3056061,12.5083237 28.8846998,13.6997979 C29.2272193,14.4047014 29.5458873,15.1223584 29.9225201,15.8085476 C30.0331803,16.010523 30.2862564,16.2126369 30.5077154,16.2614326 C31.2722135,16.4302767 32.0537682,16.5196893 32.8247838,16.66067 C35.3350221,17.1203475 36.3740904,20.019116 34.7109986,21.9599921 C34.1710104,22.5901772 33.5698678,23.1703191 32.972192,23.7476884 C32.6795943,24.0302044 32.6017994,24.2865203 32.6655885,24.7141757 C32.8376803,25.8676668 33.1176588,27.0638541 32.9712213,28.1935019 C32.6938775,30.3335808 30.4141119,31.3860149 28.4828287,30.415369 C27.8030592,30.0737992 27.1615631,29.6532137 26.4711158,29.3377052 C26.2289947,29.2270832 25.8504205,29.2320737 25.6062193,29.3426957 C24.9148014,29.6561248 24.2712252,30.0731061 23.5897916,30.4107944 C21.3857408,31.5025978 18.9725729,29.9841094 18.98644,27.2189745 Z M54.5000299,60.0041285 C55.7790006,59.6778074 56.7369459,58.3432732 56.766899,56.8791254 C56.7982389,55.3509334 55.8814791,54.0079431 54.5000299,53.6013586 L54.5000299,60.0041285 Z M51.9972799,44.1520469 C50.6919615,44.4864082 49.7433072,45.8499148 49.7377604,47.3549567 C49.7322135,48.8380959 50.6736568,50.1794227 52.0283424,50.5577279 C52.0283424,48.616436 52.0293131,46.6891451 52.0269557,44.7619929 C52.0266783,44.5612652 52.0078189,44.3603989 51.9972799,44.1520469 Z M54.4896295,44.033246 L54.4896295,50.9898192 C56.1108424,51.3916905 57.3985494,52.2571207 58.2842467,53.677186 C60.3009518,56.9105931 58.7787506,61.1785519 55.1684283,62.4016323 C54.7752936,62.5348501 54.485608,62.6629387 54.3051959,63.1388353 C54.1766471,63.4779098 53.6684146,63.7927251 53.2758346,63.8818604 C52.772317,63.9960867 52.2976432,63.6692111 52.168401,63.1495093 C52.0545514,62.6917725 51.7978697,62.5441379 51.3982174,62.4129995 C49.0683912,61.6484876 47.5008443,59.6141789 47.3200162,57.1649683 C47.2573365,56.3196386 47.6707174,55.7105243 48.3649088,55.6248546 C49.1062486,55.5332241 49.6375006,56.0166063 49.7238932,56.933882 C49.8631197,58.4121693 50.5679889,59.4543453 52.0026881,60.1025516 L52.0026881,53.1829911 C51.7240963,53.0808251 51.4270611,52.9758867 51.1327994,52.8630467 C48.7856393,51.9640694 47.2465201,49.6939611 47.3062877,47.2220162 C47.36661,44.7238713 48.9758971,42.537492 51.3578639,41.7402648 C51.7360221,41.613701 52.0531646,41.5195752 52.1567525,41.031757 C52.2681061,40.5063717 52.7082506,40.2442335 53.2453268,40.2422928 C53.7814322,40.2404907 54.2093736,40.5009653 54.3490162,41.0194195 C54.4617564,41.437787 54.6959732,41.5894418 55.0751021,41.713649 C57.4221236,42.4825968 59.0232291,44.5686123 59.1806217,47.019625 C59.2344264,47.8549738 58.8009381,48.4575728 58.0955143,48.5281324 C57.3896744,48.5986921 56.8499635,48.1135078 56.7803502,47.2429484 C56.6609537,45.7516304 55.9423561,44.7190194 54.4896295,44.033246 Z" id="path-1"></path>
    </defs>
    <g id="Oifa-seeker" stroke="none" stroke-width="1" fill="none" fill-rule="evenodd">
        <g id="Cash-prize-selected">
            <mask id="mask-2" fill="white">
                <use xlink:href="#path-1"></use>
            </mask>
            <use id="Combined-Shape" fill="#FBCA67" xlink:href="#path-1"></use>
        </g>
    </g>
</svg>