<?xml version="1.0" encoding="UTF-8"?>
<svg width="71px" height="71px" viewBox="0 0 71 71" version="1.1" xmlns="http://www.w3.org/2000/svg" xmlns:xlink="http://www.w3.org/1999/xlink">
    <!-- Generator: Sketch 52.6 (67491) - http://www.bohemiancoding.com/sketch -->
    <title>Equipment selected</title>
    <desc>Created with Sketch.</desc>
    <g id="Oifa-seeker" stroke="none" stroke-width="1" fill="none" fill-rule="evenodd">
        <g id="Equipment-selected" fill="#FBCA67" fill-rule="nonzero">
            <path d="M9.03263096,4.34107978 C10.8472824,4.34107978 12.3233796,5.81717685 12.3233796,7.63182827 C12.3233796,9.44647983 10.8472824,10.9231186 9.03263096,10.9231186 C7.2179794,10.9231186 5.74134067,9.44702148 5.74134067,7.63236993 C5.74134067,5.81771851 7.2179794,4.34107978 9.03263096,4.34107978 Z M9.03263096,8.82245639 C9.68861396,8.82245639 10.2227173,8.28835293 10.2227173,7.63182827 C10.2227173,6.97584541 9.68861396,6.44174194 9.03263096,6.44174194 C8.3761063,6.44174194 7.84200283,6.97584541 7.84200283,7.63182827 C7.84200283,8.28835293 8.3761063,8.82245639 9.03263096,8.82245639 Z M17.8550872,4.34107978 C19.6697388,4.34107978 21.1458358,5.81771851 21.1458358,7.63236993 C21.1458358,9.44702148 19.6697388,10.9231186 17.8550872,10.9231186 C16.0404358,10.9231186 14.5637971,9.44702148 14.5637971,7.63236993 C14.5637971,5.81771851 16.0404358,4.34107978 17.8550872,4.34107978 Z M17.8550872,8.82245639 C18.5110702,8.82245639 19.0451737,8.28835293 19.0451737,7.63182827 C19.0451737,6.97584541 18.5110702,6.44174194 17.8550872,6.44174194 C17.1985627,6.44174194 16.6644592,6.97584541 16.6644592,7.63182827 C16.6644592,8.28835293 17.1985627,8.82245639 17.8550872,8.82245639 Z M26.6775436,4.34107978 C28.4921952,4.34107978 29.9682922,5.81771851 29.9682922,7.63236993 C29.9682922,9.44702148 28.4921952,10.9231186 26.6775436,10.9231186 C24.8628922,10.9231186 23.3867951,9.44702148 23.3867951,7.63236993 C23.3867951,5.81771851 24.8628922,4.34107978 26.6775436,4.34107978 Z M26.6775436,8.82245639 C27.3335266,8.82245639 27.8681717,8.28835293 27.8681717,7.63182827 C27.8681717,6.97584541 27.3340683,6.44174194 26.6775436,6.44174194 C26.0210189,6.44174194 25.4874573,6.97584541 25.4874573,7.63182827 C25.4874573,8.28835293 26.0210189,8.82245639 26.6775436,8.82245639 Z M67.1491471,0 C69.2725602,3.94129174e-15 71,1.72743985 71,3.85085293 L71,19.3279342 C71,19.9075394 70.5298157,20.3777237 69.9496688,20.3777237 C69.3695222,20.3777237 68.8993377,19.9075394 68.8993377,19.3279342 L68.8993377,15.2641983 L2.1006623,15.2641983 L2.1006623,50.2040939 C2.1006623,51.1693802 2.88556675,51.9542847 3.85085293,51.9542847 L12.7144775,51.9542847 L18.9048767,45.7638855 L18.9048767,39.71595 L14.8714753,35.6825485 C14.6743011,35.4853744 14.5637971,35.2183228 14.5637971,34.9398957 L14.5637971,26.3270721 C14.5637971,26.0464783 14.6759262,25.7772599 14.8758088,25.5800858 L20.4773941,20.048378 C20.7791138,19.7509919 21.2297974,19.6632385 21.6203537,19.8268279 C22.0114518,19.9898758 22.2660446,20.3717651 22.2660446,20.7959061 L22.2660446,24.6408004 C22.2660446,25.2209473 21.7958603,25.6911316 21.2157136,25.6911316 C20.6355667,25.6911316 20.1653824,25.2209473 20.1653824,24.6408004 L20.1653824,23.3087922 L16.6644592,26.7658386 L16.6644592,34.5043792 L20.6978606,38.5377808 C20.8950349,38.7349548 21.0055389,39.0020065 21.0055389,39.2809753 L21.0055389,45.7340927 L25.7588424,50.4873962 C26.5350799,50.1098404 27.3335266,49.778328 28.1476822,49.4971924 L28.1476822,42.3615494 C28.1476822,41.8534469 28.5084457,41.4298478 28.9878387,41.3323441 L28.9878387,39.2809753 C28.9878387,39.0020065 29.098343,38.7349548 29.2955169,38.5377808 L33.3289185,34.5043792 L33.3289185,26.7658386 L29.8279953,23.3087922 L29.8279953,30.7380294 C29.8279953,31.0993347 29.6427384,31.434639 29.3372269,31.6269378 L25.5562516,34.0076522 C25.214447,34.2232437 24.7789307,34.2232437 24.4371261,34.0076522 L20.6561508,31.6269378 C20.3506393,31.434639 20.1653824,31.0993347 20.1653824,30.7380294 L20.1653824,29.5598602 C20.1653824,28.9797135 20.6355667,28.5095291 21.2157136,28.5095291 C21.7958603,28.5095291 22.2660446,28.9797135 22.2660446,29.5598602 L22.2660446,30.1584244 L24.9966888,31.8777389 L27.7273331,30.1584244 L27.7273331,20.7953644 C27.7273331,20.3717651 27.9819259,19.9898758 28.373024,19.8262863 C28.7635803,19.6632385 29.2142639,19.7504501 29.5159835,20.048378 L35.1170272,25.5800858 C35.3169099,25.7772599 35.4295808,26.0464783 35.4295808,26.3270721 L35.4295808,34.9398957 C35.4295808,35.2183228 35.3190765,35.4853744 35.1219025,35.6825485 L31.088501,39.71595 L31.088501,41.3112183 L39.3508529,41.3112183 L39.3508529,38.5805741 C39.3508529,38.0004272 39.8210373,37.5302429 40.4011841,37.5302429 L42.2916717,37.5302429 L42.2916717,31.0581665 L40.8090744,29.689865 C40.5111466,29.4146882 40.3979339,28.9932556 40.5181885,28.606491 L43.0386581,20.484436 C43.1751632,20.0451278 43.5819702,19.745575 44.0418625,19.745575 L46.842926,19.745575 C47.3028183,19.745575 47.7096252,20.0451278 47.8461304,20.484436 L50.3666,28.606491 C50.4868546,28.9932556 50.3736419,29.4146882 50.0757141,29.689865 L48.5936584,31.0581665 L48.5936584,37.5302429 L50.4841462,37.5302429 C51.0637512,37.5302429 51.5344772,38.0004272 51.5344772,38.5805741 L51.5344772,45.7638855 L57.7248764,51.9542847 L67.1486053,51.9542847 C68.1138916,51.9542847 68.8993377,51.1693802 68.8993377,50.2040939 L68.8993377,24.220993 C68.8993377,23.6408463 69.3695222,23.170662 69.9496688,23.170662 C70.529274,23.170662 70.9994583,23.6408463 70.9994583,24.220993 L70.9994583,50.2040939 C70.9994583,52.327507 69.2720184,54.054947 67.1486053,54.054947 L59.8130798,54.054947 C60.134842,54.4671708 60.1066741,55.0635681 59.728035,55.442749 L54.681137,60.4891052 C55.0592346,61.264801 55.3902054,62.0637894 55.6718827,62.8774032 L62.8075256,62.8774032 C63.3876725,62.8774032 63.8578568,63.3475876 63.8578568,63.9277344 L63.8578568,69.9496688 C63.8578568,70.5298157 63.3876725,71 62.8075256,71 L42.0814973,71 C41.5013504,71 41.0311661,70.5298157 41.0311661,69.9496688 C41.0311661,66.7450485 38.4240266,64.1379089 35.2199478,64.1379089 C32.0153275,64.1379089 29.4081878,66.7450485 29.4081878,69.9496688 C29.4081878,70.5298157 28.9380036,71 28.3578568,71 L7.63182827,71 C7.05222324,71 6.58203891,70.5298157 6.58203891,69.9496688 L6.58203891,63.9277344 C6.58203891,63.3475876 7.05222324,62.8774032 7.63182827,62.8774032 L14.7674714,62.8774032 C15.0491486,62.0637894 15.3801193,61.264801 15.7582169,60.4891052 L10.7118607,55.442749 C10.3326798,55.0635681 10.3045121,54.4671708 10.6262741,54.054947 L3.85085293,54.054947 C1.72743985,54.054947 0,52.327507 0,50.2040939 L0,3.85085293 C0,1.72743985 1.72743985,0 3.85085293,0 L67.1491471,0 Z M44.0543213,29.826912 C44.2699128,30.0257111 44.392334,30.3052215 44.3928756,30.5988159 L44.3928756,37.5307846 L46.4929963,37.5307846 L46.4929963,30.5988159 C46.4929963,30.3052215 46.6159591,30.0257111 46.831009,29.826912 L48.1641007,28.5961991 L46.069397,21.8462371 L44.8164749,21.8462371 L42.7212296,28.5961991 L44.0543213,29.826912 Z M49.433815,39.6309051 L49.433815,39.6314469 L41.4515152,39.6314469 L41.4515152,41.3328857 C41.9309082,41.4303894 42.2916717,41.8539886 42.2916717,42.3620911 L42.2916717,49.4971924 C43.1058273,49.7788696 43.904274,50.1103821 44.6805115,50.4879379 L49.433815,45.7346345 L49.433815,39.6309051 Z M26.0502701,52.6969376 C25.6423797,52.9141541 25.1402359,52.8394012 24.8135986,52.512764 L19.9703751,47.6695403 L13.8931885,53.7472687 C13.8926468,53.7472687 13.8921052,53.7478104 13.8921052,53.7483521 L12.9398193,54.7000961 L17.7830429,59.5433196 C18.1096802,59.8699569 18.1844329,60.3721008 17.9672165,60.7799911 C17.3800277,61.8817826 16.8979264,63.0442428 16.5344543,64.2348709 C16.3995743,64.6763459 15.9916839,64.9780655 15.5296249,64.9780655 L8.68215942,64.9780655 L8.68215942,68.8993377 L19.3620605,68.8993377 C19.629654,64.9038543 21.4128875,61.1071701 24.3499146,58.3532333 C24.7729721,57.9567184 25.4376221,57.9783859 25.834137,58.4009018 C26.2311935,58.8245011 26.209526,59.4891511 25.7864685,59.8856658 C23.2318726,62.2815475 21.7200241,65.4504166 21.4648895,68.8993377 L27.3774032,68.8993377 C27.8925476,65.0316926 31.2130891,62.0377884 35.2199478,62.0377884 C39.2268066,62.0377884 42.547348,65.0316926 43.0624923,68.8993377 L48.9739227,68.8993377 C48.4360275,61.7821122 42.4725952,56.1561508 35.2199478,56.1561508 C33.2671662,56.1561508 31.381012,56.5553742 29.6129456,57.3429871 C29.0837174,57.5786209 28.4618607,57.3408203 28.2262268,56.8110505 C27.9900513,56.2807389 28.2283936,55.6599655 28.7581634,55.4237899 C30.7970734,54.5159225 32.9708634,54.0554886 35.2199478,54.0554886 C43.6312638,54.0554886 50.5361481,60.622902 51.0789185,68.8993377 L61.7571945,68.8993377 L61.7571945,64.9780655 L54.909729,64.9780655 C54.4482117,64.9780655 54.0403214,64.6763459 53.9054412,64.2348709 C53.5419693,63.0442428 53.0598678,61.8817826 52.4726791,60.7799911 C52.2554626,60.3721008 52.3302155,59.8699569 52.6568527,59.5433196 L57.5000764,54.7000961 L56.5477905,53.7483521 C56.5472489,53.7478104 56.5472489,53.7472687 56.5467072,53.7472687 L50.4695206,47.6695403 L45.6262971,52.512764 C45.299118,52.8394012 44.7975159,52.9141541 44.3896256,52.6969376 C43.2872925,52.1097489 42.1248322,51.6276474 40.9347458,51.2641755 C40.4932708,51.1292953 40.1910095,50.721405 40.1910095,50.259346 L40.1910095,43.4118806 L30.2483444,43.4118806 L30.2483444,50.259346 C30.2483444,50.721405 29.9466248,51.1292953 29.5051498,51.2641755 C28.3150635,51.6276474 27.1526032,52.1097489 26.0502701,52.6969376 Z M2.1006623,13.163536 L68.8993377,13.163536 L68.8993377,3.85085293 C68.8993377,2.8861084 68.1144333,2.1006623 67.1491471,2.1006623 L3.85085293,2.1006623 C2.8861084,2.1006623 2.1006623,2.88556675 2.1006623,3.85085293 L2.1006623,13.163536 Z" id="Combined-Shape"></path>
        </g>
    </g>
</svg>