<?xml version="1.0" encoding="UTF-8"?>
<svg width="82px" height="71px" viewBox="0 0 82 71" version="1.1" xmlns="http://www.w3.org/2000/svg" xmlns:xlink="http://www.w3.org/1999/xlink">
    <!-- Generator: Sketch 52.6 (67491) - http://www.bohemiancoding.com/sketch -->
    <title>Incubation Selected</title>
    <desc>Created with Sketch.</desc>
    <g id="Oifa-seeker" stroke="none" stroke-width="1" fill="none" fill-rule="evenodd">
        <g id="Incubation-Selected" fill="#FBCA67" fill-rule="nonzero">
            <g id="Group-4">
                <g id="Group-7">
                    <path d="M80.7277617,51.046115 C80.0251469,51.046115 79.4555234,50.4788477 79.4555234,49.7787618 L79.4555234,45.4983185 L55.515391,45.4983185 L55.515391,68.4649556 L79.4555234,68.4649556 L79.4555234,56.0031559 C79.4555234,55.30307 80.0251469,54.7358027 80.7277617,54.7358027 C81.4303765,54.7358027 82,55.30307 82,56.0031559 L82,69.7323088 C82,70.4323947 81.4303765,70.999662 80.7277617,70.999662 L1.27223831,71 C0.5696235,71 -2.84217094e-14,70.4327327 -2.84217094e-14,69.7326468 L-2.84217094e-14,56.7985468 C-2.84217094e-14,56.0984609 0.5696235,55.5311935 1.27223831,55.5311935 L11.8467439,55.5311935 C11.5783864,54.1932065 11.6353827,52.2303298 12.5449483,51.1713295 L17.9032768,44.9310512 C18.4325279,44.302444 18.8971494,43.6402097 19.2467604,42.8941611 L24.2921183,32.1201379 L25.313132,23.208955 C23.3740712,24.2328074 21.6884402,25.3634555 20.8979561,27.5250531 L18.9387091,32.8822397 C18.9197104,32.9368204 18.8974886,32.9905561 18.8706868,33.0429401 L16.6213695,37.43829 C15.2880637,40.0437993 11.2988333,39.5238465 10.6764543,36.6721327 L9.81760861,32.7367475 C9.76570128,32.499668 9.78792305,32.2267646 9.87935457,31.99881 L13.4438271,23.0681943 C14.4473686,20.5537655 16.3874472,19.0579508 18.6498262,17.7417622 C19.2565991,17.3887621 20.0357178,17.5925525 20.3900786,18.1969955 C20.7444394,18.8014385 20.5398635,19.5775656 19.9330906,19.9305657 C18.1711254,20.955432 16.5984692,22.0245712 15.8083244,24.0045149 L12.9366281,31.1993636 L16.8466405,31.1993636 L18.5076748,26.6571696 C19.845391,22.9994193 23.0585561,21.5306414 26.2556061,19.8426959 C27.1398966,19.375803 28.2287629,20.1166132 28.1154489,21.1063315 L26.9590691,31.1993636 L36.9608978,31.1993636 L38.2797849,19.6880788 C38.343736,19.0508536 38.9038602,18.5499956 39.5454075,18.5499956 L47.894005,18.5499956 C48.4663426,18.5499956 49.041055,18.4923733 49.6020273,18.3788184 L59.5349855,16.3672754 L59.5349855,13.1105156 L50.1088871,15.0194875 C49.381506,15.1668384 48.6363136,15.2413588 47.894005,15.2413588 L30.3208316,15.2406829 C28.4681134,15.2406829 26.8696731,15.896158 25.3000703,16.8088213 C25.0985478,16.9260937 24.8776872,16.9818572 24.65988,16.9818572 C24.2223997,16.9818572 23.7966239,16.7569443 23.5599876,16.35325 C23.2057964,15.748807 23.410542,14.9726799 24.0173149,14.6198488 C26.0057385,13.4633467 28.0672735,12.692458 30.4041208,12.7058075 C29.9286429,11.9202174 29.654518,11.000457 29.654518,10.0181737 L29.654518,3.58965126 C29.654518,1.61021451 31.2711088,-1.70530257e-13 33.2580058,-1.70530257e-13 L38.9978362,-1.70530257e-13 C42.8956351,-1.70530257e-13 43.8286098,5.61538864 40.139458,6.87074425 L40.139458,10.0185117 C40.139458,11.0007949 39.8653331,11.9203864 39.3898552,12.7061454 L40.2147745,12.7061454 C40.2191849,12.7061454 40.2234257,12.7068213 40.2278362,12.7068213 L47.8938353,12.7068213 C48.4661729,12.7068213 49.0408854,12.649199 49.6018577,12.5356442 L65.3771038,9.02575167 C67.5434712,8.44817656 69.1076458,11.207627 67.4919032,12.7559946 L61.6889698,18.3164646 C61.5169632,18.4817275 61.2944063,18.5974791 61.0604841,18.6449626 L50.1087174,20.8628307 C49.3813364,21.0101817 48.636144,21.084702 47.8938353,21.084702 L40.6805834,21.084702 L39.5214894,31.2010534 L41.5733554,31.2010534 C45.459789,31.2010534 48.6215556,34.3506796 48.6215556,38.2220212 L48.6215556,45.3345765 C49.7373935,45.5677695 50.7673976,46.1515969 51.5443111,46.9821357 C51.9300538,47.3944479 52.2503186,47.8642135 52.4945883,48.3723377 C52.6038312,48.5994474 52.7829624,49.4100465 52.9709144,49.4904812 L52.9709144,44.2309653 C52.9709144,43.5308794 53.5405379,42.9636121 54.2431527,42.9636121 L80.7277617,42.9636121 C81.4303765,42.9636121 82,43.5308794 82,44.2309653 L82,49.7787618 C82,50.4788477 81.4303765,51.046115 80.7277617,51.046115 Z M32.1986554,7.06219908 L32.1986554,10.0181737 C32.1986554,11.4999631 33.4089781,12.7056385 34.8966487,12.7056385 C36.3843194,12.7056385 37.5946421,11.5001321 37.5946421,10.0181737 L37.5946421,7.06219908 L32.1986554,7.06219908 Z M32.1986554,3.58965126 L32.1986554,4.52749264 L38.8668804,4.52749264 C40.2359785,4.62144576 40.364729,2.53470644 38.9974969,2.53470644 L33.2576665,2.53470644 C32.6736243,2.53470644 32.1986554,3.00802062 32.1986554,3.58965126 Z M62.0791229,14.4251833 L64.8200331,11.7987205 L62.0791229,12.5315886 L62.0791229,14.4251833 Z M14.3547497,36.2866884 L15.661084,33.734408 L12.6396028,33.734408 L13.1630865,36.1330852 C13.2877658,36.704577 14.0857137,36.8123865 14.3547497,36.2866884 Z M50.214398,49.4904812 C49.7336616,48.4637561 48.6878817,47.7508276 47.4780679,47.7508276 L42.3195656,47.7508276 L42.3195656,48.9235518 C42.3195656,49.2336309 42.5709599,49.4859187 42.881386,49.4904812 L50.214398,49.4904812 Z M27.7573562,49.4904812 L39.82988,49.4904812 C39.6500703,48.5261099 39.7752586,47.4596744 39.7752586,46.4834744 L39.7752586,40.8310791 C39.7752586,40.3875054 39.4130947,40.0267322 38.9678113,40.0267322 L30.6563633,40.0267322 C29.7601986,41.9575026 29.032139,44.2901085 27.6983244,45.9728156 L23.026326,51.8538414 C24.3080637,52.6252371 25.0783616,54.0433209 25.0510509,55.5306866 L26.4851179,55.5306866 L26.4851179,50.7578344 C26.4851179,50.0577485 27.0547414,49.4904812 27.7573562,49.4904812 Z M19.830633,46.5853696 L15.8191808,51.2571716 L20.2557302,51.2570026 L25.7020976,44.4011286 C26.4199793,43.4955625 26.8255689,42.2405448 27.3061357,41.2052017 C27.7565081,40.2349161 28.2067108,39.2647995 28.6570832,38.2945138 C28.8526686,37.80126 29.3583409,37.473269 29.8867439,37.4920258 L38.9678113,37.4920258 C40.8161192,37.4920258 42.3197352,38.9898683 42.3197352,40.8310791 L42.3197352,45.2161212 L46.077079,45.2161212 L46.077079,38.2218523 C46.077079,35.7481478 44.0567646,33.7355908 41.5733554,33.7355908 L26.3439843,33.7337321 L21.5525652,43.965666 C21.1071121,44.9161809 20.5278196,45.7974139 19.830633,46.5853696 Z M14.3293049,54.9118803 C14.3293049,55.2530518 14.6078403,55.5306866 14.9504965,55.5306866 L22.5065743,55.5306866 C22.5503393,54.6061947 21.8129499,53.79154 20.8714936,53.79154 L14.3293049,53.791878 L14.3293049,54.9118803 Z M2.54447662,58.065393 L2.54447662,68.4647866 L26.4851179,68.4647866 L26.4851179,58.065393 L2.54447662,58.065393 Z M52.9702358,68.4647866 L52.9702358,52.0251876 L29.0295945,52.0251876 L29.0295945,68.4647866 L52.9702358,68.4647866 Z M65.2856723,21.6801891 C65.7019487,20.8400184 66.544849,20.3180378 67.4851179,20.3182068 C68.4257261,20.3180378 69.2686264,20.8400184 69.6850724,21.680358 L71.451957,25.24669 L75.4030203,25.8188577 C76.3337898,25.9535351 77.0925528,26.5907603 77.3833016,27.4817941 C77.6740505,28.3728279 77.4360571,29.3328058 76.7624493,29.986929 L73.9034754,32.7631085 L74.5784402,36.6831165 C74.9143111,38.6326437 72.7776293,40.1798285 71.0192263,39.2590541 L67.4852875,37.4083805 L63.9513488,39.2590541 C63.1186264,39.6950236 62.128825,39.6238829 61.3678568,39.0728377 C60.6068887,38.5221305 60.2330203,37.6064255 60.3919652,36.6829475 L61.0669301,32.7629395 L58.2079561,29.986591 C57.5343484,29.3326368 57.2965246,28.3728279 57.5872735,27.4816252 C57.8780223,26.5904224 58.6367853,25.9533662 59.5677245,25.8186888 L63.5186181,25.24669 L65.2856723,21.6801891 Z M69.1919528,26.4118101 L67.4854572,22.967144 C66.8277948,24.2946543 66.2493504,26.3979537 65.0027265,27.2817213 C63.7523707,28.1680237 61.5983864,28.0858992 60.1169921,28.3003353 C61.180753,29.3336507 63.0098924,30.5317219 63.4685767,31.9854605 C63.9287878,33.4440996 63.1844435,35.4596982 62.9313529,36.9294899 C64.2203848,36.2545821 65.9650476,34.87435 67.4854572,34.8616764 C68.9814398,34.8491719 70.7771618,36.2684385 72.0395614,36.9294899 C71.7883368,35.4705129 71.0154944,33.4302432 71.5023376,31.9854605 C71.9907075,30.5362844 73.782019,29.3414238 74.8539222,28.3005043 C73.1640505,28.0558207 70.0792966,28.2016508 69.1919528,26.4118101 Z" id="Combined-Shape"></path>
                </g>
            </g>
        </g>
    </g>
</svg>