<?xml version="1.0" encoding="UTF-8"?>
<svg width="57px" height="71px" viewBox="0 0 57 71" version="1.1" xmlns="http://www.w3.org/2000/svg" xmlns:xlink="http://www.w3.org/1999/xlink">
    <!-- Generator: Sketch 52.6 (67491) - http://www.bohemiancoding.com/sketch -->
    <title>Other selected</title>
    <desc>Created with Sketch.</desc>
    <g id="Oifa-seeker" stroke="none" stroke-width="1" fill="none" fill-rule="evenodd">
        <g id="Other-selected" fill="#FBCA67" fill-rule="nonzero">
            <g id="Group-15">
                <path d="M41.5625,2.10202226e-15 C41.877449,-1.14356655e-05 42.1795026,0.124653325 42.4022109,0.34656875 L56.6522109,14.5465688 C56.8749078,14.7684956 57.0000115,15.0694894 57,15.3833333 L57,65.0833333 C56.9963188,68.3494975 54.3401647,70.9963318 51.0625,71 L5.9375,71 C2.6598353,70.9963318 0.00368116431,68.3494975 2.84217094e-14,65.0833333 L2.84217094e-14,5.91666667 C0.00368116431,2.65050254 2.6598353,0.00366824795 5.9375,2.10202226e-15 L41.5625,2.10202226e-15 Z M54.625,65.0833333 L54.625,16.5666667 L46.3125,16.5666667 C43.0348353,16.5629984 40.3786812,13.9161641 40.375,10.65 L40.375,2.36666667 L5.9375,2.36666667 C3.97093504,2.36894895 2.37729032,3.95700194 2.375,5.91666667 L2.375,65.0833333 C2.37729032,67.0429981 3.97093504,68.631051 5.9375,68.6333333 L51.0625,68.6333333 C53.029065,68.631051 54.6227097,67.0429981 54.625,65.0833333 Z M42.75,4.04004792 L42.75,10.65 C42.7522903,12.6096647 44.345935,14.1977177 46.3125,14.2 L52.9457266,14.2 L42.75,4.04004792 Z M19,31.95 C20.966565,31.9522823 22.5602097,33.5403353 22.5625,35.5 C22.5625,37.4606109 20.9675144,39.05 19,39.05 C17.0324856,39.05 15.4375,37.4606109 15.4375,35.5 C15.4375,33.5393891 17.0324856,31.95 19,31.95 Z M19,36.6833333 C19.6555329,36.6825997 20.1867638,36.1532328 20.1875,35.5 C20.1875,34.846463 19.6558381,34.3166667 19,34.3166667 C18.3441619,34.3166667 17.8125,34.846463 17.8125,35.5 C17.8125,36.153537 18.3441619,36.6833333 19,36.6833333 Z M28.5,31.95 C30.466565,31.9522823 32.0602097,33.5403353 32.0625,35.5 C32.0625,37.4606109 30.4675144,39.05 28.5,39.05 C26.5324856,39.05 24.9375,37.4606109 24.9375,35.5 C24.9375,33.5393891 26.5324856,31.95 28.5,31.95 Z M28.5,36.6833333 C29.1555329,36.6825997 29.6867638,36.1532328 29.6875,35.5 C29.6875,34.846463 29.1558381,34.3166667 28.5,34.3166667 C27.8441619,34.3166667 27.3125,34.846463 27.3125,35.5 C27.3125,36.153537 27.8441619,36.6833333 28.5,36.6833333 Z M38,31.95 C39.966565,31.9522823 41.5602097,33.5403353 41.5625,35.5 C41.5625,37.4606109 39.9675144,39.05 38,39.05 C36.0324856,39.05 34.4375,37.4606109 34.4375,35.5 C34.4375,33.5393891 36.0324856,31.95 38,31.95 Z M38,36.6833333 C38.6555329,36.6825997 39.1867638,36.1532328 39.1875,35.5 C39.1875,34.846463 38.6558381,34.3166667 38,34.3166667 C37.3441619,34.3166667 36.8125,34.846463 36.8125,35.5 C36.8125,36.153537 37.3441619,36.6833333 38,36.6833333 Z" id="Combined-Shape"></path>
            </g>
        </g>
    </g>
</svg>