<?xml version="1.0" encoding="UTF-8"?>
<svg width="71px" height="71px" viewBox="0 0 71 71" version="1.1" xmlns="http://www.w3.org/2000/svg" xmlns:xlink="http://www.w3.org/1999/xlink">
    <!-- Generator: Sketch 52.6 (67491) - http://www.bohemiancoding.com/sketch -->
    <title>Training selected</title>
    <desc>Created with Sketch.</desc>
    <g id="Oifa-seeker" stroke="none" stroke-width="1" fill="none" fill-rule="evenodd">
        <g id="Training-selected" fill="#FBCA67" fill-rule="nonzero">
            <path d="M69.8166667,1.05101113e-15 C70.4698667,1.05101113e-15 71,0.52895 71,1.18333333 L71,40.2333333 C71,40.8877167 70.4698667,41.4166667 69.8166667,41.4166667 L42.6,41.4166667 L42.6,43.7833333 L40.2333333,43.7833333 L40.2333333,41.4166667 L4.73333333,41.4166667 L4.73333333,46.15 L2.36666667,46.15 L2.36666667,41.4166667 L1.18333333,41.4166667 C0.530133333,41.4166667 0,40.8877167 0,40.2333333 L0,35.5 C0,34.8456167 0.530133333,34.3166667 1.18333333,34.3166667 L3.58076667,34.3166667 C2.82935,33.3250333 2.36666667,32.1038333 2.36666667,30.7666667 L2.36666667,20.1166667 C2.36666667,16.8542167 5.02088333,14.2 8.28333333,14.2 L10.1814,14.2 C9.00516667,12.8770333 8.28333333,11.1162333 8.28333333,9.21225 L8.28333333,3.55 C8.28333333,1.59276667 9.8761,0 11.8333333,0 L18.9333333,0 C20.8905667,0 22.4833333,1.59276667 22.4833333,3.55 L22.4833333,4.45406667 L24.72575,8.93653333 C24.9091667,9.30336667 24.8902333,9.73883333 24.6736833,10.0879167 C24.4571333,10.437 24.0772833,10.65 23.6666667,10.65 L22.3839333,10.65 C22.1591,11.9729667 21.5437667,13.1977167 20.64325,14.2 L25.0393333,14.2 C26.7693667,14.2 28.4071,14.9537833 29.53245,16.2661 L33.1333333,20.4681167 L33.1333333,1.18333333 C33.1333333,0.52895 33.6634667,1.05101113e-15 34.3166667,1.05101113e-15 L69.8166667,1.05101113e-15 Z M10.65,3.55 L10.65,9.21225 C10.65,11.76825 12.5232167,13.9491333 14.9147333,14.1787 C16.2637333,14.3065 17.5677667,13.8793167 18.5665,12.9705167 C19.5510333,12.07355 20.1166667,10.7979167 20.1166667,9.46666667 C20.1166667,8.81228333 20.6468,8.28333333 21.3,8.28333333 L21.7520333,8.28333333 L20.2409167,5.26228333 C20.1592667,5.09898333 20.1166667,4.91675 20.1166667,4.73333333 L20.1166667,3.55 C20.1166667,2.8968 19.58535,2.36666667 18.9333333,2.36666667 L11.8333333,2.36666667 C11.1813167,2.36666667 10.65,2.8968 10.65,3.55 Z M17.0187,16.5666667 L13.7479667,16.5666667 L15.3833333,19.8374 L17.0187,16.5666667 Z M4.73333333,30.7666667 C4.73333333,32.7239 6.3261,34.3166667 8.28333333,34.3166667 L17.75,34.3166667 L17.75,30.7666667 C17.75,30.1134667 17.2186833,29.5833333 16.5666667,29.5833333 L10.65,29.5833333 C9.9968,29.5833333 9.46666667,29.0543833 9.46666667,28.4 L9.46666667,24.85 L11.8333333,24.85 L11.8333333,27.2166667 L16.5666667,27.2166667 C18.5239,27.2166667 20.1166667,28.8094333 20.1166667,30.7666667 L20.1166667,34.3166667 L26.0333333,34.3166667 L26.0333333,26.0333333 C26.0333333,25.5552667 26.3220667,25.1221667 26.7646333,24.9399333 C27.2072,24.75415 27.71485,24.8571 28.0544667,25.1967167 L31.8068167,28.95025 C33.1913167,30.3323833 35.4432,30.3323833 36.8277,28.95025 L44.4767667,21.3 L41.4166667,18.2399 L35.1544667,24.5044667 C34.9201667,24.7364 34.6030333,24.8724833 34.2717,24.85 C33.94155,24.8369833 33.6327,24.6878833 33.4185167,24.4370167 L27.7349667,17.8056167 C27.0604667,17.0187 26.0771167,16.5666667 25.0393333,16.5666667 L19.6646333,16.5666667 L16.4424167,23.0122833 C16.24125,23.4134333 15.8318167,23.6666667 15.3833333,23.6666667 C14.93485,23.6666667 14.5254167,23.4134333 14.3254333,23.0122833 L11.1020333,16.5666667 L8.28333333,16.5666667 C6.3261,16.5666667 4.73333333,18.1594333 4.73333333,20.1166667 L4.73333333,30.7666667 Z M28.4,34.3166667 L33.1333333,34.3166667 L33.1333333,32.2292667 C32.0328333,32.0068 30.9844,31.4743 30.1324,30.6234833 L28.4,28.8899 L28.4,34.3166667 Z M42.6,39.05 L42.6,36.6833333 L2.36666667,36.6833333 L2.36666667,39.05 L42.6,39.05 Z M68.6333333,39.05 L68.6333333,2.36666667 L35.5,2.36666667 L35.5,20.8101 L40.58005,15.73005 C41.0427333,15.2673667 41.7906,15.2673667 42.2532833,15.73005 L42.6,16.0767667 L48.8633833,9.81338333 L50.5366167,11.4866167 L44.2732333,17.75 L46.9866167,20.4633833 C47.4493,20.9260667 47.4493,21.6739333 46.9866167,22.1366167 L38.5009333,30.6234833 C37.6489333,31.4743 36.6005,32.0068 35.5,32.2292667 L35.5,34.3166667 L43.7833333,34.3166667 C44.4365333,34.3166667 44.9666667,34.8456167 44.9666667,35.5 L44.9666667,39.05 L68.6333333,39.05 Z M49.7,7.23963333 L43.12895,10.52575 L42.0698667,8.40876667 L49.1698667,4.85876667 C49.5035667,4.69191667 49.8964333,4.69191667 50.22895,4.85876667 L56.8,8.1437 L63.3698667,4.85876667 L64.42895,6.97575 L57.32895,10.52575 C57.1632833,10.6085833 56.98105,10.65 56.8,10.65 C56.61895,10.65 56.4367167,10.6085833 56.27105,10.5245667 L49.7,7.23963333 Z M50.8833333,17.75 L65.0833333,17.75 L65.0833333,20.1166667 L50.8833333,20.1166667 L50.8833333,17.75 Z M50.8833333,22.4833333 L65.0833333,22.4833333 L65.0833333,24.85 L50.8833333,24.85 L50.8833333,22.4833333 Z M50.8833333,27.2166667 L65.0833333,27.2166667 L65.0833333,29.5833333 L50.8833333,29.5833333 L50.8833333,27.2166667 Z M50.8833333,31.95 L65.0833333,31.95 L65.0833333,34.3166667 L50.8833333,34.3166667 L50.8833333,31.95 Z M3.55,62.7166667 C3.55,60.1512 4.92148333,57.9064167 6.96628333,56.6591833 C5.6161,55.5740667 4.73333333,53.9292333 4.73333333,52.0666667 C4.73333333,48.8042167 7.38755,46.15 10.65,46.15 C13.91245,46.15 16.5666667,48.8042167 16.5666667,52.0666667 C16.5666667,53.9292333 15.6839,55.5740667 14.3337167,56.6591833 C16.3785167,57.9064167 17.75,60.1512 17.75,62.7166667 L17.75,69.8166667 C17.75,70.47105 17.2198667,71 16.5666667,71 L4.73333333,71 C4.08013333,71 3.55,70.47105 3.55,69.8166667 L3.55,62.7166667 Z M7.1,52.0666667 C7.1,54.0239 8.69276667,55.6166667 10.65,55.6166667 C12.6072333,55.6166667 14.2,54.0239 14.2,52.0666667 C14.2,50.1094333 12.6072333,48.5166667 10.65,48.5166667 C8.69276667,48.5166667 7.1,50.1094333 7.1,52.0666667 Z M5.91666667,62.7166667 L5.91666667,68.6333333 L15.3833333,68.6333333 L15.3833333,62.7166667 C15.3833333,60.1062333 13.2604333,57.9833333 10.65,57.9833333 C8.03956667,57.9833333 5.91666667,60.1062333 5.91666667,62.7166667 Z M20.1166667,62.7166667 C20.1166667,60.1512 21.48815,57.9064167 23.53295,56.6591833 C22.1827667,55.5740667 21.3,53.9292333 21.3,52.0666667 C21.3,48.8042167 23.9542167,46.15 27.2166667,46.15 C30.4791167,46.15 33.1333333,48.8042167 33.1333333,52.0666667 C33.1333333,53.9292333 32.2505667,55.5740667 30.9003833,56.6591833 C32.9451833,57.9064167 34.3166667,60.1512 34.3166667,62.7166667 L34.3166667,69.8166667 C34.3166667,70.47105 33.7865333,71 33.1333333,71 L21.3,71 C20.6468,71 20.1166667,70.47105 20.1166667,69.8166667 L20.1166667,62.7166667 Z M23.6666667,52.0666667 C23.6666667,54.0239 25.2594333,55.6166667 27.2166667,55.6166667 C29.1739,55.6166667 30.7666667,54.0239 30.7666667,52.0666667 C30.7666667,50.1094333 29.1739,48.5166667 27.2166667,48.5166667 C25.2594333,48.5166667 23.6666667,50.1094333 23.6666667,52.0666667 Z M22.4833333,62.7166667 L22.4833333,68.6333333 L31.95,68.6333333 L31.95,62.7166667 C31.95,60.1062333 29.8271,57.9833333 27.2166667,57.9833333 C24.6062333,57.9833333 22.4833333,60.1062333 22.4833333,62.7166667 Z M36.6833333,62.7166667 C36.6833333,60.1512 38.0548167,57.9064167 40.0996167,56.6591833 C38.7494333,55.5740667 37.8666667,53.9292333 37.8666667,52.0666667 C37.8666667,48.8042167 40.5208833,46.15 43.7833333,46.15 C47.0457833,46.15 49.7,48.8042167 49.7,52.0666667 C49.7,53.9292333 48.8172333,55.5740667 47.46705,56.6591833 C49.51185,57.9064167 50.8833333,60.1512 50.8833333,62.7166667 L50.8833333,69.8166667 C50.8833333,70.47105 50.3532,71 49.7,71 L37.8666667,71 C37.2134667,71 36.6833333,70.47105 36.6833333,69.8166667 L36.6833333,62.7166667 Z M40.2333333,52.0666667 C40.2333333,54.0239 41.8261,55.6166667 43.7833333,55.6166667 C45.7405667,55.6166667 47.3333333,54.0239 47.3333333,52.0666667 C47.3333333,50.1094333 45.7405667,48.5166667 43.7833333,48.5166667 C41.8261,48.5166667 40.2333333,50.1094333 40.2333333,52.0666667 Z M39.05,62.7166667 L39.05,68.6333333 L48.5166667,68.6333333 L48.5166667,62.7166667 C48.5166667,60.1062333 46.3937667,57.9833333 43.7833333,57.9833333 C41.1729,57.9833333 39.05,60.1062333 39.05,62.7166667 Z M53.25,62.7166667 C53.25,60.1512 54.6214833,57.9064167 56.6662833,56.6591833 C55.3161,55.5740667 54.4333333,53.9292333 54.4333333,52.0666667 C54.4333333,48.8042167 57.08755,46.15 60.35,46.15 C63.61245,46.15 66.2666667,48.8042167 66.2666667,52.0666667 C66.2666667,53.9292333 65.3839,55.5740667 64.0337167,56.6591833 C66.0785167,57.9064167 67.45,60.1512 67.45,62.7166667 L67.45,69.8166667 C67.45,70.47105 66.9198667,71 66.2666667,71 L54.4333333,71 C53.7801333,71 53.25,70.47105 53.25,69.8166667 L53.25,62.7166667 Z M56.8,52.0666667 C56.8,54.0239 58.3927667,55.6166667 60.35,55.6166667 C62.3072333,55.6166667 63.9,54.0239 63.9,52.0666667 C63.9,50.1094333 62.3072333,48.5166667 60.35,48.5166667 C58.3927667,48.5166667 56.8,50.1094333 56.8,52.0666667 Z M55.6166667,62.7166667 L55.6166667,68.6333333 L65.0833333,68.6333333 L65.0833333,62.7166667 C65.0833333,60.1062333 62.9604333,57.9833333 60.35,57.9833333 C57.7395667,57.9833333 55.6166667,60.1062333 55.6166667,62.7166667 Z" id="Combined-Shape"></path>
        </g>
    </g>
</svg>