<?xml version="1.0" encoding="UTF-8"?>
<svg width="31px" height="34px" viewBox="0 0 31 34" version="1.1" xmlns="http://www.w3.org/2000/svg" xmlns:xlink="http://www.w3.org/1999/xlink">
    <title>315FFF33-B972-4F6B-8C08-BBE9EE85AC36</title>
    <g id="Solver-" stroke="none" stroke-width="1" fill="none" fill-rule="evenodd">
        <g id="Designer-/-Developer-profile" transform="translate(-632.000000, -785.000000)">
            <g id="Group-58-Copy-2" transform="translate(596.000000, 485.000000)">
                <g id="Group-57" transform="translate(35.000000, 28.000000)">
                    <g id="Group-24" transform="translate(1.000000, 272.000000)">
                        <rect id="Rectangle-33" fill="#03256C" x="1.91846539e-13" y="1.52766688e-13" width="30.2341784" height="33.2683603" rx="5.37599959"></rect>
                        <path d="M18.8351893,14.2583818 C19.1702406,14.3671642 19.4214085,14.5733264 19.5620181,14.8856043 C20.4495712,16.8567896 21.3408385,18.8264576 22.2171524,20.8021947 C22.5891047,21.6409128 21.9223304,22.5893328 20.9530646,22.5711718 C19.028425,22.5351715 17.1026278,22.560551 15.1772647,22.5603671 C13.2198243,22.5601832 11.2624321,22.5635855 9.30503991,22.558528 C8.51338116,22.556505 7.93888349,21.9986163 8.00520879,21.2766346 C8.02677054,21.0421962 8.11176339,20.7910222 8.24190569,20.5913427 C9.12588925,19.235012 10.0276721,17.8891182 10.9282491,16.5426726 C11.243861,16.0708075 11.6962237,15.8415186 12.2901124,15.8925994 C12.5941958,15.9187145 12.8376941,16.0548074 13.0271191,16.2796364 C13.2230079,16.5120517 13.4184625,16.7448808 13.6094794,16.9808824 C14.1779475,17.6833697 15.1743223,17.6688869 15.7070953,16.9388591 C16.2335493,16.2175211 16.7433135,15.4851025 17.2654745,14.7608219 C17.6210746,14.2674394 18.2494043,14.0680817 18.8351893,14.2583818 Z M21.0573328,10 C22.0482086,9.99990805 22.9415018,10.8567872 22.9284297,11.7947703 C22.9155023,12.7287994 22.0244762,13.5680233 21.0498079,13.5643115 C20.0378527,13.560483 19.1795309,12.7253052 19.1827057,11.7475976 C19.1858499,10.8022121 20.0462458,10.000092 21.0573328,10 Z" id="Combined-Shape" fill="#7D90B4"></path>
                    </g>
                </g>
            </g>
        </g>
    </g>
</svg>