<?xml version="1.0" encoding="UTF-8"?>
<svg width="31px" height="34px" viewBox="0 0 31 34" version="1.1" xmlns="http://www.w3.org/2000/svg" xmlns:xlink="http://www.w3.org/1999/xlink">
    <title>0448EE59-53BD-42F7-A8E7-48F277843155</title>
    <g id="Solver-" stroke="none" stroke-width="1" fill="none" fill-rule="evenodd">
        <g id="Designer-/-Developer-profile" transform="translate(-632.000000, -740.000000)">
            <g id="Group-58-Copy-2" transform="translate(596.000000, 485.000000)">
                <g id="Group-57" transform="translate(35.000000, 28.000000)">
                    <g id="Group-39-Copy-3" transform="translate(1.000000, 227.000000)">
                        <rect id="Rectangle-33" fill="#03256C" x="-8.24229573e-14" y="1.42108547e-14" width="30.2341784" height="33.2683603" rx="5.37599959"></rect>
                        <path d="M10.184286,23.6654545 C9.75847139,23.6654545 9.42389919,23.4204839 9.27181173,23.2673709 C8.75475478,22.6549698 8.75475478,22.1344263 8.84599716,21.797598 C8.90684224,21.491372 9.08932699,21.2157992 9.36305411,21.0320839 C9.75847139,20.7258579 10.8533799,19.9603946 12.4653958,19.2867381 C13.317025,17.7251076 13.894927,16.4696522 14.2902938,15.4592183 C13.6211494,14.1731606 13.3778196,13.1320736 13.317025,12.6115301 C13.2561799,12.1828442 13.2866277,11.7541584 13.4082673,11.3867278 C13.7124423,10.4068962 14.3815362,10.3762431 14.6552633,10.4068962 C14.7161084,10.4068962 15.7806196,10.5600092 15.9631043,12.0909866 C15.9631043,12.152242 16.084744,13.1320736 15.2635626,15.4285652 C15.7806196,16.3165392 16.5105586,17.2964217 17.6359653,18.2456511 C18.7004765,18.2456511 19.8562806,18.3375087 21.0728793,18.6437347 C21.3466064,18.7049901 21.5899362,18.8580522 21.772421,19.0724206 C22.0765959,19.4092488 22.1373904,19.8379347 21.985303,20.2666206 L21.985303,20.2666206 C21.985303,20.2666206 21.9244579,20.4809381 21.7419732,20.6953065 C21.407401,21.1545946 20.7687043,21.3077076 20.2516474,21.0321347 C19.0958938,20.4197336 18.1225745,19.7767302 17.3317904,19.1030737 C15.7197745,19.1643291 14.2902938,19.5317596 13.1344897,19.9910477 C12.6174328,20.9402771 11.9787362,21.9813641 11.2487467,23.144911 C11.0966592,23.3592286 10.9141745,23.5429947 10.6708446,23.6348523 L10.6708446,23.6348523 C10.4580131,23.6348014 10.3059256,23.6654545 10.184286,23.6654545 Z M11.6746117,20.5727958 C10.7621375,21.062737 10.1234409,21.4914229 9.88011106,21.7057404 C9.78886869,21.797598 9.69762631,21.8894557 9.69762631,21.9813133 C9.63678123,22.1956308 9.72802361,22.4099992 9.94095614,22.6549698 C9.94095614,22.6549698 10.1234409,22.8080828 10.3059256,22.7468274 L10.3059256,22.7468274 C10.3667707,22.7162252 10.4275653,22.6855721 10.4580131,22.5937144 C10.8838277,21.8894557 11.3096422,21.2157992 11.6746117,20.5727958 Z M18.7613216,19.1030229 C19.3087759,19.4704534 19.9170752,19.868537 20.5862196,20.2053652 C20.7078593,20.2666206 20.8599467,20.2359675 20.9511891,20.1135076 C21.0424315,19.9910477 21.0728288,19.8991901 21.0728288,19.8991901 C21.1336738,19.7460771 21.1336738,19.6848726 21.0424315,19.5929641 C20.9815864,19.5317087 20.890344,19.4705042 20.7687043,19.4398511 C20.0996104,19.2561358 19.430466,19.1642782 18.7613216,19.1030229 Z M14.8073507,16.3778454 C14.5031758,17.0821042 14.1382063,17.8782206 13.6515972,18.7968477 C14.472829,18.5518771 15.3548555,18.3375596 16.3281243,18.2457019 C15.719825,17.6026477 15.202768,16.9595935 14.8073507,16.3778454 Z M14.5032263,11.2336149 C14.3815867,11.2336149 14.2903443,11.3560747 14.1990514,11.6316985 C14.107809,11.8766691 14.107809,12.152242 14.1382063,12.458468 C14.1990514,12.8258985 14.3206911,13.4382996 14.6552633,14.234416 C15.1114752,12.7646431 15.0506806,12.152242 15.0506806,12.152242 C14.9594382,11.3254725 14.5336236,11.2336149 14.5032263,11.2336149 L14.5032263,11.2336149 Z" id="Shape" fill="#B3BED3" fill-rule="nonzero" opacity="0.701009115"></path>
                    </g>
                </g>
            </g>
        </g>
    </g>
</svg>