<?xml version="1.0" encoding="UTF-8"?>
<svg width="41px" height="41px" viewBox="0 0 41 41" version="1.1" xmlns="http://www.w3.org/2000/svg" xmlns:xlink="http://www.w3.org/1999/xlink">
    <title>326A3062-19CF-4EFF-ADB6-354399870BEE</title>
    <g id="Admin" stroke="none" stroke-width="1" fill="none" fill-rule="evenodd">
        <g id="Notifications-icons-design" transform="translate(-24.000000, -72.000000)">
            <g id="Group-37" transform="translate(24.000000, 72.000000)">
                <circle id="Oval" fill="#FEF9EE" cx="20.3" cy="20.3" r="20.3"></circle>
                <path d="M30.706677,27.2517984 C30.8533009,26.9097212 31.2494193,26.751373 31.591497,26.8979967 C31.9335299,27.0445756 32.0919682,27.4407382 31.9452993,27.7827704 C31.5626125,28.6754503 31.0175791,29.4790958 30.3252479,30.1713809 C29.5198941,30.9767334 28.5717795,31.5786364 27.5072282,31.9602894 C27.4320744,31.9872423 27.3553035,32 27.2798353,32 C27.0033879,32 26.7441456,31.8286245 26.6454978,31.5534355 C26.5198971,31.2030927 26.702099,30.817307 27.0523974,30.6917065 C27.9281882,30.3777502 28.7087454,29.8820415 29.3723267,29.2184613 C29.9428756,28.6479134 30.3918217,27.9862199 30.706677,27.2517984 Z M24.3207169,9.29591475 C24.7151283,8.90141421 25.3569227,8.90154898 25.7506602,9.295196 L25.7506602,9.295196 L25.7732558,9.31783644 C25.9643072,9.50888754 26.0695135,9.76287365 26.0695135,10.0330764 C26.0695135,10.3032792 25.9643072,10.5573102 25.7732558,10.7484062 L25.7732558,10.7484062 L20.2169521,16.3046556 C19.9020519,16.6195553 19.9020519,17.1301329 20.2169521,17.4449877 C20.5318523,17.7598424 21.0424308,17.7598424 21.3572861,17.4449877 L21.3572861,17.4449877 L28.1295267,10.6728932 C28.3205781,10.4817972 28.5745646,10.3765911 28.8447679,10.3765911 C29.1149711,10.3765911 29.3690025,10.4818421 29.5600989,10.6728932 L29.5600989,10.6728932 L29.5943291,10.7071234 C29.7856501,10.898444 29.8909013,11.1529243 29.8905869,11.4235313 C29.8902724,11.6941384 29.7844821,11.9483491 29.5925772,12.1394002 C27.5854816,14.1395745 24.817819,16.8921838 22.8039402,18.9012526 C22.4885908,19.2155682 22.4877822,19.7260561 22.8020535,20.0414499 C23.1163697,20.3568886 23.6268135,20.3578319 23.9422527,20.0436061 C25.2610601,18.729922 28.964978,15.0403403 30.2407505,13.7714878 C30.6352067,13.3790088 31.2761926,13.3797275 31.6696606,13.7731499 L31.6696606,13.7731499 L31.6975119,13.8010012 C31.8889227,13.9924117 31.994174,14.246892 31.9938155,14.5175439 C31.9935001,14.7881959 31.8877099,15.0424066 31.6955803,15.2335925 C29.7448164,17.1766267 26.6338631,20.2749967 24.6845367,22.2182555 C24.3690525,22.5326161 24.3680642,23.0431488 24.6823804,23.3586324 C24.9966517,23.6740262 25.5072302,23.6749247 25.8227144,23.3607887 C25.8331159,23.3504451 25.8470164,23.3366121 25.8641866,23.3195185 L26.1008069,23.0838188 C26.1702552,23.0146238 26.2500304,22.9351328 26.3382978,22.8471766 L26.626742,22.5597439 C27.8160402,21.3746069 29.8858136,19.3121016 30.0459256,19.1568559 C30.440337,18.7665779 31.0803795,18.7681951 31.4728143,19.1605394 C31.6640005,19.3517253 31.7692517,19.605936 31.769072,19.8763634 C31.7689372,20.1467458 31.6634614,20.4009116 31.4724549,20.5914686 L31.4724549,20.5914686 L25.270853,26.7704197 L23.2613765,28.7852833 C21.6848092,30.3660257 19.587017,31.2374128 17.354505,31.2388952 L17.354505,31.2388952 C15.1184442,31.2388952 13.0217301,30.370428 11.444444,28.7931446 C10.1593728,27.5080755 9.34337251,25.8810191 9.08471413,24.0879778 C8.83441116,22.3531098 9.14306725,20.5480744 9.95381168,19.0054704 C11.3099938,16.4248655 12.3030299,13.7784057 12.9053832,11.1396275 L12.9053832,11.1396275 L13.0248296,10.6162921 C13.1061826,10.2597503 13.3279155,9.96708675 13.6491496,9.79220738 C13.8376405,9.68956177 14.0416293,9.63776729 14.2474599,9.63776729 C14.392332,9.63776729 14.5381923,9.66350731 14.6801445,9.71521195 C15.2819587,9.93447374 15.6221048,10.5692144 15.471348,11.1916915 L15.471348,11.1916915 L13.9248332,17.5780901 C13.8397518,17.9292863 13.9987292,18.2941386 14.3138091,18.4709945 C14.6288889,18.6478504 15.0231655,18.5935404 15.2786794,18.3380269 L15.2786794,18.3380269 Z M28.5718694,25.9959732 C28.7183137,25.6538511 29.1143871,25.4951884 29.4565098,25.6417223 C29.7985875,25.7881215 29.9572055,26.1842392 29.8107612,26.5263163 C29.5168394,27.2128065 29.0979907,27.8307016 28.5659397,28.3628866 C27.9155653,29.0133048 27.1461487,29.4896523 26.2791624,29.7788569 C26.208411,29.8024407 26.1365365,29.8136261 26.0658748,29.8136261 C25.7837674,29.8136261 25.5208864,29.6351081 25.4267308,29.3528215 C25.3089914,28.9997385 25.4997283,28.6181305 25.8527669,28.5003912 C26.5195827,28.2779849 27.1117837,27.9111111 27.6129736,27.409967 C28.0231973,26.9997439 28.345824,26.5239804 28.5718694,25.9959732 Z" id="Combined-Shape" fill="#FCC657" fill-rule="nonzero"></path>
            </g>
        </g>
    </g>
</svg>