<?xml version="1.0" encoding="UTF-8"?>
<svg width="41px" height="41px" viewBox="0 0 41 41" version="1.1" xmlns="http://www.w3.org/2000/svg" xmlns:xlink="http://www.w3.org/1999/xlink">
    <title>12B6E9BE-26DA-4D5B-9ED5-AE3C8AB1382A</title>
    <g id="Admin" stroke="none" stroke-width="1" fill="none" fill-rule="evenodd">
        <g id="Notifications-icons-design" transform="translate(-24.000000, -883.000000)">
            <g id="Group-25-Copy" transform="translate(0.000000, 869.000000)">
                <g id="Group-27" transform="translate(24.000000, 14.000000)">
                    <circle id="Oval" fill="#FEF9EE" cx="20.3" cy="20.3" r="20.3"></circle>
                    <path d="M31.697252,16.4871534 C31.4772861,16.2507462 31.1658515,16.1158839 30.8392108,16.1158839 L10.1607892,16.1158839 C9.83426461,16.1158839 9.52271394,16.2507462 9.30274802,16.4871534 C9.0827821,16.7235605 8.97471441,17.0399072 9.0050105,17.3584144 L10.1083224,28.9682914 C10.1639233,29.5529983 10.6646795,30 11.2641011,30 L29.7358989,30 C30.3353205,30 30.8360767,29.5528846 30.8916776,28.9682914 L31.9949895,17.3584144 C32.0252856,17.0399072 31.9172179,16.7235605 31.697252,16.4871534 Z M24.3716323,27.6187579 C24.3708198,27.6186442 24.3701233,27.6186442 24.3693108,27.6187579 L16.6308053,27.6187579 C15.989712,27.6187579 15.4700352,27.1095558 15.4700352,26.4816384 C15.4700352,24.93743 16.752454,23.6811403 18.3287797,23.6811403 L19.1618643,23.6811403 C18.3051,23.2174229 17.723322,22.3234195 17.723322,21.2986474 C17.723322,19.7987867 18.9689443,18.57843 20.5001161,18.57843 C22.0312878,18.57843 23.2769101,19.798673 23.2769101,21.2986474 C23.2769101,22.3234195 22.6951322,23.2174229 21.8383678,23.6811403 L22.6714525,23.6811403 C24.2156249,23.6811403 25.4777301,24.8868282 25.5285718,26.3877123 C25.5311255,26.4186419 25.5325184,26.4500264 25.5325184,26.4816384 C25.5324024,27.1096695 25.0127256,27.6187579 24.3716323,27.6187579 Z M29.7668914,13.9989084 C29.7668914,14.470017 29.3771049,14.851748 28.8963139,14.851748 L12.1038022,14.851748 C11.6230112,14.851748 11.2332246,14.470017 11.2332246,13.9989084 C11.2332246,13.5277997 11.6230112,13.1460687 12.1038022,13.1460687 L28.8963139,13.1460687 C29.3771049,13.1460687 29.7668914,13.5277997 29.7668914,13.9989084 Z M27.4685668,10.8528397 C27.4685668,11.3239483 27.0787802,11.7056793 26.5979893,11.7056793 L14.4021268,11.7056793 C13.9213359,11.7056793 13.5315493,11.3239483 13.5315493,10.8528397 C13.5315493,10.381731 13.9213359,10 14.4021268,10 L26.5978732,10 C27.0787802,10 27.4685668,10.381731 27.4685668,10.8528397 Z" id="Shape" fill="#FCC657" fill-rule="nonzero"></path>
                </g>
            </g>
        </g>
    </g>
</svg>