<?xml version="1.0" encoding="UTF-8"?>
<svg width="41px" height="41px" viewBox="0 0 41 41" version="1.1" xmlns="http://www.w3.org/2000/svg" xmlns:xlink="http://www.w3.org/1999/xlink">
    <title>F4AE2A91-360D-4F53-A717-487DEC80EBB0</title>
    <g id="Admin" stroke="none" stroke-width="1" fill="none" fill-rule="evenodd">
        <g id="Notifications-icons-design" transform="translate(-24.000000, -1507.000000)">
            <g id="Group-25-Copy-8" transform="translate(0.000000, 1493.000000)">
                <g id="Group-28" transform="translate(24.000000, 14.000000)">
                    <circle id="Oval" fill="#FEF9EE" cx="20.3" cy="20.3" r="20.3"></circle>
                    <path d="M21.5675202,9 L22.8297272,11.6660767 L23.891861,12.1061706 L26.6693878,11.1133576 L28.8866424,13.3306122 L27.8945007,16.1066284 L28.3359375,17.1709442 L31,18.4324798 L31,21.5675202 L28.3359375,22.8290558 L27.8945007,23.8933716 L28.8866424,26.6693878 L26.6693878,28.8866424 L23.8933716,27.8945007 L22.8290558,28.3359375 L21.5675202,31 L18.4324798,31 L17.1709442,28.3359375 L16.1066284,27.8945007 L13.3306122,28.8866424 L11.1133576,26.6693878 L12.1054993,23.8933716 L11.6640625,22.8290558 L9,21.5675202 L9,18.4324798 L11.6640625,17.1709442 L12.1054993,16.1066284 L11.1133576,13.3306122 L13.3306122,11.1133576 L16.108139,12.1061706 L17.1702728,11.6660767 L18.4324798,9 L21.5675202,9 Z M22.75,25.5 L21.375,25.5 L21.375,26.875 L22.75,26.875 L22.75,25.5 Z M18.625,25.5 L17.25,25.5 L17.25,26.875 L18.625,26.875 L18.625,25.5 Z M20,12.7565765 L14.3803253,19.3125 L17.25,19.3125 L17.25,24.125 L22.75,24.125 L22.75,19.3125 L25.6196747,19.3125 L20,12.7565765 Z" id="Combined-Shape" fill="#FCC657" fill-rule="nonzero"></path>
                </g>
            </g>
        </g>
    </g>
</svg>