<?xml version="1.0" encoding="UTF-8"?>
<svg width="41px" height="41px" viewBox="0 0 41 41" version="1.1" xmlns="http://www.w3.org/2000/svg" xmlns:xlink="http://www.w3.org/1999/xlink">
    <title>B3313946-2736-490F-9C50-8C3989A8BADC</title>
    <g id="Admin" stroke="none" stroke-width="1" fill="none" fill-rule="evenodd">
        <g id="Notifications-icons-design" transform="translate(-24.000000, -1775.000000)">
            <g id="Group-31-Copy" transform="translate(0.000000, 1761.000000)">
                <g id="Group-38" transform="translate(24.000000, 14.000000)">
                    <g id="Group-29" fill="#FEF9EE">
                        <circle id="Oval" cx="20.3" cy="20.3" r="20.3"></circle>
                    </g>
                    <g id="Group-32" transform="translate(12.000000, 9.000000)">
                        <path d="M15.5076849,2.02573121 C16.5028535,2.6754921 16.9943511,3.60901816 16.9958379,4.79662274 C16.9987187,6.99975167 16.9979753,9.20292705 16.9982076,11.4061024 C16.9984864,14.1503736 17.0031328,16.8947376 16.9962561,19.6389623 C16.9921208,21.2709836 15.9206116,22.5915044 14.3399484,22.9305081 C14.1449385,22.9723202 13.9420297,22.9961996 13.742745,22.9964319 C10.2565416,23.000024 6.7703382,23.001821 3.28418126,22.9973611 C1.60631519,22.9951775 0.325949716,21.916331 0.0363388161,20.2697683 C0.00446442531,20.0884894 0.000840223445,19.9004741 0.000793759319,19.715525 C-0.000553700349,14.752608 -2.08266977e-05,9.78969096 0.00116547233,4.8267275 C0.00149072122,3.55359382 0.537965525,2.57797686 1.64181378,1.93462717 C2.18107643,1.62029267 2.77270415,1.49880513 3.37803879,1.52937447 C3.44192697,1.87497516 3.47445185,2.20854324 3.56691547,2.52455022 C3.9992177,4.0019595 5.29621732,5.00215272 6.84793329,5.03639223 C7.94504425,5.06059682 9.04350266,5.06185118 10.1406136,5.03815763 C11.9750173,4.99862191 13.416985,3.61422145 13.5665066,1.78275613 C13.5726863,1.70647217 13.5820721,1.63046697 13.5922477,1.53211548 C14.2897672,1.49146478 14.9315297,1.64956118 15.5076849,2.02573121 Z M10.1456968,0.00552117161 C10.9767542,0.0130009016 11.6631687,0.643714036 11.7638565,1.46959702 C11.8562736,2.22760494 11.3536247,2.98579869 10.6003947,3.16828552 C10.3203554,3.23616058 10.0196396,3.22761232 9.72789137,3.23564955 C9.3499057,3.24600967 8.97140892,3.23815828 8.59314447,3.23815828 L8.59314447,3.23676454 C8.06047972,3.23676454 7.52753619,3.24819319 6.99524316,3.23406998 C6.19740764,3.21293161 5.51257288,2.56739839 5.42187491,1.7715737 C5.33456881,1.00613251 5.83066629,0.274466247 6.58594067,0.068889816 C6.73318549,0.0287966048 6.88990898,0.00635741472 7.04240425,0.00556762957 C8.0768351,0.00036433912 9.11131241,-0.00377041847 10.1456968,0.00552117161 Z" id="Combined-Shape" fill="#FCC657"></path>
                        <path d="M8.415,8 C5.42469077,8 3,10.4243215 3,13.415 C3,16.4056785 5.42445291,18.83 8.415,18.83 C11.4057849,18.83 13.83,16.4056785 13.83,13.415 C13.83,10.4243215 11.4057849,8 8.415,8 Z M8.415,9.61914803 C9.40447553,9.61914803 10.2062837,10.4212293 10.2062837,11.4102726 C10.2062837,12.3995537 9.40447553,13.2013971 8.415,13.2013971 C7.42600018,13.2013971 6.624192,12.3995537 6.624192,11.4102726 C6.624192,10.4212293 7.42600018,9.61914803 8.415,9.61914803 Z M8.41381073,17.4142267 C7.42695159,17.4142267 6.52310375,17.0548124 5.82595164,16.4599117 C5.65612339,16.3150518 5.55812725,16.1026383 5.55812725,15.8797586 C5.55812725,14.8766813 6.36992533,14.0738864 7.37319643,14.0738864 L9.45727928,14.0738864 C10.4607882,14.0738864 11.2694942,14.8766813 11.2694942,15.8797586 C11.2694942,16.1028761 11.1719738,16.314814 11.0019077,16.4596738 C10.3049934,17.0548124 9.40090771,17.4142267 8.41381073,17.4142267 Z" id="Shape" fill="#FFFFFF" fill-rule="nonzero"></path>
                    </g>
                </g>
            </g>
        </g>
    </g>
</svg>