<?xml version="1.0" encoding="UTF-8"?>
<svg width="41px" height="41px" viewBox="0 0 41 41" version="1.1" xmlns="http://www.w3.org/2000/svg" xmlns:xlink="http://www.w3.org/1999/xlink">
    <title>9E9713BC-B08C-4285-AB0B-58AA564EB581</title>
    <g id="Admin" stroke="none" stroke-width="1" fill="none" fill-rule="evenodd">
        <g id="Notifications-icons-design" transform="translate(-24.000000, -1686.000000)">
            <g id="Group-31" transform="translate(0.000000, 1672.000000)">
                <g id="Group-34" transform="translate(24.000000, 14.000000)">
                    <g id="Group-29" fill="#FEF9EE">
                        <circle id="Oval" cx="20.3" cy="20.3" r="20.3"></circle>
                    </g>
                    <path d="M27.5076849,11.0257312 C28.5028535,11.6754921 28.9943511,12.6090182 28.9958379,13.7966227 C28.9987187,15.9997517 28.9979753,18.202927 28.9982076,20.4061024 C28.9984864,23.1503736 29.0031328,25.8947376 28.9962561,28.6389623 C28.9921208,30.2709836 27.9206116,31.5915044 26.3399484,31.9305081 C26.1449385,31.9723202 25.9420297,31.9961996 25.742745,31.9964319 C22.2565416,32.000024 18.7703382,32.001821 15.2841813,31.9973611 C13.6063152,31.9951775 12.3259497,30.916331 12.0363388,29.2697683 C12.0044644,29.0884894 12.0008402,28.9004741 12.0007938,28.715525 C11.9994463,23.752608 11.9999792,18.789691 12.0011655,13.8267275 C12.0014907,12.5535938 12.5379655,11.5779769 13.6418138,10.9346272 C14.1810764,10.6202927 14.7727042,10.4988051 15.3780388,10.5293745 C15.441927,10.8749752 15.4744519,11.2085432 15.5669155,11.5245502 C15.9992177,13.0019595 17.2962173,14.0021527 18.8479333,14.0363922 C19.9450442,14.0605968 21.0435027,14.0618512 22.1406136,14.0381576 C23.9750173,13.9986219 25.416985,12.6142214 25.5665066,10.7827561 C25.5726863,10.7064722 25.5820721,10.630467 25.5922477,10.5321155 C26.2897672,10.4914648 26.9315297,10.6495612 27.5076849,11.0257312 Z M20.3991846,17.6553272 C17.4410925,17.6183931 14.9886694,20.0061924 14.9403003,22.9703955 C14.8918846,25.9386868 17.277864,28.4324567 20.2087282,28.476824 C23.2925058,28.5235607 25.7293169,26.1597802 25.7728538,23.0795716 C25.8144856,20.1358101 23.3942157,17.6927723 20.3991846,17.6553272 Z M23.4788827,21.5972611 C23.4963067,21.6401417 23.5170762,21.6816751 23.5362194,21.7238125 C23.7743016,22.2476724 23.6470828,22.69116 23.157258,23.0013132 C22.0612622,23.6952556 20.9575069,24.3770261 19.8669938,25.0793773 C19.4523015,25.3464641 19.0396071,25.3676954 18.6210583,25.144372 C18.4358987,25.0455095 18.2462786,24.9056246 18.1302577,24.7355421 C17.7650961,24.2002536 17.4194959,23.650052 17.0947582,23.0891652 C16.8941725,22.7426818 16.8990977,22.3678591 17.1674745,22.0482748 C17.4365483,21.7279473 17.800827,21.5786779 18.2037175,21.7164257 C18.4061617,21.7856016 18.6027979,21.9519675 18.7362428,22.1251163 C18.9800866,22.4414485 19.1749571,22.7955045 19.4068131,23.1598278 C20.3736386,22.5675818 21.3176038,21.981236 22.2716982,21.4119867 C22.4511891,21.3049012 22.6668291,21.2308007 22.8738733,21.204041 C23.1744033,21.1652486 23.3634658,21.3131242 23.4788827,21.5972611 Z M22.1456968,9.00552117 C22.9767542,9.0130009 23.6631687,9.64371404 23.7638565,10.469597 C23.8562736,11.2276049 23.3536247,11.9857987 22.6003947,12.1682855 C22.3203554,12.2361606 22.0196396,12.2276123 21.7278914,12.2356495 C21.3499057,12.2460097 20.9714089,12.2381583 20.5931445,12.2381583 L20.5931445,12.2367645 C20.0604797,12.2367645 19.5275362,12.2481932 18.9952432,12.23407 C18.1974076,12.2129316 17.5125729,11.5673984 17.4218749,10.7715737 C17.3345688,10.0061325 17.8306663,9.27446625 18.5859407,9.06888982 C18.7331855,9.0287966 18.889909,9.00635741 19.0424042,9.00556763 C20.0768351,9.00036434 21.1113124,8.99622958 22.1456968,9.00552117 Z" id="Combined-Shape" fill="#FCC657"></path>
                </g>
            </g>
        </g>
    </g>
</svg>