<?xml version="1.0" encoding="UTF-8"?>
<svg width="41px" height="41px" viewBox="0 0 41 41" version="1.1" xmlns="http://www.w3.org/2000/svg" xmlns:xlink="http://www.w3.org/1999/xlink">
    <title>72670B70-FCF3-4094-B22A-3A2B0D52C906</title>
    <g id="Admin" stroke="none" stroke-width="1" fill="none" fill-rule="evenodd">
        <g id="Notifications-icons-design" transform="translate(-24.000000, -1596.000000)">
            <g id="Group-25-Copy-9" transform="translate(0.000000, 1582.000000)">
                <g id="Group-29" transform="translate(24.000000, 14.000000)">
                    <circle id="Oval" fill="#FEF9EE" cx="20.3" cy="20.3" r="20.3"></circle>
                    <path d="M25.2619049,12 L25.2619049,13.08 C26.9046277,13.3023064 28.4530075,13.983015 29.7322918,15.0453 L29.7322918,15.0453 L30.3965776,14.37575 C30.54653,14.2221158 30.7667087,14.1613537 30.9733858,14.21657 C31.1800628,14.2717863 31.341482,14.4344969 31.3962601,14.6428273 C31.4510381,14.8511578 31.3907583,15.073098 31.2383434,15.22425 L31.2383434,15.22425 L30.6000994,15.86765 C32.1435645,17.5304221 33.0015774,19.722861 33.0000024,22 C33.0000024,26.9626 28.994643,31 24.0714287,31 C19.1482144,31 15.1428548,26.9626 15.1428548,22 C15.1412044,19.7227574 15.9992226,17.5301978 17.542758,15.86735 L17.542758,15.86735 L16.904514,15.22395 C16.7520991,15.072798 16.6918193,14.8508578 16.7465973,14.6425273 C16.8013754,14.4341969 16.9627946,14.2714863 17.1694716,14.21627 C17.3761487,14.1610537 17.5963274,14.2218158 17.7462798,14.37545 L17.7462798,14.37545 L18.4105656,15.045 C19.6898838,13.982823 21.2382605,13.3022197 22.8809525,13.08 L22.8809525,13.08 L22.8809525,12 L25.2619049,12 Z M24.0714287,14.6 C20.0169573,14.6 16.7301588,17.9130929 16.7301588,22 C16.7301588,26.0869071 20.0169573,29.4 24.0714287,29.4 C26.0184545,29.4 27.8857353,28.6203594 29.2624904,27.2325902 C30.6392456,25.844821 31.4126986,23.962602 31.4126986,22 C31.4126986,17.9130929 28.1259001,14.6 24.0714287,14.6 Z M24.0714287,15.2 L24.0714287,22 L30.8174605,22 C30.8174605,25.74955 27.7912204,28.8 24.0714287,28.8 C20.351637,28.8 17.3253969,25.74955 17.3253969,22 C17.3253969,18.25045 20.351637,15.2 24.0714287,15.2 L24.0714287,15.2 Z M14.1507937,25 C14.4795346,25 14.7460318,25.2686292 14.7460318,25.6 C14.7460318,25.9313708 14.4795346,26.2 14.1507937,26.2 L14.1507937,26.2 L11.3730159,26.2 C11.044275,26.2 10.7777778,25.9313708 10.7777778,25.6 C10.7777778,25.2686292 11.044275,25 11.3730159,25 L11.3730159,25 Z M13.7539683,22.6 C14.0827092,22.6 14.3492064,22.8686292 14.3492064,23.2 C14.3492064,23.5313708 14.0827092,23.8 13.7539683,23.8 L13.7539683,23.8 L9.7857143,23.8 C9.45697338,23.8 9.1904762,23.5313708 9.1904762,23.2 C9.1904762,22.8686292 9.45697338,22.6 9.7857143,22.6 L9.7857143,22.6 Z M13.7539683,20.2 C14.0827092,20.2 14.3492064,20.4686292 14.3492064,20.8 C14.3492064,21.1313708 14.0827092,21.4 13.7539683,21.4 L13.7539683,21.4 L8.5952381,21.4 C8.26649717,21.4 8,21.1313708 8,20.8 C8,20.4686292 8.26649717,20.2 8.5952381,20.2 L8.5952381,20.2 Z M14.5476191,17.8 C14.87636,17.8 15.1428572,18.0686292 15.1428572,18.4 C15.1428572,18.7313708 14.87636,19 14.5476191,19 L14.5476191,19 L10.5793651,19 C10.2506242,19 9.98412703,18.7313708 9.98412703,18.4 C9.98412703,18.0686292 10.2506242,17.8 10.5793651,17.8 L10.5793651,17.8 Z M26.0507938,9 C26.3821647,9 26.6507938,9.26862915 26.6507938,9.6 L26.6507938,10.8 C26.6507938,11.1313708 26.3821647,11.4 26.0507938,11.4 L22.0920636,11.4 C21.7606928,11.4 21.4920636,11.1313708 21.4920636,10.8 L21.4920636,9.6 C21.4920636,9.26862915 21.7606928,9 22.0920636,9 L26.0507938,9 Z" id="Combined-Shape-Copy-8" fill="#FCC657" fill-rule="nonzero"></path>
                </g>
            </g>
        </g>
    </g>
</svg>