<?xml version="1.0" encoding="UTF-8"?>
<svg width="41px" height="41px" viewBox="0 0 41 41" version="1.1" xmlns="http://www.w3.org/2000/svg" xmlns:xlink="http://www.w3.org/1999/xlink">
    <title>20726685-A5C4-4F12-870B-F345D52A14D3</title>
    <g id="Admin" stroke="none" stroke-width="1" fill="none" fill-rule="evenodd">
        <g id="Notifications-icons-design" transform="translate(-24.000000, -154.000000)">
            <g id="Group-44" transform="translate(24.000000, 154.000000)">
                <circle id="Oval" fill="#FEF9EE" cx="20.3" cy="20.3" r="20.3"></circle>
                <path d="M21.9920724,8.59025022 C22.4681914,9.00971753 22.9453377,9.4281089 23.414901,9.8548143 C23.5382849,9.966907 23.6590759,10.0148838 23.8283496,10.0002609 C24.679219,9.92680402 25.5313116,9.86816565 26.3823767,9.79774092 C27.6365187,9.69406007 28.5550487,10.356346 28.8521094,11.5856488 C29.0161483,12.2646117 29.1720171,12.9457264 29.3504394,13.6209235 C29.3830221,13.7442646 29.4834611,13.8809081 29.5918746,13.9480073 C30.3450936,14.4143266 31.1072167,14.8663164 31.8694376,15.3180617 C32.4462402,15.6599151 32.8157558,16.1486823 32.9562628,16.8072514 C32.9623782,16.836057 32.9850296,16.8614393 33,16.8883865 L33,17.5230405 C32.9214785,17.7604305 32.8549921,18.0026133 32.762234,18.2342814 C32.4844001,18.9278183 32.1909598,19.6150952 31.9179203,20.3104416 C31.8765314,20.415883 31.8759933,20.5648509 31.9165015,20.6706836 C32.2699215,21.5936389 32.6369911,22.5113611 33,23.4306484 L33,24.0654002 C32.8185445,24.9501109 32.2419865,25.495169 31.4755582,25.9077405 C30.8323181,26.2538976 30.220927,26.6588398 29.5882054,27.0251952 C29.4473559,27.1067216 29.3773471,27.205952 29.3420246,27.3573162 C29.1818017,28.0452778 29.0124791,28.7310386 28.8509352,29.4187068 C28.7523553,29.8383208 28.5770641,30.2157778 28.276432,30.5303416 C27.7093162,31.1239145 27.0033078,31.2563032 26.2193162,31.1801565 C25.4183972,31.102298 24.6149342,31.0482568 23.8117158,30.9975412 C23.7055528,30.9907922 23.5717483,31.0382311 23.4892641,31.1068463 C23.1079579,31.4239043 22.7318376,31.7482493 22.3698561,32.0870216 C21.9126703,32.5149497 21.4269135,32.8836525 20.7920882,33 L20.2060881,33 C19.5717031,32.881794 19.0860441,32.5127978 18.6290051,32.0845763 C18.2729922,31.7510859 17.9036722,31.4308001 17.5262799,31.1217626 C17.4324455,31.0448823 17.2819093,30.9922594 17.1617054,30.9995953 C16.228205,31.0561796 15.2967593,31.1552633 14.3627696,31.1921874 C13.3258459,31.2331217 12.4610334,30.573868 12.1953813,29.5738857 C11.9993956,28.8362356 11.8395641,28.0889509 11.645731,27.350665 C11.613295,27.2271772 11.512856,27.0899468 11.4043447,27.0230922 C10.6710374,26.5710535 9.92647769,26.1373545 9.18681032,25.6956349 C8.08276417,25.0362345 7.72753401,23.9715006 8.21495422,22.7872402 C8.50550812,22.0812812 8.80232418,21.3778164 9.0820661,20.6675536 C9.12340606,20.562699 9.12086206,20.4129487 9.07922856,20.3073605 C8.78710912,19.5670205 8.47331677,18.835288 8.17821302,18.0961217 C7.74333615,17.0068859 8.12097307,15.917699 9.12957036,15.3204092 C9.81498209,14.9144889 10.5026932,14.5123832 11.1820385,14.0966817 C11.2810098,14.036136 11.3739146,13.9207177 11.4107537,13.8109236 C11.6795368,13.0103313 11.9682317,12.213945 12.1829059,11.3983875 C12.44665,10.3966446 13.4669888,9.68359417 14.5587553,9.79079626 C15.424693,9.87589281 16.2941532,9.92479888 17.1611673,10.0000164 C17.3301963,10.0146882 17.4523572,9.97140635 17.5760835,9.85916694 C18.0460871,9.4329506 18.5238206,9.0151461 18.9992546,8.5949452 C19.8945462,7.8036451 21.0964873,7.80129761 21.9920724,8.59025022 Z M20.509313,12.4456538 C16.0683734,12.4394019 12.4452312,16.0552717 12.4420492,20.4968226 C12.4388713,24.9351945 16.0614263,28.5582535 20.501094,28.5568845 C24.933521,28.5554659 28.5449705,24.9508934 28.5561016,20.5172164 C28.5671816,16.0788933 24.951329,12.4519219 20.509313,12.4456538 Z M20.4987554,13.9103545 C24.1373573,13.9102078 27.0978369,16.8753824 27.0911458,20.5130643 C27.084432,24.1422365 24.1287958,27.0921524 20.4991958,27.0921524 C16.8625998,27.0921524 13.9004078,24.1250216 13.9070014,20.4887091 C13.9135681,16.8603682 16.869449,13.9105012 20.4987554,13.9103545 Z M23.5866307,17.8434779 C22.4085151,19.0227987 21.2288828,20.2007013 20.0514032,21.3806578 C19.9655922,21.4666836 19.8924523,21.565376 19.7944594,21.680452 C19.6872201,21.5778471 19.6223971,21.5181817 19.5601181,21.4559243 C18.8409005,20.7377387 18.1217808,20.0194065 17.4032971,19.3003895 C17.2008536,19.0978695 16.9652892,18.9889557 16.6763498,19.0576198 C16.0924044,19.1964152 15.9165261,19.8753781 16.3567845,20.3202766 C17.2890619,21.262403 18.2284331,22.1975358 19.1663366,23.1340869 C19.5677501,23.5348721 19.9678916,23.532867 20.3744909,23.1277291 C21.1405767,22.3643055 21.904461,21.59873 22.6692259,20.8339859 C23.3189728,20.1843177 23.967839,19.5336715 24.6188089,18.885226 C24.8281505,18.6767394 24.9437557,18.437442 24.870469,18.1386749 C24.8032487,17.864801 24.6319203,17.6823813 24.3572174,17.603936 C24.0483174,17.5157095 23.802528,17.627362 23.5866307,17.8434779 Z" id="Combined-Shape" fill="#FCC657"></path>
            </g>
        </g>
    </g>
</svg>