<?xml version="1.0" encoding="UTF-8"?>
<svg width="41px" height="41px" viewBox="0 0 41 41" version="1.1" xmlns="http://www.w3.org/2000/svg" xmlns:xlink="http://www.w3.org/1999/xlink">
    <title>8157D98B-BC1E-4E15-ADF9-08A5438DA665</title>
    <g id="Admin" stroke="none" stroke-width="1" fill="none" fill-rule="evenodd">
        <g id="Notifications-icons-design" transform="translate(-24.000000, -250.000000)">
            <g id="Group-43" transform="translate(24.000000, 250.000000)">
                <circle id="Oval" fill="#FEF9EE" cx="20.3" cy="20.3" r="20.3"></circle>
                <path d="M22.1998754,31.3333348 C22.6692763,31.3333348 23.0498008,31.7064308 23.0498008,32.1666681 C23.0498008,32.6269053 22.6692763,33.0000013 22.1998754,33.0000013 L18.8001738,33.0000013 C18.3307729,33.0000013 17.9502483,32.6269053 17.9502483,32.1666681 C17.9502483,31.7064308 18.3307729,31.3333348 18.8001738,31.3333348 L22.1998754,31.3333348 Z M23.8997263,28.0000019 C24.3691271,28.0000019 24.7496517,28.3730979 24.7496517,28.8333351 C24.7496517,29.2935724 24.3691271,29.6666684 23.8997263,29.6666684 L17.1003229,29.6666684 C16.6309221,29.6666684 16.2503975,29.2935724 16.2503975,28.8333351 C16.2503975,28.3730979 16.6309221,28.0000019 17.1003229,28.0000019 L23.8997263,28.0000019 Z M20.5000246,8.00000133 C24.3460521,7.99789996 27.7136561,10.5297311 28.7095256,14.1720687 C29.7053951,17.8144063 28.0810226,21.6583483 24.7496517,23.5427801 L24.7496517,23.5427801 L24.7496517,25.5000013 C24.7496863,25.7210262 24.6601519,25.9330075 24.5007525,26.0892952 C24.341353,26.2455828 24.1251511,26.3333354 23.8997263,26.3333354 L23.8997263,26.3333354 L21.34995,26.3333354 L21.34995,18.3450307 L24.5006462,15.2558421 C24.8325282,14.9304406 24.8325295,14.4028592 24.500649,14.0774561 C24.1687686,13.7520531 23.6306827,13.7520518 23.2988007,14.0774534 L23.2988007,14.0774534 L20.5000246,16.8215975 L17.7012428,14.0774534 C17.4865528,13.8669555 17.1736358,13.7847472 16.8803646,13.8617956 C16.5870934,13.9388441 16.358023,14.1634437 16.2794418,14.45099 C16.2008607,14.7385363 16.2847073,15.0453442 16.4993973,15.2558421 L16.4993973,15.2558421 L19.6500992,18.3450307 L19.6500992,26.3333354 L17.1003229,26.3333354 C16.8748976,26.3333354 16.6586948,26.2455848 16.499295,26.0892968 C16.3398953,25.9330088 16.2503614,25.7210267 16.2503975,25.5000013 L16.2503975,25.5000013 L16.2503975,23.5428079 C12.9189967,21.6583883 11.2946005,17.814429 12.2904734,14.1720723 C13.2863464,10.5297156 16.6539774,7.99787813 20.5000246,8.00000133 Z" id="Combined-Shape-Copy" fill="#FCC657" fill-rule="nonzero"></path>
            </g>
        </g>
    </g>
</svg>