<?xml version="1.0" encoding="UTF-8"?>
<svg width="41px" height="41px" viewBox="0 0 41 41" version="1.1" xmlns="http://www.w3.org/2000/svg" xmlns:xlink="http://www.w3.org/1999/xlink">
    <title>EC549B10-8EFB-4E6D-9189-CDD68CFEC193</title>
    <g id="Admin" stroke="none" stroke-width="1" fill="none" fill-rule="evenodd">
        <g id="Notifications-icons-design" transform="translate(-24.000000, -428.000000)">
            <g id="Group-12" transform="translate(24.000000, 428.000000)">
                <circle id="Oval" fill="#FEF9EE" cx="20.3" cy="20.3" r="20.3"></circle>
                <path d="M11.5088606,25.4301108 C11.7629306,25.0403458 12.3347922,25.0406466 12.5886903,25.4301108 L12.5886903,25.4301108 L13.3228851,26.5562225 L14.6207775,26.9064566 C15.0699224,27.027713 15.246435,27.571605 14.9545102,27.9334406 L14.9545102,27.9334406 L14.1103602,28.9797173 L14.1782927,30.322346 C14.2019251,30.787821 13.7385149,31.1225006 13.3047096,30.9570299 L13.3047096,30.9570299 L12.0487969,30.4775043 L10.7928843,30.9570299 C10.3582626,31.1228873 9.89575468,30.7867897 9.91930116,30.322346 L9.91930116,30.322346 L9.98723362,28.9797173 L9.14308362,27.9334406 C8.85094396,27.5713902 9.02788632,27.0276271 9.47677338,26.9064566 L9.47677338,26.9064566 L10.7746658,26.5562225 Z M27.411287,25.4301108 C27.665357,25.0403458 28.2372186,25.0406466 28.4911167,25.4301108 L28.4911167,25.4301108 L29.2253115,26.5562225 L30.5232039,26.9064566 C30.9723918,27.027713 31.1489044,27.571605 30.8569367,27.9334406 L30.8569367,27.9334406 L30.0127867,28.9797173 L30.0807191,30.322346 C30.1043086,30.7874343 29.6410272,31.1225436 29.207136,30.9570299 L29.207136,30.9570299 L27.9512234,30.4775043 L26.6953107,30.9570299 C26.260689,31.1228873 25.7981811,30.7867897 25.8217276,30.322346 L25.8217276,30.322346 L25.88966,28.9797173 L25.04551,27.9334406 C24.7533704,27.5713902 24.9303128,27.0276271 25.3791998,26.9064566 L25.3791998,26.9064566 L26.6770922,26.5562225 Z M19.4600953,22.9628313 C19.7141653,22.5730664 20.2860269,22.5733672 20.539925,22.9628313 L20.539925,22.9628313 L21.7427291,24.8078017 L23.8690882,25.3815996 C24.3182761,25.502856 24.4947888,26.0467051 24.202821,26.4085836 L24.202821,26.4085836 L22.8198518,28.1227157 L22.931182,30.322303 C22.9547714,30.7874772 22.4914042,31.1225006 22.0575989,30.9570299 L22.0575989,30.9570299 L20.0000316,30.1713986 L17.9424643,30.9570299 C17.5077567,31.1229303 17.0453348,30.7866608 17.0688812,30.322303 L17.0688812,30.322303 L17.1802114,28.1227157 L15.7972423,26.4085836 C15.5051026,26.0465332 15.682002,25.502813 16.130932,25.3815996 L16.130932,25.3815996 L18.2572911,24.8078017 Z M22.5780707,15.4452364 C24.3550137,15.4452364 25.8006732,16.890903 25.8006732,18.6678547 L25.8006732,18.6678547 L25.8006732,21.2889175 C25.8006732,21.6448664 25.5120999,21.9334411 25.1561527,21.9334411 L25.1561527,21.9334411 L14.8438246,21.9334411 C14.4878774,21.9334411 14.1993041,21.6448664 14.1993041,21.2889175 L14.1993041,21.2889175 L14.1993041,18.6678547 C14.1993041,16.890903 15.6449636,15.4452364 17.4219066,15.4452364 L17.4219066,15.4452364 Z M19.9827585,9 C21.5819857,9 22.8831008,10.3010784 22.8831008,11.9003564 C22.8831008,13.4996344 21.5820287,14.8007128 19.9827585,14.8007128 C18.3834882,14.8007128 17.0824162,13.4995914 17.0824162,11.9003564 C17.0824162,10.3011214 18.3835312,9 19.9827585,9 Z" id="Combined-Shape" fill="#FCC657" fill-rule="nonzero"></path>
            </g>
        </g>
    </g>
</svg>