<?xml version="1.0" encoding="UTF-8"?>
<svg width="41px" height="41px" viewBox="0 0 41 41" version="1.1" xmlns="http://www.w3.org/2000/svg" xmlns:xlink="http://www.w3.org/1999/xlink">
    <title>16E939B4-01EA-4E5E-B1BD-61B09FA9B0FA</title>
    <g id="Admin" stroke="none" stroke-width="1" fill="none" fill-rule="evenodd">
        <g id="Notifications-icons-design" transform="translate(-24.000000, -533.000000)">
            <g id="Group-41" transform="translate(24.000000, 533.000000)">
                <circle id="Oval" fill="#FEF9EE" cx="20.3" cy="20.3" r="20.3"></circle>
                <path d="M19.583435,13.9506287 C20.2012329,13.3401459 21.2028198,13.3401459 21.8208008,13.9506287 L21.8208008,13.9506287 L25.1767578,17.2670307 L27.78125,19.8406846 L27.78125,18.4272015 C27.78125,17.277887 28.7275391,16.3428024 29.890625,16.3428024 C31.0537109,16.3428024 32,17.277887 32,18.4273824 L32,18.4273824 L32,22.8981651 C32,23.5786708 31.7317505,24.2182846 31.244873,24.6995781 L31.244873,24.6995781 L26.1710205,29.7131731 C25.3029175,30.5711783 24.1625366,31 23.0221557,31 C21.881958,31 20.7415771,30.5711783 19.8734741,29.7131731 L19.8734741,29.7131731 L16.2272949,26.1103472 L12.8713379,22.7941261 C12.2535401,22.1836433 12.2535401,21.1937346 12.8713379,20.5832518 C13.4891357,19.9727689 14.4909057,19.9727689 15.1087036,20.5832518 L15.1087036,20.5832518 L13.1199951,18.6180904 C12.5021973,18.0076076 12.5021973,17.017699 13.1199951,16.4072161 C13.737793,15.7967333 14.739563,15.7967333 15.3573608,16.4072161 C14.739563,15.7967333 14.739563,14.8068246 15.3573608,14.1963418 C15.9751587,13.5858589 16.9769287,13.5858589 17.5947266,14.1963418 L17.5947266,14.1963418 L19.583435,16.1615031 C18.9656372,15.5510203 18.9656372,14.5611116 19.583435,13.9506287 Z M20.1882324,11.3878311 C21.0015869,10.5841071 22.3248901,10.5841071 23.1382446,11.3878311 L23.1382446,11.3878311 L26.375,14.586081 L26.375,14.2580414 C26.375,13.1087269 27.3212891,12.1736424 28.484375,12.1736424 C29.0477905,12.1736424 29.5775146,12.3904054 29.9759521,12.7841252 C30.3743896,13.177845 30.59375,13.701297 30.59375,14.2580414 L30.59375,14.2580414 L30.59375,15.0232258 C30.3665161,14.9774486 30.1314087,14.953203 29.890625,14.953203 C28.5224609,14.953203 27.3342896,15.7296055 26.753479,16.8599215 L26.753479,16.8599215 L22.8150635,12.9681386 C22.2507324,12.4103085 21.5001831,12.1032577 20.7020263,12.1032577 C19.9038696,12.1032577 19.1535034,12.4103085 18.5889893,12.9681386 C18.5463257,13.010297 18.5049439,13.053722 18.4650268,13.0978707 C18.0878296,12.764584 17.6386719,12.5353363 17.1536255,12.4246026 C17.1755982,12.4007188 17.1983032,12.377016 17.2217407,12.354037 C17.9069214,11.6769691 18.949707,11.564426 19.7544556,12.015503 C19.8555298,11.7875219 19.9998169,11.5740157 20.1882324,11.3878311 Z M10.953125,14.5583976 C11.3414917,14.5583976 11.65625,14.869429 11.65625,15.2531972 C11.65625,15.6369655 11.3414917,15.9479969 10.953125,15.9479969 L10.953125,15.9479969 L8.703125,15.9479969 C8.31475831,15.9479969 8,15.6369655 8,15.2531972 C8,14.869429 8.31475831,14.5583976 8.703125,14.5583976 L8.703125,14.5583976 Z M9.56536864,10.546834 C9.83984375,10.2754279 10.2851562,10.2754279 10.5596314,10.546834 L10.5596314,10.546834 L12.2471314,12.2143533 C12.5217896,12.4855785 12.5217896,12.9256183 12.2471314,13.1968435 C12.1098022,13.3325465 11.9298096,13.4003981 11.75,13.4003981 C11.5700073,13.4003981 11.3900146,13.3325465 11.2528686,13.1968435 L11.2528686,13.1968435 L9.56536864,11.5293242 C9.29071044,11.258099 9.29071044,10.8180592 9.56536864,10.546834 Z M14.328125,9 C14.7164917,9 15.03125,9.31103144 15.03125,9.69479969 L15.03125,9.69479969 L15.03125,11.9181587 C15.03125,12.301927 14.7164917,12.6129584 14.328125,12.6129584 C13.9397583,12.6129584 13.625,12.301927 13.625,11.9181587 L13.625,11.9181587 L13.625,9.69479969 C13.625,9.31103144 13.9397583,9 14.328125,9 Z" id="Combined-Shape" fill="#FCC657" fill-rule="nonzero"></path>
            </g>
        </g>
    </g>
</svg>