<?xml version="1.0" encoding="UTF-8"?>
<svg width="41px" height="41px" viewBox="0 0 41 41" version="1.1" xmlns="http://www.w3.org/2000/svg" xmlns:xlink="http://www.w3.org/1999/xlink">
    <title>E60CCC58-097D-40A9-90C9-4D9E10076950</title>
    <g id="Admin" stroke="none" stroke-width="1" fill="none" fill-rule="evenodd">
        <g id="Notifications-icons-design" transform="translate(-24.000000, -614.000000)">
            <g id="Group-40" transform="translate(24.000000, 614.000000)">
                <circle id="Oval" fill="#FEF9EE" cx="20.3" cy="20.3" r="20.3"></circle>
                <path d="M15.6188193,9.00674443 C17.8070543,9.10399774 19.3952341,10.3233267 19.9809733,12.5790414 C20.0042764,12.6687393 19.9733411,12.7884747 19.9328316,12.8777579 C19.2933959,14.2870786 18.6443408,15.6918384 18.0056276,17.1015277 C17.4890752,18.2416166 17.7725061,19.5123134 18.6966373,20.2520559 C19.9361284,21.2442147 21.7634812,20.8547408 22.5018197,19.4272686 L22.9670592,18.5099305 L22.9670592,18.5099305 L23.8791424,16.6653851 L23.8791424,16.6653851 C23.9127423,16.5978929 23.9485098,16.5315063 23.9941225,16.4438355 C25.3585743,17.5987589 26.6990455,18.7334576 28.0395167,19.8680642 C28.3805281,20.1566454 28.7082169,20.4638387 29.0656217,20.729477 C29.8286633,21.2966882 30.4121445,22.0351868 30.9945869,22.7757586 C31.4150366,23.3104445 31.507933,23.9136822 31.255347,24.5454832 C31.0018127,25.179818 30.5137569,25.5331272 29.8488955,25.6160989 C29.3896073,25.6734097 28.9799059,25.5208266 28.554624,25.2105005 C28.7712166,25.6153618 28.8776161,25.9791288 28.8151131,26.3810876 C28.7522941,26.7850735 28.5735917,27.1193098 28.2687092,27.380848 C27.6895635,27.8777566 27.0563148,27.8762824 26.1971704,27.3712655 C26.5644655,28.1757821 26.4885045,28.9101344 25.8156044,29.4731532 C25.1413043,30.0372777 24.420127,29.9603872 23.7667365,29.480248 C23.8100911,29.7834332 23.9038907,30.1110815 23.893323,30.4352285 C23.8725941,31.068043 23.544544,31.5351906 22.988611,31.8116554 C22.4241878,32.0924046 21.8496937,32.0663291 21.3460573,31.6859309 C20.7694407,31.2503412 20.231527,30.7612183 19.6672845,30.2873906 C19.966296,29.9217808 20.2876622,29.5478784 20.5882996,29.157437 C21.3412703,28.1794216 20.8618402,26.7685345 19.6796134,26.4869099 C19.1507772,26.3609551 18.6684568,26.49488 18.1976074,26.8718229 C18.6097926,25.9508419 18.4920125,25.1795877 17.7205709,24.5899866 C17.1474316,24.151909 16.4584993,24.2015723 15.6787481,24.7006002 C15.8791278,24.2896577 15.9713919,23.8912001 15.8770504,23.4620141 C15.7840185,23.0386327 15.568284,22.7011255 15.225105,22.4501373 C14.7257589,22.0849882 13.9351239,21.9495431 13.1448049,22.5748482 C13.3785135,22.117145 13.4601196,21.6873139 13.3423847,21.2362446 C13.2246046,20.7849911 12.965109,20.4400206 12.567014,20.2100402 C12.1452547,19.9663772 11.7003729,19.9371689 11.2398653,20.0801695 C10.7857707,20.2211431 10.4901914,20.5668507 10.1588897,20.9921209 C9.92265207,20.4321427 9.66789841,19.937215 9.50039596,19.4132633 C8.63529028,16.7071243 8.8591086,14.1004039 10.4288626,11.7245852 C11.6459086,9.88257707 13.4139198,8.90870793 15.6188193,9.00674443 Z M19.6285219,27.5642929 C19.9123353,27.7928829 19.9889584,28.2077911 19.7617057,28.4854581 C19.4390528,28.8796012 19.1030402,29.2661102 18.7423741,29.6286696 C18.6133221,29.7583638 18.3961236,29.8089677 18.3056816,29.8533333 C17.9204539,29.840726 17.7023372,29.7355921 17.5732852,29.5052572 C17.4378059,29.2634491 17.4317917,29.00297 17.6095997,28.7862458 C17.9420773,28.3809785 18.2901183,27.9859629 18.6523453,27.6044271 C18.9029201,27.340458 19.3470499,27.3375788 19.6285219,27.5642929 Z M16.8932071,25.4265064 C17.1814834,25.670977 17.269108,26.1329536 17.0427788,26.4430481 C16.7136019,26.8941034 16.3647541,27.3314347 15.9965106,27.7472136 C15.8784857,27.8804909 15.6723317,27.9270752 15.5065281,28.0133333 C15.2028453,27.9619167 14.9794966,27.8438131 14.846386,27.5786115 C14.7107077,27.3081909 14.7115789,27.0238531 14.891872,26.7836833 C15.2270556,26.3370737 15.5733814,25.8982927 15.936306,25.4766666 C16.1829021,25.1901542 16.6093785,25.1857567 16.8932071,25.4265064 Z M14.4797199,23.5735592 C14.765204,23.7966747 14.8456511,24.2130816 14.6184281,24.4903674 C14.2915974,24.8891668 13.9494107,25.2787495 13.5849004,25.646551 C13.4607231,25.7718034 13.2493145,25.819322 13.1515862,25.8666667 C12.7867551,25.8434943 12.5623741,25.7462834 12.4320543,25.5169509 C12.2958214,25.2771844 12.2832616,25.0178104 12.4630872,24.8002597 C12.8011943,24.3912436 13.151907,23.990227 13.5207261,23.6061222 C13.7637176,23.3530957 14.2017533,23.3563563 14.4797199,23.5735592 Z M12.0641048,21.1124404 C12.373779,21.3592496 12.4206828,21.7962011 12.1581398,22.1065367 C11.8579282,22.4613058 11.551575,22.8115311 11.2388981,23.1561639 C11.018937,23.3986914 10.6861066,23.4730095 10.3942203,23.3649185 C10.11257,23.2605849 9.94519941,23.0196302 9.90789474,22.7035275 C9.97645344,22.5628432 10.0207186,22.4038524 10.1180747,22.2849261 C10.416876,21.9200207 10.7313271,21.5665623 11.0487353,21.216206 C11.320013,20.9167494 11.768306,20.8766849 12.0641048,21.1124404 Z M27.6599192,9.29101895 C30.1694206,10.1724519 31.6023287,11.994869 31.9600176,14.6717517 C31.9668874,14.7233194 31.9863977,14.7731698 32,14.8238557 L32,15.9356494 C31.9086771,16.4339213 31.8425894,16.9386449 31.7206729,17.429119 C31.464291,18.4606601 31.0177982,19.4125984 30.4552511,20.3466667 C30.3916823,20.2948668 30.3352124,20.2505863 30.2807117,20.2040778 C28.2651966,18.485214 26.2489487,16.7672784 24.2358151,15.0455832 C24.0024243,14.845996 23.7651405,14.6782034 23.4402894,14.7111121 C23.0820051,14.7474091 22.8419734,14.9418907 22.6823645,15.2639688 C22.1192678,16.4002236 21.5520034,17.5343432 20.9837315,18.6679059 C20.7556533,19.1228256 20.3348536,19.3632122 19.8917957,19.3010152 C19.1759141,19.2004789 18.7860286,18.486003 19.092148,17.8097272 C19.5549452,16.7872371 20.0303371,15.7705954 20.5005538,14.7515401 C20.6261342,14.4793588 20.7652252,14.2126546 20.8753256,13.9341608 C21.0497734,13.4926552 21.2436399,13.0535633 21.3620757,12.5955802 C22.1197716,9.66554672 25.0480575,8.3736603 27.6599192,9.29101895 Z" id="Combined-Shape" fill="#FCC657"></path>
            </g>
        </g>
    </g>
</svg>