<?xml version="1.0" encoding="UTF-8"?>
<svg width="41px" height="41px" viewBox="0 0 41 41" version="1.1" xmlns="http://www.w3.org/2000/svg" xmlns:xlink="http://www.w3.org/1999/xlink">
    <title>58741631-D4AF-438A-837B-8A03EA94D869</title>
    <g id="Admin" stroke="none" stroke-width="1" fill="none" fill-rule="evenodd">
        <g id="Notifications-icons-design" transform="translate(-24.000000, -704.000000)">
            <g id="Group-39" transform="translate(24.000000, 704.000000)">
                <circle id="Oval" fill="#FEF9EE" cx="20.3" cy="20.3" r="20.3"></circle>
                <path d="M29.2866672,9 C29.6806171,9 30,9.33000025 30,9.73704641 L30,9.73704641 L30,23.2102548 L23.1742134,23.2102548 C22.7802635,23.2102548 22.4608806,23.540255 22.4608806,23.9473012 L22.4608806,23.9473012 L22.4608806,31 L11.7133328,31 C11.3193829,31 11,30.6699998 11,30.2629536 L11,30.2629536 L11,9.73704641 C11,9.33000025 11.3193829,9 11.7133328,9 L11.7133328,9 Z M29.5821296,24.6843476 L23.8875462,30.5682382 L23.8875462,24.6843476 L29.5821296,24.6843476 Z M20.1180103,25.5786306 L14.7695835,25.5786306 C13.8238468,25.6172027 13.8231335,27.0137582 14.7695835,27.0527234 L14.7695835,27.0527234 L20.1179627,27.0527234 C21.0636994,27.0141513 21.0644603,25.6175466 20.1180103,25.5786306 L20.1180103,25.5786306 Z M20.1180103,22.4207798 L14.7695835,22.4207798 C13.8238468,22.4593519 13.8231335,23.8559074 14.7695835,23.8948726 L14.7695835,23.8948726 L20.1179627,23.8948726 C21.0636994,23.8563005 21.0644603,22.459745 20.1180103,22.4207798 L20.1180103,22.4207798 Z M17.8258342,19.2629782 L14.7695835,19.2629782 C13.8238468,19.3015503 13.8231335,20.6981058 14.7695835,20.737071 L14.7695835,20.737071 L17.8258342,20.737071 C18.7715708,20.6984989 18.7722841,19.3019433 17.8258342,19.2629782 L17.8258342,19.2629782 Z M23.5562745,12.1578164 C21.7253393,12.1478761 20.6618077,14.3552809 21.7565358,15.8526153 C20.8036658,16.472717 20.1687045,17.5688033 20.1687045,18.8158367 L20.1687045,18.8158367 L20.1687045,20.0000246 C20.1687045,20.4070707 20.4880873,20.737071 20.8820373,20.737071 L20.8820373,20.737071 L26.2304641,20.737071 C26.624414,20.737071 26.9437969,20.4070707 26.9437969,20.0000246 L26.9437969,20.0000246 L26.9437969,18.8158367 C26.9437969,17.5688033 26.3088831,16.472717 25.3559656,15.8526153 C26.4507888,14.3556249 25.3870669,12.1477778 23.5562745,12.1578164 Z M23.5562269,16.7897452 C24.6374968,16.7897452 25.5171313,17.6986217 25.5171313,18.8157875 L25.5171313,18.8157875 L25.5171313,19.262929 L21.5953701,19.262929 L21.5953701,18.8157875 C21.5953701,17.6986217 22.4750046,16.7897452 23.5562269,16.7897452 Z M17.8258342,16.1051274 L14.7695835,16.1051274 C13.8238468,16.1436995 13.8231335,17.5403042 14.7695835,17.5792202 L14.7695835,17.5792202 L17.8258342,17.5792202 C18.7715708,17.5406481 18.7722841,16.1440926 17.8258342,16.1051274 L17.8258342,16.1051274 Z M22.7414106,14.473798 C22.7860177,13.357271 24.3262459,13.356927 24.3709956,14.473798 C24.3709956,14.9379898 24.0054839,15.3156524 23.5562269,15.3156524 C23.1069699,15.3156524 22.7414582,14.9379898 22.7414106,14.473798 Z M17.8258342,12.9472766 L14.7695835,12.9472766 C13.8238468,12.9858978 13.8231335,14.3824534 14.7695835,14.4213694 L14.7695835,14.4213694 L17.8258342,14.4213694 C18.7715708,14.3827973 18.7722841,12.9862418 17.8258342,12.9472766 L17.8258342,12.9472766 Z" id="Combined-Shape" fill="#FCC657" fill-rule="nonzero"></path>
            </g>
        </g>
    </g>
</svg>