<?xml version="1.0" encoding="UTF-8"?>
<svg width="24px" height="31px" viewBox="0 0 24 31" version="1.1" xmlns="http://www.w3.org/2000/svg" xmlns:xlink="http://www.w3.org/1999/xlink">
    <!-- Generator: sketchtool 52.6 (67491) - http://www.bohemiancoding.com/sketch -->
    <title>9AD644D3-2EC3-412F-A1E0-196BE86006EA</title>
    <desc>Created with sketchtool.</desc>
    <g id="Oifa-seeker" stroke="none" stroke-width="1" fill="none" fill-rule="evenodd">
        <g id="Sign-in" transform="translate(-131.000000, -931.000000)" fill="#FFFFFF">
            <g id="Group-40" transform="translate(41.000000, 891.000000)">
                <g id="mercy-corps-copy" transform="translate(90.000000, 40.000000)">
                    <path d="M6.87929204,0.549448276 C6.87929204,0.549448276 6.70300885,0.962068966 6.48637168,1.44737931 C6.10174031,2.2793605 5.77320933,3.1364723 5.50300885,4.01289655 C5.16106195,5.21013793 4.91893805,6.95896552 5.23539823,8.26096552 C5.35198441,8.74615862 5.50973163,9.22038219 5.70690265,9.67841379 C6.11531283,10.6394415 6.72367595,11.5011531 7.49097345,12.2054483 C7.72072866,11.850718 7.87210763,11.4504485 7.93486726,11.0317241 C7.98779198,10.7332771 8.02395558,10.4320633 8.04318584,10.1295172 C8.0920354,9.58434483 8.0899115,8.98786207 8.11539823,8.32082759 C8.13682841,7.25741558 8.05215614,6.19452383 7.86265487,5.14813793 C7.7500885,4.44903448 7.5440708,3.18124138 7.37415929,2.46289655 C7.20424779,1.74455172 6.87929204,0.555862069 6.87929204,0.555862069 M11.4414159,2.23841379 C11.2052568,2.40439973 10.9948308,2.60468908 10.8169912,2.83275862 C10.5968493,3.04001371 10.502287,3.34916884 10.5684956,3.64517241 C10.5871843,3.76870789 10.6251763,3.88848812 10.6810619,4.00006897 C10.8278054,4.26300599 11.1035814,4.42629928 11.4031858,4.42765517 C11.5837168,4.42765517 11.9107965,4.26944828 12.2421239,3.83331034 C12.5734513,3.39717241 12.6456637,3.23255172 12.6435398,3.02944828 C12.6435076,2.81120315 12.5571473,2.60195299 12.4035398,2.44793103 C12.1656637,2.18068966 11.7026549,2.05027586 11.4435398,2.23413793 M9.5320354,6.53351724 C9.67500987,7.1202261 9.76107706,7.71951829 9.78902655,8.32296552 C10.5171938,7.23299022 11.3969536,6.25381858 12.4014159,5.41537931 C13.4096468,4.5614266 14.5375484,3.86191472 15.7486726,3.33944828 C16.5644806,2.97288069 17.405625,2.66635254 18.2654867,2.42227586 C18.9034058,2.21611362 19.551321,2.04271759 20.2067257,1.90275862 C20.8693805,1.75737931 21.5171681,1.64193103 21.5214159,1.80013793 C21.5214159,1.91558621 20.7738053,2.17855172 20.6718584,2.22772414 C20.1515044,2.45648276 19.6587611,2.62537931 18.5628319,3.13634483 C17.3423592,3.71841068 16.2045256,4.46184811 15.179469,5.34696552 C14.1257395,6.25640456 13.1812727,7.2867578 12.3653097,8.41703448 C11.9032783,8.97447436 11.4708175,9.55608904 11.0697345,10.1594483 C10.6322124,10.8585517 10.220177,11.5961379 10.0927434,11.8291724 C9.84,12.276 9.35575221,13.297931 9.35575221,13.297931 C9.75172943,13.4110029 10.1645318,13.4522664 10.5748673,13.4197931 C11.532905,13.4065887 12.4733122,13.1585589 13.3146903,12.6971724 C14.5869027,12.0429655 15.4364602,11.2647586 16.3688496,10.292 C17.2402408,9.40595102 18.0227821,8.43563145 18.7051327,7.39510345 C19.305513,6.53778053 19.8428722,5.63745347 20.3129204,4.70131034 C20.7376991,3.85896552 20.9288496,2.92896552 21.0456637,2.89262069 C21.1624779,2.85627586 21.2134513,3.7477931 21.0923894,4.53241379 C20.7865487,6.45655172 20.5932743,6.99958621 20.0155752,8.23531034 C19.5370939,9.2486825 18.8906881,10.1726454 18.1040708,10.9675862 C17.2502396,11.8618795 16.2900676,12.6467265 15.2453097,13.3043448 C14.5079663,13.8036685 13.6912461,14.1724286 12.8304425,14.3946897 C11.9316012,14.604445 11.0052957,14.6686757 10.0863717,14.5849655 C9.68113037,14.5530237 9.27994381,14.4814213 8.88849558,14.3711724 C8.62243205,14.9748837 8.40923335,15.6008231 8.25132743,16.2418621 C8.14892658,16.6360457 8.00658723,17.0186036 7.82654867,17.3835172 C7.66725664,17.6849655 7.42938053,17.8966207 7.22123894,17.823931 C6.82619469,17.6871034 6.62230088,17.3151034 6.54371681,16.8191034 C6.45676373,16.1422598 6.48477352,15.4554607 6.62654867,14.788069 C6.7539823,14.1466897 7.01097345,13.3406897 7.01097345,13.3406897 C6.35248048,12.6599301 5.80100473,11.8820404 5.37557522,11.0338621 C4.69343965,9.76263516 4.33307783,8.3417673 4.32637168,6.89696552 C4.34206109,5.31385413 4.71767832,3.75538106 5.42442478,2.34103448 C5.69076065,1.82454851 5.9879424,1.32478213 6.31433628,0.844482759 C6.49159164,0.545586186 6.6956269,0.26363076 6.92389381,0.00213793103 C6.97061947,0.00213793103 7.68,1.45806897 8.38088496,3.162 C9.09663717,4.90441379 9.30053097,5.55648276 9.54477876,6.53137931" id="Shape" fill-rule="nonzero"></path>
                    <path d="M9.06477876,28.3575172 C9.06477876,27.5451034 8.52106195,26.8844828 7.76283186,26.8844828 C7.00460177,26.8844828 6.46088496,27.5258621 6.46088496,28.3575172 C6.46088496,29.1891724 6.96849558,29.8305517 7.76283186,29.8305517 C8.55716814,29.8305517 9.06477876,29.1784828 9.06477876,28.3575172 M9.65946903,30.2153793 C8.68020788,31.1755454 7.142748,31.2480614 6.07858407,30.3842759 C5.50100864,29.9198754 5.14943469,29.2281101 5.11326995,28.4849008 C5.07710521,27.7416916 5.35983442,27.0186516 5.88955752,26.4996552 C6.93807926,25.4701039 8.61094729,25.4701039 9.65946903,26.4996552 C10.1542144,26.9895717 10.4328459,27.6589205 10.4328459,28.3575172 C10.4328459,29.056114 10.1542144,29.7254627 9.65946903,30.2153793" id="Shape" fill-rule="nonzero"></path>
                    <path d="M12.4630088,28.21 C13.0343363,28.21 13.3125664,28.0282759 13.3125664,27.5857241 C13.3125664,27.0597931 13.0555752,26.8908966 12.4906195,26.8908966 L12.2187611,26.8908966 L12.2187611,28.21 L12.4630088,28.21 Z M10.9380531,25.8390345 L12.4438938,25.8390345 C13.1341593,25.8390345 13.6630088,25.8390345 14.0877876,26.1768276 C14.4562898,26.4737692 14.6628117,26.9292159 14.6442478,27.404 C14.6442478,28.1822069 14.2534513,28.6867586 13.5292035,28.8342759 L14.8884956,30.8546207 L13.3550442,30.8546207 L12.2123894,28.892 L12.2123894,30.8567586 L10.9380531,30.8567586 L10.9380531,25.8390345 Z" id="Shape" fill-rule="nonzero"></path>
                    <path d="M16.9040708,28.0988276 C17.4838938,28.0988276 17.7833628,27.9876552 17.7833628,27.5023448 C17.7833628,27.0170345 17.4690265,26.9208276 16.9189381,26.9208276 L16.6470796,26.9208276 L16.6470796,28.0988276 L16.9040708,28.0988276 Z M15.3727434,30.8567586 L15.3727434,25.8411724 L16.8913274,25.8411724 C17.5284956,25.8411724 18.0127434,25.8411724 18.4035398,26.102 C18.8689993,26.4285819 19.1327369,26.9749216 19.100177,27.5451034 C19.100177,28.2121379 18.8559292,28.7102759 18.4099115,28.9753793 C18.0679646,29.1891724 17.6856637,29.1891724 17.2184071,29.1891724 L16.6470796,29.1891724 L16.6470796,30.8567586 L15.3727434,30.8567586 Z" id="Shape" fill-rule="nonzero"></path>
                    <path d="M21.0541593,29.916069 C21.4300885,29.916069 21.6743363,29.7022759 21.6743363,29.3965517 C21.6743363,28.9967586 21.4024779,28.8770345 20.8375221,28.7295172 C19.939115,28.490069 19.499469,28.1266207 19.499469,27.3398621 C19.499469,26.4077241 20.1748673,25.7128966 21.219823,25.7128966 C21.7500118,25.7011452 22.2703402,25.8582754 22.7065487,26.1618621 L22.2817699,27.1431724 C22.0204692,26.9012029 21.6828241,26.7596507 21.3281416,26.7433793 C20.9925664,26.7433793 20.7780531,26.9251034 20.7780531,27.1709655 C20.7780531,27.528 21.12,27.5985517 21.5723894,27.7246897 C22.4559292,27.962 22.9444248,28.2912414 22.9444248,29.2212414 C22.9444248,30.2666897 22.2053097,30.9871724 21.0329204,30.9871724 C20.3671892,31.0006403 19.7260219,30.7341106 19.2637168,30.2517241 L19.8775221,29.234069 C20.2746903,29.6894483 20.6654867,29.9224828 21.0626549,29.9224828" id="Path"></path>
                    <path d="M2.66123894,29.822 C1.88176991,29.822 1.37415929,29.2811034 1.35504425,28.3468276 C1.37415929,27.4146897 1.88176991,26.8716552 2.66123894,26.8716552 C3.08950934,26.8684369 3.48985275,27.0852452 3.72318584,27.4467586 L4.89982301,26.878069 C4.40455859,26.1270085 3.55608709,25.6902451 2.66123894,25.7257241 C1.1299115,25.7257241 5.68434189e-14,26.8267586 5.68434189e-14,28.3489655 C5.68434189e-14,29.8711724 1.1299115,30.9722069 2.66123894,30.9722069 C3.55840288,31.0082709 4.40901989,30.5696106 4.9040708,29.8155862 L3.72743363,29.2468966 C3.49410054,29.60841 3.09375712,29.8252183 2.66548673,29.822" id="Path"></path>
                    <path d="M4.23716814,24.6375172 L4.23716814,21.3493793 C4.18360375,21.6681545 4.10693888,21.9825572 4.00778761,22.290069 L3.33238938,24.6417931 L2.42761062,24.6417931 L1.75221239,22.290069 C1.65327104,21.9824971 1.57660996,21.66811 1.52283186,21.3493793 L1.52283186,24.6396552 L0.248495575,24.6396552 L0.248495575,19.624069 L1.96460177,19.624069 L2.71646018,22.2109655 C2.7894012,22.4325455 2.84340287,22.6599933 2.87787611,22.8908276 C2.90826666,22.6579095 2.95944708,22.428222 3.03079646,22.2045517 L3.79115044,19.624069 L5.51362832,19.624069 L5.51362832,24.6375172 L4.23716814,24.6375172 Z" id="Path"></path>
                    <polygon id="Path" points="6.28884956 19.624069 9.34088496 19.624069 9.34088496 20.7251034 7.6120354 20.7251034 7.6120354 21.5931034 9.24318584 21.5931034 9.24318584 22.6663448 7.6120354 22.6663448 7.6120354 23.5151034 9.34088496 23.5151034 9.34088496 24.6375172 6.28884956 24.6375172"></polygon>
                    <path d="M11.5561062,21.9928966 C12.1274336,21.9928966 12.4056637,21.8111724 12.4056637,21.3686207 C12.4056637,20.8426897 12.1486726,20.6737931 11.5837168,20.6737931 L11.3118584,20.6737931 L11.3118584,21.9928966 L11.5561062,21.9928966 Z M10.0311504,19.621931 L11.5369912,19.621931 C12.2272566,19.621931 12.7561062,19.621931 13.180885,19.9597241 C13.5501823,20.2562261 13.7575237,20.7117415 13.739469,21.1868966 C13.739469,21.9651034 13.3486726,22.4696552 12.6244248,22.6171724 L13.9837168,24.6375172 L12.4502655,24.6375172 L11.3076106,22.6748966 L11.3076106,24.6375172 L10.0332743,24.6375172 L10.0311504,19.621931 Z" id="Shape" fill-rule="nonzero"></path>
                    <path d="M16.7893805,23.6048966 C16.0099115,23.6048966 15.5023009,23.064 15.4831858,22.1297241 C15.5023009,21.1975862 16.0099115,20.6545517 16.7893805,20.6545517 C17.2176509,20.6513334 17.6179943,20.8681417 17.8513274,21.2296552 L19.0279646,20.6609655 C18.5329137,19.9069411 17.6822967,19.4682808 16.7851327,19.5043448 C15.2538053,19.5043448 14.1238938,20.6053793 14.1238938,22.1275862 C14.1238938,23.6497931 15.2516814,24.7508276 16.7851327,24.7508276 C17.6858691,24.7882118 18.5399105,24.3465978 19.0343363,23.5877931 L17.8576991,23.0191034 C17.624366,23.3806169 17.2240226,23.5974252 16.7957522,23.5942069" id="Path"></path>
                    <polygon id="Path" points="19.340177 24.7401379 20.8736283 24.7401379 23.8789381 19.624069 22.3369912 19.624069 21.4428319 21.1484138 20.3681416 19.624069 18.8750442 19.624069 20.7504425 22.3306897"></polygon>
                </g>
            </g>
        </g>
    </g>
</svg>