<?xml version="1.0" encoding="UTF-8"?>
<svg width="402px" height="718px" viewBox="0 0 402 718" version="1.1" xmlns="http://www.w3.org/2000/svg" xmlns:xlink="http://www.w3.org/1999/xlink">
    <!-- Generator: Sketch 52.6 (67491) - http://www.bohemiancoding.com/sketch -->
    <title>Group 3</title>
    <desc>Created with Sketch.</desc>
    <g id="Sign-in" stroke="none" stroke-width="1" fill="none" fill-rule="evenodd">
        <g id="Create-account" transform="translate(-56.000000, -271.000000)">
            <g id="Group-3" transform="translate(56.000000, 271.000000)">
                <path d="M0.631231523,628.989867 L401.444659,628.989867" id="Stroke-2" stroke="#D5D8E6" stroke-width="2.38312727"></path>
                <path d="M123.285445,673.917303 L234.416754,673.917303" id="Stroke-4" stroke="#FFFFFF" stroke-width="2.38312727"></path>
                <path d="M250.199634,651.353438 L361.330943,651.353438" id="Stroke-5" stroke="#FFFFFF" stroke-width="2.38312727"></path>
                <path d="M131.949833,100.143115 C171.180604,90.0413685 209.680853,83.7177921 250.678943,77.0782753 C245.000405,55.7910474 238.285668,27.2634199 232.606534,5.97678807 C224.516554,4.8000592 206.446529,3.1118646 188.302022,9.99519197 C179.902791,13.182017 173.025384,17.6218734 171.870014,18.3765536 C163.519643,23.8244387 158.120563,29.399296 156.234669,31.4278717 C144.396139,44.1566921 139.95818,57.9316925 137.084947,67.1851688 C134.726536,74.7814484 132.099989,86.0640964 131.949833,100.143115" id="Fill-6" fill="#ADB8CD"></path>
                <path d="M282.425485,301.306524 C281.638951,295.316176 282.163903,288.809592 283.720883,284.500285 C285.814732,278.702481 290.213364,275.621764 296.621234,271.190253 C308.679636,262.849427 314.969525,264.259237 321.009154,256.30052 C322.731782,254.030518 325.927375,249.819569 325.173613,244.913552 C324.295317,239.192647 318.556001,235.857389 311.456935,231.732281 C309.876717,230.814266 303.91455,227.440857 292.613485,224.226015 C283.363963,221.594768 282.883701,222.581336 276.348317,220.676752 C263.387785,216.900371 254.586349,209.904378 250.250878,206.38969 C244.167751,201.460424 238.733516,197.055142 234.471335,189.148287 C229.544176,180.006881 229.049613,171.499739 228.736191,164.890624 C228.112326,151.719487 230.817527,141.679736 231.874581,137.609471 C234.552372,127.300277 242.489216,96.7440734 241.526904,68.5961704 C240.940578,51.4257052 240.308967,33.5834196 227.09877,21.3881211 C214.48026,9.73826688 197.271847,9.61010238 190.132859,9.98803861 C195.06836,8.10074195 202.293748,5.66144381 211.251299,3.80216451 C222.001194,1.57091013 229.77239,1.31100446 244.645035,0.888955807 C262.088216,0.393585144 274.865224,1.04513765 285.74025,1.62456038 C301.064556,2.44123644 308.86614,2.88772576 315.692898,4.7654846 C324.328089,7.14040243 335.058321,10.0923585 344.129085,19.121696 C358.520872,33.4486978 358.784241,53.1729151 358.834889,56.9719491 C359.000538,69.2966042 353.862445,80.3360378 343.585662,102.416097 C334.860496,121.162092 333.280873,120.328128 327.411065,135.163615 C319.008854,156.401962 323.138158,155.857114 317.49418,174.175098 C317.003788,175.764934 315.8365,179.45786 316.906067,183.773724 C318.157372,188.821021 321.773045,191.918429 322.818182,192.789947 C326.129371,195.551147 329.322581,196.286155 332.652242,197.266167 C340.871523,199.683409 347.942584,203.009724 351.358049,204.978689 C355.529063,207.382816 365.273744,213.00119 366.896864,222.806071 C368.805401,234.338491 358.327217,244.730545 356.74402,246.300709 C355.38844,247.64435 354.296826,248.500369 353.235005,249.327179 C338.492853,260.804161 326.138905,258.016136 313.67949,268.855871 C311.233488,270.983998 309.118784,272.864737 307.624369,276.148133 C303.700041,284.773305 308.066497,294.281322 309.749203,297.548026 C300.77318,299.609388 291.797158,301.67075 282.819944,303.732112 C282.708518,303.15567 282.558957,302.319322 282.425485,301.306524" id="Fill-8" fill-opacity="0.05" fill="#243160"></path>
                <path d="M291.941773,14.5943897 L324.665763,15.2262704" id="Stroke-10" stroke="#D6DBE4" stroke-width="1.83858269"></path>
                <path d="M299.860205,27.3479488 L334.651826,25.7742081" id="Stroke-12" stroke="#D6DBE4" stroke-width="1.83858269"></path>
                <path d="M302.817395,42.1669831 L329.686472,40.3840064" id="Stroke-14" stroke="#D6DBE4" stroke-width="1.83858269"></path>
                <path d="M296.031333,92.5251963 L336.885225,90.8155416" id="Stroke-16" stroke="#D6DBE4" stroke-width="1.83858269"></path>
                <path d="M294.373534,105.757316 L329.094843,105.63094" id="Stroke-18" stroke="#D6DBE4" stroke-width="1.83858269"></path>
                <path d="M291.543799,120.298621 L312.969703,119.961816" id="Stroke-20" stroke="#D6DBE4" stroke-width="1.83858269"></path>
                <path d="M238.274287,14.921537 C240.950291,17.0425103 244.777494,20.7127837 247.536322,26.3311573 C251.379018,34.1551524 251.002435,41.3836298 250.802822,44.49296 C250.603209,47.596329 250.060381,50.1423315 249.595015,51.9014637 C263.465425,50.2061157 277.337026,48.5107678 291.208032,46.8154198 C292.609493,43.9427468 294.099141,39.7198758 293.967456,34.6171407 C293.56108,18.908943 278.179571,9.90702673 276.890728,9.17917164 L238.274287,14.921537 Z" id="Fill-22" fill="#D6DBE4"></path>
                <path d="M251.454215,89.2465698 C263.420259,89.0063359 275.385707,88.7649098 287.351751,88.5246759 C284.856888,99.9533718 282.36143,111.382068 279.865972,122.810764 C269.18758,123.450394 258.509188,124.090024 247.8302,124.729654 C249.03741,119.979223 250.126641,114.493782 250.816646,108.369308 C251.621056,101.219518 251.704476,94.7671808 251.454215,89.2465698" id="Fill-24" fill="#D6DBE4"></path>
                <path d="M274.881253,156.13067 L303.924024,153.612685" id="Stroke-26" stroke="#D6DBE4" stroke-width="1.83858269"></path>
                <path d="M273.972329,172.718196 L306.532457,166.683735" id="Stroke-28" stroke="#D6DBE4" stroke-width="1.83858269"></path>
                <path d="M279.400248,185.819885 L305.765229,180.788684" id="Stroke-30" stroke="#D6DBE4" stroke-width="1.83858269"></path>
                <path d="M265.188054,158.066848 L266.982186,187.021889 C258.341036,187.575679 249.700482,188.128873 241.059333,188.682067 C240.202487,185.591216 239.435021,182.040166 238.944033,178.082565 C238.086591,171.16824 238.332681,165.090859 238.905302,160.267701 C247.666219,159.534481 256.427137,158.800068 265.188054,158.066848" id="Fill-32" fill="#D6DBE4"></path>
                <path d="M230.832483,573.018585 C232.583713,577.568127 234.335539,582.118264 236.086769,586.667209 C236.135033,587.075547 236.43058,587.412352 236.828614,587.512499 L250.098397,590.863255 L235.028523,598.017814 L226.615587,598.136441 C226.615587,598.136441 225.46975,594.354098 224.350131,589.902916 C224.350131,589.902916 223.04937,585.063067 222.246152,577.653371 C222.081695,576.141626 222.022705,575.25282 222.576854,574.44747 C222.973696,574.194122 223.433104,573.939581 223.95746,573.711866 C225.466771,573.05614 226.867636,572.901151 227.859146,572.88744 C228.850059,572.931553 229.841569,572.975069 230.832483,573.018585" id="Fill-34" fill="#815122"></path>
                <path d="M225.642549,594.74646 C225.142028,595.638247 224.238705,597.553561 224.354302,600.066181 C224.398395,601.024136 224.520547,603.681612 226.581623,605.746551 C227.655362,606.82194 228.842313,607.323272 229.572836,607.562314 C232.607547,607.048463 234.765749,606.097662 236.175552,605.323906 C237.720615,604.476828 238.26523,603.898001 240.003947,603.115304 C242.098988,602.171655 243.762627,601.906981 245.292197,601.628 C246.884929,601.337096 249.389921,600.733233 254.399905,599.527294 C261.998896,597.696628 263.860956,596.692176 264.649874,594.947947 C264.776792,594.666581 265.197468,593.703261 264.968063,592.573625 C264.454432,590.040737 261.122984,588.898583 259.797197,588.444344 C255.669085,587.02917 251.940794,588.148076 250.919491,588.469977 C249.698576,588.854471 250.250937,588.849106 245.493002,591.202563 C245.245124,591.324767 241.020483,593.450509 238.367718,594.362563 C235.949125,595.195334 231.766194,596.076391 225.642549,594.74646" id="Fill-36" fill="#020C1F"></path>
                <path d="M206.639647,521.288833 C204.874116,525.832413 203.108586,530.37659 201.342459,534.920766 C201.10352,535.255782 201.095178,535.702867 201.3222,536.045633 L208.882461,547.45883 L192.922969,542.601694 L186.621758,537.025048 C186.621758,537.025048 188.318765,533.456114 190.486501,529.410289 C190.486501,529.410289 192.779963,524.95553 197.170849,518.934183 C198.066426,517.705592 198.62117,517.008139 199.572757,516.785789 C200.036336,516.865668 200.547583,516.986679 201.088623,517.17207 C202.646199,517.703208 203.786674,518.53121 204.528518,519.189916 C205.232824,519.889158 205.935938,520.588995 206.639647,521.288833" id="Fill-38" fill="#815122"></path>
                <path d="M188.182552,533.863141 C187.212493,534.185638 185.256288,534.993373 183.651639,536.929551 C183.039096,537.668136 181.341493,539.715787 181.476157,542.630188 C181.546468,544.14849 182.087509,545.318662 182.466475,545.986906 C185.057271,547.650659 187.292338,548.401167 188.855873,548.778507 C190.568372,549.191614 191.360269,549.130214 193.173468,549.722155 C195.357292,550.435704 196.765903,551.360276 198.085135,552.182914 C199.459187,553.041318 201.717493,554.281831 206.234105,556.762857 C213.085294,560.526124 215.138029,561.036994 216.895814,560.278737 C217.178251,560.155937 218.137584,559.727331 218.72808,558.737782 C220.051484,556.517854 218.35686,553.429388 217.682348,552.201393 C215.581348,548.374342 212.071738,546.691512 211.099296,546.242042 C209.937966,545.703751 210.349109,546.07215 205.248554,544.60869 C204.982205,544.532388 200.427458,543.259684 197.85275,542.147932 C195.503278,541.134538 191.816697,538.970049 188.182552,533.863141" id="Fill-40" fill="#020C1F"></path>
                <path d="M125.819872,293.565151 C124.504811,295.413104 122.176789,296.159438 120.215221,295.434564 C117.745384,294.521317 116.800352,291.625992 117.412895,289.453157 C117.451626,289.315455 118.327539,286.39092 120.962428,286.08869 C122.446713,285.918798 123.94947,286.643076 124.886161,287.958103 C120.804525,278.779737 125.013079,269.064273 131.425119,266.462832 C138.393096,263.635463 149.213303,268.702432 151.602698,279.54634 C151.408448,280.686706 151.311323,282.169837 151.602698,283.845513 C151.753451,284.714051 152.003711,286.076172 152.910609,287.58434 C153.542816,288.635289 154.261422,289.368509 154.779223,289.82692 C154.473548,290.31931 154.04155,291.083528 153.657816,292.069501 C152.854002,294.134439 152.778924,295.839325 152.723509,296.555854 C152.52628,299.110202 151.508552,303.024286 149.734084,305.153605 C147.039609,308.388119 141.919391,308.321951 139.645592,308.144309 C139.861889,309.1887 140.336193,310.658121 141.513611,311.882539 C142.999684,313.42707 144.614462,313.551658 146.931758,314.498883 C147.386995,314.685467 152.281382,316.686025 153.097113,318.611473 C154.87039,322.79202 129.208523,346.613924 120.215221,340.667092 C118.063573,339.243572 115.617571,335.272261 117.973003,322.337781 C119.007414,321.999784 120.472632,321.37923 121.896735,320.188194 C122.708295,319.509221 125.297899,317.147417 126.567079,310.200306 C127.735559,303.806984 126.970476,297.992489 125.819872,293.565151" id="Fill-42" fill="#815122"></path>
                <path d="M152.754554,396.074092 C154.580862,393.176382 158.730425,390.365705 168.697957,390.217869 C168.712258,391.850625 168.955368,394.288134 170.192372,396.822215 C172.793893,402.152665 178.091677,404.428628 181.153201,405.669141 C193.280127,410.584697 205.516095,413.531884 214.907431,415.886534 C214.907431,415.886534 223.595654,418.06533 237.078159,423.61217 C240.73018,425.114973 244.404844,426.753691 246.917582,430.59028 C249.560813,434.626567 249.563792,439.027676 249.533404,441.555795 C249.466667,447.188476 247.650489,451.346966 245.796771,455.387426 C239.702323,468.671229 236.655099,475.31313 228.982221,487.28727 C224.288042,494.612318 224.243949,493.997128 221.63349,498.25219 C214.048798,510.614996 210.56481,522.097342 208.804046,529.902858 C207.197014,529.747272 205.014382,529.321051 202.700661,528.158032 C196.981604,525.282975 194.651199,520.010944 193.982049,518.314403 L211.419868,458.502718 C207.107635,457.885144 201.229484,456.638669 194.729257,453.891776 C165.667418,441.61183 145.116235,408.195472 152.754554,396.074092" id="Fill-44" fill="#37528A"></path>
                <path d="M129.96151,399.812561 C127.431492,406.136137 125.913243,411.573888 124.979532,415.513009 C123.252136,422.798713 122.129537,427.534242 122.737314,433.829801 C123.36237,440.305983 125.486012,444.993226 126.723016,447.662028 C127.91533,450.23426 131.451158,457.269 142.790358,467.47447 C147.248576,471.486317 151.884957,474.730965 160.975384,481.05633 C174.141488,490.217409 180.72454,494.798544 189.000428,499.748078 C194.890496,503.270515 199.983304,508.15388 206.188582,511.086761 C207.529265,511.72043 211.153876,513.359743 213.537313,517.067572 C214.900639,519.190333 215.453,521.358996 215.654996,522.301452 C216.166244,524.694253 215.933858,526.27157 215.779531,529.030386 C215.581706,532.567726 215.884998,531.403515 215.779531,538.126488 C215.660955,545.692962 215.286755,546.526329 215.405331,550.961417 C215.476239,553.592663 215.705644,555.623027 216.153135,559.683159 C216.883658,566.320292 217.360941,570.654636 218.644422,576.007143 C219.390438,579.121838 220.602415,583.384052 222.629528,588.34372 C227.736041,586.889798 232.84315,585.435876 237.949663,583.981955 C237.617769,563.421986 237.285876,542.862017 236.953386,522.301452 C237.149424,519.751873 237.197689,515.996951 236.330714,511.585112 C235.932084,509.557728 235.441096,507.902916 234.835703,506.102652 C232.094751,497.942449 228.549389,491.336314 228.109645,490.526792 C220.408761,476.315436 210.423353,464.85753 210.423353,464.85753 C201.449118,454.559663 200.433178,456.300315 189.000428,444.296965 C182.573491,437.550744 175.668675,430.2251 169.071323,419.500415 C163.021564,409.66692 159.37729,400.466498 157.114217,393.332802 C148.063116,395.492523 139.012015,397.65284 129.96151,399.812561" id="Fill-46" fill="#415F9E"></path>
                <path d="M267.31545,346.92903 L240.559586,356.194429 C239.768285,356.468641 238.903693,356.048977 238.629598,355.257337 L237.872261,353.066619 C237.598166,352.274383 238.017651,351.410614 238.808951,351.136402 L265.564816,341.871003 C266.356713,341.596791 267.220708,342.016455 267.494208,342.808094 L268.252141,344.998813 C268.526236,345.790452 268.106751,346.654818 267.31545,346.92903" id="Fill-48" fill="#B9BEC8"></path>
                <path d="M266.417609,298.754382 C267.198781,297.22833 268.66519,296.777072 272.48286,295.583056 C274.052353,295.091858 276.521593,294.318698 280.767686,292.981615 C287.529495,291.211753 292.672952,289.285709 296.173029,287.825229 C300.183757,286.150745 302.002319,285.437793 305.638847,284.011889 C305.638847,284.011889 308.146223,283.028301 313.820589,281.356201 C317.933209,280.144898 319.176172,279.961891 320.3089,280.627154 C322.101244,281.679295 322.558864,284.236624 322.884203,286.607369 C324.395898,297.631303 323.14221,305.384957 323.576592,312.962161 C323.711852,315.32456 323.66895,317.693517 323.89478,320.051744 C324.037787,321.544413 323.913848,323.044236 323.987734,324.541078 C324.037787,325.561625 324.095585,326.310344 323.669546,327.031046 C323.137443,327.930581 322.179898,328.231023 321.564375,328.414626 C318.964046,329.188978 316.896414,329.825031 315.757132,330.136203 C315.084407,330.319806 314.012456,330.697742 311.867363,331.453019 C309.127603,332.417531 308.210575,332.84256 305.728226,333.718251 C303.558703,334.484258 301.90281,335.052354 300.430442,335.544148 C293.424926,337.885088 287.988307,339.634682 285.821167,340.327366 C281.309917,341.76877 274.755467,343.985717 266.191183,347.292957 C266.107167,345.095682 265.996337,341.634644 265.962373,337.376602 C265.900999,329.605662 266.166157,328.845616 266.100612,320.728929 C266.039835,313.20776 266.009446,309.446877 266.004679,309.249564 C265.890274,304.432367 266.017192,307.306828 266.032684,303.974551 C266.052348,300.005625 266.049368,299.473891 266.417609,298.754382" id="Fill-50" fill="#D3D7DE"></path>
                <path d="M287.795189,306.830474 C286.254893,309.825946 287.272621,314.021396 290.260854,315.589175 C292.217656,316.61628 294.617181,316.305108 296.33683,315.181433 C298.768531,313.593386 299.589625,310.544263 298.956823,308.054296 C298.904983,307.847444 297.896194,304.130078 294.511714,303.373609 C291.670061,302.738748 288.945793,304.592662 287.795189,306.830474" id="Fill-52" fill="#FFFFFF"></path>
                <path d="M77.2797542,389.665867 C80.0356029,392.49562 82.7413993,394.148644 84.566516,395.086331 C86.5370222,396.099129 88.4783314,397.071986 91.230009,397.266916 C93.6497931,397.438597 95.6256621,396.932496 96.8346604,396.519389 C95.6036153,398.954514 94.3588655,401.741943 93.2225621,404.867964 C92.2840839,407.452118 91.5535606,409.899166 90.9809399,412.157245 C91.5946748,412.990612 92.474163,414.29789 93.2851273,416.020063 C94.6436862,418.904659 94.4851877,420.138018 95.9629184,425.303345 C97.0438069,429.083304 97.2654665,428.899701 97.8315327,431.471932 C98.4244126,434.165771 98.2837898,434.829246 99.014909,436.705216 C99.6566494,438.353471 100.406836,440.277727 102.252808,441.502145 C103.43678,442.287227 103.930151,442.027917 105.304798,442.997795 C106.571595,443.891369 107.266367,444.89761 107.920024,445.863314 C108.525417,446.757485 109.98408,448.964299 110.411311,452.156489 C110.62165,453.726057 110.704474,456.450297 109.788639,456.766834 C109.400734,456.90096 108.882933,456.586211 108.667828,456.455066 C108.023108,456.064016 107.728158,455.466709 107.546421,455.0846 C106.532864,452.953493 106.237914,451.624159 105.117699,450.349668 C104.769717,449.953848 104.559974,449.810781 104.370491,449.851316 C103.70015,449.994384 103.687637,452.354399 103.685253,452.841424 C103.678103,454.165989 103.662015,457.177556 105.740371,459.695542 C106.104441,460.13607 106.531672,460.345902 107.234786,461.128003 C108.366919,462.385804 108.245959,462.713666 108.880549,463.050471 C109.764804,463.520208 110.236725,463.009935 111.620906,463.611414 C112.239407,463.880261 112.508736,464.140167 112.586197,464.452531 C112.676172,464.816756 112.480134,465.147003 112.430678,465.231652 C112.071375,465.837303 111.175203,466.103766 110.157475,465.979178 C110.121128,466.22597 110.063926,466.572908 109.975738,466.984823 C109.770763,467.938009 109.686747,468.434572 109.415035,468.66646 C108.923451,469.087316 108.231063,469.039627 107.484451,468.978227 C106.311205,468.881657 105.443634,468.527565 105.180264,468.417284 C102.782527,467.417601 101.583658,466.916866 101.007462,466.548467 C97.7975688,464.495451 96.3788281,461.026068 96.0254836,460.131301 C94.9964348,457.525091 94.6597744,454.436029 94.343969,451.53355 C94.2903417,451.04116 94.1628278,449.780975 93.5967616,448.231079 C93.1564217,447.027525 92.643387,446.175082 92.4133853,445.801318 C89.0551231,440.349261 85.2511581,435.707918 85.2511581,435.707918 C81.4799655,431.106514 79.0548187,428.146809 77.0932503,423.807696 C76.6964081,422.932004 74.9130016,418.887967 74.1657942,413.21654 C73.4835355,408.035117 74.0031247,404.055461 74.4148633,401.067142 C74.8218351,398.112801 75.617903,394.159374 77.2797542,389.665867" id="Fill-54" fill="#815122"></path>
                <path d="M121.616264,320.188313 C124.979889,330.020616 135.272165,333.92099 141.793843,330.655478 C146.554162,328.272214 149.432758,322.007057 148.519902,315.328793 C150.398646,315.923715 152.923301,316.817885 155.806663,318.132317 C157.683024,318.98774 163.340707,321.606468 168.510977,325.795361 C179.679165,334.846159 181.296327,345.337167 187.754248,346.729689 C188.462129,346.881698 191.202485,347.351436 192.985296,349.533809 C193.523357,350.191323 194.375435,351.233926 194.293803,352.523917 C194.169268,354.483343 192.018217,354.997789 187.941348,358.691907 C186.353979,360.130926 185.402392,360.992907 184.391815,362.430138 C182.424884,365.227104 183.018956,366.241094 181.40239,368.784712 C179.241209,372.186138 176.040253,373.740207 175.049935,374.205772 C172.26906,375.513646 169.702099,375.71394 168.137373,375.700826 C168.542557,378.069782 169.154505,379.899256 169.631788,381.12129 C171.089259,384.852367 172.668882,386.439222 174.115628,390.840331 C175.179832,394.077229 174.910504,394.998225 174.489232,395.513268 C173.678863,396.504009 171.983048,396.385979 170.191895,396.260795 C167.300787,396.059308 166.342049,395.261708 164.21364,394.952921 C161.378542,394.541602 159.07793,395.377354 157.674682,395.887031 C152.577107,397.739753 152.811875,400.84193 147.959198,402.615965 C145.407133,403.549479 142.992712,403.550076 140.859536,403.550672 C136.649195,403.55246 135.478332,402.56768 132.639659,403.363492 C130.7919,403.881515 130.956953,404.391192 127.408015,406.167016 C123.813793,407.966684 122.016682,408.866219 120.495453,408.597372 C116.655737,407.918398 114.747796,401.621647 114.142999,399.625858 C112.525241,394.286465 113.841494,391.658199 111.340673,386.16799 C110.410537,384.126896 109.20571,382.24556 108.538347,382.42976 C107.244737,382.786832 109.652008,390.420071 105.735426,394.579157 C105.028737,395.329665 104.235648,395.839938 103.867407,396.074211 C101.606718,397.512038 99.5736462,397.641991 96.7677454,397.943624 C89.0007211,398.777588 89.1383646,399.43689 87.4264612,398.877735 C85.0465997,398.100402 85.6954903,397.123968 81.6341142,394.579157 C77.9588549,392.275177 76.6288972,392.574426 74.1608486,390.279984 C73.0948565,389.288646 73.3880192,389.27434 70.9849192,386.354574 C67.1535448,381.700116 66.3795237,381.700712 66.1274753,380.373763 C65.8861523,379.104636 66.1918281,376.983663 72.6664338,371.027889 C77.2599121,366.803229 79.5754208,365.599675 82.0083138,363.551428 C88.286286,358.266878 86.4552108,354.8428 93.4047162,343.92557 C95.8370133,340.105672 100.155801,333.448271 107.790544,327.664774 C113.057939,323.674984 118.127509,321.446114 121.616264,320.188313" id="Fill-56" fill="#E56744"></path>
                <path d="M184.266983,359.315264 C185.101781,359.619878 186.447231,359.968008 188.003615,359.689027 C188.93971,359.521519 189.610052,359.187695 190.993041,358.442553 C193.290674,357.20502 194.438894,356.586254 195.227812,356.074788 C198.68737,353.8334 202.597398,352.269197 213.288303,346.231159 C213.288303,346.231159 219.021064,342.993069 226.117151,338.13176 C226.669513,337.753227 227.313636,337.30495 228.109704,336.636706 C230.94659,334.255827 231.560325,332.571209 233.714951,330.156948 C236.060849,327.528085 238.42641,326.058664 239.07113,325.67119 C239.735513,325.271794 242.436542,323.696265 246.419861,322.929663 C246.419861,322.929663 252.062647,321.843543 255.761145,323.926961 C255.867804,323.986573 256.175863,324.160042 256.228298,324.455714 C256.297418,324.848553 255.895213,325.332598 255.418526,325.484011 C255.019896,325.610387 254.66536,325.473281 254.546784,325.422015 C254.963289,325.592503 255.554382,325.891156 256.134748,326.418717 C256.529803,326.777578 257.151284,327.342694 257.00649,327.727187 C256.859313,328.118238 255.991146,328.12718 255.44951,328.131949 C254.524737,328.14089 254.069501,327.932251 253.176308,327.789183 C252.66804,327.708112 251.927387,327.633001 250.996655,327.695593 C252.083502,328.088432 252.889104,328.554593 253.425377,328.910473 C254.120149,329.371866 254.820283,329.845776 254.733884,330.281535 C254.66536,330.623705 254.1416,330.788828 253.861546,330.873477 C252.663273,331.235914 251.5657,330.865131 251.15277,330.748889 C249.547525,330.29465 248.085883,330.783463 246.232761,331.402826 C243.514451,332.311899 240.733577,334.533616 241.094667,335.763995 C241.259124,336.324342 242.036721,336.549077 242.340609,336.636706 C243.000821,336.826866 243.957771,336.838789 247.011549,335.234646 C248.905189,334.239732 249.816258,333.563739 250.312013,333.926176 C250.629606,334.15866 250.605175,334.692182 250.592067,334.922878 C250.52533,336.084108 249.676827,337.645927 244.317669,341.26255 C241.258529,343.326892 239.702144,344.359958 238.385891,344.439837 C236.91829,344.528658 235.805225,344.09111 233.948528,344.673514 C232.623337,345.089601 231.749808,345.764998 231.28623,346.122071 C228.637636,348.164953 225.789429,349.963429 223.299333,352.197067 C220.385582,354.809835 217.284135,357.206213 214.28458,359.720025 C206.873879,365.930936 208.452906,364.482379 203.728339,368.458459 C203.032971,369.043247 199.958338,371.633958 196.274737,374.389792 C195.696753,374.822571 195.283227,375.124801 195.134262,375.233294 C192.759763,376.966197 190.522312,378.598953 188.781808,379.532467 C187.696748,380.11487 183.911851,382.079662 179.113993,381.448377 C178.197561,381.327962 175.658605,380.904125 172.948042,379.158704 C170.436496,377.541447 168.988558,375.568906 168.277102,374.43927 C173.607062,369.397934 178.937022,364.356599 184.266983,359.315264" id="Fill-58" fill="#815122"></path>
                <path d="M146.990867,273.871276 C143.239338,276.729046 138.278215,275.548144 135.42107,279.583239 C133.453543,282.36113 135.172597,287.291588 132.496593,289.952641 C131.541431,290.90225 129.27657,287.606933 128.044333,290.087959 C127.111218,291.966314 128.20164,293.413678 128.720038,295.145985 C129.570329,297.984084 133.565564,309.345419 126.891942,310.507245 C123.813138,311.042555 124.745061,308.221148 122.30621,306.487649 C119.364453,304.395885 115.848288,304.751169 113.033449,302.2153 C107.095117,296.865774 106.331821,288.244774 106.0327,280.985299 C105.701402,272.955645 99.7731994,274.156814 95.8917728,280.370706 C93.0340322,284.945284 92.7212062,293.267034 85.8825305,292.884925 C77.8175767,292.435455 79.4847906,281.906295 70.2734038,283.264839 C63.651025,284.241273 61.2497126,287.589645 56.1449871,280.963839 C52.3737944,276.069744 50.9127477,269.13217 43.2583409,270.119931 C38.1226307,270.782213 33.5952928,275.155305 30.2727821,267.723553 C27.6140585,261.777913 31.0587203,256.385466 36.8379584,259.294502 C38.8460037,260.305511 38.5975305,263.451801 41.5404789,262.936162 C44.0055483,262.505172 44.7277296,258.712099 45.7383067,256.932103 C48.3630664,252.311028 51.8351377,249.545655 57.4207216,250.054736 C65.0060087,250.745632 67.5253013,257.652804 73.8574967,259.892404 C81.0691802,262.44258 86.4563429,256.386062 92.1724199,253.366149 C98.4259618,250.06189 108.973861,248.770707 112.04909,256.728232 C113.484515,260.441425 111.595045,265.183511 116.631247,266.431774 C119.483625,267.138765 123.87034,263.978765 127.058782,264.073547 C130.408703,264.173098 132.472163,266.220154 135.055808,263.701572 C137.108543,261.701014 134.402151,258.362776 138.343163,256.905278 C145.790807,254.150635 153.373115,269.009967 146.990867,273.871276 C145.96301,274.653973 147.655846,273.364579 146.990867,273.871276" id="Fill-60" fill="#020C1F"></path>
                <polygon id="Fill-62" fill="#D3D7DE" points="98.257572 681.47114 95.0911764 717.375081 66.9433852 717.375081 63.4248369 681.47114"></polygon>
                <path d="M53.7930714,638.615557 C76.9708012,664.543531 74.1124648,620.907397 70.6815077,613.337942 C67.6628852,606.676965 59.3303906,588.386402 52.2098736,584.891982 C30.3990446,574.188161 44.1210854,627.797281 53.7930714,638.615557 C54.027244,638.877251 50.2709478,634.676436 53.7930714,638.615557" id="Fill-66" fill="#A3B770"></path>
                <path d="M104.672651,595.890403 C77.6867856,625.548263 71.1829828,578.945865 76.1053754,564.189661 C80.4104579,551.282007 95.0084116,537.516544 105.455015,528.004354 C124.617845,510.556696 126.761747,513.984947 120.034497,541.10515 C116.97476,553.438747 114.185543,585.436949 104.672651,595.890403 C104.340758,596.254629 109.657013,590.413308 104.672651,595.890403" id="Fill-68" fill="#A3B770"></path>
                <path d="M51.4180363,597.168173 C55.7892592,604.828833 60.2689284,614.035813 64.0848105,624.755729 C71.304836,645.043274 73.5118984,663.351721 73.9802437,677.027766" id="Stroke-70" stroke="#ECEDF4" stroke-width="1.11292044"></path>
                <path d="M113.299262,536.976405 C104.874409,551.780298 95.1035107,572.482738 88.4942408,598.488208 C80.59434,629.568395 80.1778344,656.543146 81.3689569,675.311793" id="Stroke-72" stroke="#ECEDF4" stroke-width="1.11292044"></path>
                <path d="M89.6373966,663.871234 C109.421709,666.968642 115.763438,605.463993 100.016667,609.136054 C90.7349692,611.30114 68.3443693,660.537169 89.6373966,663.871234 C94.0455628,664.561534 87.2766026,663.501643 89.6373966,663.871234" id="Fill-74" fill="#A3B770"></path>
                <path d="M99.0492305,625.944082 C96.7235922,631.358585 94.4527729,637.168907 92.320193,643.367896 C88.2087647,655.319384 85.3486407,666.568649 83.3483415,676.76339" id="Stroke-76" stroke="#ECEDF4" stroke-width="1.11292044"></path>
                <path d="M71.5370423,546.083476 C71.952952,546.990165 72.4773081,548.26883 72.921819,549.849724 C73.340708,551.339412 74.3429431,554.90477 73.7441047,558.594715 C73.4372372,560.4838 73.0034517,560.601234 70.671259,565.478042 C68.3116566,570.413269 67.1312596,572.880585 66.5175247,575.825388 C65.8036854,579.244101 66.0462001,581.900981 66.3012278,584.699735 C66.7862572,590.027205 68.2079772,593.926387 69.4163795,597.168054 C71.2951235,602.206409 72.2341975,604.726182 74.3489017,607.310336 C78.7397879,612.677746 85.8829476,616.017772 87.6067682,614.389189 C88.0149317,614.003503 88.2788973,613.186231 87.755733,611.334105" id="Stroke-78" stroke="#E56744" stroke-width="1.03844771"></path>
                <path d="M68.8541864,547.079523 C69.6264199,547.025276 70.4814778,547.002624 71.407443,547.036006 C72.422787,547.072369 73.3505397,547.170132 74.1769964,547.295912 C74.3664796,547.117078 74.631041,546.819021 74.7823893,546.386838 C74.8789185,546.111434 74.9861731,545.622024 74.5660924,544.308785 C74.411169,543.822952 73.7551281,541.88439 72.6623224,541.234626 C72.2893145,541.012871 71.9907891,541.016448 71.9264363,541.018236 C71.5659415,541.029563 71.3001883,541.211377 71.1476484,541.321658 C69.1777379,542.741006 68.4209968,544.135912 68.4209968,544.135912 C67.9979368,544.915629 67.7679352,545.356157 67.9020035,545.910543 C68.0593103,546.557923 68.61048,546.934667 68.8541864,547.079523" id="Fill-80" fill="#E56744"></path>
                <path d="M100.882213,507.876866 C98.7681042,522.373164 87.0779432,541.749251 69.6115234,541.754616 C51.9240399,541.759981 38.4331925,521.898658 38.4331925,504.263223 C38.4331925,483.557803 52.3923852,466.773023 69.6115234,466.773023 C75.9735117,466.773023 81.9207821,470.077283 81.9207821,470.077283 C84.9495342,471.512129 89.6991277,474.267367 93.784934,479.303934 C103.332981,491.072415 101.24092,505.415512 100.882213,507.876866" id="Fill-82" fill="#CC5433"></path>
                <path d="M94.6507173,515.33294 C92.7874657,512.931197 88.7630329,513.333574 87.5540347,513.428356 C80.3608228,513.988107 77.575777,520.338508 74.3778009,519.149857 C71.2215349,517.976705 72.9942159,511.887997 68.9596535,509.238867 C67.0826971,508.0067 64.5610211,508.159305 59.5176691,508.465111 C55.6654396,508.697596 55.3859817,509.247809 52.8613264,509.084474 C51.3853832,508.987903 47.5653301,508.73992 44.502614,506.297045 C40.5949696,503.178773 39.9466748,498.105248 39.5492367,494.992341 C39.5301692,494.841524 39.5152728,494.691303 39.4979928,494.540486 C38.8067962,497.642067 38.4331925,500.89983 38.4331925,504.2637 C38.4331925,521.899134 51.9240399,541.759862 69.6115234,541.754497 C79.6916729,541.751516 87.8418346,535.292622 93.3439982,527.04777 C94.0137439,525.953901 94.9587765,524.107736 95.3431057,521.654132 C95.6410353,519.75372 96.0509864,517.137376 94.6507173,515.33294" id="Fill-84" fill="#E56744"></path>
                <path d="M84.976765,611.040638 C83.889322,611.082962 83.0872956,610.396835 83.0449896,609.701766 C83.0116215,609.146188 83.4656662,608.645453 83.9048144,608.423698 C84.6901567,608.027879 85.5440229,608.467214 85.8800875,608.640088 C87.3339839,609.387614 87.7111627,611.064483 87.7838575,611.424536" id="Stroke-86" stroke="#E56744" stroke-width="1.03844771"></path>
            </g>
        </g>
    </g>
</svg>