<?xml version="1.0" encoding="UTF-8"?>
<svg width="38px" height="42px" viewBox="0 0 38 42" version="1.1" xmlns="http://www.w3.org/2000/svg" xmlns:xlink="http://www.w3.org/1999/xlink">
    <title>Group 6</title>
    <defs>
        <rect id="path-1" x="0" y="0" width="37.792723" height="41.5854504" rx="6.71999949"></rect>
    </defs>
    <g id="Icons" stroke="none" stroke-width="1" fill="none" fill-rule="evenodd">
        <g id="Group-6">
            <g id="Group-4">
                <mask id="mask-2" fill="white">
                    <use xlink:href="#path-1"></use>
                </mask>
                <use id="Rectangle-33" fill="#03256C" xlink:href="#path-1"></use>
            </g>
            <g id="Group-5" transform="translate(8.000000, 13.000000)" fill="#7D90B4">
                <path d="M11.25,15 C11.6642136,15 12,15.3357864 12,15.75 C12,16.1642136 11.6642136,16.5 11.25,16.5 L9.75,16.5 C9.33578644,16.5 9,16.1642136 9,15.75 C9,15.3357864 9.33578644,15 9.75,15 L11.25,15 Z M22.25,15 C22.6642136,15 23,15.3357864 23,15.75 C23,16.1642136 22.6642136,16.5 22.25,16.5 L14.75,16.5 C14.3357864,16.5 14,16.1642136 14,15.75 C14,15.3357864 14.3357864,15 14.75,15 L22.25,15 Z M11.25,12 C11.6642136,12 12,12.3357864 12,12.75 C12,13.1642136 11.6642136,13.5 11.25,13.5 L9.75,13.5 C9.33578644,13.5 9,13.1642136 9,12.75 C9,12.3357864 9.33578644,12 9.75,12 L11.25,12 Z M22.25,12 C22.6642136,12 23,12.3357864 23,12.75 C23,13.1642136 22.6642136,13.5 22.25,13.5 L14.75,13.5 C14.3357864,13.5 14,13.1642136 14,12.75 C14,12.3357864 14.3357864,12 14.75,12 L22.25,12 Z M6.70011334,4.15348874 C7.03916143,4.39932863 7.09981682,4.85609625 6.83542153,5.17466985 L4.34699519,8.16547948 L6.80587146,10.7940753 C7.08892996,11.0951928 7.05626936,11.5548698 6.73277394,11.8196204 C6.58502363,11.9403584 6.40305745,12 6.22109127,12 C6.00490924,12 5.79028246,11.9156289 5.63631108,11.7512508 L3.37495365,9.33503733 L1.39198891,11.7207026 C1.23801753,11.9039915 1.0078381,12 0.777658661,12 C0.611245149,12 0.443276372,11.9505411 0.300191857,11.8472592 C-0.0388562313,11.5999647 -0.0995116233,11.143197 0.163328409,10.8260781 L2.33136985,8.21930241 L0.192878471,5.93255497 C-0.0901800246,5.63143746 -0.0575194289,5.1717605 0.265975995,4.90700984 C0.587916152,4.64225918 1.07782509,4.67135266 1.36399412,4.97537952 L3.30496666,7.04974456 L5.60831629,4.28004537 C5.87271159,3.96438112 6.36106525,3.90619416 6.70011334,4.15348874 Z M11.25,9 C11.6642136,9 12,9.33578644 12,9.75 C12,10.1642136 11.6642136,10.5 11.25,10.5 L9.75,10.5 C9.33578644,10.5 9,10.1642136 9,9.75 C9,9.33578644 9.33578644,9 9.75,9 L11.25,9 Z M22.25,9 C22.6642136,9 23,9.33578644 23,9.75 C23,10.1642136 22.6642136,10.5 22.25,10.5 L14.75,10.5 C14.3357864,10.5 14,10.1642136 14,9.75 C14,9.33578644 14.3357864,9 14.75,9 L22.25,9 Z M11.25,6 C11.6642136,6 12,6.33578644 12,6.75 C12,7.16421356 11.6642136,7.5 11.25,7.5 L9.75,7.5 C9.33578644,7.5 9,7.16421356 9,6.75 C9,6.33578644 9.33578644,6 9.75,6 L11.25,6 Z M22.25,6 C22.6642136,6 23,6.33578644 23,6.75 C23,7.16421356 22.6642136,7.5 22.25,7.5 L14.75,7.5 C14.3357864,7.5 14,7.16421356 14,6.75 C14,6.33578644 14.3357864,6 14.75,6 L22.25,6 Z M11.25,3 C11.6642136,3 12,3.33578644 12,3.75 C12,4.16421356 11.6642136,4.5 11.25,4.5 L9.75,4.5 C9.33578644,4.5 9,4.16421356 9,3.75 C9,3.33578644 9.33578644,3 9.75,3 L11.25,3 Z M22.25,3 C22.6642136,3 23,3.33578644 23,3.75 C23,4.16421356 22.6642136,4.5 22.25,4.5 L14.75,4.5 C14.3357864,4.5 14,4.16421356 14,3.75 C14,3.33578644 14.3357864,3 14.75,3 L22.25,3 Z M11.25,0 C11.6642136,-7.6089797e-17 12,0.335786438 12,0.75 C12,1.16421356 11.6642136,1.5 11.25,1.5 L9.75,1.5 C9.33578644,1.5 9,1.16421356 9,0.75 C9,0.335786438 9.33578644,7.6089797e-17 9.75,0 L11.25,0 Z M22.25,0 C22.6642136,-7.6089797e-17 23,0.335786438 23,0.75 C23,1.16421356 22.6642136,1.5 22.25,1.5 L14.75,1.5 C14.3357864,1.5 14,1.16421356 14,0.75 C14,0.335786438 14.3357864,7.6089797e-17 14.75,0 L22.25,0 Z" id="Combined-Shape"></path>
            </g>
        </g>
    </g>
</svg>