<?xml version="1.0" encoding="UTF-8"?>
<svg width="38px" height="42px" viewBox="0 0 38 42" version="1.1" xmlns="http://www.w3.org/2000/svg" xmlns:xlink="http://www.w3.org/1999/xlink">
    <title>Group 40</title>
    <g id="Icons" stroke="none" stroke-width="1" fill="none" fill-rule="evenodd">
        <g id="Group-40">
            <g id="Group-39-Copy-2" fill="#03256C">
                <rect id="Rectangle-33" x="-1.03028697e-13" y="1.77635684e-14" width="37.792723" height="41.5854504" rx="6.71999949"></rect>
            </g>
            <path d="M22.7902409,18.4197587 C23.2166698,18.5582089 23.536338,18.8205973 23.7152957,19.2180419 C24.8449088,21.7268231 25.9792489,24.2336734 27.0945576,26.7482478 C27.5679514,27.8157072 26.7193296,29.0227872 25.4857186,28.9996731 C23.0361773,28.9538547 20.5851627,28.9861558 18.1347005,28.9859217 C15.6434127,28.9856877 13.1521863,28.9900179 10.6609599,28.9835811 C9.6533942,28.9810064 8.92221535,28.2709662 9.00662936,27.3520804 C9.03407159,27.0537043 9.14224432,26.7340282 9.30787996,26.4798907 C10.43295,24.7536517 11.5806736,23.0406959 12.7268625,21.3270379 C13.1285504,20.7264822 13.7042847,20.43466 14.4601431,20.499672 C14.8471583,20.5329094 15.1570652,20.7061185 15.3981516,20.9922645 C15.6474646,21.2880658 15.896225,21.5843938 16.1393374,21.8847594 C16.8628422,22.7788342 18.1309556,22.7604015 18.8090304,21.8312752 C19.4790628,20.9132086 20.1278536,19.9810395 20.7924221,19.0592279 C21.245004,18.4312865 22.0446963,18.1775586 22.7902409,18.4197587 Z M25.6184235,13 C26.8795382,12.999883 28.0164569,14.0904564 27.9998196,15.2842532 C27.9833666,16.4730175 26.8493334,17.5411206 25.6088464,17.5363964 C24.3209034,17.5315238 23.2284939,16.4685702 23.2325346,15.2242152 C23.2365363,14.0209973 24.3315856,13.000117 25.6184235,13 Z" id="Combined-Shape" fill="#7D90B4"></path>
        </g>
    </g>
</svg>