<?xml version="1.0" encoding="UTF-8"?>
<svg width="38px" height="42px" viewBox="0 0 38 42" version="1.1" xmlns="http://www.w3.org/2000/svg" xmlns:xlink="http://www.w3.org/1999/xlink">
    <title>Group 39 Copy</title>
    <g id="Icons" stroke="none" stroke-width="1" fill="none" fill-rule="evenodd">
        <g id="Group-39-Copy">
            <rect id="Rectangle-33" fill="#03256C" x="-1.03028697e-13" y="1.77635684e-14" width="37.792723" height="41.5854504" rx="6.71999949"></rect>
            <path d="M12.7303575,29.5818182 C12.1980892,29.5818182 11.779874,29.2756049 11.5897647,29.0842137 C10.9434435,28.3187122 10.9434435,27.6680329 11.0574964,27.2469975 C11.1335528,26.8642151 11.3616587,26.5197489 11.7038176,26.2901049 C12.1980892,25.9073224 13.5667249,24.9504933 15.5817448,24.1084226 C16.6462812,22.1563845 17.3686588,20.5870653 17.8628672,19.3240229 C17.0264367,17.7164508 16.7222745,16.415092 16.6462812,15.7644127 C16.5702249,15.2285553 16.6082846,14.692698 16.7603342,14.2334098 C17.1405528,13.0086202 17.9769202,12.9703039 18.3190791,13.0086202 C18.3951355,13.0086202 19.7257745,13.2000115 19.9538804,15.1137333 C19.9538804,15.1903025 20.10593,16.415092 19.0794533,19.2857065 C19.7257745,20.395674 20.6381982,21.6205271 22.0449567,22.8070639 C23.3755957,22.8070639 24.8203507,22.9218859 26.3410991,23.3046684 C26.683258,23.3812376 26.9874203,23.5725653 27.2155262,23.8405257 C27.5957448,24.2615611 27.6717381,24.7974184 27.4816287,25.3332758 L27.4816287,25.3332758 C27.4816287,25.3332758 27.4055724,25.6011727 27.1774665,25.8691331 C26.7592512,26.4432433 25.9608804,26.6346345 25.3145592,26.2901684 C23.8698673,25.524667 22.6532181,24.7209127 21.664738,23.8788421 C19.6497181,23.9554113 17.8628672,24.4146995 16.4181122,24.9888096 C15.771791,26.1753464 14.9734202,27.4767052 14.0609333,28.9311388 C13.870824,29.1990357 13.6427181,29.4287433 13.3385558,29.5435654 L13.3385558,29.5435654 C13.0725164,29.5435018 12.882407,29.5818182 12.7303575,29.5818182 Z M14.5932647,25.7159947 C13.4526719,26.3284212 12.6543011,26.8642786 12.3501388,27.1321755 C12.2360859,27.2469975 12.1220329,27.3618196 12.1220329,27.4766416 C12.0459765,27.7445385 12.1600295,28.012499 12.4261952,28.3187122 C12.4261952,28.3187122 12.6543011,28.5101035 12.882407,28.4335343 L12.882407,28.4335343 C12.9584634,28.3952814 13.0344566,28.3569651 13.0725164,28.242143 C13.6047846,27.3618196 14.1370528,26.5197489 14.5932647,25.7159947 Z M23.451652,23.8787786 C24.1359698,24.3380667 24.896344,24.8356712 25.7327745,25.2567065 C25.8848241,25.3332758 26.0749334,25.2949594 26.1889864,25.1418845 C26.3030393,24.9888096 26.3410359,24.8739876 26.3410359,24.8739876 C26.4170923,24.6825964 26.4170923,24.6060907 26.3030393,24.4912051 C26.226983,24.4146359 26.11293,24.3381303 25.9608804,24.2998139 C25.124513,24.0701698 24.2880825,23.9553478 23.451652,23.8787786 Z M18.5091884,20.4723068 C18.1289698,21.3526302 17.6727579,22.3477757 17.0644965,23.4960596 C18.0910363,23.1898464 19.1935694,22.9219494 20.4101554,22.8071274 C19.6497812,22.0033096 19.00346,21.1994918 18.5091884,20.4723068 Z M18.1290329,14.0420186 C17.9769833,14.0420186 17.8629304,14.1950934 17.7488143,14.5396231 C17.6347613,14.8458364 17.6347613,15.1903025 17.6727579,15.573085 C17.7488143,16.0323731 17.9008639,16.7978745 18.3190791,17.79302 C18.889344,15.9558039 18.8133507,15.1903025 18.8133507,15.1903025 C18.6992978,14.1568406 18.1670295,14.0420186 18.1290329,14.0420186 L18.1290329,14.0420186 Z" id="Shape" fill="#B3BED3" fill-rule="nonzero" opacity="0.701009115"></path>
        </g>
    </g>
</svg>