<?xml version="1.0" encoding="UTF-8"?>
<svg width="38px" height="42px" viewBox="0 0 38 42" version="1.1" xmlns="http://www.w3.org/2000/svg" xmlns:xlink="http://www.w3.org/1999/xlink">
    <title>Group</title>
    <g id="Icons" stroke="none" stroke-width="1" fill="none" fill-rule="evenodd">
        <g id="Group-3">
            <rect id="Rectangle-33" fill="#03256C" x="0" y="0" width="37.792723" height="41.5854504" rx="6.71999949"></rect>
            <path d="M24.2499686,28.8 C24.6641451,28.8 24.9999297,29.1272023 24.9999297,29.5307929 C24.9999297,29.9344521 24.6642154,30.2615859 24.2500389,30.2615859 L13.7508642,30.2615859 C13.3366877,30.2615859 13.0009031,29.9343836 13.0009031,29.5307929 C13.0009031,29.1272023 13.3366877,28.8 13.7508642,28.8 L24.2499686,28.8 Z M24.2499686,26.5 C24.6641451,26.5 24.9999297,26.8272023 24.9999297,27.2307929 C24.9999297,27.6344521 24.6642154,27.9615859 24.2500389,27.9615859 L13.7508642,27.9615859 C13.3366877,27.9615859 13.0009031,27.6343836 13.0009031,27.2307929 C13.0009031,26.8272023 13.3366877,26.5 13.7508642,26.5 L24.2499686,26.5 Z M24.2499686,24.1537935 C24.6641451,24.1537935 24.9999297,24.4809958 24.9999297,24.8845864 C24.9999297,25.2546073 24.7178364,25.5603256 24.3517995,25.6087091 L24.2500389,25.6153793 L24.2500389,25.6153793 L13.7508642,25.6153793 C13.3366877,25.6153793 13.0009031,25.288177 13.0009031,24.8845864 C13.0009031,24.4809958 13.3366877,24.1537935 13.7508642,24.1537935 L24.2499686,24.1537935 Z M17.5005996,12.5361244 L17.5005996,16.1154136 C17.5005996,17.3261855 18.5078831,18.3077239 19.7504127,18.3077239 L19.7504127,18.3077239 L23.4235841,18.3077239 C23.0953926,20.5556641 21.2827463,22.3219812 18.9758442,22.6417844 C16.112043,23.0387296 13.4602165,21.0983294 13.0528597,18.3077239 C12.6455029,15.5171184 14.6367984,12.9330696 17.5005996,12.5361244 L17.5005996,12.5361244 Z M19.7504127,11 C22.6496484,11 24.9999297,13.2902792 25,16.1154136 C25,16.5190042 24.6642154,16.8462065 24.2500389,16.8462065 L24.2500389,16.8462065 L19.7504127,16.8462065 C19.3362361,16.8462065 19.0004515,16.5190042 19.0004515,16.1154136 L19.0004515,16.1154136 L19.0004515,11.7307929 C19.0004515,11.3272023 19.3362361,11 19.7504127,11 Z" id="Combined-Shape" fill="#7D90B4" fill-rule="nonzero"></path>
        </g>
    </g>
</svg>