<?xml version="1.0" encoding="UTF-8"?>
<svg width="38px" height="42px" viewBox="0 0 38 42" version="1.1" xmlns="http://www.w3.org/2000/svg" xmlns:xlink="http://www.w3.org/1999/xlink">
    <title>Group 41</title>
    <g id="Icons" stroke="none" stroke-width="1" fill="none" fill-rule="evenodd">
        <g id="Group-41">
            <g id="Group-39-Copy-2" fill="#03256C">
                <rect id="Rectangle-33" x="-1.03028697e-13" y="1.77635684e-14" width="37.792723" height="41.5854504" rx="6.71999949"></rect>
            </g>
            <path d="M27.5250966,26.9999712 C27.7873686,26.9999712 28,27.2238456 28,27.4999856 C28,27.7761724 27.7873686,28 27.5250966,28 L19.9268648,28 C19.6645927,28 19.4519614,27.7761255 19.4519614,27.4999856 C19.4519614,27.2238456 19.6645927,26.9999712 19.9268648,26.9999712 L27.5250966,26.9999712 Z M9.92758154,18.3349607 C9.93038635,18.344242 9.93292404,18.3536169 9.93523912,18.3630388 L11.3788707,23.6800104 L12.8225467,18.3620544 C12.9268145,18.0966957 13.2156654,17.9705554 13.4677422,18.0803363 C13.5889278,18.1331175 13.6851818,18.234461 13.7353122,18.3620544 L15.1780088,23.6800573 L16.6216849,18.3630857 C16.6900243,18.09993 16.9480669,17.9449148 17.1980067,18.0168677 L17.2086472,18.0200552 C17.4606349,18.0960863 17.6064405,18.372695 17.5344059,18.6380538 L15.6348368,25.6380213 C15.5763365,25.8525208 15.3899279,26.0002236 15.1780088,26.0000362 C14.9664015,25.9998017 14.7805271,25.8521458 14.7221158,25.6380213 L13.2784398,20.3200185 L11.8347637,25.6380213 C11.730496,25.90338 11.441645,26.0295204 11.1895682,25.9197394 C11.0683826,25.8669583 10.9721286,25.7656147 10.9219982,25.6380213 L9.02247362,18.6380538 C8.94295947,18.3748981 9.08115204,18.0937426 9.33109183,18.010024 C9.58103161,17.9263055 9.84806739,18.0718051 9.92758154,18.3349607 Z M27.5250966,23.9999784 C27.7873686,23.9999784 28,24.2238528 28,24.4999928 C28,24.7761796 27.7873686,25.0000072 27.5250966,25.0000072 L19.9268648,25.0000072 C19.6645927,25.0000072 19.4519614,24.7761327 19.4519614,24.4999928 C19.4519614,24.2238528 19.6645927,23.9999784 19.9268648,23.9999784 L27.5250966,23.9999784 Z M27.5250966,20.9999856 C27.7873686,20.9999856 28,21.22386 28,21.5 C28,21.7761868 27.7873686,22.0000144 27.5250966,22.0000144 L19.9268648,22.0000144 C19.6645927,22.0000144 19.4519614,21.77614 19.4519614,21.5 C19.4519614,21.22386 19.6645927,20.9999856 19.9268648,20.9999856 L27.5250966,20.9999856 Z M27.5250966,17.9999928 C27.7873686,17.9999928 28,18.2238673 28,18.5000072 C28,18.7761472 27.7873686,19.0000216 27.5250966,19.0000216 L19.9268648,19.0000216 C19.6645927,19.0000216 19.4519614,18.7761472 19.4519614,18.5000072 C19.4519614,18.2238673 19.6645927,17.9999928 19.9268648,17.9999928 L27.5250966,17.9999928 Z M27.5250966,15 C27.7873686,15 28,15.2238745 28,15.5000144 C28,15.7762013 27.7873686,16.0000288 27.5250966,16.0000288 L19.9268648,16.0000288 C19.6645927,16.0000288 19.4519614,15.7761544 19.4519614,15.5000144 C19.4519614,15.2238745 19.6645927,15 19.9268648,15 L27.5250966,15 Z" id="Combined-Shape-Copy" fill="#7D90B4"></path>
        </g>
    </g>
</svg>